<svg width="48" height="48" viewBox="0 0 48 48" fill="none" xmlns="http://www.w3.org/2000/svg">
<path d="M35.5 6C39.0899 6 42 8.91015 42 12.5V35.5C42 39.0899 39.0899 42 35.5 42H12.5C8.91015 42 6 39.0899 6 35.5V12.5C6 8.91015 8.91015 6 12.5 6H35.5ZM39 17H9V35.5C9 37.433 10.567 39 12.5 39H35.5C37.433 39 39 37.433 39 35.5V17ZM15.5 29C16.8807 29 18 30.1193 18 31.5C18 32.8807 16.8807 34 15.5 34C14.1193 34 13 32.8807 13 31.5C13 30.1193 14.1193 29 15.5 29ZM24 29C25.3807 29 26.5 30.1193 26.5 31.5C26.5 32.8807 25.3807 34 24 34C22.6193 34 21.5 32.8807 21.5 31.5C21.5 30.1193 22.6193 29 24 29ZM15.5 21C16.8807 21 18 22.1193 18 23.5C18 24.8807 16.8807 26 15.5 26C14.1193 26 13 24.8807 13 23.5C13 22.1193 14.1193 21 15.5 21ZM24 21C25.3807 21 26.5 22.1193 26.5 23.5C26.5 24.8807 25.3807 26 24 26C22.6193 26 21.5 24.8807 21.5 23.5C21.5 22.1193 22.6193 21 24 21ZM32.5 21C33.8807 21 35 22.1193 35 23.5C35 24.8807 33.8807 26 32.5 26C31.1193 26 30 24.8807 30 23.5C30 22.1193 31.1193 21 32.5 21ZM35.5 9H12.5C10.567 9 9 10.567 9 12.5V14H39V12.5C39 10.567 37.433 9 35.5 9Z" fill="white"/>
</svg>
