<svg width="28" height="28" viewBox="0 0 28 28" fill="none" xmlns="http://www.w3.org/2000/svg">
<path d="M10.7917 2.33325C11.2749 2.33325 11.6667 2.725 11.6667 3.20825V6.12492C11.6667 6.60817 11.2749 6.99992 10.7917 6.99992C10.3084 6.99992 9.91669 6.60817 9.91669 6.12492V3.20825C9.91669 2.725 10.3084 2.33325 10.7917 2.33325ZM5.21461 4.63136C5.55631 4.28964 6.11033 4.28962 6.45205 4.63132L8.49372 6.67285C8.83544 7.01454 8.83546 7.56856 8.49376 7.91028C8.15206 8.252 7.59804 8.25202 7.25632 7.91033L5.21466 5.8688C4.87294 5.5271 4.87292 4.97308 5.21461 4.63136ZM16.3687 4.63134C16.7104 4.97305 16.7104 5.52707 16.3687 5.86878L14.3271 7.91045C13.9854 8.25215 13.4313 8.25215 13.0896 7.91045C12.7479 7.56874 12.7479 7.01472 13.0896 6.67301L15.1313 4.63134C15.473 4.28963 16.027 4.28963 16.3687 4.63134ZM2.91669 10.2083C2.91669 9.725 3.30844 9.33325 3.79169 9.33325H6.70835C7.1916 9.33325 7.58335 9.725 7.58335 10.2083C7.58335 10.6915 7.1916 11.0833 6.70835 11.0833H3.79169C3.30844 11.0833 2.91669 10.6915 2.91669 10.2083ZM12.4569 9.89981C11.4587 9.04424 9.91669 9.75348 9.91669 11.0682V24.2209C9.91669 25.6333 11.6604 26.2996 12.6023 25.2469L15.6526 21.8377C15.9738 21.4787 16.4268 21.2652 16.9081 21.246L21.3882 21.0668C22.7855 21.0109 23.3899 19.2709 22.3281 18.3609L12.4569 9.89981ZM11.6667 23.6681V11.5274L20.781 19.3396L16.8382 19.4974C15.8837 19.5355 14.9854 19.9589 14.3484 20.6708L11.6667 23.6681Z" fill="white"/>
</svg>
