<svg width="24" height="25" viewBox="0 0 24 25" fill="none" xmlns="http://www.w3.org/2000/svg">
<path d="M10.1994 16.0824C10.4005 15.46 10.6799 14.8728 11.026 14.3324H3.12824C1.67921 14.3324 0.504547 15.5071 0.504547 16.9561V17.6301C0.504547 18.6716 0.876152 19.679 1.55254 20.4711C3.37989 22.611 6.16358 23.6671 9.83375 23.6671C10.5336 23.6671 11.2014 23.6287 11.8364 23.5517C11.3802 23.0561 10.9891 22.4997 10.6768 21.8958C10.403 21.91 10.1221 21.9171 9.83375 21.9171C6.63906 21.9171 4.34554 21.047 2.88334 19.3347C2.47751 18.8594 2.25455 18.255 2.25455 17.6301V16.9561C2.25455 16.4736 2.64571 16.0824 3.12824 16.0824H10.1994ZM9.83375 0.337891C13.0554 0.337891 15.6671 2.94956 15.6671 6.17122C15.6671 9.39289 13.0554 12.0046 9.83375 12.0046C6.61209 12.0046 4.00042 9.39289 4.00042 6.17122C4.00042 2.94956 6.61209 0.337891 9.83375 0.337891ZM9.83375 2.08789C7.57859 2.08789 5.75042 3.91606 5.75042 6.17122C5.75042 8.42639 7.57859 10.2546 9.83375 10.2546C12.0889 10.2546 13.9171 8.42639 13.9171 6.17122C13.9171 3.91606 12.0889 2.08789 9.83375 2.08789ZM23.8333 18.4167C23.8333 21.9605 20.9605 24.8333 17.4167 24.8333C13.8728 24.8333 11 21.9605 11 18.4167C11 14.8728 13.8728 12 17.4167 12C20.9605 12 23.8333 14.8728 23.8333 18.4167ZM18.0646 14.8241C17.8606 14.1698 16.9727 14.1698 16.7687 14.8241L16.1189 16.9089H14.0159C13.3559 16.9089 13.0815 17.7893 13.6155 18.1937L15.3168 19.4822L14.6669 21.5671C14.463 22.2214 15.1814 22.7655 15.7153 22.3612L17.4167 21.0727L19.118 22.3612C19.6519 22.7655 20.3703 22.2214 20.1664 21.5671L19.5165 19.4822L21.2179 18.1937C21.7518 17.7893 21.4774 16.9089 20.8174 16.9089H18.7144L18.0646 14.8241Z" fill="white"/>
</svg>
