<svg width="296" height="296" viewBox="0 0 296 296" fill="none" xmlns="http://www.w3.org/2000/svg">
<g clip-path="url(#clip0_583_785)">
<path d="M114.369 46.2373C112.567 41.9664 107.259 40.0736 102.675 40.787C98.0903 41.5004 94.097 44.2303 90.4087 47.0078C83.8898 51.8778 77.5329 57.2806 73.4348 64.3004C69.3366 71.3201 66.6871 78.3875 62.2745 85.2265C56.7563 93.7302 50.6853 102.709 41.3073 106.562C34.836 109.225 26.4396 109.843 23.1992 116.074C19.6729 122.884 25.2387 131.844 21.6743 138.645C19.4918 142.764 14.5836 144.666 10.7714 147.52C3.46141 153.008 0.211493 162.672 0.516471 171.794C0.821449 180.916 4.23339 189.648 8.14092 197.914C11.3337 204.705 14.9839 211.468 20.5306 216.538C27.3259 222.759 36.3704 225.888 45.3101 228.152C56.0129 230.854 67.1256 232.537 78.1143 231.396C89.103 230.254 100.035 226.079 107.878 218.345C118.362 208.054 122.403 192.758 132.105 181.725C139.081 173.792 148.964 168.275 154.54 159.124C160.724 148.89 165.228 137.734 167.883 126.08C172.648 105.154 166.444 83.4573 160.258 62.8926C158.991 58.6788 157.694 54.3319 155.15 50.7745C147.888 40.3589 132.82 39.0843 120.373 41.605C117.647 42.1377 114.407 43.4979 114.369 46.2373Z" fill="white"/>
<path d="M70.8711 232.176C62.1756 232.037 53.5313 230.817 45.1386 228.542C36.8279 226.44 27.345 223.415 20.1494 216.824C14.4883 211.649 10.7904 204.734 7.64535 198.047C4.05233 190.438 0.325876 181.278 0.0208981 171.747C-0.322202 161.474 3.5758 152.247 10.5045 147.073C11.6482 146.217 12.8967 145.437 14.1071 144.695C17.0329 142.878 19.8254 141.166 21.2931 138.322C23.0086 135.05 22.5226 131.283 22.0174 127.298C21.5123 123.312 20.9881 119.279 22.818 115.75C25.2578 110.994 30.5568 109.425 35.6938 107.874C37.5237 107.323 39.4202 106.752 41.1357 106.048C50.0087 102.405 55.7842 94.3105 61.8933 84.8937C64.2417 81.1224 66.3643 77.2157 68.2502 73.1941C69.7369 70.1788 71.2714 67.0589 73.0155 64.0247C77.2661 56.7481 84.0423 51.1265 90.1133 46.5894C93.8302 43.8024 97.8616 41.0249 102.589 40.283C106.639 39.6552 111.786 41.0534 114.159 44.8011C115.169 42.3851 118.619 41.4244 120.23 41.101C126.139 39.9025 146.163 37.0584 155.607 50.4417C158.219 54.1323 159.524 58.4792 160.782 62.693C166.644 82.297 173.296 104.545 168.407 126.118C165.728 137.824 161.191 149.028 154.969 159.305C151.595 164.851 146.601 169.122 141.769 173.25C138.472 175.938 135.367 178.853 132.477 181.972C127.997 187.07 124.671 193.206 121.45 199.094C117.723 205.952 113.882 213.028 108.231 218.583C100.854 225.831 90.18 230.511 78.181 231.757C75.7534 232.024 73.3134 232.164 70.8711 232.176ZM104.552 41.12C103.949 41.1187 103.346 41.1665 102.751 41.2627C98.2333 41.9666 94.3163 44.6775 90.6851 47.3884C84.395 52.1443 77.9999 57.4329 73.8446 64.5098C72.091 67.5155 70.5661 70.6259 69.0793 73.6221C67.1778 77.6773 65.036 81.6159 62.6653 85.4169C56.4704 94.9763 50.5901 103.185 41.4693 106.933C39.7157 107.656 37.8 108.236 35.9416 108.835C30.7856 110.424 25.8964 111.86 23.6376 116.226C21.9507 119.498 22.4272 123.246 22.9419 127.222C23.4565 131.198 23.9712 135.259 22.1223 138.798C20.5116 141.879 17.4999 143.734 14.5931 145.542C13.4018 146.274 12.1628 147.044 11.0573 147.872C4.38589 152.856 0.659446 161.788 0.993016 171.747C1.31705 181.116 4.99585 190.114 8.55075 197.686C11.6482 204.287 15.2889 211.098 20.8356 216.167C27.8787 222.607 37.2091 225.594 45.415 227.658C58.1001 230.863 68.4694 231.891 78.0476 230.892C89.8369 229.665 100.311 225.08 107.535 217.984C113.082 212.524 116.894 205.505 120.582 198.723C123.823 192.74 127.187 186.566 131.733 181.382C134.651 178.226 137.788 175.28 141.121 172.565C145.886 168.484 150.823 164.261 154.13 158.849C160.303 148.66 164.807 137.553 167.473 125.947C172.333 104.593 165.729 82.4967 159.848 62.9974C158.609 58.8692 157.332 54.5889 154.816 51.0219C145.724 38.1333 126.196 40.9012 120.43 42.0712C118.762 42.4041 114.883 43.479 114.845 46.2374C114.843 46.3479 114.803 46.4543 114.732 46.5391C114.661 46.6238 114.563 46.6818 114.454 46.7035C114.347 46.7227 114.237 46.7048 114.142 46.6529C114.047 46.601 113.972 46.5182 113.93 46.4181C112.405 42.8036 108.279 41.12 104.552 41.12Z" fill="black"/>
<path d="M176.546 144.238C209.674 163.937 243.937 254.576 243.937 254.576H85.0526C85.0526 254.576 33.7877 164.537 56.5181 144.533C71.6431 131.293 162.546 135.915 176.546 144.238Z" fill="#F1D767"/>
<path d="M165.605 255.004C165.509 255.005 165.416 254.975 165.338 254.921C165.259 254.867 165.2 254.789 165.166 254.7L153.387 225.213C153.363 225.155 153.352 225.093 153.353 225.031C153.354 224.968 153.367 224.906 153.392 224.849C153.416 224.791 153.452 224.739 153.497 224.696C153.542 224.652 153.595 224.618 153.654 224.595C153.711 224.572 153.773 224.561 153.835 224.562C153.897 224.563 153.958 224.576 154.014 224.601C154.071 224.625 154.122 224.661 154.165 224.706C154.208 224.751 154.241 224.804 154.264 224.861L166.043 254.348C166.068 254.405 166.081 254.467 166.082 254.53C166.082 254.592 166.07 254.654 166.046 254.712C166.022 254.769 165.986 254.822 165.942 254.865C165.897 254.909 165.844 254.944 165.786 254.966C165.728 254.988 165.667 255.001 165.605 255.004Z" fill="black"/>
<path d="M213.363 255.004C213.277 255.004 213.193 254.98 213.12 254.937C213.046 254.894 212.985 254.832 212.943 254.757C212.4 253.806 209.493 248.251 205.471 240.594C193.024 216.89 167.13 167.571 165.338 165.992C165.285 165.964 165.237 165.926 165.199 165.879C165.161 165.833 165.133 165.779 165.116 165.721C165.099 165.664 165.094 165.603 165.101 165.543C165.108 165.484 165.127 165.426 165.157 165.374C165.221 165.261 165.326 165.178 165.45 165.141C165.575 165.104 165.708 165.116 165.824 165.174C166.93 165.735 177.909 186.053 206.31 240.147C210.332 247.756 213.239 253.34 213.772 254.301C213.803 254.354 213.822 254.413 213.829 254.474C213.837 254.536 213.832 254.598 213.815 254.657C213.798 254.716 213.77 254.771 213.731 254.82C213.693 254.868 213.645 254.908 213.591 254.938C213.523 254.982 213.444 255.005 213.363 255.004Z" fill="black"/>
<path d="M136.784 147.901L153.825 225.061C153.825 225.061 100.654 157.631 97.1754 137.504C108.65 125.814 136.784 147.901 136.784 147.901Z" fill="black"/>
<path d="M153.825 225.517C153.754 225.516 153.683 225.5 153.619 225.468C153.555 225.437 153.498 225.392 153.453 225.337C153.32 225.165 139.996 208.215 126.415 189.087C108.164 163.319 98.1666 145.979 96.7084 137.57C96.6949 137.496 96.699 137.419 96.7205 137.347C96.7421 137.274 96.7803 137.207 96.8323 137.152C101.683 132.215 110.175 132.463 121.488 137.875C126.984 140.582 132.206 143.812 137.08 147.52C137.164 147.588 137.224 147.681 137.251 147.786L154.292 224.947C154.315 225.053 154.301 225.163 154.253 225.26C154.204 225.357 154.124 225.434 154.025 225.479C153.962 225.505 153.894 225.518 153.825 225.517ZM97.6901 137.647C101.15 155.947 144.809 212.686 152.91 223.101L136.356 148.148C134.268 146.569 108.45 127.193 97.6901 137.666V137.647Z" fill="black"/>
<path d="M137.747 125.643L136.794 147.882C136.794 147.882 128.54 160.723 114.683 155.643C110.598 154.103 106.909 151.675 103.882 148.534C100.855 145.393 98.5676 141.619 97.1849 137.485L101.998 97.3639C101.998 97.3639 113.701 87.1005 113.215 63.8154C124.766 70.1797 137.753 73.4993 150.947 73.4605C150.947 73.4605 152.777 104.717 149.794 115.532C146.811 126.347 137.747 125.643 137.747 125.643Z" fill="white"/>
<path d="M121.021 157.317C118.793 157.303 116.586 156.894 114.502 156.109C100.578 151.001 96.7561 137.761 96.718 137.628C96.708 137.568 96.708 137.507 96.718 137.447L101.531 97.3256C101.542 97.2114 101.597 97.1059 101.683 97.0307C101.788 96.9261 113.187 86.6438 112.748 63.8152C112.747 63.7306 112.769 63.6472 112.811 63.5737C112.852 63.5001 112.913 63.439 112.987 63.3967C113.06 63.3522 113.144 63.3286 113.23 63.3286C113.315 63.3286 113.399 63.3522 113.473 63.3967C124.96 69.6784 137.848 72.9694 150.947 72.9657C151.009 72.9604 151.071 72.968 151.13 72.9881C151.189 73.0082 151.243 73.0403 151.289 73.0824C151.334 73.1244 151.371 73.1755 151.396 73.2324C151.42 73.2893 151.433 73.3507 151.433 73.4127C151.509 74.6873 153.244 104.85 150.261 115.617C147.602 125.224 140.196 126.08 138.214 126.08L137.261 147.862C137.26 147.947 137.234 148.03 137.185 148.1C137.118 148.271 131.152 157.317 121.021 157.317ZM97.6615 137.466C98.0141 138.598 101.96 150.497 114.817 155.215C127.511 159.876 135.479 148.937 136.298 147.748L137.251 125.633C137.261 125.506 137.319 125.387 137.413 125.3C137.461 125.258 137.517 125.226 137.578 125.207C137.639 125.187 137.703 125.18 137.766 125.186C138.119 125.186 146.468 125.7 149.317 115.408C152.062 105.487 150.69 77.8358 150.48 73.9549H150.146C137.429 73.8069 124.932 70.6202 113.701 64.6618C113.787 76.3424 110.776 84.6368 108.193 89.5544C106.73 92.5275 104.799 95.2475 102.474 97.611L97.6615 137.466Z" fill="black"/>
<path d="M107.402 97.0404C107.135 95.0346 106.229 93.1674 104.819 91.7138C103.44 90.4229 101.847 89.3802 100.111 88.6319C99.2101 88.1142 98.2029 87.8084 97.1659 87.7378C96.4348 87.7692 95.7165 87.9403 95.0501 88.2419C93.4415 88.8302 92.0918 89.9651 91.2379 91.4474C90.6942 92.722 90.4685 94.1092 90.5803 95.49C90.5837 96.9937 90.7855 98.4904 91.1807 99.9416C91.6064 101.386 92.3163 102.731 93.2689 103.898C94.2214 105.066 95.3976 106.032 96.7286 106.74C98.0596 107.449 99.5188 107.885 101.021 108.025C102.523 108.164 104.038 108.003 105.477 107.551" fill="white"/>
<path d="M102.046 108.521C99.491 108.531 97.0024 107.712 94.9538 106.189C92.9053 104.666 91.4073 102.52 90.6851 100.075C90.2763 98.5838 90.068 97.0452 90.0656 95.4995C89.9517 94.043 90.1938 92.5807 90.7709 91.2382C91.6764 89.637 93.1322 88.4173 94.869 87.8044C95.594 87.4821 96.3731 87.2983 97.1659 87.2622C98.2776 87.3283 99.3581 87.6541 100.321 88.2134C102.094 88.9906 103.719 90.0687 105.124 91.3999C106.615 92.9231 107.569 94.8899 107.84 97.0024C107.857 97.1285 107.822 97.256 107.744 97.3568C107.667 97.4576 107.552 97.5234 107.426 97.5398C107.299 97.5562 107.171 97.5218 107.07 97.4442C106.969 97.3666 106.904 97.2522 106.887 97.126C106.645 95.215 105.785 93.4349 104.438 92.0562C103.092 90.8136 101.545 89.807 99.863 89.079C99.0296 88.5963 98.098 88.307 97.1373 88.2324C96.4781 88.2662 95.8313 88.4243 95.2312 88.6985C93.7213 89.2449 92.448 90.2971 91.6286 91.6757C91.1229 92.8769 90.9137 94.1818 91.0187 95.4805C91.0193 96.9425 91.2148 98.3979 91.6 99.8084C92.0084 101.188 92.6879 102.473 93.5988 103.589C94.5098 104.704 95.634 105.627 96.906 106.304C98.178 106.982 99.5724 107.399 101.008 107.533C102.443 107.667 103.891 107.515 105.267 107.085C105.329 107.066 105.395 107.06 105.46 107.067C105.525 107.073 105.588 107.092 105.646 107.123C105.703 107.154 105.754 107.196 105.795 107.247C105.837 107.297 105.868 107.355 105.886 107.418C105.905 107.48 105.911 107.546 105.905 107.611C105.898 107.676 105.879 107.739 105.848 107.796C105.817 107.853 105.775 107.904 105.724 107.945C105.674 107.987 105.615 108.017 105.553 108.036C104.415 108.372 103.232 108.536 102.046 108.521Z" fill="black"/>
<path d="M134.669 105.202C133.243 105.158 131.831 104.912 130.475 104.469C130.416 104.449 130.361 104.417 130.314 104.375C130.267 104.333 130.229 104.283 130.201 104.226C130.174 104.17 130.158 104.108 130.154 104.045C130.15 103.983 130.159 103.92 130.18 103.861C130.2 103.801 130.233 103.747 130.274 103.7C130.316 103.653 130.367 103.614 130.424 103.587C130.48 103.56 130.542 103.544 130.604 103.54C130.667 103.536 130.73 103.545 130.79 103.566C132.076 104.003 135.717 104.869 137.128 103.566C138.157 102.615 135.46 96.0894 132.362 90.582C132.3 90.4722 132.285 90.3425 132.319 90.2213C132.353 90.1 132.434 89.9971 132.543 89.9352C132.655 89.8769 132.785 89.8641 132.906 89.8996C133.027 89.9351 133.129 90.0161 133.191 90.1254C134.783 92.979 139.815 102.358 137.766 104.26C136.886 104.945 135.782 105.281 134.669 105.202Z" fill="black"/>
<path d="M117.761 210.137C117.685 210.138 117.609 210.121 117.541 210.086C117.473 210.051 117.414 210 117.371 209.937C117.228 209.728 102.122 188.869 84.6618 162.473C84.5928 162.368 84.5681 162.24 84.5931 162.117C84.6181 161.995 84.6908 161.886 84.7952 161.817C84.901 161.75 85.0283 161.727 85.1507 161.752C85.2732 161.777 85.3814 161.848 85.4528 161.95C102.941 188.336 117.99 209.176 118.143 209.386C118.215 209.487 118.244 209.613 118.224 209.735C118.205 209.858 118.138 209.968 118.038 210.042C117.959 210.104 117.862 210.138 117.761 210.137Z" fill="black"/>
<path d="M132.229 117.595C131.441 117.592 130.657 117.493 129.894 117.301C120.687 115.103 120.764 103.917 120.764 103.803C120.766 103.678 120.817 103.558 120.906 103.47C120.995 103.381 121.114 103.33 121.24 103.328C121.303 103.329 121.364 103.342 121.422 103.367C121.479 103.393 121.531 103.429 121.574 103.474C121.618 103.519 121.652 103.572 121.674 103.63C121.697 103.688 121.708 103.75 121.707 103.813C121.707 103.917 121.65 114.352 130.113 116.378C131.086 116.653 132.106 116.724 133.108 116.587C134.111 116.449 135.073 116.106 135.936 115.579C139.615 113.258 140.787 107.874 140.806 107.817C140.819 107.756 140.843 107.698 140.878 107.646C140.913 107.594 140.958 107.55 141.01 107.516C141.063 107.481 141.121 107.457 141.183 107.445C141.244 107.433 141.307 107.434 141.369 107.446C141.43 107.459 141.488 107.483 141.539 107.518C141.591 107.553 141.635 107.598 141.668 107.651C141.702 107.703 141.725 107.761 141.736 107.823C141.746 107.884 141.745 107.947 141.731 108.007C141.731 108.245 140.473 113.838 136.451 116.378C135.19 117.181 133.724 117.604 132.229 117.595Z" fill="black"/>
<path d="M137.747 125.643C137.747 125.643 123.928 125.928 115.522 115.037C115.522 115.037 119.811 137.181 137.166 138.96L137.747 125.643Z" fill="black"/>
<path d="M137.166 139.454H137.118C119.61 137.656 115.093 115.37 115.055 115.142C115.03 115.036 115.043 114.925 115.092 114.828C115.14 114.731 115.221 114.654 115.32 114.61C115.42 114.566 115.531 114.558 115.636 114.588C115.74 114.617 115.832 114.682 115.893 114.771C124.052 125.329 137.595 125.177 137.738 125.234C137.803 125.233 137.868 125.245 137.928 125.269C137.989 125.294 138.044 125.33 138.09 125.377C138.135 125.423 138.17 125.478 138.193 125.539C138.216 125.599 138.226 125.664 138.224 125.729L137.642 139.045C137.639 139.111 137.622 139.175 137.592 139.234C137.563 139.293 137.521 139.346 137.471 139.388C137.38 139.446 137.272 139.469 137.166 139.454ZM116.484 116.94C118 122.285 123.327 136.734 136.708 138.455L137.251 126.09C134.812 126.042 124.033 125.224 116.484 116.94Z" fill="black"/>
<path d="M98.9671 247.395C98.855 247.394 98.7468 247.354 98.6622 247.28C98.4334 247.081 75.6363 227.182 60.7401 198.503C60.7119 198.448 60.6949 198.389 60.6899 198.327C60.685 198.265 60.6922 198.204 60.7113 198.145C60.7303 198.086 60.7607 198.032 60.8008 197.985C60.8409 197.938 60.8899 197.899 60.945 197.871C61 197.843 61.0601 197.826 61.1218 197.821C61.1834 197.816 61.2454 197.823 61.3043 197.842C61.3632 197.861 61.4177 197.892 61.4648 197.932C61.5119 197.972 61.5506 198.02 61.5788 198.075C76.3892 226.611 99.0529 246.367 99.2816 246.586C99.326 246.629 99.3613 246.681 99.3853 246.738C99.4094 246.796 99.4218 246.857 99.4218 246.919C99.4218 246.981 99.4094 247.042 99.3853 247.1C99.3613 247.157 99.326 247.208 99.2816 247.252C99.1973 247.336 99.0857 247.386 98.9671 247.395Z" fill="black"/>
<path d="M123.661 85.2078C124.587 85.2078 125.338 83.6492 125.338 81.7265C125.338 79.8038 124.587 78.2451 123.661 78.2451C122.734 78.2451 121.983 79.8038 121.983 81.7265C121.983 83.6492 122.734 85.2078 123.661 85.2078Z" fill="black"/>
<path d="M144.172 84.9807C144.249 83.058 143.561 81.4694 142.634 81.4324C141.708 81.3954 140.894 82.9241 140.817 84.8468C140.74 86.7695 141.429 88.3581 142.355 88.3951C143.282 88.4321 144.095 86.9034 144.172 84.9807Z" fill="black"/>
<path d="M95.0882 223.691C105.991 211.915 180.863 177.083 187.706 171.642C194.549 166.201 194.587 161.959 203.632 159.438C212.676 156.918 227.087 151.99 228.497 153.541C229.908 155.091 228.954 159.067 226.782 160.913C224.609 162.758 218.947 164.128 216.917 166.021C216.917 166.021 228.678 168.132 232.471 166.173C236.264 164.213 242.745 159.096 246.081 158.563C248.197 158.284 250.349 158.635 252.266 159.571C252.266 159.571 256.517 156.642 258.032 158.868C259.042 160.342 258.242 162.083 257.003 163.119C259.814 162.244 257.861 165.84 257.308 166.848C242.707 193.291 208.464 187.365 203.308 187.651C203.308 187.651 186.925 201.975 183.37 205.362C174.525 213.799 165.49 222.036 156.084 229.836C145.8 238.397 134.478 248.051 121.688 252.569C95.2502 261.938 84.1567 235.476 95.0882 223.691Z" fill="white"/>
<path d="M111.119 255.005C103.828 255.005 97.7092 251.951 93.8397 246.111C88.9792 238.749 89.3604 229.189 94.7928 223.377C101.826 215.768 135.383 198.599 159.887 186.062C173.391 179.166 185.047 173.202 187.458 171.271C189.375 169.7 191.146 167.959 192.748 166.068C195.426 163.044 197.513 160.656 203.556 158.982C205.7 158.383 208.111 157.66 210.656 156.899C222.188 153.446 227.744 151.953 228.897 153.218C229.21 153.618 229.44 154.077 229.572 154.567C229.705 155.057 229.738 155.568 229.669 156.071C229.517 158.065 228.615 159.927 227.144 161.284C225.613 162.351 223.947 163.209 222.188 163.833C220.795 164.365 219.444 165.001 218.147 165.735C221.13 166.201 229.355 167.286 232.3 165.735C233.624 165.051 235.292 163.966 237.065 162.825C240.382 160.675 243.813 158.449 246.062 158.069C248.185 157.787 250.344 158.118 252.285 159.02C253.01 158.563 255.24 157.289 256.955 157.612C257.262 157.661 257.555 157.77 257.818 157.934C258.082 158.097 258.31 158.311 258.49 158.563C258.875 159.168 259.057 159.88 259.009 160.595C258.961 161.31 258.686 161.991 258.223 162.539C258.435 162.589 258.623 162.71 258.757 162.882C259.309 163.548 259.004 164.832 257.804 167.048C244.918 190.381 217.118 188.802 206.653 188.212C205.309 188.136 204.223 188.079 203.575 188.098C202.04 189.439 187.115 202.489 183.77 205.676C173.82 215.188 164.89 223.187 156.465 230.178L155.14 231.272C145.343 239.405 134.24 248.632 121.917 252.988C118.46 254.274 114.807 254.956 111.119 255.005ZM227.334 153.674C224.685 153.674 216.536 156.119 210.885 157.812C208.33 158.573 205.919 159.296 203.756 159.895C198.037 161.493 195.988 163.795 193.415 166.696C191.779 168.631 189.967 170.411 188.002 172.013C185.514 174.001 174.382 179.699 160.277 186.909C135.831 199.417 102.36 216.538 95.4695 224.005C90.3801 229.513 90.0466 238.577 94.6689 245.578C100.054 253.73 110.108 256.174 121.555 252.122C133.716 247.823 144.752 238.654 154.483 230.568L155.807 229.475C164.213 222.502 173.124 214.503 183.065 205.02C186.591 201.662 202.86 187.442 203.022 187.299C203.1 187.226 203.201 187.182 203.308 187.175C203.994 187.175 205.109 187.175 206.653 187.289C216.965 187.879 244.327 189.42 256.917 166.611C258.356 164.014 258.004 163.529 257.994 163.51C257.985 163.491 257.746 163.395 257.174 163.576C257.063 163.644 256.929 163.666 256.803 163.635C256.676 163.605 256.566 163.526 256.498 163.415C256.43 163.304 256.408 163.17 256.439 163.043C256.469 162.917 256.549 162.807 256.66 162.739C257.746 161.836 258.452 160.361 257.613 159.115C257.505 158.955 257.364 158.82 257.2 158.718C257.036 158.616 256.852 158.551 256.66 158.525C255.297 158.269 253.181 159.477 252.476 159.943C252.402 159.989 252.316 160.014 252.228 160.014C252.14 160.014 252.055 159.989 251.98 159.943C250.156 159.057 248.111 158.726 246.1 158.991C244.051 159.315 240.553 161.579 237.475 163.586C235.693 164.746 234.006 165.84 232.633 166.544C228.993 168.446 218.757 166.782 217.013 166.477L216.288 167.153C216.261 167.228 216.215 167.295 216.155 167.348C216.095 167.401 216.022 167.438 215.944 167.455C215.866 167.473 215.784 167.47 215.707 167.448C215.63 167.426 215.56 167.384 215.503 167.328C215.446 167.271 215.405 167.201 215.383 167.124C215.36 167.047 215.358 166.966 215.375 166.888C215.393 166.81 215.429 166.737 215.483 166.677C215.536 166.617 215.603 166.571 215.678 166.544L216.574 165.707C218.151 164.541 219.896 163.621 221.749 162.977C223.416 162.389 224.999 161.587 226.457 160.589C227.74 159.402 228.523 157.774 228.649 156.033C228.761 155.279 228.573 154.511 228.125 153.893C227.895 153.732 227.615 153.655 227.334 153.674Z" fill="black"/>
<path d="M252.266 159.581C252.266 159.581 246.748 166.62 235.607 171.661L252.266 159.581Z" fill="white"/>
<path d="M235.607 172.137C235.515 172.136 235.426 172.109 235.349 172.061C235.271 172.012 235.209 171.943 235.168 171.861C235.117 171.746 235.113 171.616 235.158 171.498C235.202 171.38 235.292 171.285 235.407 171.233C246.3 166.297 251.828 159.353 251.885 159.286C251.962 159.187 252.076 159.122 252.201 159.106C252.326 159.09 252.452 159.124 252.552 159.201C252.652 159.279 252.718 159.394 252.734 159.521C252.75 159.647 252.715 159.775 252.638 159.876C252.581 159.943 246.92 167.067 235.797 172.099C235.738 172.126 235.672 172.139 235.607 172.137Z" fill="black"/>
<path d="M257.003 163.129C257.003 163.129 247.186 175.732 240.153 176.836L257.003 163.129Z" fill="white"/>
<path d="M240.153 177.311C240.09 177.316 240.027 177.309 239.968 177.289C239.908 177.27 239.853 177.239 239.805 177.199C239.757 177.158 239.718 177.108 239.689 177.053C239.661 176.997 239.643 176.936 239.638 176.874C239.633 176.811 239.641 176.748 239.66 176.689C239.679 176.629 239.71 176.574 239.751 176.526C239.792 176.478 239.841 176.439 239.897 176.411C239.953 176.382 240.014 176.365 240.077 176.36C246.843 175.295 256.526 162.958 256.622 162.824C256.703 162.728 256.819 162.666 256.945 162.652C257.071 162.638 257.197 162.672 257.298 162.748C257.397 162.827 257.46 162.941 257.474 163.066C257.488 163.19 257.453 163.316 257.375 163.414C256.974 163.937 247.358 176.179 240.22 177.302L240.153 177.311Z" fill="black"/>
<path d="M176.393 212.42C176.294 212.42 176.197 212.389 176.116 212.331C176.036 212.273 175.976 212.191 175.946 212.096C175.879 211.925 169.693 194.794 156.503 188.64C156.446 188.613 156.395 188.576 156.352 188.529C156.309 188.483 156.277 188.428 156.255 188.369C156.234 188.31 156.225 188.247 156.228 188.184C156.231 188.121 156.247 188.059 156.274 188.002C156.328 187.89 156.424 187.802 156.542 187.76C156.66 187.717 156.79 187.722 156.903 187.774C170.465 194.1 176.784 211.611 176.841 211.782C176.884 211.901 176.878 212.032 176.825 212.146C176.771 212.26 176.674 212.348 176.555 212.391L176.393 212.42Z" fill="black"/>
<path d="M122.851 90.696C122.532 90.6951 122.214 90.676 121.898 90.6389L114.654 89.8019C113.559 89.6767 112.499 89.3371 111.535 88.8026C110.571 88.2681 109.722 87.5491 109.037 86.6868C108.352 85.8245 107.844 84.8358 107.542 83.7774C107.24 82.7189 107.15 81.6114 107.278 80.5182L107.764 76.295C107.858 75.4862 108.269 74.7476 108.908 74.2404C109.55 73.7374 110.364 73.5053 111.176 73.5936L128.95 75.6482C129.756 75.7461 130.491 76.1557 130.997 76.789C131.503 77.4223 131.74 78.2286 131.657 79.0344L131.171 83.2672C130.935 85.3053 129.957 87.186 128.423 88.552C126.89 89.918 124.906 90.6742 122.851 90.6769V90.696ZM110.766 74.5923C110.263 74.5977 109.78 74.7847 109.405 75.1188C109.03 75.4528 108.789 75.9113 108.726 76.4091L108.24 80.6419C108.129 81.602 108.208 82.5746 108.474 83.504C108.739 84.4335 109.186 85.3016 109.787 86.0587C110.389 86.8159 111.135 87.4471 111.982 87.9164C112.828 88.3857 113.759 88.6837 114.721 88.7936L121.983 89.6306C122.945 89.7419 123.92 89.6628 124.851 89.3979C125.783 89.133 126.652 88.6874 127.411 88.0867C128.17 87.4859 128.802 86.7418 129.272 85.8969C129.742 85.0519 130.041 84.1228 130.151 83.1625L130.647 78.9393C130.706 78.3987 130.549 77.8567 130.21 77.431C129.871 77.0053 129.377 76.7304 128.836 76.6659L111.014 74.6114L110.766 74.5923Z" fill="black"/>
<path d="M146.506 93.5114C146.187 93.5107 145.869 93.4917 145.553 93.4543L138.281 92.6173C137.186 92.4909 136.127 92.1505 135.164 91.6155C134.201 91.0805 133.354 90.3613 132.67 89.4992C131.985 88.637 131.478 87.6487 131.177 86.5908C130.876 85.5329 130.786 84.4261 130.914 83.3337L131.4 79.1104C131.446 78.7094 131.571 78.3213 131.767 77.9685C131.964 77.6157 132.228 77.3049 132.545 77.0541C132.862 76.8032 133.225 76.6171 133.614 76.5064C134.003 76.3957 134.41 76.3626 134.812 76.409L152.634 78.4636C153.441 78.5601 154.177 78.9702 154.683 79.605C154.936 79.9205 155.124 80.2832 155.235 80.6719C155.346 81.0605 155.379 81.4675 155.331 81.8688L154.835 86.0921C154.599 88.1328 153.621 90.0159 152.085 91.3836C150.549 92.7514 148.564 93.5086 146.506 93.5114ZM145.657 92.4461C147.6 92.6682 149.551 92.1118 151.082 90.899C152.614 89.6862 153.6 87.9162 153.825 85.978L154.311 81.7547C154.343 81.4873 154.322 81.2162 154.248 80.9571C154.175 80.6979 154.051 80.4558 153.884 80.2446C153.716 80.0334 153.509 79.8572 153.273 79.7262C153.037 79.5953 152.778 79.512 152.51 79.4814L134.669 77.4268C134.402 77.3935 134.131 77.4142 133.872 77.4877C133.613 77.5613 133.372 77.6861 133.163 77.8548C132.95 78.0207 132.772 78.2272 132.639 78.4623C132.507 78.6975 132.422 78.9566 132.391 79.2245L131.905 83.4573C131.793 84.4174 131.873 85.39 132.138 86.3195C132.403 87.2489 132.85 88.1171 133.452 88.8742C134.054 89.6313 134.799 90.2625 135.646 90.7318C136.493 91.2011 137.423 91.4992 138.386 91.609L145.657 92.4461Z" fill="black"/>
<path d="M224.408 124.368C217.299 123.226 217.423 122.18 216.727 118.138C215.459 110.851 211.819 104.821 208.006 98.6381C193.872 75.7145 204.899 45.1338 235.359 44.563C256.012 44.1731 271.08 57.4707 271.365 77.5218C271.536 87.2118 267.856 96.5753 261.13 103.565C256.536 108.511 252.552 113.638 250.446 120.126C249.064 124.311 248.978 126.898 241.42 125.69C238.685 125.243 235.893 125.233 233.119 125.024C230.346 124.815 227.287 124.834 224.408 124.368Z" fill="white"/>
<path d="M244.594 126.327C243.511 126.313 242.431 126.214 241.363 126.033C239.502 125.769 237.628 125.604 235.75 125.538C234.863 125.538 233.977 125.443 233.1 125.376C232.223 125.31 231.127 125.253 230.136 125.205C228.2 125.151 226.269 124.989 224.351 124.72C217.556 123.626 217.137 122.646 216.46 118.68L216.374 118.195C215.097 110.823 211.342 104.716 207.701 98.819C200.277 86.7674 199.515 72.1857 205.729 60.8856C211.447 50.4225 221.997 44.4585 235.35 44.2112C245.9 44.002 255.364 47.4167 261.968 53.7992C268.211 59.8298 271.585 68.0671 271.718 77.5124C271.859 87.2699 268.164 96.6941 261.425 103.765C257.451 108.046 253.076 113.353 250.818 120.202L250.494 121.21C249.531 124.206 248.854 126.327 244.594 126.327ZM236.226 44.9056H235.369C222.283 45.1529 211.971 50.9456 206.348 61.209C200.258 72.3759 201.001 86.6438 208.302 98.4575C211.971 104.402 215.764 110.566 217.07 118.071L217.156 118.566C217.756 122.123 217.899 122.97 224.466 124.026C226.362 124.289 228.271 124.447 230.184 124.501C231.137 124.501 232.166 124.596 233.157 124.672C234.149 124.748 234.911 124.786 235.797 124.834C237.711 124.898 239.62 125.066 241.516 125.338C248.13 126.403 248.702 124.615 249.817 121.039C249.922 120.715 250.027 120.373 250.15 120.021C252.447 113.039 256.879 107.656 260.91 103.328C264.219 99.9037 266.818 95.8618 268.558 91.4335C270.298 87.0052 271.145 82.2776 271.051 77.5219C270.918 68.2288 267.62 60.2007 261.52 54.3033C255.183 48.2252 246.243 44.9056 236.226 44.9056Z" fill="black"/>
<path d="M219.668 132.47L245.399 134.459C246.47 134.542 247.405 133.743 247.488 132.675L247.839 128.151C247.922 127.083 247.121 126.149 246.051 126.067L220.319 124.077C219.249 123.994 218.313 124.793 218.23 125.862L217.879 130.385C217.796 131.454 218.597 132.387 219.668 132.47Z" fill="white"/>
<path d="M245.547 134.812H245.366L219.634 132.824C219.333 132.801 219.04 132.719 218.771 132.583C218.502 132.447 218.263 132.259 218.067 132.03C217.871 131.801 217.723 131.535 217.63 131.249C217.538 130.962 217.503 130.66 217.527 130.361L217.88 125.842C217.898 125.541 217.978 125.246 218.114 124.976C218.25 124.707 218.439 124.467 218.671 124.273C218.901 124.076 219.167 123.926 219.455 123.833C219.743 123.74 220.047 123.705 220.348 123.731L246.081 125.719C246.688 125.767 247.251 126.054 247.648 126.515C248.044 126.977 248.241 127.576 248.197 128.182L247.844 132.71C247.794 133.284 247.53 133.818 247.105 134.207C246.68 134.596 246.124 134.812 245.547 134.812ZM220.167 124.416C219.766 124.414 219.379 124.565 219.084 124.836C218.788 125.108 218.607 125.481 218.576 125.88L218.223 130.408C218.194 130.827 218.332 131.241 218.607 131.56C218.881 131.879 219.271 132.077 219.691 132.111L245.423 134.108C245.844 134.14 246.26 134.003 246.58 133.728C246.9 133.454 247.098 133.063 247.129 132.643L247.482 128.116C247.513 127.696 247.377 127.28 247.101 126.961C246.826 126.642 246.435 126.445 246.014 126.413L220.282 124.425L220.167 124.416Z" fill="black"/>
<path d="M218.506 139.682L244.315 141.742C245.388 141.828 246.329 141.029 246.414 139.957L246.778 135.42C246.864 134.348 246.063 133.41 244.989 133.324L219.181 131.264C218.107 131.178 217.167 131.977 217.081 133.049L216.717 137.586C216.631 138.658 217.432 139.596 218.506 139.682Z" fill="white"/>
<path d="M244.89 143.211H244.708L218.976 141.223C218.37 141.172 217.808 140.885 217.412 140.424C217.016 139.963 216.818 139.365 216.86 138.759L217.213 134.231C217.264 133.626 217.552 133.066 218.013 132.671C218.475 132.276 219.074 132.078 219.681 132.12L245.414 134.117C245.714 134.14 246.008 134.222 246.277 134.358C246.545 134.495 246.785 134.683 246.98 134.912C247.176 135.141 247.325 135.406 247.417 135.693C247.51 135.979 247.545 136.281 247.52 136.581L247.167 141.099C247.146 141.4 247.065 141.693 246.929 141.963C246.793 142.232 246.606 142.472 246.376 142.669C245.96 143.018 245.434 143.21 244.89 143.211ZM219.491 132.814C219.091 132.815 218.706 132.967 218.413 133.238C218.12 133.51 217.94 133.881 217.909 134.279L217.556 138.797C217.525 139.219 217.662 139.636 217.937 139.958C218.073 140.116 218.239 140.247 218.425 140.341C218.612 140.436 218.815 140.493 219.024 140.509L244.756 142.497C245.178 142.529 245.595 142.392 245.917 142.118C246.238 141.844 246.438 141.453 246.472 141.032L246.824 136.514C246.856 136.093 246.719 135.677 246.444 135.356C246.169 135.035 245.778 134.836 245.357 134.802L219.624 132.814H219.491Z" fill="black"/>
<path d="M220.444 140.966C220.196 144.134 225.142 147.092 231.48 147.625C237.818 148.157 243.107 145.903 243.317 142.764L220.444 140.966Z" fill="black"/>
<path d="M233.215 148.005C232.624 148.005 232.014 148.005 231.404 147.939C228.564 147.778 225.796 146.985 223.303 145.618C221.092 144.296 219.958 142.65 220.082 140.976C220.093 140.884 220.139 140.8 220.21 140.741C220.28 140.681 220.37 140.649 220.463 140.653L243.422 142.431C243.468 142.434 243.513 142.445 243.554 142.465C243.596 142.485 243.632 142.514 243.663 142.548C243.693 142.583 243.716 142.623 243.73 142.667C243.744 142.71 243.75 142.756 243.746 142.802C243.613 144.476 242.231 145.932 239.848 146.892C237.728 147.681 235.477 148.059 233.215 148.005ZM220.749 141.347C220.815 142.622 221.826 143.896 223.608 144.98C226.037 146.256 228.702 147.023 231.439 147.234C234.176 147.445 236.927 147.096 239.524 146.207C241.43 145.418 242.669 144.305 242.936 143.059L220.749 141.347Z" fill="black"/>
<path d="M221.12 69.2468C223.484 69.2468 225.4 67.3346 225.4 64.9759C225.4 62.6172 223.484 60.7051 221.12 60.7051C218.757 60.7051 216.841 62.6172 216.841 64.9759C216.841 67.3346 218.757 69.2468 221.12 69.2468Z" fill="#D1D3D4"/>
<path d="M237.236 76.0285C239.6 76.0285 241.516 74.1164 241.516 71.7577C241.516 69.3989 239.6 67.4868 237.236 67.4868C234.873 67.4868 232.957 69.3989 232.957 71.7577C232.957 74.1164 234.873 76.0285 237.236 76.0285Z" fill="#D1D3D4"/>
<path d="M227.001 86.5104C229.364 86.5104 231.28 84.5983 231.28 82.2396C231.28 79.8809 229.364 77.9688 227.001 77.9688C224.637 77.9688 222.722 79.8809 222.722 82.2396C222.722 84.5983 224.637 86.5104 227.001 86.5104Z" fill="#D1D3D4"/>
<path d="M238.637 97.4303C241.001 97.4303 242.917 95.5182 242.917 93.1595C242.917 90.8008 241.001 88.8887 238.637 88.8887C236.274 88.8887 234.358 90.8008 234.358 93.1595C234.358 95.5182 236.274 97.4303 238.637 97.4303Z" fill="#D1D3D4"/>
<path d="M246.386 109.177C248.749 109.177 250.665 107.265 250.665 104.907C250.665 102.548 248.749 100.636 246.386 100.636C244.023 100.636 242.107 102.548 242.107 104.907C242.107 107.265 244.023 109.177 246.386 109.177Z" fill="#D1D3D4"/>
<path d="M246.5 87.0817C248.864 87.0817 250.779 85.1696 250.779 82.8109C250.779 80.4522 248.864 78.54 246.5 78.54C244.137 78.54 242.221 80.4522 242.221 82.8109C242.221 85.1696 244.137 87.0817 246.5 87.0817Z" fill="#D1D3D4"/>
<path d="M259.195 90.7814C261.558 90.7814 263.474 88.8693 263.474 86.5106C263.474 84.1519 261.558 82.2397 259.195 82.2397C256.832 82.2397 254.916 84.1519 254.916 86.5106C254.916 88.8693 256.832 90.7814 259.195 90.7814Z" fill="#D1D3D4"/>
<path d="M232.767 109.273C235.13 109.273 237.046 107.361 237.046 105.002C237.046 102.643 235.13 100.731 232.767 100.731C230.403 100.731 228.488 102.643 228.488 105.002C228.488 107.361 230.403 109.273 232.767 109.273Z" fill="#D1D3D4"/>
<path d="M221.12 101.492C223.484 101.492 225.4 99.5798 225.4 97.221C225.4 94.8623 223.484 92.9502 221.12 92.9502C218.757 92.9502 216.841 94.8623 216.841 97.221C216.841 99.5798 218.757 101.492 221.12 101.492Z" fill="#D1D3D4"/>
<path d="M248.502 70.6354C250.865 70.6354 252.781 68.7233 252.781 66.3646C252.781 64.0059 250.865 62.0938 248.502 62.0938C246.138 62.0938 244.223 64.0059 244.223 66.3646C244.223 68.7233 246.138 70.6354 248.502 70.6354Z" fill="#D1D3D4"/>
<path d="M237.237 72.5375C237.138 72.537 237.041 72.5176 236.951 72.4804L220.034 65.7175C219.939 65.68 219.853 65.6243 219.78 65.5536C219.707 65.4829 219.649 65.3985 219.609 65.3054C219.569 65.2122 219.547 65.112 219.546 65.0105C219.544 64.909 219.563 64.8083 219.6 64.714C219.638 64.6197 219.694 64.5337 219.764 64.4609C219.835 64.3881 219.92 64.3299 220.013 64.2897C220.107 64.2496 220.207 64.2281 220.309 64.2266C220.41 64.2252 220.511 64.2437 220.606 64.2812L237.237 70.9395L250.179 65.9077C250.274 65.871 250.376 65.8535 250.477 65.8562C250.579 65.8588 250.68 65.8816 250.773 65.9231C250.866 65.9647 250.95 66.0242 251.019 66.0983C251.089 66.1724 251.144 66.2596 251.18 66.3548C251.243 66.5392 251.232 66.7406 251.151 66.9176C251.069 67.0945 250.923 67.2335 250.741 67.306L237.522 72.4424C237.434 72.4928 237.337 72.5251 237.237 72.5375Z" fill="#D1D3D4"/>
<path d="M232.767 105.773C232.63 105.77 232.496 105.734 232.376 105.668C232.288 105.617 232.211 105.549 232.15 105.468C232.089 105.387 232.044 105.295 232.018 105.197C231.993 105.099 231.986 104.997 232 104.897C232.014 104.796 232.048 104.7 232.1 104.612L238.647 93.3025L226.496 82.8394C226.415 82.7703 226.349 82.686 226.302 82.5912C226.254 82.4965 226.226 82.3934 226.219 82.2877C226.215 82.1813 226.232 82.0751 226.27 81.9755C226.308 81.8759 226.365 81.7847 226.438 81.7075L236.684 71.2444C236.83 71.1009 237.027 71.0205 237.232 71.0205C237.437 71.0205 237.634 71.1009 237.78 71.2444C237.852 71.316 237.91 71.4012 237.949 71.4951C237.988 71.589 238.008 71.6897 238.008 71.7913C238.008 71.893 237.988 71.9937 237.949 72.0876C237.91 72.1814 237.852 72.2666 237.78 72.3383L228.116 82.2306L240.134 92.551C240.265 92.6675 240.353 92.8252 240.382 92.9982C240.412 93.1711 240.381 93.349 240.296 93.5022L233.434 105.402C233.362 105.514 233.264 105.607 233.147 105.672C233.031 105.736 232.9 105.771 232.767 105.773Z" fill="#D1D3D4"/>
<path d="M220.32 97.9915C220.134 97.9832 219.957 97.9089 219.821 97.7819C219.685 97.6549 219.599 97.4837 219.578 97.299C219.558 97.1143 219.604 96.9283 219.708 96.7745C219.813 96.6207 219.969 96.5092 220.148 96.4601L238.19 92.4651L245.881 82.3445C245.976 82.2171 246.11 82.1229 246.262 82.0751C246.414 82.0273 246.577 82.0284 246.729 82.0781L258.566 85.7688C258.758 85.8302 258.919 85.9636 259.015 86.1409C259.111 86.3182 259.135 86.5257 259.081 86.7199C259.019 86.9115 258.885 87.0715 258.707 87.1657C258.529 87.2599 258.321 87.2808 258.128 87.2241L246.767 83.6952L239.228 93.6066C239.121 93.7556 238.961 93.8578 238.781 93.8919L220.472 97.9535L220.32 97.9915Z" fill="#D1D3D4"/>
<path d="M233.786 106.504C233.583 106.504 233.388 106.425 233.244 106.282C233.099 106.14 233.017 105.946 233.015 105.743C233.012 105.643 233.03 105.542 233.066 105.449C233.103 105.355 233.158 105.269 233.228 105.196C233.298 105.124 233.381 105.066 233.474 105.026C233.567 104.986 233.666 104.965 233.767 104.963L246.434 104.707C246.536 104.7 246.639 104.715 246.735 104.75C246.831 104.785 246.92 104.839 246.994 104.91C247.068 104.98 247.127 105.065 247.167 105.16C247.206 105.254 247.226 105.356 247.225 105.458C247.227 105.663 247.149 105.861 247.006 106.009C246.863 106.157 246.668 106.243 246.462 106.248L233.806 106.504H233.786Z" fill="#D1D3D4"/>
<path d="M193.32 58.9357H193.205L175.221 54.1798C175.161 54.1644 175.104 54.137 175.054 54.0993C175.004 54.0615 174.963 54.0142 174.931 53.9601C174.9 53.906 174.88 53.8462 174.873 53.7843C174.865 53.7223 174.87 53.6595 174.888 53.5996C174.902 53.5384 174.929 53.4808 174.966 53.4304C175.004 53.38 175.051 53.3379 175.106 53.3067C175.16 53.2754 175.221 53.2557 175.283 53.2488C175.346 53.242 175.409 53.248 175.469 53.2666L193.444 58.0226C193.57 58.039 193.685 58.1048 193.762 58.2056C193.84 58.3064 193.875 58.4339 193.858 58.56C193.842 58.6861 193.776 58.8006 193.675 58.8782C193.574 58.9558 193.446 58.9902 193.32 58.9738V58.9357Z" fill="#D1D3D4"/>
<path d="M187.277 127.545C187.2 127.544 187.124 127.525 187.056 127.489C186.988 127.452 186.93 127.4 186.887 127.336C186.851 127.285 186.826 127.227 186.812 127.166C186.799 127.106 186.798 127.043 186.81 126.982C186.821 126.92 186.845 126.862 186.88 126.81C186.914 126.758 186.959 126.714 187.011 126.679L199.886 117.862C199.937 117.822 199.996 117.794 200.059 117.777C200.121 117.761 200.187 117.758 200.25 117.768C200.314 117.777 200.376 117.8 200.43 117.834C200.485 117.868 200.533 117.913 200.57 117.966C200.606 118.019 200.632 118.079 200.645 118.143C200.658 118.206 200.658 118.271 200.645 118.334C200.632 118.397 200.606 118.457 200.569 118.51C200.532 118.563 200.485 118.608 200.43 118.642L187.544 127.459C187.467 127.516 187.373 127.546 187.277 127.545Z" fill="#D1D3D4"/>
<path d="M177.89 91.1337C177.827 91.1381 177.764 91.1301 177.705 91.1103C177.645 91.0904 177.59 91.059 177.543 91.018C177.447 90.935 177.389 90.8175 177.38 90.6914C177.371 90.5653 177.413 90.4408 177.496 90.3454C177.579 90.2499 177.697 90.1914 177.823 90.1825C179.672 89.9542 188.945 88.8033 189.765 88.9365C189.827 88.9458 189.886 88.9672 189.94 88.9995C189.994 89.0318 190.041 89.0743 190.078 89.1247C190.115 89.175 190.142 89.2322 190.157 89.293C190.172 89.3537 190.175 89.4168 190.165 89.4786C190.156 89.5402 190.134 89.5993 190.102 89.6525C190.069 89.7056 190.027 89.7517 189.976 89.788C189.925 89.8244 189.868 89.8503 189.807 89.8641C189.746 89.8779 189.683 89.8795 189.622 89.8686C188.983 89.802 182.131 90.601 177.947 91.1242L177.89 91.1337Z" fill="#D1D3D4"/>
<path d="M277.884 59.849C277.775 59.8517 277.669 59.8171 277.583 59.751C277.496 59.6848 277.435 59.5911 277.409 59.4855C277.384 59.3798 277.395 59.2686 277.442 59.1704C277.488 59.0721 277.567 58.9927 277.665 58.9454L290.541 52.3441C290.655 52.2873 290.787 52.2774 290.908 52.3165C291.029 52.3557 291.13 52.4407 291.189 52.5534C291.246 52.6657 291.255 52.7958 291.216 52.9152C291.177 53.0346 291.092 53.1337 290.979 53.1907L278.094 59.792C278.03 59.8282 277.958 59.8479 277.884 59.849Z" fill="#D1D3D4"/>
<path d="M295.526 102.025H295.44L277.789 98.724C277.666 98.7009 277.556 98.6299 277.485 98.5266C277.413 98.4232 277.386 98.2959 277.408 98.1723C277.433 98.0482 277.506 97.9389 277.611 97.8678C277.717 97.7967 277.845 97.7694 277.97 97.7918L295.611 101.083C295.735 101.106 295.844 101.177 295.916 101.28C295.987 101.384 296.015 101.511 295.993 101.635C295.971 101.743 295.913 101.841 295.828 101.912C295.743 101.983 295.636 102.022 295.526 102.025Z" fill="#D1D3D4"/>
<path d="M273.119 135.364C273.039 135.363 272.961 135.343 272.89 135.307L260.501 128.648C260.389 128.588 260.307 128.485 260.271 128.364C260.235 128.243 260.249 128.112 260.31 128.001C260.371 127.89 260.473 127.808 260.595 127.772C260.716 127.737 260.847 127.751 260.958 127.811L273.348 134.469C273.404 134.499 273.453 134.538 273.494 134.587C273.534 134.635 273.565 134.691 273.583 134.751C273.602 134.811 273.608 134.875 273.602 134.937C273.596 135 273.578 135.061 273.548 135.116C273.505 135.192 273.443 135.255 273.367 135.299C273.292 135.342 273.206 135.365 273.119 135.364Z" fill="#D1D3D4"/>
<path d="M264.923 69.722C264.819 69.7235 264.718 69.6908 264.635 69.6288C264.553 69.5668 264.493 69.4791 264.465 69.3795C259.767 53.8181 239.734 48.9955 239.505 48.948C239.442 48.9336 239.383 48.9071 239.331 48.8699C239.279 48.8327 239.234 48.7857 239.2 48.7313C239.166 48.677 239.143 48.6165 239.132 48.5533C239.122 48.4901 239.124 48.4255 239.138 48.363C239.152 48.3005 239.179 48.2415 239.216 48.1893C239.253 48.1371 239.301 48.0928 239.355 48.0587C239.409 48.0247 239.47 48.0018 239.533 47.9911C239.597 47.9805 239.662 47.9824 239.724 47.9968C239.934 47.9968 260.501 52.9905 265.352 69.0847C265.388 69.2057 265.375 69.3361 265.316 69.448C265.258 69.5599 265.158 69.6446 265.037 69.6839L264.923 69.722Z" fill="#D1D3D4"/>
<path d="M265.847 76.5424C265.74 76.5408 265.637 76.5033 265.554 76.436C265.471 76.3687 265.413 76.2755 265.39 76.1715L264.599 72.8328C264.57 72.7105 264.591 72.5818 264.657 72.4749C264.723 72.3679 264.829 72.2914 264.951 72.2621C265.012 72.2466 265.075 72.2435 265.137 72.2529C265.199 72.2623 265.259 72.2841 265.312 72.3169C265.365 72.3498 265.412 72.393 265.448 72.444C265.484 72.4951 265.51 72.5529 265.523 72.614L266.314 75.9622C266.34 76.0843 266.318 76.2118 266.253 76.3181C266.187 76.4245 266.083 76.5014 265.962 76.5329L265.847 76.5424Z" fill="#D1D3D4"/>
</g>
<defs>
<clipPath id="clip0_583_785">
<rect width="296" height="296" fill="white"/>
</clipPath>
</defs>
</svg>
