<svg width="18" height="23" viewBox="0 0 18 23" fill="none" xmlns="http://www.w3.org/2000/svg">
<path d="M2.22232 22.4962C1.64349 22.9127 0.836304 22.499 0.836304 21.7859V4.29069C0.836304 2.19661 2.53389 0.499023 4.62797 0.499023H13.3761C15.4702 0.499023 17.1678 2.19661 17.1678 4.29069V21.7859C17.1678 22.499 16.3606 22.9127 15.7817 22.4962L9.00203 17.6184L2.22232 22.4962ZM15.4178 4.29069C15.4178 3.16311 14.5037 2.24902 13.3761 2.24902H4.62797C3.50039 2.24902 2.5863 3.16311 2.5863 4.29069V20.0785L8.49101 15.8302C8.79629 15.6106 9.20777 15.6106 9.51305 15.8302L15.4178 20.0785V4.29069Z" fill="white"/>
</svg>
