<svg width="20" height="24" viewBox="0 0 20 24" fill="none" xmlns="http://www.w3.org/2000/svg">
<path d="M4.66256 1.30219C4.86953 0.721218 5.41959 0.333252 6.03633 0.333252H13.5656C14.561 0.333252 15.2638 1.30844 14.9491 2.25275L13.2556 7.33325H17.8741C19.1623 7.33325 19.8178 8.88122 18.9215 9.80636L6.01701 23.1253C4.78765 24.3941 2.6664 23.2492 3.05246 21.5252L4.53322 14.9124L2.70337 14.9054C1.29549 14.9 0.315451 13.5048 0.787914 12.1786L4.66256 1.30219ZM6.24204 2.08325L2.43643 12.7659C2.36894 12.9553 2.50894 13.1546 2.71007 13.1554L5.62824 13.1666C5.89331 13.1676 6.14362 13.2887 6.30892 13.4959C6.47421 13.7032 6.53667 13.9741 6.47875 14.2328L4.76017 21.9076L17.1854 9.08325H12.0416C11.7603 9.08325 11.4962 8.94805 11.3317 8.71987C11.1673 8.4917 11.1225 8.19838 11.2115 7.93155L13.1609 2.08325H6.24204Z" fill="white"/>
</svg>
