<svg width="40" height="32" viewBox="0 0 40 32" fill="none" xmlns="http://www.w3.org/2000/svg">
<path d="M6.5 0H33.5C36.9661 0 39.7985 2.71291 39.9897 6.13115L40 6.5V25.5C40 28.9661 37.2871 31.7985 33.8688 31.9897L33.5 32H6.5C3.03394 32 0.201508 29.2871 0.0102897 25.8688L0 25.5V6.5C0 3.03394 2.71291 0.201508 6.13115 0.0102892L6.5 0H33.5H6.5ZM37 10.746L20.6986 19.3274C20.3238 19.5247 19.8863 19.5528 19.4935 19.4119L19.3014 19.3274L3 10.748V25.5C3 27.3363 4.41422 28.8424 6.21295 28.9884L6.5 29H33.5C35.3363 29 36.8424 27.5858 36.9884 25.7871L37 25.5V10.746ZM33.5 3H6.5C4.66365 3 3.15762 4.41422 3.0116 6.21295L3 6.5V7.358L20 16.3049L37 7.356V6.5C37 4.66365 35.5858 3.15762 33.7871 3.0116L33.5 3Z" fill="white"/>
</svg>
