<svg id="eMcn2NaE1Yp1" xmlns="http://www.w3.org/2000/svg" xmlns:xlink="http://www.w3.org/1999/xlink" viewBox="0 0 200 200" shape-rendering="geometricPrecision" text-rendering="geometricPrecision"><path d="M166.417,151.645h-140.6647c-.0864,0-.1692-.034-.2303-.095s-.0954-.144-.0954-.231v-64.8335c-.0012-.0548.0121-.1088.0383-.1569.0263-.048.0648-.0883.1115-.1168L95.9087,41.8014c.052-.0316.1117-.0483.1726-.0483s.1206.0167.1727.0483l70.358,44.443c.048.0282.087.0682.115.1162.027.0479.041.1022.042.1574v64.834c-.009.085-.05.164-.116.219s-.151.081-.236.074Zm-140.3585-.651h140.0655v-64.3261L96.0846,42.4529L26.0585,86.6679v64.3261Z" fill="#fff"/><path d="M113.218,69.0327c2.339-3.8631,2.932-8.5602,2.717-13.0684-.156-4.9322-1.457-9.7606-3.798-14.1042-.951-1.8653-2.348-3.4674-4.066-4.6645-2.11-1.3029-3.55-.4234-5.615-.7752-1.746-.2997-3.5702-1.544-5.5051-1.8632-4.4635-.7631-9.0502.1961-12.8338,2.684-6.6189,4.4756-9.6743,13.0293-16.5147,17.1857-6.7036,4.0521-15.2834,2.8339-22.8013,5.0749-3.1733.951-6.13,2.5135-8.7036,4.5993-1.7779,1.3612-3.2329,3.0986-4.2606,5.088-1.7654,3.6873-1.3029,8.0782,0,11.9674c1.303,4,3.5049,7.8176,6.9186,10.2997c2.8599,2.0651,6.3713,3.0163,9.8436,3.6417c4.7232.8534,9.6157,1.1726,14.3323.1498c3.481-.7025,6.7255-2.281,9.4267-4.5863c1.1596-1.0358,1.798-2.4495,2.8795-3.4788c1.4918-1.4137,3.8176-2.2801,5.5635-3.3616c2.7296-1.7003,5.4658-3.5114,8.5798-4.3192c7.9088-2.0586,19.0681-2.6189,23.8371-10.4691Z" transform="matrix(1.012246 0 0 0.997759-.897973 0.145876)"/><path d="M56.6318,96.2119c-2.7197-.0232-5.4319-.2892-8.1043-.7948-3.0097-.5407-6.8599-1.4528-9.9674-3.6873s-5.5244-5.8632-7.0228-10.4235c-1.0684-3.2573-1.9544-8.0586.0456-12.1889c1.0364-2.0411,2.5194-3.8224,4.3388-5.2117c2.602-2.1102,5.592-3.6904,8.8013-4.6515c3.0372-.8022,6.1394-1.3341,9.2703-1.5896c4.86-.5342,9.4528-1.0423,13.4528-3.4592c3.4919-2.1108,6.0391-5.4724,8.5081-8.7232c2.3388-3.0814,4.7622-6.2671,7.9935-8.469c3.8378-2.5345,8.494-3.5193,13.0293-2.7557c1.0373.2193,2.0437.5649,2.9968,1.0293.8112.3792,1.6612.6697,2.5342.8664.66.0924,1.329.1077,1.993.0456c1.295-.1866,2.614.0879,3.727.7753c1.766,1.2142,3.199,2.8514,4.169,4.7622c2.373,4.3824,3.688,9.2596,3.837,14.241.254,5.3421-.651,9.772-2.762,13.2313-3.909,6.3974-11.909,8.0326-18.9836,9.4788-1.785.3649-3.4658.7036-5.0358,1.114-2.8078.7232-5.3485,2.3128-7.8176,3.8502l-.6515.4235c-.6514.3843-1.3029.7426-1.9869,1.0944-1.2707.5817-2.4563,1.3335-3.5244,2.2346-.4834.4947-.9196,1.0334-1.303,1.6091-.4533.6826-.9822,1.312-1.5765,1.8762-2.743,2.3678-6.0504,3.9879-9.6026,4.7036-2.0908.4359-4.2228.6434-6.3583.6189ZM93.9803,34.6353c-3.4485-.018-6.8238.9937-9.6938,2.9056-3.1596,2.1303-5.544,5.2768-7.8567,8.3192-2.5016,3.2964-5.0879,6.7101-8.6775,8.8729-4.1108,2.4886-8.9837,3.0228-13.6808,3.544-3.0936.2477-6.159.771-9.1596,1.5635-3.1364.9449-6.0576,2.4941-8.5994,4.5603-1.748,1.3289-3.1769,3.0316-4.1824,4.9837-1.8892,3.9479-1.0488,8.5668,0,11.7264c1.4593,4.4886,3.8111,7.9935,6.8013,10.1498c2.9903,2.1564,6.7818,3.0619,9.7264,3.5961c5.4854.9837,10.1238,1.0359,14.1955.1499c3.4501-.6924,6.6633-2.2631,9.329-4.5603.5619-.5354,1.0623-1.132,1.4918-1.7785.4072-.6077.8719-1.175,1.3876-1.6938c1.1079-.9413,2.3399-1.7261,3.6613-2.3323.697-.3583,1.3485-.697,1.9544-1.0684l.6905-.4299c2.4951-1.557,5.0749-3.1727,7.974-3.9088c1.5895-.4105,3.2573-.7557,5.0618-1.1205c6.9643-1.4137,14.8473-3.0228,18.5993-9.1987c2.02-3.3355,2.919-7.6743,2.671-12.8991-.143-4.8878-1.431-9.6739-3.759-13.9739-.922-1.8251-2.283-3.3922-3.961-4.5603-1.012-.6152-2.212-.8464-3.381-.6514-.71.0604-1.425.0407-2.13-.0587-.917-.2007-1.809-.5044-2.6581-.9055-.9053-.4312-1.8589-.7527-2.8404-.9577-.9786-.1744-1.9702-.2659-2.9642-.2736Z" transform="matrix(1.012246 0 0 0.997759-.898026 0.145911)" fill="#fff"/><path d="M139.798,62.6483l-3.427,12.8991l8.254,1.4723l4.704-17.2313c0,0-7.336-5.6156-8.469-5.6547-1.134-.0391-1.062,8.5146-1.062,8.5146Z"/><path d="M144.625,77.3454h-.058l-8.241-1.4527c-.045-.0074-.087-.0242-.125-.0492-.037-.0249-.069-.0576-.093-.0957-.024-.0382-.04-.081-.046-.1257s-.003-.0901.009-.1333l3.401-12.8404c0-1.3811,0-7.7134.964-8.645.055-.0583.122-.1043.196-.1346s.154-.0444.234-.0413c1.166.0391,7.407,4.7753,8.652,5.7199.051.0398.089.0938.11.1551s.023.1274.007.1902l-4.71,17.2312c-.021.0637-.06.1193-.114.1591-.054.0397-.119.0615-.186.0624Zm-7.817-2.0391l7.596,1.3421l4.56-16.7362c-3.524-2.684-7.472-5.4332-8.098-5.4528-.462.3453-.749,4.5603-.723,8.2085.004.0281.004.0566,0,.0847l-3.335,12.5537Z" fill="#fff"/><path d="M150.586,64.1076c-.067.0064-.135.0064-.202,0-.586-.1433-3.661-2.3257-8.775-6.0586-1.153-.8469-2.156-1.57-2.28-1.6482s-.782.2345-1.303.4169c-1.362.4496-3.225,1.0684-4.358.7688-1.812-.4821-3.01-3.1075-3.062-3.2183-.032-.0647-.04-.1384-.023-.2084s.057-.1321.114-.1759l10.743-8.4691c.036-.028.078-.0483.123-.0595s.092-.0131.137-.0056c.091.0188.17.0726.222.1498.565,1.1584,1.002,2.3752,1.303,3.6287.195.8781.497,1.7291.899,2.5342.43.4755,6.176,4.4625,9.934,7.0293.057.0366.101.0907.124.1542.024.0634.026.1327.007.1976-.671,2.3713-2.333,4.9641-3.603,4.9641Zm-11.212-8.3583c.093-.0036.185.0166.268.0587.136.0716.82.5733,2.351,1.6873c2.606,1.8827,7.929,5.7915,8.541,5.9544.612.1628,2.163-1.6352,2.951-4.3127-1.583-1.075-9.27-6.3388-9.857-6.9968-.332-.3648-.612-1.3029-1.048-2.7883-.278-1.0731-.633-2.1247-1.062-3.1465l-10.235,8.0977c.319.6124,1.303,2.2997,2.521,2.6058.952.2476,2.782-.3583,3.987-.7557.508-.2031,1.04-.3389,1.583-.4039Z" fill="#fff"/><path d="M141.133,48.1402c-.077.6887.053,1.3848.372,2c.527.9446,2.866,2.2019,2.866,2.2019L146,49.0848l-3.192-2.3062-1.675,1.3616Z" fill="#fff"/><path d="M144.371,52.6679c-.052.0003-.104-.0131-.15-.0391-.254-.1303-2.443-1.3355-2.996-2.3322-.354-.6766-.497-1.4435-.411-2.202.01-.0789.05-.1511.111-.2019l1.674-1.3811c.058-.0455.129-.0702.202-.0702s.145.0247.202.0702l3.186,2.3062c.062.0444.106.1092.125.183s.012.152-.021.2209l-1.629,3.2573c-.02.0389-.047.0733-.081.1013-.033.028-.072.0489-.114.0616-.031.0151-.064.024-.098.026Zm-2.925-4.3518c-.04.5771.079,1.1541.345,1.6678.339.6514,1.688,1.4788,2.443,1.9153l1.349-2.7231-2.762-2-1.375,1.14Z" fill="#fff"/><path d="M151.348,57.2738c0,0,.854-2.6906-.651-2.8795-.014-.2368-.088-.4661-.216-.6658s-.305-.363-.515-.4743c-.209-.1113-.444-.1667-.681-.161s-.469.0724-.673.1936c0,0-.482-2-2.058-1.5961-1.577.4039-2.828,4.1759-2.606,5.127.221.9512,1.446.3714,2.065-.5211c0,0-.801,1.4853-.267,1.8762.782.5733,1.602-.443,2.267-1.1857c0,0-.984,1.7394.462,1.8958c1.114.1238,2.15-2.1238,2.15-2.1238l.723.5147Z"/><path d="M148.534,59.2151h-.124c-.285,0-.56-.113-.762-.3144-.203-.2014-.318-.4748-.319-.7605-.541.4756-1.166.7752-1.811.2997-.14-.1259-.242-.2885-.294-.4694-.051-.1808-.051-.3726.001-.5534-.282.1761-.616.2476-.945.2019-.175-.0347-.335-.1229-.457-.2525-.123-.1296-.202-.294-.227-.4706-.241-1.101,1.055-5.0489,2.853-5.5114.223-.0667.458-.086.689-.0569.231.0292.454.1063.653.2263.463.318.814.7739,1.004,1.3029.211-.0767.435-.1094.659-.096s.443.0728.643.1742c.419.2722.717.694.834,1.1791.284.0821.527.2652.684.5147.58.9055.079,2.5537,0,2.7427-.013.0487-.039.0933-.074.1297-.036.0363-.079.0634-.128.0787-.048.0166-.1.0217-.151.0149s-.099-.0252-.142-.0539l-.443-.3062c-.312.6645-1.146,1.9804-2.143,1.9804Zm-.554-2.5537c.071-.0015.14.0215.196.0651.063.048.107.1171.124.1948.016.0777.005.1588-.033.2287-.143.254-.391.8795-.235,1.1856c0,.0456.092.189.45.2281.651.0716,1.511-1.303,1.817-1.9544.021-.0424.05-.08.086-.1104.036-.0303.078-.0526.123-.0655.046-.014.095-.0171.142-.0092.048.0079.093.0266.132.0548l.364.254c.176-.5788.155-1.1995-.058-1.7654-.05-.0748-.117-.137-.195-.1822s-.165-.072-.255-.0784c-.07-.0104-.136-.0433-.186-.0938-.051-.0504-.083-.1158-.094-.1864-.056-.3723-.258-.7071-.56-.9316-.174-.0693-.36-.0983-.547-.0847-.186.0135-.367.0692-.528.1629-.043.0195-.09.0295-.137.0295s-.094-.01-.137-.0295c-.043-.0213-.08-.0516-.111-.0886-.03-.0371-.052-.0801-.065-.1264-.123-.5017-.412-.947-.82-1.2638-.127-.0723-.266-.1177-.411-.1334s-.291-.0013-.43.0422c-1.387.3518-2.554,3.9088-2.378,4.7362.046.2019.131.2214.176.228.269-.0365.526-.1334.751-.2835.226-.1501.415-.3494.552-.583.048-.0678.119-.115.2-.132.081-.0169.166-.0023.237.0408.069.0444.119.113.141.1924s.013.1641-.024.2376c-.332.6514-.515,1.355-.365,1.4658.456.3322.997-.202,1.7-.9837l.137-.1564c.031-.0328.069-.059.11-.0769s.086-.0272.131-.0273Z" fill="#fff"/><path d="M144.384,49.2021c0,0-.892-1.5505-1.83-.1889s-2.066,3.9088-.502,4.1824s2.736-2.6449,2.332-3.9935Z"/><path d="M142.254,53.5278c-.085.0065-.17.0065-.254,0-.205-.0246-.399-.1026-.564-.2261-.164-.1235-.293-.2882-.374-.4775-.456-1.0879.553-3.0228,1.224-3.9869.112-.2056.275-.3785.474-.5018.199-.1234.426-.1929.66-.2018.717.0325,1.192.8273,1.244.912l.033.0717c.107.65.073,1.3157-.101,1.9511-.175.6354-.485,1.2255-.909,1.7297-.173.2163-.391.3932-.638.519s-.518.1976-.795.2106Zm1.12-4.7622c-.215,0-.423.228-.553.4169-.789,1.1401-1.434,2.7101-1.16,3.3681.039.0873.1.1625.178.2176s.17.0879.265.0951c.211.0131.422-.0271.613-.1171.192-.0899.357-.2267.481-.3975.347-.4174.605-.9018.756-1.4231s.193-1.068.124-1.6063c-.104-.1693-.397-.5407-.691-.5537h-.013Z" fill="#fff"/><path d="M139.791,63.5213c0,0-1.029-4.9185-1.127-5.798-.162-1.4919.189-3.8241,1.499-4.1889c1.309-.3648,4.306-.7101,3.811.6058-.45,1.1987-3.075,1.4267-3.075,1.4267s1.811,1.8242,1.537,3.6417"/><path d="M139.791,63.847c-.074.0004-.146-.0246-.204-.0708s-.099-.1109-.115-.1832c-.039-.202-1.029-4.9512-1.127-5.8632-.169-1.5245.156-4.0977,1.733-4.5603.821-.228,3.329-.6971,4.065.1042.111.1238.183.2775.208.442.024.1645-.001.3325-.071.4831-.371,1.0033-1.87,1.4007-2.736,1.557.547.6906,1.426,2.0521,1.212,3.4463-.007.0428-.022.0839-.044.1209-.022.0371-.052.0694-.086.0951-.035.0257-.075.0443-.117.0548-.042.0104-.085.0125-.128.0061-.043-.0065-.084-.0212-.121-.0435s-.069-.0517-.095-.0865-.044-.0743-.055-.1163c-.01-.0419-.012-.0856-.006-.1283.248-1.6352-1.427-3.3486-1.44-3.3616-.043-.0447-.074-.1007-.087-.1616-.014-.0609-.011-.1245.009-.1837.022-.0577.06-.108.11-.1449s.109-.059.17-.0635c.652-.0587,2.489-.3909,2.795-1.2183.072-.1759,0-.228,0-.2541-.345-.3843-2.15-.2671-3.414.0782-1.062.2932-1.413,2.417-1.257,3.8372.098.8534,1.114,5.7263,1.121,5.7719.009.042.01.0855.002.1278-.008.0424-.024.0827-.048.1186-.023.0359-.054.0666-.09.0904-.036.0237-.076.0399-.119.0476l-.065.0586Z" fill="#fff"/><path d="M129.251,55.9317c-.351.0033-.701-.0338-1.043-.1107-.745-.192-1.443-.5366-2.048-1.012-.606-.4755-1.106-1.0715-1.47-1.7502-2.104-3.4137-.807-5.0619,1.864-7.9284.56-.5993,1.368-1.355,2.306-2.2215c1.303-1.2117,2.768-2.6058,4.143-4.0521c1.384-1.3964,2.55-2.993,3.459-4.7361c1.955-4.1043,1.414-10.4886,1.408-10.5538-.006-.067.01-.134.043-.1922.034-.0582.085-.1047.145-.1335.062-.0292.131-.038.198-.0251s.128.0468.174.0968l20.847,21.3289c.045.0478.075.1082.086.1733.01.0652.001.132-.028.1916-.029.0607-.075.1113-.133.145-.058.0338-.125.049-.192.0439-.111,0-10.802-1.0358-15.088,1.4593-1.1.6564-2.154,1.3878-3.153,2.1889-.984.7752-1.955,1.5831-2.86,2.3583-1.145,1.0125-2.341,1.9649-3.583,2.8534-1.89,1.2508-3.584,1.8762-5.075,1.8762Zm9.322-31.5439c.078,1.9544.072,6.6319-1.518,10.013-.942,1.8015-2.148,3.4526-3.576,4.899-1.388,1.4919-2.867,2.8665-4.176,4.0847-.925.8599-1.733,1.6091-2.274,2.1889-2.606,2.7688-3.648,4.1238-1.785,7.1662.32.6032.76,1.1342,1.293,1.5601.534.4259,1.149.7375,1.808.9154c1.551.3388,3.433-.228,5.603-1.6808c1.224-.87,2.4-1.8051,3.524-2.8013.932-.7817,1.889-1.596,2.88-2.3713c1.033-.8229,2.121-1.5739,3.257-2.2475c3.772-2.1955,11.902-1.8176,14.599-1.6157L138.573,24.3878Z" fill="#fff"/><path d="M141.133,48.1402c-2.403,1.8827-5.309,4.3778-7.003,5.6417-3.87,2.8925-6.319,3.1987-8.847-.3779-2.606-3.6742-1.133-5.2117,1.512-8.0521c1.303-1.4006,4.065-3.7133,6.443-6.2736c0,0,.15,2.6645,2.801,5.9153c1.302,1.5854,3.094,2.6925,5.094,3.1466Z" fill="#fff"/><path d="M129.225,56.3422c-.201.0015-.402-.0138-.6-.0456-1.303-.202-2.449-1.0619-3.609-2.7036-2.743-3.8762-1.14-5.5896,1.505-8.43.593-.6514,1.401-1.3876,2.339-2.254c1.303-1.2118,2.769-2.6059,4.143-4.0522.042-.0475.098-.081.16-.0961.061-.0152.126-.0112.185.0114.06.0216.113.0602.151.1112.038.0509.06.1119.064.1755c0,0,.189,2.6059,2.73,5.7264c1.256,1.5221,2.977,2.5889,4.899,3.0358.062.0121.118.0411.164.0837s.08.097.097.1573c.012.0618.008.1259-.013.1855-.02.0596-.057.1125-.105.1533-1.107.8665-2.312,1.8567-3.485,2.8143-1.342,1.101-2.606,2.1434-3.524,2.8274-2.079,1.57-3.707,2.2997-5.101,2.2997Zm3.791-16.5538c-1.244,1.303-2.547,2.5147-3.713,3.5961-.925.86-1.733,1.6091-2.274,2.1889-2.606,2.8079-3.909,4.1955-1.479,7.6417c1.049,1.4854,2.059,2.2606,3.173,2.4365c1.349.2085,2.951-.443,5.212-2.1303.905-.6514,2.169-1.7133,3.505-2.8078.99-.8143,2.006-1.6482,2.97-2.4169-1.812-.5584-3.42-1.6366-4.625-3.101-1.336-1.5591-2.285-3.4118-2.769-5.4072Z" fill="#fff"/><path d="M162.039,43.9513c-2.43,2.1824-7.818.3648-13.062-4.0717-1.344-1.1348-2.606-2.3626-3.778-3.6742-1.152-1.2873-2.214-2.6521-3.18-4.0847-3.908-5.746-5.127-11.3095-2.677-13.5049c3.023-2.7166,10.567.7492,16.84,7.7459c6.274,6.9968,8.893,14.8665,5.857,17.5896Z" fill="#2fe784"/><path d="M142.072,17.6972c3.693,0,9.27,3.2964,14.091,8.671c6.28,6.9968,8.912,14.8665,5.863,17.5896-.768.642-1.749.9722-2.749.9251-2.756,0-6.554-1.8306-10.313-4.9968-1.344-1.1348-2.607-2.3626-3.778-3.6742-1.148-1.2898-2.206-2.6568-3.167-4.0912-3.908-5.746-5.127-11.3095-2.677-13.5049.764-.6345,1.737-.9619,2.73-.9186Zm0-.6515c-1.162-.0498-2.3.3411-3.186,1.0945-2.652,2.3779-1.616,8.1433,2.573,14.3323c1.993,2.942,4.372,5.6021,7.075,7.9088c3.909,3.2573,7.818,5.1465,10.73,5.1465c1.174.0494,2.323-.3514,3.211-1.1205c1.675-1.4984,1.955-4.2997.737-7.8827-1.466-3.9392-3.696-7.5501-6.561-10.6254-4.86-5.3681-10.566-8.8535-14.579-8.8535Z" fill="#fff"/><path d="M153.309,34.4594l-4.332,5.4202c-1.344-1.1348-2.606-2.3626-3.778-3.6742-1.152-1.2873-2.214-2.6521-3.18-4.0847l6.268-3.8502l5.022,6.1889Z"/><path d="M153.316,34.4687c.793-.6509.302-2.5579-1.095-4.2594-1.398-1.7015-3.173-2.5532-3.966-1.9024-.792.6509-.302,2.5579,1.096,4.2594s3.173,2.5532,3.965,1.9024Z" fill="#fff"/><path d="M152.645,34.9936c-1.023,0-2.404-.8273-3.557-2.2345-.657-.7722-1.145-1.6731-1.433-2.6449-.242-.9382-.105-1.6743.384-2.0717.488-.3974,1.231-.3909,2.104,0c.896.4789,1.68,1.1429,2.3,1.9479c1.537,1.8697,2,3.9413,1.055,4.7231-.245.1863-.545.285-.853.2801Zm-3.72-6.5928c-.171-.0093-.339.0414-.476.1433-.273.228-.332.7427-.163,1.4072.261.8821.705,1.6992,1.303,2.3974c1.368,1.6677,2.945,2.3192,3.505,1.8567.561-.4626.228-2.1368-1.14-3.8046-.576-.7236-1.297-1.3184-2.117-1.7459-.283-.1476-.594-.2342-.912-.2541Z" fill="#fff"/><path d="M147.98,57.3129c-.057.0004-.114-.0154-.163-.0456-.037-.021-.07-.0491-.096-.0829s-.045-.0725-.056-.1138-.013-.0844-.007-.1267c.006-.0424.02-.083.042-.1196.405-.6629.905-1.2622,1.485-1.7785.032-.0334.07-.0597.113-.0772.042-.0176.088-.0259.134-.0246.045.0013.09.0123.132.0323.041.0199.078.0484.107.0835.03.0351.052.076.064.1201.013.0441.016.0904.01.1358-.007.0455-.023.089-.047.1278-.025.0388-.057.072-.096.0974-.506.4764-.944,1.02-1.303,1.6156-.032.0536-.08.0968-.136.1245-.057.0276-.12.0387-.183.0319Z" fill="#fff"/><path d="M145.98,56.6223h-.052c-.042-.0085-.082-.0253-.117-.0492-.036-.024-.066-.0546-.09-.0903-.023-.0357-.039-.0757-.048-.1177-.008-.042-.007-.0852.001-.1272.235-.9297.786-1.7493,1.557-2.3192.069-.0518.156-.0741.242-.0618.085.0122.162.0579.214.127s.074.156.062.2415-.058.1627-.127.2145c-.638.4758-1.097,1.1529-1.303,1.9218-.017.0764-.06.1443-.122.192s-.139.072-.217.0686Z" fill="#fff"/><path d="M150.593,57.0848c-.066.0005-.13-.02-.183-.0586-.035-.0247-.065-.0561-.088-.0924s-.039-.0769-.046-.1193-.006-.0858.004-.1278c.009-.0419.027-.0815.052-.1165l.443-.6515c.052-.0684.128-.1145.213-.129.084-.0146.171.0036.243.0509.07.0509.117.127.132.2121.014.0851-.005.1726-.054.2439l-.449.6514c-.03.0434-.07.0787-.116.1026-.047.0239-.099.0357-.151.0342Z" fill="#fff"/><path d="M130.032,55.6842c-.07.0005-.139-.0224-.195-.0652-2.88-2.1889-4.665-4.8469-5.016-7.4788v-.0717c-.021-.069-.018-.1429.008-.2101s.073-.1238.135-.1612c.036-.0236.077-.0397.119-.0472s.086-.0065.128.0033c.042.0097.082.0279.116.0533.035.0255.064.0578.086.0948.039.0794.061.1659.066.2541.332,2.4626,2.019,4.9642,4.768,7.0424.056.0413.096.0991.116.165.021.0659.019.1365-.003.2017s-.065.1216-.122.161c-.056.0395-.124.06-.193.0586h-.013Z"/><path d="M128.423,45.2868c-.044-.0006-.089-.0108-.129-.0299-.041-.0192-.076-.0467-.105-.0809-.031-.0297-.055-.0652-.071-.1043-.017-.0392-.025-.0812-.025-.1237s.008-.0845.025-.1237c.016-.0391.04-.0746.071-.1043l3.505-3.2573c.029-.0312.064-.056.103-.073.04-.017.082-.0257.125-.0257.042,0,.085.0087.124.0257s.074.0418.104.073c.03.0297.054.0652.071.1043.016.0392.024.0812.024.1237s-.008.0845-.024.1236c-.017.0392-.041.0747-.071.1044l-3.505,3.2573c-.028.0326-.061.0592-.1.0783-.038.019-.079.0301-.122.0325Z"/><path d="M128.905,46.0685c-.09-.0023-.177-.0397-.241-.1042-.06-.062-.093-.1449-.093-.2313c0-.0863.033-.1693.093-.2313l3.505-3.2573c.061-.0597.143-.0931.228-.0931.086,0,.167.0334.228.0931.031.0303.055.0663.072.106.016.0397.025.0823.025.1253s-.009.0856-.025.1253c-.017.0397-.041.0757-.072.106l-3.498,3.2573c-.059.0606-.137.0977-.222.1042Z"/><path d="M129.459,46.9676c-.044.001-.088-.0077-.129-.0258-.04-.018-.076-.0448-.105-.0785-.031-.0297-.055-.0652-.071-.1043-.017-.0392-.025-.0812-.025-.1237s.008-.0845.025-.1236c.016-.0392.04-.0747.071-.1044l3.504-3.2573c.03-.0312.065-.056.104-.073s.082-.0257.124-.0257c.043,0,.086.0087.125.0257s.074.0418.104.073c.03.0297.054.0652.07.1043.017.0392.025.0812.025.1237s-.008.0845-.025.1237c-.016.0391-.04.0746-.07.1043l-3.505,3.2573c-.028.0317-.062.0573-.1.0753-.038.0179-.08.0278-.122.029Z"/><path d="M71.4787,97.2151L69.8435,133.319c0,0,22.3127.267,35.1465-5.094c1.052-3.442,2.323-6.812,3.805-10.091c1.882-3.805,9.967-9.414,7.426-23.9808c0,0,19.049,12.0518,24.417,6.5148c5.368-5.5376,8.052-31.4008,8.052-31.4008l-11.153-3.583-5.068,15.9478c0,0-32.143-15.5504-39.6353-17.5179-2.7817-.7296-11.4267,3.8697-21.3355,10.2346" fill="#2fe784"/><path d="M92.1432,74.9415c0,0,5.1661,16.0521,6.0521,22.8469.886,6.7946,1.0163,18.0256,1.0163,18.0256s8.1754-25.0419,7.1664-40.5077l-14.2348-.3648Z" fill="#fff"/><path d="M99.2116,116.108h-.0391c-.068-.01-.1303-.043-.1757-.095-.0455-.051-.0709-.117-.0719-.186c0-.11-.1433-11.296-1.0163-17.993-.8729-6.6971-5.9869-22.6384-6.039-22.8013-.0132-.0438-.016-.09-.0082-.135s.0261-.0876.0533-.1243.0627-.0665.1034-.0871.0859-.0314.1316-.0315l14.2283.3649c.072-.0001.141.0276.193.0774s.083.1177.087.1897c1.01,15.342-7.0881,40.3912-7.1663,40.6192-.0184.059-.0557.111-.1062.148-.0506.036-.1116.055-.1739.054Zm-6.671-40.8668c.7882,2.4886,5.14,16.3518,5.9413,22.5081.6515,5.1207.9056,12.8407.9837,16.2867c1.7784-5.863,7.3944-25.518,6.6384-38.4365l-13.5634-.3583Z" fill="#fff"/><path d="M66.1171,152.485h61.5699l-22.677-24.26-35.1469,5.094c0,0-4.2085,9.525-3.8111,16.209.026.788.0456,1.798.0651,2.957Z" fill="#fff"/><path d="M127.687,152.811h-61.5699c-.0424.001-.0847-.007-.1241-.022-.0395-.016-.0755-.039-.1058-.069-.0304-.03-.0545-.065-.0709-.104s-.0249-.082-.0249-.124c0-1.094-.0391-2.143-.0847-2.945-.3974-6.69,3.6612-15.967,3.8371-16.364.0232-.049.0577-.092.1008-.125s.0934-.055.1468-.064l35.1796-5.095c.052-.006.105,0,.155.018s.095.048.131.086l22.678,24.261c.043.047.072.105.082.168.011.062.003.127-.023.185s-.068.107-.121.142c-.053.034-.116.053-.179.052h-.007Zm-61.2376-.651h60.4816l-22.045-23.59-34.8015,5.043c-.5537,1.302-4.0781,9.843-3.7133,15.895.0326.736.0782,1.668.0782,2.652Z" fill="#fff"/><path d="M104.606,66.3096l1.765,8.9968c0,0,.046,5.2117-5.726,4.7101-1.7055-.1601-3.3537-.6988-4.8245-1.5768-1.4707-.8779-2.727-2.073-3.6773-3.4982L89.8045,59.2282c.2013-2.8611-.0316-5.7363-.6906-8.5277c6.6384-1.3746,10.9251-7.3876,10.9251-7.3876s2.938,2.9967,4.137,3.9088c.964.6607,1.84,1.4423,2.606,2.3257c1.257,1.557,1.628,3.7329,1.954,5.6547.41,2.2811.613,4.5945.606,6.9121-.104,4.3974-4.736,4.1954-4.736,4.1954Z"/><path d="M101.394,80.3487c-.248,0-.508,0-.775,0-1.7531-.1579-3.448-.7084-4.9592-1.6106s-2.8-2.133-3.7707-3.6011c-.0187-.0347-.0319-.072-.039-.1108c0,0-2.3323-15.6352-2.3388-15.7133-.0261-.2621-.0261-.5262,0-.7883.151-2.5954-.0817-5.1989-.6906-7.7264-.0099-.0375-.0116-.0768-.0049-.115.0068-.0383.0218-.0746.044-.1065.0214-.033.0491-.0616.0815-.0839.0324-.0224.0689-.0381.1075-.0464c6.4429-1.3029,10.697-7.2117,10.7361-7.2703.0259-.0353.0591-.0646.0973-.0859.0382-.0214.0806-.0343.1238-.0379.044-.0042.088.0019.128.0178.041.0158.078.041.107.0734.033,0,2.938,2.9902,4.111,3.8697.965.6776,1.84,1.4743,2.606,2.3713c1.302,1.6417,1.7,3.9088,2.013,5.7916.414,2.298.619,4.629.612,6.9641.017.5954-.09,1.1879-.314,1.7397-.225.5518-.561,1.0509-.989,1.4655-.943.803-2.13,1.2623-3.368,1.303l1.7,8.6449c-.008,1.4357-.579,2.811-1.589,3.8306-1.011.854-2.308,1.2919-3.629,1.2248Zm-8.9641-5.5114c.9329,1.3673,2.1544,2.5134,3.5782,3.3576c1.4239.8442,3.0155,1.3659,4.6629,1.5284c1.72.1433,3.062-.215,3.993-1.0749.874-.8967,1.377-2.0904,1.408-3.342l-1.759-8.9382c-.008-.0445-.006-.0901.005-.1338.012-.0438.032-.0847.06-.1202.028-.0358.065-.064.107-.0821s.088-.0258.134-.0222c1.203.0234,2.376-.3806,3.309-1.14.361-.364.644-.7979.831-1.2752s.275-.9877.257-1.5001c.006-2.3002-.197-4.5963-.606-6.8599-.319-1.8697-.651-4-1.889-5.5114-.742-.8602-1.589-1.6241-2.521-2.2736-1.016-.7622-3.199-2.9381-3.909-3.6808-.9315,1.2052-4.8338,5.8632-10.5993,7.1661.5825,2.4852.8019,5.0416.6515,7.5896-.0175.2168-.0175.4347,0,.6515c0,0-.026.1628,2.2867,15.6612Z" fill="#fff"/><path d="M105.394,70.7395c0,0-3.622.8535-6.4365-1.1335-2.8144-1.987-2.9316-4.5082-2.9316-4.5082s4.4561,1.8958,8.5801,1.2118l.788,4.4299Z" fill="#fff"/><path d="M103.498,71.2151c-1.672.036-3.314-.4439-4.7034-1.3746-2.899-2.0456-3.0293-4.5863-3.0293-4.7296-.004-.0486.0055-.0974.0273-.1411s.0552-.0804.0965-.1065c.0386-.0291.0843-.0475.1324-.0532.048-.0057.0968.0014.1412.0207.0456,0,4.4363,1.8566,8.4233,1.1921.074-.0113.15.0069.211.0508.061.0438.102.1098.115.1838l.795,4.4299c.013.0733-.002.149-.044.2111-.041.062-.105.1055-.178.1212-.653.1392-1.319.2047-1.987.1954Zm-7.0813-5.6677c.406,1.5682,1.3785,2.9305,2.7297,3.8241c2.2476,1.5896,5.0746,1.3029,5.9416,1.14l-.691-3.8762c-3.355.4626-6.7685-.6319-7.9803-1.0879Z" fill="#fff"/><path d="M99.7979,50.9676c0,0,3.7201,3.7785,3.1721,4.658-.547.8795-2.566.7557-2.566.7557"/><path d="M100.716,56.6744h-.332c-.038-.0025-.074-.0124-.108-.0291s-.064-.04-.089-.0685c-.025-.0284-.044-.0615-.056-.0973s-.017-.0736-.014-.1113c.005-.0766.04-.1482.097-.1994.058-.0511.133-.0778.209-.0742.515,0,1.955,0,2.306-.6124.222-.3648-1.237-2.3778-3.1331-4.3062-.0265-.0269-.0475-.0588-.0617-.0939-.0142-.035-.0213-.0725-.021-.1103s.008-.0752.0228-.11c.0147-.0348.0362-.0664.0631-.0929.027-.0266.0589-.0475.094-.0617.035-.0142.0725-.0213.1103-.021s.0752.008.11.0228c.0348.0147.0664.0362.0926.0631c1.166,1.1857,3.811,4.0456,3.212,5.0163-.495.7883-1.857.886-2.502.886Z" fill="#fff"/><path d="M104.944,53.0224c.273-.0632.399-.5293.281-1.0411-.119-.5119-.436-.8755-.71-.8124-.273.0632-.399.5293-.28,1.0411.118.5119.435.8756.709.8124Z" fill="#fff"/><path d="M96.6438,53.8658c.2734-.0632.3992-.5293.281-1.0412-.1183-.5118-.4358-.8755-.7092-.8123s-.3993.5293-.281,1.0411c.1182.5118.4358.8755.7092.8124Z" fill="#fff"/><path d="M91.9347,54.0425c-.9055-1.4658-3.0228-1.6678-4.5016-1.075-.4905.1755-.9172.494-1.2249.9144-.3078.4204-.4825.9233-.5015,1.444-.0114.6394.1038,1.2748.3388,1.8697.3934,1.1151.9849,2.1502,1.7459,3.0553.3546.4735.8229.85,1.3616,1.0945.3393.1198.7066.1354,1.0549.0449.3482-.0906.6615-.2831.8995-.553"/><path d="M89.7654,61.7624c-.2454-.0003-.4885-.0467-.7166-.1368-.5844-.2652-1.0946-.6702-1.4854-1.1792-.7819-.9335-1.3908-1.999-1.798-3.1466-.2487-.6346-.3704-1.3119-.3583-1.9935.0251-.5752.2206-1.13.5616-1.594s.8121-.8161,1.3537-1.0118c1.6286-.6515,3.9088-.3909,4.8664,1.1922.0329.0669.0397.1436.019.2153s-.0674.133-.1309.172-.1393.0531-.2125.0393c-.0733-.0138-.1388-.0544-.1837-.1139-.8144-1.303-2.7362-1.518-4.1368-.9577-.4371.1549-.818.4367-1.0942.8091s-.435.8189-.4563,1.2821c-.0088.6015.0996,1.1989.3192,1.759.3825,1.0815.9562,2.0855,1.6938,2.9641.325.4326.7527.7774,1.2443,1.0033.2878.1012.5994.1137.8944.0359s.5599-.2424.7603-.4724c.0257-.034.0584-.0621.0959-.0825s.0788-.0325.1214-.0356.0852.0028.1252.0176c.04.0147.0765.0378.1068.0677.0304.0299.0541.066.0694.1058.0154.0397.022.0824.0196.1249-.0025.0426-.014.0842-.0338.1219-.0198.0378-.0474.0709-.081.0972-.2004.2168-.4417.3917-.7101.5147-.2683.123-.5584.1916-.8534.2019Z" fill="#fff"/><path d="M103.446,57.5539l-4.3582.4234c0,0,.9055,6.7362,2.8662,6.5538c1.961-.1824,1.968-5.0489,1.492-6.9772Z"/><path d="M101.869,64.8243c-2.0516,0-2.9181-5.6547-3.0679-6.8078-.0072-.038-.0057-.0771.0045-.1143.0101-.0373.0287-.0717.0541-.1007.0223-.0319.0514-.0584.0852-.0775s.0715-.0306.1103-.0333l4.3648-.4234c.068-.0068.137.0112.193.0506s.096.0978.113.1644c.372,1.4983.495,5.0879-.586,6.6058-.127.2004-.297.3699-.497.4962-.201.1262-.427.206-.663.2335l-.111.0065ZM99.4135,58.238c.3648,2.4625,1.3025,6.0065,2.4555,6.0065h.059c.152-.0217.298-.0767.426-.1612.129-.0845.237-.1963.317-.3274.853-1.2052.892-4.2215.554-5.8632l-3.8115.3453Z" fill="#fff"/><path d="M114.352,109.788c-.053,0-.104-.014-.149-.04-.045-.027-.083-.065-.108-.111s-.038-.098-.036-.15c.002-.053.017-.104.045-.148.046-.085,4.834-8.137.254-24.9056-.018-.076-.007-.156.032-.2239s.102-.1182.177-.141c.037-.0108.077-.0139.116-.0093.038.0047.076.0171.11.0366s.064.0454.088.0766c.023.0311.041.0667.05.1046c4.658,17.042-.117,25.042-.325,25.407-.031.037-.07.066-.114.085-.044.018-.093.025-.14.019Z" fill="#fff"/><path d="M25.7523,86.4855L96.0846,137.228L166.417,86.4855v83.2445h-140.6647v-83.2445Z"/><path d="M166.417,170.056h-140.6647c-.0864,0-.1692-.035-.2303-.096s-.0954-.144-.0954-.23v-83.2445c-.0011-.0596.0149-.1182.0461-.169s.0762-.0916.1298-.1177c.0507-.0317.1094-.0486.1693-.0486s.1186.0169.1694.0486L96.0845,136.798L166.221,86.1988c.051-.0317.11-.0486.17-.0486s.118.0169.169.0486c.054.0258.1.0664.133.1171.032.0507.049.1095.05.1696v83.2445c-.002.086-.037.168-.098.228-.06.061-.142.096-.228.098Zm-140.3585-.652h140.0655v-82.2801L96.2735,137.489c-.0558.041-.1231.062-.1922.062s-.1364-.021-.1922-.062L26.0585,87.1239v82.2801Z" fill="#fff"/><path d="M25.7523,170.056c-.0586,0-.1161-.016-.1666-.046s-.0919-.072-.12-.124c-.0405-.075-.0502-.164-.0272-.246.0231-.083.0772-.153.151-.197l64.3518-36.814c.0751-.042.164-.053.247-.03.0831.023.1535.079.196.154.022.036.0365.077.0425.119.006.043.0035.086-.0075.127s-.03.08-.0562.114c-.0261.034-.0588.062-.0961.083L25.9087,170.01c-.0475.028-.1013.044-.1564.046Z" fill="#fff"/><path d="M166.417,170.056c-.057-.002-.113-.018-.163-.046l-64.352-36.814c-.075-.043-.13-.113-.153-.196s-.013-.172.029-.247c.044-.074.114-.128.197-.151s.171-.014.246.027l64.352,36.814c.075.043.13.113.154.196.023.083.012.172-.03.247-.027.051-.067.094-.117.123-.049.03-.106.046-.163.047Z" fill="#fff"/><path d="M59.2832,131.547c0,0,2.8469,7.414,3.518,7.818.671.404,8.5993,3.648,8.0325,5.166-.5667,1.518-4.1368-.332-4.1368-.332s5.1401,5.948,3.785,6.997c-1.355,1.048-5.9153,3.179-7.7459,2.312-1.8306-.866-10.9576-12.176-12.8925-17.088"/><path d="M63.8435,154.056c-.4248.012-.8472-.068-1.2378-.235-1.9544-.932-11.1401-12.378-13.0619-17.264-.0154-.04-.0227-.083-.0216-.126.0012-.043.0108-.085.0283-.125.0176-.039.0427-.075.074-.104.0312-.03.068-.053.1082-.068.0402-.016.0831-.023.1261-.022s.0854.011.1248.028c.0393.018.0748.043.1044.074.0296.032.0528.068.0682.109c1.9544,5.009,11.14,16.156,12.7231,16.938c1.5831.781,6.0326-1.199,7.4137-2.274.0297-.027.0536-.061.0704-.098.0168-.036.026-.076.0273-.117.1238-1.303-2.8013-4.997-3.9088-6.313-.0496-.057-.0776-.13-.0792-.206-.0016-.075.0233-.149.0703-.209.0471-.059.1135-.1.1876-.116.0742-.016.1515-.005.2187.03.6515.339,2.5146,1.146,3.3485.827.0764-.026.1459-.068.2035-.125.0575-.056.1015-.125.1288-.201.1563-.423-.873-1.485-6.6776-4.175-.7035-.326-1.0749-.502-1.2247-.6-.7036-.449-2.9707-6.234-3.6482-7.993-.0157-.041-.0233-.083-.0222-.127.001-.043.0106-.085.0281-.125.0176-.039.0428-.074.0742-.104s.0684-.053.1088-.068c.0804-.029.1692-.026.2473.009s.139.1.1696.18c1.3551,3.525,2.9968,7.362,3.4007,7.687.1107.072.5863.294,1.1401.548c4.6775,2.163,7.4788,3.759,7.0162,4.996-.0599.163-.1545.311-.2771.433-.1225.123-.2703.218-.4329.278-.8785.179-1.7911.074-2.6059-.3c1.2573,1.57,3.3355,4.391,3.2052,5.733-.0106.126-.0466.249-.106.361-.0593.112-.1407.211-.2393.29-1.0749.815-4.5407,2.574-6.8729,2.574Z" fill="#fff"/><path d="M71.4982,74.3748C54.7425,85.137,34.3646,100.974,32.6448,104.674c-2.7492,5.864,17.811,35.349,17.811,35.349l11.1336-7.062-10.1759-22.104L71.4786,97.2086" fill="#2fe784"/><path d="M58.6318,106.297c-.0483.001-.0961-.01-.1393-.031-.0432-.022-.0804-.054-.1083-.093-.044-.066-.0611-.145-.0477-.223.0133-.078.0561-.147.1194-.194L80.9836,89.9839c.0318-.0235.068-.0403.1064-.0494s.0784-.0104.1173-.0037.0761.0212.1093.0426c.0332.0215.0618.0494.0839.0821.0223.0325.0379.0691.0461.1076.0081.0386.0085.0784.0013.1171-.0073.0387-.0221.0756-.0437.1086s-.0493.0614-.0819.0837L58.8011,106.244c-.0491.036-.1086.054-.1693.053Z" fill="#fff"/><path d="M156.515,150.994l27.302-16.71-23.133,9.635-4.169,7.075Z" fill="#fff"/><path d="M156.515,151.319c-.043,0-.085-.009-.124-.025-.04-.017-.075-.042-.104-.072-.052-.051-.085-.118-.095-.19-.009-.072.006-.145.042-.208l4.17-7.068c.033-.061.086-.11.15-.137l23.159-9.635c.076-.032.161-.033.238-.005.078.029.141.085.178.159.037.073.045.158.022.237-.022.079-.074.146-.145.189l-27.322,16.684c-.05.037-.108.062-.169.071Zm4.39-7.166l-3.446,5.863l22.6-13.83-19.154,7.967Z" fill="#fff"/><path d="M169.609,148.779c-.048.001-.095-.01-.137-.033l-8.925-4.56c-.051-.025-.094-.064-.123-.112-.029-.049-.043-.105-.04-.162s.022-.112.054-.159.077-.084.129-.108l23.146-9.635c.064-.025.134-.028.199-.008s.121.062.159.119c.039.056.057.124.05.193-.007.068-.039.131-.089.178l-14.208,14.202c-.028.029-.061.051-.098.066s-.077.021-.117.019Zm-8.222-4.828l8.163,4.17l12.991-12.984-21.154,8.814Z" fill="#fff"/><path d="M154.397,141.6c-.05,0-.1-.014-.143-.04l-6.691-3.817c-.053-.033-.095-.081-.119-.139-.025-.057-.031-.121-.017-.182s.046-.117.093-.158c.046-.042.105-.068.167-.075l36.078-3.199c.075-.006.149.017.208.062.059.046.099.112.112.186.012.074-.004.15-.045.212-.041.063-.104.108-.177.127l-29.394,7.016-.072.007Zm-5.713-3.909l5.759,3.29l25.361-6.02-31.12,2.73Z" fill="#fff"/><path d="M156.514,151.293h-.045c-.059-.009-.115-.035-.159-.076-.044-.04-.075-.093-.089-.152l-2.084-9.693c-.009-.038-.01-.077-.004-.115.007-.038.021-.075.041-.107.021-.033.048-.061.079-.084.032-.022.067-.038.105-.046l29.394-7.017c.075-.024.155-.017.225.018s.122.097.147.171c.024.075.017.156-.018.225-.035.07-.097.122-.171.147l-23.023,9.596-4.117,6.983c-.028.05-.069.09-.118.117-.05.026-.106.038-.163.033Zm-1.739-9.772l1.87,8.658l3.778-6.417c.035-.054.085-.097.144-.123l19.713-8.209-25.505,6.091Z" fill="#fff"/><path d="M150.488,152.342c-.069-.001-.137-.025-.192-.068s-.095-.102-.114-.169-.016-.138.009-.204c.025-.065.069-.12.128-.158l1.088-.697c.073-.048.161-.065.246-.047s.159.069.207.141c.047.073.064.161.046.246-.017.085-.068.159-.141.207l-1.101.704c-.053.03-.114.046-.176.045Z" fill="#fff" fill-opacity="0.6"/><path d="M51.8696,182.192c-.0859-.001-.1678-.036-.2285-.097s-.0956-.143-.0972-.228c-.0001-.086.0334-.168.0931-.228.0596-.061.1408-.096.2261-.098l1.5505-.033l1.0488-.032c.0855-.001.168.032.2308.09s.1014.137.108.222c.0017.044-.0052.087-.0204.128-.0151.04-.0383.077-.068.109-.0297.031-.0655.057-.1051.074-.0396.018-.0824.027-.1257.028l-1.0489.033-1.557.032h-.0065Zm-2.6059,0c-.886,0-1.7589-.039-2.6058-.071-.0858-.005-.1664-.043-.2247-.107-.0583-.063-.0899-.146-.088-.232.0016-.043.0117-.085.0297-.124s.0434-.074.0748-.103c.0315-.029.0684-.051.1086-.066.0401-.015.0829-.022.1256-.02.8469.033,1.7134.059,2.6059.072.0864,0,.1692.034.2303.095s.0954.144.0954.231c-.0008.044-.0104.087-.0283.128-.0179.04-.0437.077-.0759.107-.0321.03-.07.054-.1114.069-.0414.016-.0855.023-.1297.021h-.0065Zm7.8176-.176c-.0824.001-.1617-.031-.2212-.088s-.0946-.135-.098-.218c-.0026-.043.0032-.085.0172-.126.0139-.04.0358-.078.0642-.11.0285-.032.063-.058.1015-.077.0386-.019.0805-.03.1233-.032.8664-.039,1.7329-.091,2.6059-.15.0429-.003.0862.002.1271.015.0409.014.0787.036.1109.064.0323.029.0584.064.0769.103.0184.039.0287.081.0303.124.0036.043-.0014.086-.0146.126-.0133.041-.0345.078-.0624.11s-.062.059-.1003.077c-.0382.019-.0798.03-.1223.033-.8665.058-1.7329.11-2.6059.149h-.0326Zm-12.9967-.045c-.886-.065-1.7525-.143-2.6059-.235-.0854-.01-.1634-.053-.2171-.12s-.0787-.153-.0695-.238c.0031-.043.015-.085.0351-.123s.0478-.072.0814-.099c.0337-.026.0725-.046.1141-.057.0416-.012.0851-.014.1277-.008.8404.085,1.7003.163,2.6058.228.0864,0,.1693.035.2304.096s.0954.144.0954.23c0,.087-.0343.169-.0954.23-.0611.062-.144.096-.2304.096h-.0716Zm18.1954-.293c-.0864,0-.1692-.035-.2303-.096s-.0954-.144-.0954-.23.0343-.169.0954-.23.1439-.096.2303-.096c.8665-.071,1.7264-.15,2.6059-.234.0858-.006.1705.021.237.076.0666.054.1099.132.1213.217.0045.043.0005.086-.0119.127-.0123.041-.0327.08-.06.113s-.0608.061-.0988.081c-.038.021-.0796.033-.1225.037-.8686.083-1.7372.161-2.6058.235h-.0652Zm-23.3746-.267h-.0456c-.8729-.131-1.7394-.274-2.6058-.43-.0428-.009-.0836-.025-.12-.049s-.0677-.055-.0922-.091-.0417-.076-.0506-.119c-.0088-.042-.0092-.086-.0011-.129.0082-.043.0246-.084.0485-.12s.0547-.068.0907-.092c.036-.025.0764-.042.1191-.051s.0866-.009.1293-.001c.8274.157,1.6873.3,2.5538.424.0424.006.0831.021.1198.043s.0686.051.094.086c.0255.034.0438.073.0541.115.0102.041.0122.085.0057.127-.0105.077-.0475.147-.1046.2-.0571.052-.1307.083-.2081.087h.013Zm28.5603-.235c-.0428.003-.0856-.003-.1261-.017-.0406-.014-.0779-.036-.11-.065-.032-.028-.0582-.062-.0769-.101s-.0297-.08-.0323-.123.0033-.086.0173-.126c.014-.041.0359-.078.0643-.11s.0629-.058.1014-.077c.0386-.019.0804-.03.1232-.032.8686-.096,1.7372-.2,2.6059-.313.0864-.011.1737.012.2427.065s.1141.132.1253.218c.0113.087-.0123.174-.0654.243-.0532.069-.1316.114-.2179.125l-2.6059.307-.0456.006Zm5.1661-.651c-.0787-.001-.1546-.029-.2142-.081-.0597-.051-.0992-.122-.1115-.2-.0064-.042-.0043-.086.0064-.128s.0296-.081.0557-.116.0588-.064.0962-.085c.0375-.022.0789-.036.1218-.042l2.5668-.384c.042-.008.085-.007.1266.003.0416.009.0808.027.1154.052s.0639.056.0861.093c.0222.036.0369.077.0432.119.0075.042.0065.086-.0029.128s-.027.081-.0519.116c-.0248.036-.0564.065-.0928.088s-.077.039-.1195.046l-2.6058.384-.0196.007Zm-38.8339-.066h-.0781c-.8665-.202-1.7199-.423-2.5342-.651-.082-.026-.1509-.082-.1922-.157-.0412-.076-.0518-.164-.0293-.247.0119-.041.0319-.079.0587-.113.0268-.033.0598-.061.0973-.081.0375-.021.0787-.034.1213-.039.0425-.004.0855,0,.1266.012.8078.228,1.6482.449,2.5016.651.0419.009.0815.027.1164.051.035.025.0646.057.0871.093.0225.037.0374.077.0438.12.0065.042.0044.085-.0063.127-.0215.069-.0651.128-.124.169-.0589.042-.1298.062-.2017.059l.013.006Zm43.974-.749c-.0764.001-.1506-.025-.2091-.074s-.0977-.117-.1101-.193c-.0134-.085.0071-.172.0569-.243.0499-.07.1253-.119.2102-.135l2.5602-.456c.042-.008.0853-.008.1272.001.042.008.0818.025.117.049.0353.025.0653.056.0882.092.023.036.0384.077.0455.119.0152.084-.0036.172-.0525.242-.0488.071-.1236.12-.2081.136l-2.5668.462h-.0586ZM28.7882,179c-.0345.006-.0698.006-.1043,0-.8338-.293-1.6612-.612-2.4495-.944-.0394-.017-.0751-.042-.105-.073s-.0534-.067-.0691-.107c-.0158-.04-.0234-.083-.0226-.126s.0101-.085.0273-.124c.0344-.078.098-.14.1772-.172.0792-.031.1676-.031.2463.002.7752.326,1.5896.652,2.4104.932.0864.014.1634.063.2141.134.0507.072.071.16.0563.247-.0147.086-.0631.163-.1346.214s-.1601.071-.2465.056v-.039Zm54.0716-.247c-.0747-.002-.1469-.028-.2049-.075-.0579-.048-.0982-.113-.1143-.186-.0086-.042-.0088-.085-.0006-.127.0081-.042.0244-.082.048-.118.0236-.035.054-.066.0895-.09s.0753-.041.1172-.049l2.5472-.535c.0419-.008.0851-.008.1271,0s.082.024.1177.048c.0357.023.0664.054.0904.089.0239.036.0406.076.0492.118.0095.041.0107.084.0033.126s-.023.082-.0461.118c-.023.036-.053.067-.0882.091s-.0748.04-.1166.049l-2.5537.534-.0652.007Zm5.0945-1.095c-.0428.005-.0861.001-.1274-.011s-.0799-.032-.1134-.059-.0615-.06-.0823-.098-.0338-.079-.0385-.122-.0009-.086.0111-.127.0321-.08.059-.114c.0269-.033.0602-.061.0979-.082s.0792-.034.1219-.038c.8469-.196,1.6873-.391,2.5277-.6.0838-.019.1719-.005.2452.04.0732.045.1256.118.1457.201.0107.042.0129.086.0065.129s-.0212.084-.0437.121c-.0224.037-.052.069-.087.094-.035.026-.0747.044-.1168.054-.8404.202-1.6808.404-2.5343.593l-.0716.019Zm-63.9674-.697c-.0523-.001-.1035-.015-.1499-.039-.7882-.404-1.557-.84-2.2866-1.303-.0364-.023-.068-.052-.093-.087s-.0428-.074-.0525-.116-.011-.085-.0039-.127c.0071-.043.0224-.083.0451-.119.022-.038.0513-.07.0861-.095.0348-.026.0744-.044.1164-.054.042-.009.0856-.011.128-.003.0425.008.083.024.1191.047.7101.437,1.4658.86,2.241,1.258.0864.019.1614.073.2084.148s.0623.166.0424.252c-.0199.087-.0732.162-.1484.209s-.1658.062-.2522.042v-.013Zm69.0553-.534c-.0864.01-.1733-.014-.2417-.068-.0685-.054-.1127-.132-.1231-.219-.0104-.086.014-.173.0678-.242.0537-.068.1325-.112.2189-.123l2.5146-.651c.0428-.011.0873-.014.1311-.008s.0859.021.124.043c.0382.023.0715.053.0981.088s.0461.075.0572.118c.0112.043.0138.087.0077.131s-.0208.086-.0432.124-.052.072-.0873.098c-.0353.027-.0754.046-.1182.057-.8339.226-1.6743.443-2.5212.652-.0319.009-.0658.009-.0977,0h.013Zm5.0293-1.362c-.0707.001-.1398-.021-.1964-.063-.0566-.043-.0975-.103-.1162-.171-.0222-.084-.0108-.173.0318-.249.0426-.075.113-.131.1962-.155l2.4951-.723c.082-.025.17-.016.246.024.076.041.132.109.158.191.013.041.017.084.013.127s-.017.084-.038.122c-.02.038-.049.071-.082.097-.034.027-.073.046-.115.058-.827.247-1.6609.495-2.5012.729-.0332.013-.069.017-.1043.013h.013Zm-78.482-.84c-.0706,0-.1393-.023-.1955-.065-.7101-.528-1.3941-1.088-2.0325-1.668-.0306-.03-.0548-.066-.0713-.106s-.0251-.082-.0251-.125.0085-.086.0251-.126c.0165-.039.0407-.075.0713-.106.0297-.03.0652-.054.1043-.07.0392-.017.0812-.025.1237-.025s.0845.008.1236.025c.0392.016.0747.04.1044.07.6347.576,1.2979,1.12,1.987,1.629.0691.052.1148.129.127.215.0122.085-.0101.172-.0619.241-.0347.039-.0781.07-.1268.089s-.1012.027-.1533.022Zm83.4595-.652c-.069.002-.137-.02-.192-.061-.056-.042-.096-.1-.114-.167-.014-.041-.018-.084-.015-.127.004-.043.016-.084.036-.123.02-.038.048-.072.081-.099.033-.028.071-.048.113-.061.833-.254,1.654-.521,2.475-.782.041-.014.084-.02.127-.017s.084.015.123.034c.038.02.072.047.1.08.027.032.048.071.061.112.026.082.019.171-.02.248s-.107.135-.189.162c-.821.267-1.648.528-2.489.788-.03.013-.064.02-.097.02v-.007Zm4.957-1.609c-.086.014-.174-.007-.245-.058-.071-.052-.119-.129-.132-.215-.014-.087.007-.175.058-.246s.129-.118.215-.132c.828-.28,1.648-.56,2.456-.847.082-.027.172-.021.25.016.078.038.138.105.167.186.015.04.021.082.019.124s-.013.084-.031.122-.044.072-.075.101c-.032.028-.068.049-.108.063-.815.287-1.635.574-2.469.854l-.105.032Zm-92.2537-1.237c-.0466-.001-.0927-.011-.1353-.03s-.0808-.047-.1122-.081c-.5854-.655-1.1335-1.342-1.6417-2.059-.0294-.034-.0513-.074-.0644-.117-.013-.044-.017-.089-.0116-.134s.0202-.088.0432-.127.0539-.072.0906-.099c.0367-.026.0785-.044.1226-.053.0442-.01.0899-.01.1341,0c.0441.009.0859.027.1226.054.0367.026.0676.059.0906.098.4952.697,1.0303,1.365,1.6026,2c.0601.062.0937.145.0937.232c0,.086-.0336.169-.0937.231-.0319.031-.0697.055-.1111.07-.0415.016-.0857.023-.13.021v-.006Zm97.1657-.483c-.066-.001-.131-.023-.185-.061s-.096-.092-.121-.154c-.029-.081-.025-.17.012-.248.036-.079.103-.139.184-.168.827-.3,1.635-.606,2.443-.906.077-.02.159-.01.23.027s.126.099.154.174c.029.075.028.158-.001.232-.029.075-.084.136-.155.173-.808.306-1.622.606-2.45.905-.033.021-.071.032-.111.033v-.007Zm4.873-1.843c-.042.008-.086.007-.129-.003-.042-.009-.082-.026-.118-.051s-.066-.057-.09-.093c-.023-.037-.039-.078-.047-.12-.008-.043-.007-.087.002-.129.01-.043.027-.083.052-.119.025-.035.056-.066.093-.089.037-.024.077-.04.12-.048l2.417-.957c.08-.033.169-.032.248.001.079.032.142.095.176.175.032.08.032.17-.001.25-.033.081-.096.145-.175.18l-2.424.99c-.04.013-.082.019-.124.019v-.006ZM12.7426,166.499c-.0588,0-.1166-.015-.1672-.045s-.0919-.073-.1195-.125c-.4256-.77-.8063-1.564-1.14-2.378-.0329-.08-.0324-.17.0012-.25s.0976-.144.1779-.176c.0803-.033.1704-.033.2505.001.08.033.1434.097.1762.178.3202.793.6901,1.566,1.1075,2.312.04.077.0487.166.0244.248-.0243.083-.0798.153-.1547.195-.0483.026-.1019.039-.1563.04Zm109.8824-.046c-.064.001-.128-.017-.182-.053-.053-.037-.094-.088-.117-.149-.033-.079-.034-.167-.002-.246.032-.08.093-.143.171-.177.814-.339,1.616-.652,2.397-1.017.08-.034.17-.036.25-.004.081.032.146.094.18.174.035.079.036.169.005.25-.032.08-.095.145-.174.18l-2.404,1.016c-.039.018-.081.027-.124.026Zm4.782-2.065c-.062-.001-.124-.019-.176-.052-.053-.034-.096-.081-.124-.137-.018-.039-.028-.082-.029-.125s.006-.086.022-.126c.016-.041.04-.077.07-.108s.067-.055.107-.071c.808-.365,1.596-.717,2.365-1.075.078-.036.168-.04.249-.01s.148.091.184.17c.036.078.04.168.01.249s-.091.148-.17.184c-.775.358-1.563.716-2.378,1.075-.041.018-.085.027-.13.026Zm4.736-2.176c-.061.002-.122-.015-.174-.047-.052-.033-.093-.08-.119-.136-.019-.038-.03-.08-.033-.123-.002-.042.003-.085.017-.126.014-.04.036-.078.064-.11.029-.032.063-.058.102-.077.808-.378,1.589-.756,2.345-1.127.078-.038.168-.044.249-.016.082.029.15.088.188.166s.043.167.015.249-.087.149-.165.187l-2.352,1.134c-.043.018-.09.027-.137.026Zm-121.3679-.541c-.0713,0-.1405-.024-.197-.068-.0565-.043-.0971-.104-.1157-.173-.2385-.846-.4299-1.705-.57325-2.573-.01383-.087.00723-.175.05855-.246s.1287-.118.2151-.132c.0863-.014.1747.007.2456.059.0708.051.1184.128.1322.215.1302.852.3085,1.695.5342,2.527.012.041.0158.084.0111.127-.0046.042-.0176.084-.0382.121-.0206.038-.0483.071-.0817.097-.0333.027-.0716.047-.1127.059l-.0782-.013Zm126.0329-1.739c-.062.001-.122-.016-.174-.048-.052-.033-.093-.079-.119-.135-.039-.077-.046-.166-.019-.247.027-.082.085-.15.162-.189.801-.404,1.576-.795,2.319-1.186.077-.04.167-.047.249-.021s.151.084.191.161.047.167.021.249c-.026.083-.084.151-.161.191-.743.384-1.518.782-2.326,1.186-.044.025-.093.038-.143.039Zm4.625-2.404c-.059.001-.116-.015-.167-.045-.051-.029-.092-.073-.12-.125-.039-.076-.048-.165-.024-.247.024-.083.08-.153.155-.196.808-.429,1.57-.846,2.286-1.237.038-.027.08-.045.125-.054s.092-.008.137.002c.044.01.086.03.123.057.037.028.067.063.089.103s.036.085.039.13c.004.046-.002.092-.017.135-.015.044-.039.083-.071.116-.031.034-.069.06-.112.077-.716.398-1.479.815-2.293,1.251-.04.021-.085.032-.13.033h-.02ZM9.90217,156.57c-.08311,0-.16313-.031-.22368-.088s-.09706-.135-.10205-.218c0-.508-.03909-1.029-.03909-1.544c0-.365,0-.73,0-1.088.0008-.043.01031-.085.02795-.125.01764-.039.04305-.074.0747-.104.03165-.029.06888-.051.10946-.066.04058-.014.08367-.02.12666-.018.04279.002.08482.012.1237.03s.07388.043.10288.075c.0291.031.0516.068.0664.108.0148.041.0215.083.0197.126c0,.352,0,.71,0,1.062c0,.502,0,1.01.0391,1.505.0027.043-.0032.086-.0171.126-.014.041-.0359.078-.0643.11s-.0629.058-.1015.077-.08048.03-.12328.032h-.01955ZM145.993,155.007c-.071-.001-.14-.025-.196-.069-.056-.043-.096-.104-.115-.172-.018-.069-.014-.142.013-.208s.074-.121.136-.157c.84-.482,1.596-.919,2.247-1.303.037-.023.078-.038.12-.044.043-.007.086-.005.128.005.042.011.081.029.116.055.034.025.063.058.086.095.043.074.056.163.035.247-.02.084-.073.156-.146.202-.652.391-1.414.834-2.261,1.303-.044.025-.093.041-.143.046h-.02ZM10.1302,151.378h-.0456c-.08602-.013-.16353-.059-.2159-.128-.05238-.07-.07544-.157-.06424-.243.11726-.854.26714-1.727.46254-2.606.0202-.084.0723-.157.1453-.203s.161-.062.2456-.045c.042.009.0818.027.117.052.0352.024.0652.056.0882.092s.0386.077.0459.119c.0072.043.006.086-.0036.128-.1889.841-.3452,1.694-.456,2.534-.0065.081-.0427.156-.1017.212-.0591.055-.1366.087-.2175.088Zm1.1335-5.075c-.0322.006-.0654.006-.0977,0-.0412-.013-.0795-.033-.1126-.061-.0332-.027-.0606-.061-.0806-.099s-.0322-.08-.0359-.123.001-.086.0141-.127c.2541-.821.5538-1.655.886-2.476.038-.071.1012-.126.1774-.154.0762-.027.1599-.025.2347.006s.1355.088.1701.162c.0347.073.0408.156.0172.234-.3192.801-.6124,1.615-.8665,2.423-.021.064-.0622.12-.1174.158-.0551.039-.1214.059-.1888.057Zm1.9544-4.821c-.062.019-.1283.016-.1889-.006-.0385-.019-.073-.045-.1014-.077s-.0502-.07-.0641-.11c-.014-.041-.0197-.084-.017-.127.0027-.042.0138-.084.0327-.123.3843-.775.8078-1.55,1.2573-2.306.0209-.037.0491-.07.0829-.096s.0725-.045.1138-.056.0844-.014.1267-.008.083.021.1196.043c.0744.045.1283.117.1502.201s.0101.173-.0329.248c-.443.736-.8535,1.499-1.2313,2.267-.03.044-.0698.079-.1163.104-.0464.025-.0981.039-.1508.04l.0195.006ZM15.8696,137c-.0861.003-.17-.028-.2345-.085-.035-.024-.0649-.054-.0878-.09s-.0385-.076-.0458-.118-.0062-.085.0034-.126.0272-.081.052-.115c.4951-.717,1.0293-1.427,1.5765-2.104.0547-.066.1333-.108.2187-.117.0854-.008.1707.017.2374.071.0671.054.1102.132.12.217.0098.086-.0147.172-.0679.239-.5407.652-1.0619,1.362-1.5505,2.065-.0252.044-.06.081-.1017.11-.0418.028-.0894.046-.1393.053h.0195Zm3.2573-4.039c-.0643.002-.1279-.015-.1823-.049-.0544-.035-.097-.085-.1224-.144s-.0322-.125-.0197-.188.0439-.121.0899-.166c.5994-.652,1.2313-1.251,1.8827-1.837.0298-.031.0652-.055.1044-.071.0391-.017.0812-.025.1236-.025s.0846.008.1237.025c.0392.016.0746.04.1044.071.0305.03.0547.066.0713.106.0165.039.025.082.025.125s-.0085.086-.025.125c-.0166.04-.0408.076-.0713.106-.6515.574-1.2574,1.179-1.8437,1.805-.032.038-.0719.068-.117.088s-.0941.03-.1436.029Z" fill="#fff" fill-opacity="0.6"/><path d="M23.0226,129.45c-.049,0-.0974-.011-.1415-.033-.0441-.021-.0826-.052-.1126-.091-.0529-.07-.0764-.157-.0654-.243.0109-.087.0555-.166.1241-.22.3517-.26.7035-.521,1.0618-.775.035-.027.0751-.047.1178-.058.0428-.011.0874-.013.1311-.006.0437.006.0856.022.1231.045.0375.024.0698.054.0951.091.0252.036.0428.077.0516.12.0089.044.0088.088-.0001.131-.009.044-.0266.085-.0519.121s-.0578.067-.0953.09c-.3518.248-.6971.502-1.0359.762-.0581.044-.1292.067-.2019.066Z" fill="#fff" fill-opacity="0.6"/><path d="M169.12,90.5246c-.041.0012-.082-.0062-.12-.0219-.038-.0158-.073-.0394-.101-.0693-.031-.0297-.055-.0652-.071-.1044-.017-.0391-.025-.0811-.025-.1236s.008-.0845.025-.1237c.016-.0391.04-.0746.071-.1043c0,0,.319-.3388.873-.9512.026-.0383.06-.0705.099-.0947.04-.0241.084-.0395.13-.0451s.093-.0014.137.0124c.044.0139.085.037.12.0678.034.0309.062.0687.081.1111.018.0424.028.0882.028.1346-.001.0463-.011.092-.03.1341-.02.0421-.048.0795-.083.1098-.56.6515-.886.9707-.886.9707-.032.0331-.071.059-.113.0759-.043.0168-.089.0243-.135.0218Z" fill="#fff" fill-opacity="0.6"/><path d="M171.726,87.5865c-.078-.0004-.154-.028-.215-.0782-.03-.0297-.054-.0652-.071-.1044-.016-.0391-.025-.0811-.025-.1236s.009-.0845.025-.1237c.017-.0391.041-.0746.071-.1043.502-.5994,1.062-1.303,1.661-2.0261.054-.0671.132-.1102.218-.12.085-.0098.171.0146.239.0679.033.0261.062.0587.083.096s.034.0784.039.121c.005.0425.001.0856-.011.1267-.012.041-.032.0793-.059.1123-.6.7557-1.166,1.4398-1.675,2.0391-.033.0413-.076.0736-.125.0941s-.102.0284-.155.0232Zm3.258-4.1043c-.07-.0028-.138-.0254-.196-.0651-.068-.054-.113-.1327-.124-.2193-.011-.0865.013-.1739.065-.2432.502-.6515,1.023-1.3681,1.551-2.1043.05-.0708.126-.1189.212-.1335.085-.0147.173.0052.244.0553s.119.1263.134.2119c.014.0855-.006.1733-.056.2442-.534.7426-1.055,1.4527-1.57,2.1237-.026.0399-.06.0734-.101.0982-.04.0248-.086.0403-.133.0452l-.026-.0131Zm3.061-4.2801c-.059.0019-.119-.0131-.17-.0433-.052-.0301-.094-.0742-.122-.1272s-.04-.1128-.036-.1725c.005-.0597.026-.1169.061-.1651.476-.7101.958-1.4398,1.427-2.1955.047-.0722.12-.1234.204-.1429.084-.0194.172-.0055.246.0387.072.0467.123.1203.141.2045.019.0843.003.1724-.044.245-.449.7231-.931,1.4658-1.433,2.215-.028.0411-.064.0754-.107.1003s-.091.0395-.14.043h-.027Zm2.789-4.456c-.058.0011-.115-.0148-.163-.0456-.037-.0209-.07-.0491-.096-.0829s-.046-.0725-.056-.1138c-.011-.0413-.014-.0844-.008-.1267s.021-.083.043-.1196c.443-.7687.866-1.544,1.25-2.2932.04-.0769.109-.1348.191-.1611.083-.0262.172-.0187.249.0211s.135.1084.161.1908c.027.0825.019.172-.021.2489-.391.7622-.821,1.5375-1.27,2.3192-.026.0456-.063.0843-.107.1126s-.095.0456-.147.0503h-.026Zm2.417-4.671c-.045.0093-.092.0093-.137,0-.039-.0175-.074-.0427-.103-.0739-.029-.0313-.052-.068-.066-.1081-.015-.0401-.021-.0827-.019-.1253s.013-.0843.032-.1227c.371-.8143.716-1.6221,1.016-2.4039.015-.0404.038-.0774.068-.1088.029-.0314.065-.0566.104-.0742s.082-.0271.125-.0282.086.0066.126.0223c.081.032.146.0942.181.1733s.038.1688.008.2501c-.313.7948-.651,1.6157-1.036,2.4365-.028.0475-.068.0872-.116.1156s-.102.0446-.157.0473h-.026Zm1.895-4.8991h-.097c-.083-.0269-.151-.0849-.191-.1615-.04-.0767-.049-.1659-.024-.2489.26-.8534.482-1.7003.651-2.5146.019-.0835.07-.1563.142-.2026s.159-.0625.243-.045c.083.0188.157.0693.204.141s.065.1589.05.2434c-.183.8338-.404,1.7003-.652,2.6058-.028.0554-.071.1018-.124.134s-.114.049-.176.0484h-.026Zm1.095-5.1335h-.033c-.085-.0083-.164-.0498-.219-.1157-.054-.0658-.081-.1507-.074-.2361c0-.2736.052-.5407.065-.8143c0-.6059.059-1.2052.078-1.785c0-.0431.009-.0857.026-.1253s.042-.0754.073-.1052.067-.0531.108-.0683c.04-.0153.083-.0222.126-.0205.086.0034.167.0399.226.1018.06.062.093.1446.093.2305c0,.5928-.046,1.1922-.078,1.8111c0,.2801-.039.5537-.065.8338-.01.0801-.048.154-.108.2079-.06.054-.137.0843-.218.0853Zm.15-5.2508c-.086,0-.167-.0334-.228-.0931s-.096-.1409-.098-.2261c0-.886-.065-1.759-.13-2.6059-.004-.0425.001-.0852.014-.1257.014-.0405.035-.078.063-.1101.028-.0322.062-.0585.1-.0773s.08-.0297.122-.0322c.043-.0035.086.0014.127.0146s.079.0342.112.0621c.032.0278.059.0619.079.1001.019.0383.031.0801.034.1229.065.8534.111,1.7394.13,2.6384.001.0859-.033.1685-.092.2305-.06.0619-.141.0984-.227.1018h-.006Zm-.424-5.2117c-.078-.0006-.154-.0291-.214-.0804s-.099-.1221-.111-.1998c-.124-.8729-.287-1.7329-.476-2.5537-.019-.0864-.003-.1768.045-.2513.047-.0746.123-.1271.209-.1461s.177-.0029.251.0447c.075.0477.127.123.146.2094.189.8338.352,1.7133.483,2.6058.011.0853-.011.1717-.062.2409s-.127.116-.212.1305h-.059Zm-1.179-5.1075c-.069.0008-.136-.0201-.192-.0599s-.099-.0964-.121-.1616c-.266-.82-.577-1.6247-.931-2.4105-.018-.0389-.028-.081-.03-.1238s.005-.0856.02-.1258.037-.0772.066-.1087c.03-.0315.064-.0569.103-.0749.039-.0179.081-.0281.124-.0298s.086.0051.126.0199.077.0374.109.0665c.031.0291.057.0641.075.103.365.809.684,1.6376.957,2.4821.027.0812.021.1698-.017.2466-.037.0768-.104.1357-.185.1638-.035.0038-.07.0016-.104-.0065v.0196Zm-2.176-4.7623c-.055.0005-.11-.013-.159-.0392s-.09-.0642-.121-.1106c-.449-.7338-.95-1.4348-1.498-2.0977-.054-.0667-.08-.152-.071-.2374.008-.0854.05-.164.116-.2186.033-.028.07-.0492.111-.0623.04-.0132.083-.0181.126-.0145.042.0036.083.0158.121.0357s.071.0471.098.0802c.566.68,1.084,1.3984,1.551,2.1498.023.0361.04.0766.047.119.008.0425.007.086-.003.128s-.028.0816-.054.1164c-.025.0348-.057.0641-.094.0861-.051.0311-.11.0469-.17.0456v.0195Zm-3.348-4.0195c-.079-.0014-.154-.0289-.215-.0782-.642-.5722-1.325-1.0948-2.046-1.5635-.038-.0219-.072-.0514-.098-.0867-.027-.0353-.046-.0757-.057-.1186-.01-.043-.012-.0876-.005-.1313s.024-.0853.048-.1225c.023-.0372.055-.0691.091-.0938.037-.0248.078-.0418.122-.05.043-.0083.088-.0076.131.002s.084.0278.12.0537c.75.4865,1.462,1.0288,2.13,1.6221.06.062.094.145.094.2313s-.034.1693-.094.2313c-.061.0545-.14.0846-.221.0847v.0195Zm-4.385-2.8469c-.045.009-.091.009-.136,0-.785-.3572-1.592-.6619-2.417-.9121-.087-.025-.16-.0833-.203-.1622s-.054-.1716-.029-.2579c.025-.0864.084-.1593.163-.2027.078-.0434.171-.0537.258-.0286.854.2559,1.689.5693,2.501.9381.039.0175.074.0426.103.0739s.051.068.066.1081.021.0826.019.1252-.013.0844-.032.1228c-.027.0541-.069.0993-.121.1305-.051.0311-.111.0468-.172.0454v.0195Zm-5.016-1.5309h-.059c-.851-.1481-1.71-.246-2.573-.2932-.043-.0025-.085-.0134-.123-.0321-.039-.0187-.073-.0449-.102-.077-.028-.032-.05-.0694-.064-.11-.014-.0405-.02-.0834-.017-.1262c0-.0437.009-.087.026-.1269.018-.04.044-.0757.077-.1047s.071-.0507.113-.0635c.042-.0129.086-.0167.129-.0111.887.0498,1.77.1498,2.645.2997.085.0159.16.0643.21.1348s.071.1577.057.2431c-.016.0717-.057.1355-.115.1806s-.13.0688-.204.0669v.0196Z" fill="#fff" fill-opacity="0.6"/><path d="M163.303,31.1239c-.043.0034-.086-.0016-.127-.0148s-.079-.0344-.111-.0622c-.033-.0278-.06-.0618-.079-.1-.02-.0382-.032-.0799-.035-.1227s.002-.0858.015-.1266.034-.0787.062-.1113c.056-.066.136-.107.223-.1139.431-.0674.866-.1109,1.303-.1303.086-.0051.171.0242.236.0816.064.0574.104.1382.109.2246s-.024.1713-.082.2361c-.057.0647-.138.104-.224.1092-.789.0456-1.258.1173-1.258.1173l-.032.013Z" fill="#fff" fill-opacity="0.6"/></svg>
