<svg id="ewSmNOTP8H91" xmlns="http://www.w3.org/2000/svg" xmlns:xlink="http://www.w3.org/1999/xlink" viewBox="0 0 360 355" shape-rendering="geometricPrecision" text-rendering="geometricPrecision"><path d="M75.9066,103.039h-26.9464c-.1691,0-.3313-.067-.4509-.187-.1196-.119-.1868-.282-.1868-.451-.0018-.084.0134-.168.0447-.246.0314-.078.0783-.149.1379-.209.0596-.059.1306-.106.2088-.138.0783-.031.162-.046.2463-.044h26.9464c.1691,0,.3313.067.4508.186.1196.12.1868.282.1868.451-.0035.168-.0719.328-.1907.447s-.2789.187-.4469.191Z" fill="#fff" fill-opacity="0.6"/><path d="M88.465,91.6171h-39.7265c-.1691,0-.3313-.0671-.4509-.1867s-.1867-.2818-.1867-.4509c-.0019-.0842.0133-.168.0446-.2462.0314-.0782.0783-.1493.1379-.2089s.1306-.1065.2088-.1378c.0783-.0314.162-.0466.2463-.0447h39.7265c.0843-.0019.168.0133.2463.0447.0782.0313.1492.0782.2088.1378s.1065.1307.1379.2089c.0313.0782.0465.162.0446.2462c0,.1691-.0671.3313-.1867.4509s-.2818.1867-.4509.1867Z" fill="#fff" fill-opacity="0.6"/><path d="M61.768,80.1954h-12.9049c-.1691,0-.3313-.0671-.4508-.1867-.1196-.1196-.1868-.2818-.1868-.4509-.0019-.0842.0133-.168.0447-.2462s.0783-.1493.1378-.2089.1307-.1065.2089-.1378c.0782-.0314.162-.0466.2462-.0447h12.9049c.1691,0,.3313.0672.4509.1868.1195.1195.1867.2817.1867.4508-.0035.168-.0718.3281-.1906.447-.1189.1188-.279.1871-.447.1906Z" fill="#fff" fill-opacity="0.6"/><path d="M92.7065,80.5973h-22.9682c-.1691,0-.3313-.0672-.4508-.1867-.1196-.1196-.1868-.2818-.1868-.4509.0035-.168.0719-.3281.1907-.447.1188-.1188.2789-.1871.4469-.1906h22.9682c.168.0035.3282.0718.447.1906.1188.1189.1871.279.1907.447c0,.0837-.0165.1666-.0486.244-.032.0774-.079.1477-.1382.2069s-.1295.1061-.2068.1382c-.0774.032-.1603.0485-.2441.0485Z" fill="#fff" fill-opacity="0.6"/><path d="M75.9066,103.039h-26.9464c-.1691,0-.3313-.067-.4509-.187-.1196-.119-.1868-.282-.1868-.451-.0018-.084.0134-.168.0447-.246.0314-.078.0783-.149.1379-.209.0596-.059.1306-.106.2088-.138.0783-.031.162-.046.2463-.044h26.9464c.1691,0,.3313.067.4508.186.1196.12.1868.282.1868.451-.0035.168-.0719.328-.1907.447s-.2789.187-.4469.191Z" fill="none" stroke="#fff" stroke-opacity="0.6" stroke-linecap="round" stroke-linejoin="round"/><path d="M88.465,91.6171h-39.7265c-.1691,0-.3313-.0671-.4509-.1867s-.1867-.2818-.1867-.4509c-.0019-.0842.0133-.168.0446-.2462.0314-.0782.0783-.1493.1379-.2089s.1306-.1065.2088-.1378c.0783-.0314.162-.0466.2463-.0447h39.7265c.0843-.0019.168.0133.2463.0447.0782.0313.1492.0782.2088.1378s.1065.1307.1379.2089c.0313.0782.0465.162.0447.2462c0,.1691-.0672.3313-.1868.4509s-.2818.1867-.4509.1867Z" fill="none" stroke="#fff" stroke-opacity="0.6" stroke-linecap="round" stroke-linejoin="round"/><path d="M61.768,80.1954h-12.9049c-.1691,0-.3313-.0671-.4508-.1867-.1196-.1196-.1868-.2818-.1868-.4509-.0019-.0842.0133-.168.0447-.2462s.0783-.1493.1378-.2089.1307-.1065.2089-.1378c.0782-.0314.162-.0466.2462-.0447h12.9049c.1691,0,.3313.0672.4509.1868.1195.1195.1867.2817.1867.4508-.0035.168-.0718.3281-.1906.447-.1189.1188-.279.1871-.447.1906Z" fill="none" stroke="#fff" stroke-opacity="0.6" stroke-linecap="round" stroke-linejoin="round"/><path d="M92.7065,80.5973h-22.9682c-.1691,0-.3313-.0672-.4508-.1867-.1196-.1196-.1868-.2818-.1868-.4509.0035-.168.0719-.3281.1907-.447.1188-.1188.2789-.1871.4469-.1906h22.9682c.168.0035.3282.0718.447.1906.1188.1189.1871.279.1907.447c0,.0837-.0165.1666-.0486.244-.032.0774-.079.1477-.1382.2069s-.1295.1061-.2068.1382c-.0774.032-.1603.0485-.2441.0485Z" fill="none" stroke="#fff" stroke-opacity="0.6" stroke-linecap="round" stroke-linejoin="round"/><path d="M302.193,136.278h-26.988c-.169,0-.332-.067-.451-.186-.12-.12-.187-.282-.187-.451.004-.168.072-.328.191-.447s.279-.187.447-.191h26.988c.168.004.328.072.447.191s.187.279.19.447c0,.169-.067.331-.186.451-.12.119-.282.186-.451.186Z" fill="#fff" fill-opacity="0.6"/><path d="M312.311,136.278h-5.114c-.085.002-.168-.013-.247-.044-.078-.032-.149-.079-.208-.138-.06-.06-.107-.131-.138-.209-.032-.078-.047-.162-.045-.246c0-.169.067-.332.187-.451.119-.12.281-.187.451-.187h5.114c.17,0,.332.067.451.187.12.119.187.282.187.451.002.084-.013.168-.045.246-.031.078-.078.149-.137.209-.06.059-.131.106-.209.138-.079.031-.162.046-.247.044Z" fill="#fff" fill-opacity="0.6"/><path d="M314.668,124.87h-39.685c-.155-.022-.296-.1-.398-.218-.103-.119-.159-.27-.159-.426s.056-.308.159-.426c.102-.118.243-.196.398-.219h39.685c.155.023.296.101.398.219s.159.27.159.426-.057.307-.159.426c-.102.118-.243.196-.398.218Z" fill="#fff" fill-opacity="0.6"/><path d="M288.027,113.449h-12.905c-.169,0-.332-.067-.451-.187-.12-.12-.187-.282-.187-.451-.002-.084.013-.168.045-.246.031-.078.078-.149.138-.209.059-.06.13-.106.208-.138.079-.031.162-.046.247-.045h12.905c.169,0,.331.068.45.187.12.12.187.282.187.451-.003.168-.072.328-.19.447-.119.119-.279.187-.447.191Z" fill="#fff" fill-opacity="0.6"/><path d="M318.965,113.851h-22.968c-.169,0-.332-.068-.451-.187-.12-.12-.187-.282-.187-.451s.067-.331.187-.451c.119-.119.282-.187.451-.187h22.968c.169,0,.331.068.451.187.119.12.187.282.187.451s-.068.331-.187.451c-.12.119-.282.187-.451.187Z" fill="#fff" fill-opacity="0.6"/><path d="M302.193,136.278h-26.988c-.169,0-.332-.067-.451-.186-.12-.12-.187-.282-.187-.451.004-.168.072-.328.191-.447s.279-.187.447-.191h26.988c.168.004.328.072.447.191s.187.279.19.447c0,.169-.067.331-.186.451-.12.119-.282.186-.451.186Z" fill="none" stroke="#fff" stroke-opacity="0.6" stroke-linecap="round" stroke-linejoin="round"/><path d="M312.311,136.278h-5.114c-.085.002-.168-.013-.247-.044-.078-.032-.149-.079-.208-.138-.06-.06-.107-.131-.138-.209-.032-.078-.047-.162-.045-.246c0-.169.067-.332.187-.451.119-.12.281-.187.451-.187h5.114c.17,0,.332.067.451.187.12.119.187.282.187.451.002.084-.013.168-.045.246-.031.078-.078.149-.137.209-.06.059-.131.106-.209.138-.079.031-.162.046-.247.044Z" fill="none" stroke="#fff" stroke-opacity="0.6" stroke-linecap="round" stroke-linejoin="round"/><path d="M314.668,124.87h-39.685c-.155-.022-.296-.1-.398-.218-.103-.119-.159-.27-.159-.426s.056-.308.159-.426c.102-.118.243-.196.398-.219h39.685c.155.023.296.101.398.219s.159.27.159.426-.057.307-.159.426c-.102.118-.243.196-.398.218Z" fill="none" stroke="#fff" stroke-opacity="0.6" stroke-linecap="round" stroke-linejoin="round"/><path d="M288.027,113.449h-12.905c-.169,0-.332-.067-.451-.187-.12-.12-.187-.282-.187-.451-.002-.084.013-.168.045-.246.031-.078.078-.149.138-.209.059-.06.13-.106.208-.138.079-.031.162-.046.247-.045h12.905c.169,0,.331.068.45.187.12.12.187.282.187.451-.003.168-.072.328-.19.447-.119.119-.279.187-.447.191Z" fill="none" stroke="#fff" stroke-opacity="0.6" stroke-linecap="round" stroke-linejoin="round"/><path d="M318.965,113.851h-22.968c-.169,0-.332-.068-.451-.187-.12-.12-.187-.282-.187-.451s.067-.331.187-.451c.119-.119.282-.187.451-.187h22.968c.169,0,.331.068.451.187.119.12.187.282.187.451s-.068.331-.187.451c-.12.119-.282.187-.451.187Z" fill="none" stroke="#fff" stroke-opacity="0.6" stroke-linecap="round" stroke-linejoin="round"/><path d="M70.3482,264.523c-.1363-.004-.2678-.051-.3769-.133-.1091-.081-.1904-.195-.233-.324L57.0829,228.83L43.2216,255.888c-.0553.102-.1346.19-.2312.255-.0965.065-.2075.106-.3232.119-.1168.009-.234-.012-.3407-.06-.1067-.049-.1993-.123-.2692-.217l-13.7782-18.02-8.6217,13.861c-.0457.078-.1065.147-.1789.201-.0725.054-.155.093-.2428.115s-.1791.027-.2686.013c-.0894-.014-.1752-.046-.2523-.093l-7.6099-4.533c-.1559-.097-.2678-.252-.3118-.43-.044-.179-.0167-.368.0762-.526.047-.079.1091-.147.1828-.202.0736-.054.1573-.094.2463-.116.0889-.021.1813-.026.2718-.012s.1774.046.2555.094l6.9307,4.159l8.7881-14.097c.0608-.093.1427-.171.2391-.226.0963-.056.2043-.087.3153-.093.1118-.013.2249.005.3274.051.1025.047.1905.12.2548.212l13.7227,17.951l14.1385-27.501c.0591-.123.1547-.225.2737-.292s.2558-.096.3917-.083c.1339.008.2624.055.3688.137.1063.082.1855.193.2272.321l12.6277,35.152l6.0019-12.697c.0867-.152.2278-.266.395-.318.1673-.053.3481-.04.5063.035.1581.076.2817.209.346.372.0642.163.0643.344.0003.507L70.972,264.135c-.0558.118-.1443.217-.2549.286s-.2386.104-.3689.102Z" fill="#fff" fill-opacity="0.6"/><path d="M18.9782,253.157c.9799,0,1.7743-.794,1.7743-1.774s-.7944-1.775-1.7743-1.775-1.7742.795-1.7742,1.775.7943,1.774,1.7742,1.774Z"/><path d="M18.992,253.85c-.4885.003-.9669-.14-1.3745-.409s-.7259-.654-.9148-1.104c-.1889-.451-.2397-.948-.1461-1.427.0936-.48.3275-.921.672-1.267s.7841-.583,1.2631-.679.9758-.048,1.4275.138.8378.502,1.1095.908c.2717.407.4168.884.4168,1.373c0,.652-.258,1.277-.7178,1.739-.4597.463-1.0837.724-1.7357.728Zm0-3.535c-.1413-.001-.2816.025-.4127.078-.1311.052-.2504.131-.3509.23s-.1805.218-.235.348-.0825.27-.0825.412c-.0173.151-.0023.304.0438.449.0462.146.1224.279.2238.393.1015.114.2257.204.3647.267.139.062.2896.094.4419.094s.3029-.032.4419-.094c.139-.063.2633-.153.3647-.267s.1777-.247.2238-.393c.0461-.145.0611-.298.0439-.449c0-.283-.1125-.555-.3126-.755s-.4717-.313-.7548-.313Z" fill="#fff" fill-opacity="0.6"/><path d="M28.1405,238.533c.9798,0,1.7742-.794,1.7742-1.774s-.7944-1.774-1.7742-1.774-1.7743.794-1.7743,1.774.7944,1.774,1.7743,1.774Z"/><path d="M28.1406,239.212c-.4892.003-.9681-.14-1.376-.41s-.7262-.655-.9147-1.106c-.1885-.452-.2385-.949-.1437-1.429s.33-.921.6759-1.266c.3459-.346.7868-.582,1.2667-.676.4799-.095.9771-.045,1.4285.143.4514.189.8366.507,1.1067.915s.4128.887.41,1.376c-.0036.65-.2633,1.271-.7226,1.731-.4593.459-1.0813.719-1.7308.722Zm0-3.534c-.2868,0-.5618.114-.7645.316-.2028.203-.3167.478-.3167.765c0,.214.0634.423.1822.601.1188.177.2877.316.4852.398s.415.103.6247.061c.2097-.041.4024-.144.5536-.296.1512-.151.2542-.343.2959-.553s.0203-.427-.0616-.625c-.0818-.197-.2204-.366-.3982-.485s-.3868-.182-.6006-.182Z" fill="#fff" fill-opacity="0.6"/><path d="M57.1523,228.872c.9799,0,1.7742-.794,1.7742-1.774s-.7943-1.775-1.7742-1.775-1.7742.795-1.7742,1.775.7943,1.774,1.7742,1.774Z"/><path d="M57.1522,229.551c-.4886,0-.9661-.145-1.3722-.417-.406-.271-.7222-.658-.9086-1.109-.1863-.452-.2344-.949-.138-1.428.0963-.479.3327-.918.6791-1.263.3465-.344.7874-.578,1.2669-.672.4795-.093.9761-.043,1.4267.146s.8349.508,1.1044.915c.2694.408.4118.886.409,1.375c0,.323-.0639.643-.188.942-.1242.298-.3062.569-.5355.797s-.5014.409-.8006.531c-.2993.123-.6198.185-.9432.183Zm0-3.534c-.2138,0-.4229.063-.6007.182s-.3163.287-.3982.485c-.0818.197-.1032.415-.0615.625.0417.209.1447.402.2959.553s.3439.254.5536.296.4271.02.6247-.061c.1975-.082.3664-.221.4852-.399.1188-.177.1822-.386.1822-.6c0-.287-.1139-.562-.3167-.765-.2027-.203-.4777-.316-.7645-.316Z" fill="#fff" fill-opacity="0.6"/><path d="M70.3482,265.604c.9799,0,1.7743-.794,1.7743-1.774s-.7944-1.774-1.7743-1.774-1.7742.794-1.7742,1.774.7943,1.774,1.7742,1.774Z"/><path d="M70.3482,266.284c-.4892.002-.9681-.14-1.376-.41-.4078-.27-.7262-.656-.9147-1.107s-.2385-.949-.1437-1.429c.0948-.479.33-.92.6759-1.266s.7868-.581,1.2667-.676.9772-.045,1.4286.144c.4514.188.8366.506,1.1066.914.2701.408.4128.887.4101,1.376-.0037.65-.2633,1.272-.7227,1.731-.4593.459-1.0812.719-1.7308.723Zm0-3.535c-.1513-.017-.3046-.002-.4497.044s-.2789.122-.3925.224c-.1136.101-.2045.225-.2668.364-.0622.139-.0944.29-.0944.442c0,.153.0322.303.0944.442.0623.139.1532.263.2668.365.1136.101.2474.178.3925.224s.2984.061.4497.044c.2639-.03.5075-.157.6844-.355.1768-.198.2746-.454.2746-.72c0-.265-.0978-.522-.2746-.72-.1769-.198-.4205-.324-.6844-.354Z" fill="#fff" fill-opacity="0.6"/><path d="M42.5285,257.343c.9799,0,1.7743-.794,1.7743-1.774s-.7944-1.774-1.7743-1.774-1.7742.794-1.7742,1.774.7943,1.774,1.7742,1.774Z"/><path d="M42.5285,258.022c-.4892.003-.9681-.14-1.376-.41s-.7262-.655-.9147-1.106c-.1884-.452-.2385-.949-.1437-1.429s.33-.921.6759-1.267.7868-.581,1.2667-.676c.4799-.094.9772-.044,1.4286.144.4514.189.8366.507,1.1066.915.2701.408.4128.887.4101,1.376-.0037.649-.2633,1.271-.7227,1.731-.4593.459-1.0812.719-1.7308.722Zm0-3.534c-.2867,0-.5617.114-.7645.316-.2028.203-.3167.478-.3167.765c0,.214.0634.423.1822.6.1188.178.2877.317.4853.399.1975.082.4149.103.6246.061s.4024-.144.5536-.296c.1512-.151.2542-.344.2959-.553.0417-.21.0203-.427-.0615-.625s-.2204-.366-.3982-.485-.3869-.182-.6007-.182Z" fill="#fff" fill-opacity="0.6"/><path d="M0.708919,115.389c0,0-1.732669-18.9621,32.574081-18.9621L32.2573,168.838L4.79801,156.682L0.708919,115.389Z"/><path d="M32.3128,169.532c-.0961.019-.1951.019-.2911,0L4.57626,157.375c-.11293-.05-.21076-.129-.28372-.228-.07297-.1-.11852-.217-.13212-.34L0.002021,115.514c-.032419-1.979.325496-3.945,1.053279-5.786s1.81119-3.521,3.18829-4.943C9.67723,98.8251,19.491,95.8033,33.3524,95.8033c.0929-.0014.1852.0164.271.0522.0859.0357.1635.0887.228.1557.1255.1302.1951.3043.194.4852L33.0058,168.852c-.0036.114-.0345.225-.09.324-.0555.098-.134.183-.2288.245-.1105.074-.2411.113-.3742.111ZM5.56041,156.239L31.689,167.813l.998-70.6929c-13.0573.097-22.1781,2.9529-27.32064,8.4969-2.52021,2.6-3.92319,6.082-3.9089,9.703l4.10295,40.919Z" fill="#fff"/><path d="M4.17426,129.902c-.18029-.027-.34298-.124-.45406-.268-.11108-.145-.16194-.327-.14197-.508c0-.18,2.42572-17.826,25.87907-19.115.0911-.006.1823.007.2686.037.0862.029.1658.076.234.136.0683.061.1239.134.1637.216s.0631.171.0684.263c.0075.091-.0035.183-.0325.27s-.0754.167-.1363.236-.135.124-.218.164c-.083.039-.173.061-.2647.064-22.30288,1.178-24.53456,17.119-24.61772,17.854-.01421.185-.10068.357-.24074.479s-.32245.183-.50778.172Z" fill="#fff"/><path d="M5.38028,143.403c-.09102-.002-.18079-.021-.26419-.058-.0834-.036-.15879-.089-.22186-.155-.06308-.065-.1126-.143-.14574-.228-.03314-.084-.04926-.175-.04742-.266c0-.166.36039-18.02,23.56423-21.942.1838-.03.3718.015.5226.124s.252.274.2814.458-.0154.372-.1246.522c-.1092.151-.2738.252-.4576.282-21.98405,3.756-22.37217,19.905-22.37217,20.584-.00357.093-.02541.184-.06428.268-.03886.085-.09399.161-.16222.224s-.14824.112-.23543.144-.17987.047-.27272.043Z" fill="#fff"/><path d="M5.56038,151.817c-.18271-.004-.35694-.078-.48615-.207s-.20337-.303-.20692-.486c0-.18.37426-18.02,23.56429-21.956.1815-.029.3671.015.5171.121.1501.106.253.266.2868.447.0159.09.0138.182-.0062.272-.02.089-.0575.174-.1104.248-.0528.075-.1199.139-.1975.187-.0775.049-.1639.082-.2542.097-22.02564,3.77-22.38604,20.418-22.38604,20.584.00007.093-.01873.186-.05528.272s-.09009.163-.15741.228-.14704.115-.23435.148-.18042.049-.27374.045Z" fill="#fff"/><path d="M248.037,48.5361c-.095.0033-.189-.015-.276-.0534-.086-.0384-.163-.096-.223-.1684c0,0-.68-.6792-1.996-1.8297-.065-.0632-.116-.1387-.151-.222s-.053-.1728-.053-.2631.018-.1798.053-.2632.086-.1587.151-.222c.131-.1279.308-.1994.492-.1994.183,0,.36.0715.492.1994c1.386,1.1921,2.051,1.8852,2.079,1.9129.065.0644.116.1411.152.2255.035.0845.053.1751.053.2666s-.018.182-.053.2665c-.036.0845-.087.1611-.152.2255-.08.0616-.172.1048-.27.1263-.099.0216-.2.0211-.298-.0015Z" fill="#fff" fill-opacity="0.6"/><path d="M154.362,283.624h-.208l-2.634-.818c-.091-.025-.176-.068-.25-.127-.075-.058-.137-.13-.183-.213-.046-.082-.076-.173-.087-.267-.012-.094-.004-.189.021-.28.026-.091.069-.176.127-.25.059-.075.131-.137.213-.183.083-.046.173-.076.267-.087.094-.012.189-.004.28.021l2.676.832c.091.014.178.047.256.095.079.048.147.112.201.186.054.075.093.16.114.249.022.09.025.183.011.274-.015.091-.047.178-.095.257-.049.078-.112.146-.187.2-.074.055-.159.093-.249.115-.089.021-.182.025-.273.01v-.014Z" fill="#fff" fill-opacity="0.6"/><path d="M75.6017,64.9895c5.0328-2.5145,8.8606-6.9254,10.6412-12.2621c1.7807-5.3368,1.3684-11.1624-1.1462-16.1952-2.5145-5.0328-6.9254-8.8605-12.2622-10.6412-5.3367-1.7806-11.1623-1.3683-16.1951,1.1462l9.4812,18.9762-18.9762,9.4811c1.2446,2.4925,2.968,4.7153,5.0719,6.5415s4.5469,3.22,7.1896,4.1017c2.6427.8818,5.4332,1.2342,8.2121,1.0372c2.779-.197,5.4918-.9396,7.9837-2.1854Z"/><path d="M66.1344,67.9281c-4.0704-.0056-8.0592-1.1412-11.5223-3.2802-3.463-2.139-6.2642-5.1974-8.0915-8.8346-.0822-.1636-.0963-.3532-.0391-.5272s.1808-.3184.3441-.4015l18.3385-9.1762-9.1485-18.3801c-.0693-.1687-.0693-.358,0-.5267.0271-.0872.0719-.1679.1315-.237s.1328-.1253.2151-.165c2.9557-1.4519,6.2006-2.219,9.4936-2.2443c3.293-.0254,6.5493.6918,9.5271,2.098c2.9777,1.4063,5.6002,3.4656,7.6725,6.0248s3.5414,5.5526,4.2978,8.7576c.7564,3.2051.7807,6.5394.0712,9.7551-.7094,3.2158-2.1345,6.2303-4.1693,8.8195s-4.6269,4.6866-7.5837,6.1362c-2.9569,1.4497-6.2024,2.2143-9.4954,2.2371l-.0416-.0555ZM48.1147,55.7995c2.5431,4.6773,6.8028,8.1845,11.8813,9.7825c5.0785,1.5981,10.579,1.162,15.3423-1.2162c4.9115-2.3565,8.6857-6.5675,10.4923-11.7068s1.4978-10.7856-.8587-15.6971-6.5675-8.6856-11.7067-10.4923-10.7856-1.4978-15.6971.8587l9.1623,18.3524c.0426.0807.0686.1691.0762.26.0077.0909-.003.1824-.0314.2691s-.0741.1668-.1342.2354c-.0601.0687-.1334.1245-.2155.1642L48.1147,55.7995Z" fill="#fff"/><path d="M40.3662,53.1657l18.9762-9.4811-9.4257-18.9762c-2.4973,1.2397-4.7256,2.9596-6.5574,5.0613s-3.2314,4.544-4.1184,7.1871c-.8871,2.6431-1.2443,5.4352-1.0512,8.2165s.9327,5.4972,2.1765,7.9924Z"/><path d="M40.3661,53.8588c-.1281,0-.2538-.0348-.3637-.1007s-.1997-.1605-.26-.2735c-2.594-5.2007-3.0174-11.2183-1.1772-16.7309s5.7933-10.0693,10.991-12.669c.1659-.0775.3555-.0876.5287-.0281.1733.0594.3167.1838.4.3469l9.4812,18.9762c.0693.1687.0693.3579,0,.5267-.0648.1749-.1936.3186-.3604.402L40.6295,53.7895c-.0811.0436-.1713.0674-.2634.0693ZM49.5562,25.651c-4.5803,2.4854-8.0449,6.6186-9.692,11.5626s-1.3538,10.3292.8208,15.065l17.7286-8.8574L49.5562,25.651Z" fill="#fff"/><path d="M135.677,104.037c-2.024-.005-3.983-.711-5.545-1.996-.697-.508-1.248-1.19-1.599-1.979-.35-.7879-.487-1.6544-.397-2.5123.173-.7686.56-1.4725,1.117-2.0295.557-.5571,1.261-.9444,2.03-1.117.731-.1437,1.484-.1404,2.215.0095.73.1499,1.424.4435,2.04.8638.155.102.264.2609.303.4425s.005.3711-.095.5278c-.104.1528-.264.2588-.446.295-.181.0363-.369.0001-.524-.101-.459-.3221-.977-.5483-1.525-.665s-1.114-.1215-1.663-.0142c-.508.0992-.975.3431-1.346.7022-.372.3591-.631.8181-.748,1.3216-.029.6174.097,1.2324.366,1.7891.268.5565.672,1.0375,1.173,1.3985.788.655,1.705,1.135,2.692,1.41.987.274,2.02.337,3.033.185.183-.025.368.022.518.13s.252.27.286.452c.024.181-.023.365-.132.512-.108.148-.27.247-.45.278-.431.067-.867.1-1.303.097Z" fill="#fff"/><path d="M133.528,95.8309c-.184.0294-.372-.0154-.522-.1246-.151-.1092-.252-.2738-.282-.4576-.029-.1838.016-.3718.125-.5225.109-.1508.274-.252.457-.2814l5.545-1.8575c.184-.0569.383-.0386.553.0511s.298.2434.355.4272.038.3827-.051.553c-.09.1702-.244.2979-.427.3549l-5.545,1.8435c-.068.0163-.138.021-.208.0139Z" fill="#fff"/><path d="M278.628,42.9224c0,0-.762-.5406-1.899-1.2475c0,0-1.275,2.5227-1.303,2.4257-.027-.097,3.202-1.1782,3.202-1.1782Z" fill="#fff"/><path d="M275.51,44.8073h-.18c-.141-.0131-.273-.0695-.38-.1614s-.183-.2147-.216-.3514c-.084-.3188-.125-.499.194-.7208.318-.2218.72-1.3862,1.164-2.1901.041-.0877.101-.1654.175-.2277s.161-.1075.255-.1327c.09-.0281.186-.0352.28-.0208.093.0144.182.0499.26.104c1.165.7069,1.941,1.2613,1.941,1.2613.108.0711.194.1717.247.29s.072.2493.053.3776c-.019.1282-.075.2484-.16.3463s-.196.1693-.32.2059c-1.206.4159-2.551.8872-2.967,1.0674-.041.051-.094.0914-.155.1179-.06.0265-.126.0384-.191.0345Zm1.469-2.1346v.0832h.111l-.111-.0832Z" fill="#fff"/><path d="M266.791,86.8072l-1.844-1.1921.776-1.9545l1.068,3.1466Z" fill="#fff"/><path d="M266.805,87.5003c-.138.0041-.274-.0347-.388-.1109l-1.844-1.1921c-.135-.0857-.235-.2159-.283-.368s-.041-.3162.02-.4637l.776-1.9544c.058-.1293.151-.2396.268-.3181.118-.0785.256-.122.397-.1255.141.0058.278.0538.391.1378.114.084.2.2002.247.3335l1.067,3.1465c.047.1377.05.2869.008.4262s-.128.2618-.243.35c-.12.0909-.266.1397-.416.1387Z" fill="#fff"/><path d="M272.654,80.7637l3.396-1.1089c.217-.0755.401-.2256.517-.4236.117-.198.16-.4311.121-.6576l-.277-1.3861c-.016-.1034-.055-.2019-.114-.2884s-.136-.1589-.226-.212c-.091-.053-.191-.0854-.296-.0947-.104-.0094-.209.0045-.307.0406l-3.41,1.1366c-.211.0779-.387.2276-.499.4227-.111.1952-.151.4235-.111.6447l.264,1.3861c.018.1021.058.1991.117.284.06.0848.137.1556.227.2072s.19.0827.294.0913c.103.0085.207-.0058.304-.0419Z" fill="#fff" fill-opacity="0.6"/><path d="M265.682,48.0095c-.036,0-.07-.0105-.1-.0303-.03-.0197-.053-.0478-.066-.0806-.015-.0424-.013-.0886.005-.1296s.051-.0739.092-.0922l5.059-1.996c.044-.0184.094-.0185.138-.0003s.079.0532.098.0973c.018.0441.018.0937,0,.1379s-.053.0794-.097.0978l-5.074,1.9821-.055.0139Z" fill="#fff" fill-opacity="0.6"/><path d="M264.296,48.55c-.044,0-.087-.0175-.118-.0487s-.048-.0735-.048-.1176.017-.0865.048-.1177.074-.0487.118-.0487l.665-.2633c.043-.0143.089-.0122.13.0057s.074.0505.092.0913c.011.0205.018.0433.019.0667s-.003.0467-.013.0681c-.009.0215-.023.0405-.041.0555s-.039.0259-.062.0315l-.665.2633-.125.0139Z" fill="#fff" fill-opacity="0.6"/><path d="M102.728,162.448c-.115-.001-.229-.031-.331-.086-.101-.056-.187-.136-.251-.232-.05-.077-.084-.163-.1-.254-.017-.09-.014-.183.007-.272.02-.089.059-.174.113-.248s.123-.136.202-.183l34.113-21.568c.076-.05.162-.084.253-.101.09-.016.183-.013.272.008.09.02.174.059.248.113s.136.123.183.202c.099.154.133.342.094.521s-.148.336-.302.435l-34.126,21.541c-.111.077-.241.12-.375.124Z" fill="#fff"/><path d="M196.431,7.20164L165.368,0.811571c-.687-.141645-1.394-.146354-2.083-.013857-.688.132498-1.343.399596-1.928.785956-.584.38637-1.087.8844-1.479,1.4655-.391.58111-.665,1.23387-.803,1.9208L155.942,20.2174c-.142.6855-.146,1.3923-.014,2.0795.133.6873.4,1.3416.787,1.9251.386.5836.884,1.085,1.465,1.4754s1.234.662,1.92.7992l-1.219,8.1227l7.401-6.8475l24.951,5.1287c.686.1417,1.394.1464,2.082.0139s1.343-.3996,1.928-.786c.585-.3863,1.087-.8844,1.479-1.4655s.665-1.2338.804-1.9208l3.133-15.2474c.142-.6914.146-1.4043.01-2.097s-.409-1.3513-.803-1.93731-.9-1.08759-1.49-1.47543-1.251-.65414-1.945-.78332Z"/><path d="M158.825,35.3124c-.116-.0011-.23-.0296-.333-.0832-.124-.0682-.224-.1721-.288-.2981-.065-.126-.09-.2684-.072-.4088l1.137-7.5128c-1.399-.4678-2.578-1.4305-3.315-2.707-.738-1.2765-.984-2.7786-.691-4.2237l3.132-15.24744c.159-.77902.469-1.51916.914-2.17802s1.015-1.2235,1.678-1.661569c.658-.438281,1.396-.740173,2.173-.887793.776-.14762,1.574-.137966,2.346.02839L196.569,6.5363c.774.15687,1.51.46528,2.164.90747s1.215,1.00943,1.649,1.66906.733,1.39867.881,2.17447c.147.7758.14,1.5731-.022,2.346l-3.147,15.2475c-.32,1.562-1.248,2.9329-2.579,3.8115-1.33.8785-2.955,1.1927-4.518.8736l-24.562-5.0594-7.139,6.6118c-.126.1222-.295.1916-.471.1941Zm5.461-33.91865c-.902-.0058-1.786.2598-2.536.76237-.518.33819-.962.77789-1.305,1.29251s-.578,1.09346-.691,1.70154L156.649,20.3976c-.247,1.1962-.011,2.4413.656,3.4642.668,1.0229,1.712,1.7408,2.906,1.9972.172.0368.323.1375.423.2815.101.1441.143.3209.118.4947l-.929,6.1822l5.96-5.5446c.082-.0746.179-.1297.284-.161.106-.0312.218-.0378.326-.0192l24.951,5.1287c.601.1339,1.223.1464,1.829.037s1.184-.3386,1.7-.6743.961-.7708,1.307-1.2802.587-1.0827.708-1.6864l3.133-15.2475c.123-.5953.128-1.2092.013-1.8063-.114-.5972-.345-1.1658-.68-1.67327s-.767-.94379-1.271-1.28388-1.07-.57726-1.666-.69788L165.368,1.50464c-.356-.0731-.718-.11025-1.082-.11089Z" fill="#fff"/><path d="M191.787,19.3303h-.138L164.591,14.16c-.18-.0337-.339-.1371-.443-.2877-.103-.1507-.144-.3362-.111-.5163.037-.1809.143-.3402.296-.4438s.34-.1433.522-.1106l27.057,5.1702c.181.037.34.1432.444.296.103.1528.143.3401.11.5219-.034.154-.121.2915-.244.3898-.124.0983-.277.1515-.435.1508Z" fill="#fff" fill-opacity="0.6"/><path d="M182.265,24.556h-.125l-18.741-3.5762c-.09-.0166-.176-.0511-.253-.1013s-.144-.1154-.195-.1915c-.052-.0761-.088-.1617-.106-.2519-.018-.0901-.018-.183,0-.2731.016-.0887.05-.1731.1-.2485.05-.0753.114-.1401.188-.1904.075-.0503.159-.0852.248-.1027.088-.0175.179-.0171.268.001l18.754,3.5485c.184.0183.353.109.47.252s.172.3265.154.5103-.109.3528-.252.4698-.327.1724-.51.154Z" fill="#fff" fill-opacity="0.6"/><path d="M45.2177,140.201c0,0-35.29094,2.176-44.508716-24.812L6.25351,185.805c0,0,7.34649,14.457,40.39189,17.618l-1.4277-63.222Z"/><path d="M46.6592,204.116h-.0693c-33.0454-3.161-40.64142-17.383-40.94637-18.02-.02062-.087-.02062-.177,0-.264L0.099,115.417c-.013496-.169.035486-.337.13767-.473.102184-.135.250477-.228.416785-.262.165192-.039.339012-.013.485885.072s.25569.223.30421.386c8.94055,26.184,43.46915,24.368,43.81565,24.34.0944-.006.1889.008.2774.042.0884.033.1687.085.2355.152.1332.128.2126.301.2217.485L47.38,203.381c-.0029.198-.0824.386-.2218.527-.1354.128-.3129.201-.499.208ZM6.9465,185.611c.76237,1.303,8.9544,13.972,38.9919,17.049l-1.3861-61.738c-4.8238.097-32.4632-.236-42.78993-21.222L6.9465,185.611Z" fill="#fff"/><path d="M273.929,214.886l40.573-46.061l44.785,31.34-51.896,55.307-33.462-40.586Z"/><path d="M307.391,256.165c-.098-.005-.194-.03-.282-.073s-.167-.103-.231-.177l-33.461-40.599c-.104-.125-.161-.282-.161-.444s.057-.319.161-.443l40.572-46.062c.116-.126.273-.206.444-.226.17-.02.342.02.484.115l44.786,31.341c.082.057.15.132.2.218.051.086.082.182.091.281.013.098.004.197-.027.291-.032.094-.084.179-.153.25l-51.91,55.306c-.066.071-.145.127-.233.165-.089.038-.184.058-.28.057ZM274.844,214.9l32.574,39.518l50.816-54.142-43.622-30.495L274.844,214.9Z" fill="#fff"/><path d="M303.052,197.49l2.44-.693c.416-.125.845-.222,1.275-.305.263-.077.544-.061.796.045.253.106.461.296.59.537.305.582.555,1.178.846,1.774.134.324.296.634.485.929.145.212.354.372.596.458c1.016.194,2.028.36,3.036.499.18.018.362-.009.529-.079s.314-.182.427-.323c.554-.583,1.081-1.179,1.636-1.761.205-.231.444-.432.707-.596.096-.059.204-.098.315-.114.112-.017.226-.011.336.017c1.324.528,2.558,1.258,3.659,2.162.173.127.297.309.352.515.055.207.039.426-.047.622-.263.79-.513,1.594-.804,2.384-.127.273-.173.576-.131.874s.17.577.367.803c.541.666,1.053,1.387,1.566,2.038.098.126.224.226.369.291s.304.094.463.083h1.636h1.386c.227-.013.453.052.637.186.185.134.317.328.375.549.346,1.206.679,2.426.984,3.645.054.232.028.476-.076.69-.103.215-.277.387-.493.489-.582.319-1.205.568-1.801.859-.278.139-.555.277-.818.43-.179.092-.333.225-.448.39-.116.164-.191.353-.218.552-.124.86-.249,1.705-.402,2.551-.058.252-.045.515.038.76s.234.462.434.626c.637.582,1.289,1.15,1.926,1.747.236.174.395.433.444.723.05.289-.015.586-.18.829-.555.97-1.123,1.941-1.705,2.897-.064.15-.158.285-.277.398-.118.113-.257.2-.41.257s-.316.083-.479.075-.323-.049-.47-.12c-.54-.166-1.053-.374-1.58-.555-.527-.18-.762-.235-1.15-.332-.159-.05-.328-.061-.492-.032s-.319.097-.451.198c-.721.527-1.386,1.054-2.135,1.594-.197.142-.353.334-.453.555-.099.221-.139.465-.115.707c0,.554.097,1.122.125,1.691.02.346.02.693,0,1.039.009.244-.069.483-.218.675-.149.193-.362.327-.6.379l-3.313.859c-.175.021-.352.021-.527,0-.195.019-.392-.024-.561-.124-.17-.099-.303-.25-.381-.43-.347-.693-.679-1.387-1.012-2.107-.005-.051-.005-.102,0-.153-.114-.315-.321-.588-.593-.783s-.597-.304-.932-.312c-.665,0-1.386-.194-1.996-.305-.298-.054-.605-.026-.889.081-.283.108-.532.291-.719.529-.513.582-1.012,1.165-1.552,1.719-.084.132-.195.245-.326.33-.131.086-.279.144-.433.169-.155.024-.312.016-.464-.024-.151-.041-.292-.113-.413-.212-1.012-.568-1.996-1.164-2.98-1.788-.248-.12-.439-.332-.532-.591s-.082-.545.033-.795c.18-.638.416-1.261.638-1.885.269-.423.374-.931.295-1.426-.079-.496-.337-.945-.725-1.263-.333-.444-.693-.873-1.026-1.317-.157-.216-.367-.387-.61-.499s-.51-.159-.776-.139c-.652,0-1.303.111-1.955.125-.343.012-.687-.011-1.025-.069-.163-.01-.318-.072-.443-.177-.124-.105-.212-.247-.25-.405-.291-1.165-.596-2.315-.887-3.48-.022-.165-.022-.333,0-.499-.022-.195.019-.393.116-.565.097-.171.245-.308.424-.391l2.079-.998c.211-.102.415-.218.61-.347.169-.089.313-.217.422-.374.108-.157.178-.337.202-.527.111-.817.236-1.635.347-2.467.042-.234.019-.476-.067-.698-.085-.223-.23-.417-.419-.563l-1.718-1.553h-.07c-.707-.707-.776-1.039-.291-1.899.485-.859,1.151-1.899,1.747-2.772.059-.123.142-.233.244-.323s.221-.16.35-.203c.129-.044.265-.062.401-.053.136.01.269.046.391.108.721.235,1.386.485,2.121.762.318.156.675.212,1.026.163s.679-.203.942-.44c.624-.499,1.261-.97,1.899-1.469.136-.097.246-.226.319-.376.073-.151.106-.317.097-.484c0-.79-.07-1.566-.097-2.356-.087-.518.016-1.05.291-1.497l.166-.319Zm10.909,23.384c.822-.572,1.522-1.3,2.06-2.144.539-.844.904-1.787,1.075-2.773.172-.986.146-1.997-.076-2.973s-.635-1.899-1.215-2.714c-1.184-1.595-2.939-2.67-4.897-3.001-1.958-.33-3.969.109-5.61,1.227-1.629,1.151-2.74,2.897-3.093,4.86s.081,3.987,1.208,5.633c.56.826,1.281,1.532,2.118,2.076.838.543,1.776.914,2.759,1.089.983.176,1.991.153,2.965-.067.974-.219,1.894-.632,2.706-1.213Z" fill="#2fe784"/><path d="M334.268,195.591l1.22-.347c.207,0,.429-.11.637-.166.131-.034.27-.022.393.033.124.056.225.152.286.272.153.277.291.582.43.873.062.165.141.323.236.472.074.105.181.183.305.221.499.111,1.012.194,1.511.264.091.008.184-.006.268-.043.085-.036.16-.093.217-.165l.818-.873c.097-.121.214-.224.346-.305.052-.024.109-.036.166-.036.058,0,.115.012.167.036.662.264,1.279.628,1.829,1.081.087.063.149.154.176.257.028.104.02.213-.023.311-.139.388-.263.79-.402,1.178-.066.137-.091.289-.071.44.02.15.083.291.182.406.277.333.527.679.79,1.026.051.059.115.107.187.138s.15.046.229.042h.818.693c.115-.007.23.027.323.095.094.068.161.167.19.279.166.596.332,1.206.485,1.816.029.116.016.238-.038.345-.053.107-.143.191-.253.237-.278.166-.596.291-.888.43l-.415.222c-.088.047-.164.115-.222.196-.057.082-.095.176-.111.275-.069.43-.125.845-.194,1.275-.03.124-.024.254.018.374.042.121.117.227.218.305l.956.874c.059.042.11.096.148.158s.064.132.076.204c.011.072.009.146-.008.217s-.048.138-.091.197c-.264.485-.555.97-.846,1.386-.033.074-.08.141-.139.197-.06.056-.129.099-.206.128-.076.028-.157.041-.238.038-.081-.004-.161-.023-.235-.058l-.79-.277c-.185-.07-.375-.126-.568-.167-.079-.028-.164-.035-.247-.02-.082.014-.16.05-.224.103l-1.068.791c-.099.071-.179.168-.23.28s-.072.235-.061.357c0,.277,0,.555.07.832.069.277,0,.36,0,.527c0,.121-.041.24-.117.335-.075.096-.181.163-.299.191l-1.65.43c-.087.007-.175.007-.263,0-.097.007-.194-.016-.279-.066-.084-.049-.151-.123-.192-.211-.167-.347-.333-.707-.513-1.054c0,0,0,0,0-.083-.055-.158-.158-.295-.295-.392s-.3-.149-.468-.148l-.998-.153c-.149-.03-.304-.018-.446.036s-.266.147-.358.269c-.249.291-.512.568-.776.859-.042.066-.098.122-.164.164s-.14.07-.217.082-.156.007-.231-.014-.145-.057-.206-.107c-.499-.277-.998-.582-1.483-.887-.123-.057-.219-.16-.268-.287-.049-.126-.047-.267.005-.392.097-.319.222-.638.332-.943.236-.679.222-.79-.221-1.386l-.513-.665c-.079-.107-.185-.193-.306-.249s-.254-.08-.387-.07h-.971c-.17.014-.342.014-.512,0-.082-.011-.158-.046-.22-.1s-.106-.126-.127-.205c-.139-.582-.291-1.15-.444-1.733-.006-.083-.006-.166,0-.249-.011-.096.008-.194.055-.279.048-.084.121-.152.209-.192l1.039-.513c.106-.047.208-.103.305-.167.085-.046.158-.111.214-.191.055-.079.091-.17.105-.266l.167-1.22c.023-.119.012-.242-.032-.355-.045-.113-.12-.211-.218-.282l-.845-.777c-.347-.346-.389-.513-.139-.956.249-.444.568-.943.873-1.386.03-.062.071-.117.122-.162s.111-.08.175-.101c.065-.022.133-.031.201-.027.068.005.134.023.195.054.347.125.707.236,1.054.388.16.071.338.096.512.071.173-.024.337-.097.472-.209l.942-.735c.069-.048.124-.112.161-.188.036-.075.053-.158.047-.242v-1.192c-.045-.253.004-.515.139-.734l.014-.042Zm5.447,11.685c.411-.286.761-.651,1.031-1.074.269-.422.452-.894.538-1.387.087-.494.075-.999-.035-1.488s-.316-.951-.605-1.36c-.595-.794-1.473-1.327-2.452-1.49-.978-.163-1.982.058-2.801.617-.816.573-1.372,1.445-1.549,2.426-.176.981.041,1.992.606,2.813.28.413.64.765,1.058,1.036.419.271.887.456,1.377.544.491.088.994.076,1.481-.033.486-.109.945-.315,1.351-.604Z" fill="#2fe784"/><path d="M327.906,188.383c-.163,0-.321-.059-.444-.166l-13.404-11.186c-.141-.117-.23-.284-.248-.466-.018-.181.036-.363.151-.505.121-.138.29-.226.473-.244s.366.035.511.147l13.404,11.2c.07.058.128.129.171.209.042.08.068.168.076.259.007.09-.003.181-.031.268-.028.086-.073.166-.133.235-.063.078-.143.142-.234.185-.092.043-.191.065-.292.064Z" fill="#fff" fill-opacity="0.6"/><path d="M319.949,190.365c-.162-.003-.319-.061-.443-.166l-9.454-7.887c-.141-.118-.23-.287-.247-.47s.039-.366.157-.507c.118-.142.287-.231.47-.248s.366.04.507.157l9.454,7.901c.071.057.13.127.174.207.043.08.07.168.08.258.009.09-.001.182-.028.269s-.071.167-.129.237c-.066.079-.149.142-.242.185-.094.044-.196.065-.299.064Z" fill="#fff" fill-opacity="0.6"/><path d="M153.289,253.671L95.0536,266.15l8.2784,38.633l58.235-12.479-8.278-38.633Z"/><path d="M103.976,303.709c-.16,0-.315-.055-.439-.156-.123-.101-.208-.242-.24-.398l-8.4281-38.507c-.0193-.088-.0206-.178-.0039-.266.0167-.089.051-.172.1009-.247.0464-.078.1086-.145.1826-.198.074-.052.1582-.089.2471-.107l58.0514-12.697c.089-.02.181-.023.272-.007.09.015.176.048.253.097.078.049.145.113.197.188.053.075.09.159.109.249l8.414,38.507c.022.086.025.176.011.264-.014.089-.046.173-.094.248-.049.079-.114.146-.19.199-.076.052-.163.088-.253.106l-58.038,12.711-.152.014Zm-7.5962-38.673l8.1232,37.148l56.692-12.406-8.122-37.148-56.6932,12.406Z" fill="#fff"/><path d="M140.5,288.184c-.157-.001-.309-.055-.432-.153s-.21-.234-.247-.387l-4.657-21.347c-.022-.088-.026-.181-.011-.271.014-.091.046-.177.094-.255.103-.155.262-.265.443-.305l6.086-1.386c.088-.021.179-.023.269-.007.089.015.174.048.251.098.076.049.141.113.193.187.051.075.086.16.104.248l4.672,21.347c.038.181.003.37-.097.527-.098.154-.252.263-.43.304l-6.085,1.387-.153.013Zm-3.839-21.512l4.366,19.988l4.741-1.026-4.367-19.988-4.74,1.026Z" fill="#fff" fill-opacity="0.6"/><path d="M130.52,290.375c-.16,0-.314-.056-.438-.157s-.209-.241-.241-.398l-3.479-15.926c-.02-.089-.023-.18-.007-.27.015-.089.049-.174.098-.25.049-.077.113-.142.188-.193.074-.052.159-.087.248-.105l6.085-1.386c.179-.043.368-.013.526.083.077.049.143.114.193.191.05.076.084.162.099.252l3.451,15.982c.037.182.002.371-.097.527-.047.077-.109.142-.183.192-.074.051-.158.084-.247.099l-6.085,1.386-.111-.027Zm-2.661-16.093l3.188,14.568l4.727-1.04-3.188-14.568-4.727,1.04Z" fill="#fff" fill-opacity="0.6"/><path d="M120.609,292.551c-.157-.002-.309-.056-.432-.154s-.21-.234-.247-.387l-1.899-8.677c-.02-.089-.023-.182-.007-.272.015-.09.048-.176.097-.254.049-.077.113-.144.188-.196.075-.053.16-.09.249-.11l6.085-1.386c.182-.036.37-.002.527.097.154.098.264.252.305.43l1.899,8.677c.033.182-.004.369-.105.524-.1.154-.256.265-.436.308l-6.085,1.386-.139.014Zm-1.081-8.844l1.608,7.333l4.727-1.04-1.594-7.318-4.741,1.025Z" fill="#fff" fill-opacity="0.6"/><path d="M114.358,293.909c-.16,0-.315-.055-.438-.156-.124-.101-.209-.242-.241-.398l-5.794-26.475c-.021-.089-.023-.18-.007-.27.015-.089.049-.174.098-.25.049-.077.113-.142.187-.193.075-.051.16-.087.248-.105.09-.021.182-.023.272-.008.09.016.177.049.254.098s.144.113.197.188c.052.075.089.159.109.249l5.642,25.795l37.98-8.316c.088-.021.18-.023.269-.007.089.015.174.049.251.098.076.049.142.113.193.187.051.075.086.16.105.248.02.09.023.182.007.272-.015.09-.049.177-.098.254s-.112.144-.187.197c-.075.052-.16.089-.249.109l-38.646,8.456-.152.027Z" fill="#fff" fill-opacity="0.6"/><path d="M253.484,192.749c6.653,0,12.045-5.393,12.045-12.045c0-6.653-5.392-12.046-12.045-12.046s-12.046,5.393-12.046,12.046c0,6.652,5.393,12.045,12.046,12.045Z"/><path d="M253.484,193.442c-2.519,0-4.982-.747-7.077-2.146-2.095-1.4-3.728-3.39-4.692-5.717-.964-2.328-1.216-4.889-.725-7.36.492-2.471,1.705-4.741,3.487-6.523c1.781-1.781,4.051-2.994,6.522-3.486c2.471-.491,5.032-.239,7.36.725s4.317,2.597,5.717,4.692s2.147,4.557,2.147,7.077c0,3.378-1.342,6.618-3.731,9.007s-5.629,3.731-9.008,3.731Zm0-24.077c-2.246,0-4.441.667-6.308,1.915-1.868,1.248-3.323,3.021-4.182,5.097-.858,2.075-1.082,4.358-.643,6.561.439,2.202,1.522,4.225,3.111,5.812s3.613,2.667,5.816,3.104c2.203.436,4.486.209,6.56-.652s3.846-2.319,5.092-4.187c1.246-1.869,1.909-4.065,1.906-6.311-.003-3.009-1.201-5.893-3.329-8.019-2.129-2.126-5.015-3.32-8.023-3.32Z" fill="#fff"/><path d="M253.484,189.506c-1.741,0-3.443-.516-4.89-1.484-1.448-.967-2.576-2.341-3.242-3.95-.666-1.608-.84-3.378-.501-5.085.34-1.708,1.178-3.276,2.409-4.507s2.799-2.069,4.507-2.409c1.707-.34,3.477-.165,5.085.501c1.609.666,2.983,1.794,3.951,3.242.967,1.447,1.483,3.149,1.483,4.89c0,2.334-.927,4.573-2.578,6.224-1.651,1.65-3.889,2.578-6.224,2.578Zm0-16.315c-1.486,0-2.938.441-4.174,1.266-1.235.826-2.198,1.999-2.767,3.372s-.717,2.883-.427,4.341c.289,1.457,1.005,2.796,2.056,3.846c1.05,1.051,2.389,1.766,3.846,2.056c1.458.29,2.968.141,4.341-.427c1.373-.569,2.546-1.532,3.372-2.767.825-1.236,1.266-2.688,1.266-4.174c0-1.993-.792-3.904-2.201-5.313-1.408-1.408-3.319-2.2-5.312-2.2Z" fill="#fff" fill-opacity="0.6"/><path d="M253.484,185.652c-.979,0-1.935-.29-2.749-.834-.814-.543-1.448-1.316-1.823-2.22-.374-.905-.472-1.9-.281-2.86.191-.959.662-1.841,1.354-2.533s1.574-1.164,2.534-1.355c.96-.19,1.954-.092,2.859.282.904.375,1.677,1.009,2.221,1.823.543.813.834,1.77.834,2.749c0,1.312-.522,2.571-1.45,3.499s-2.187,1.449-3.499,1.449Zm0-8.621c-.726,0-1.437.215-2.041.619-.604.403-1.075.977-1.353,1.648s-.35,1.41-.209,2.122c.142.713.492,1.368,1.006,1.881.513.514,1.168.864,1.88,1.006.713.141,1.452.069,2.123-.209.671-.279,1.245-.749,1.648-1.353.404-.604.619-1.315.619-2.041c0-.974-.387-1.909-1.076-2.598-.688-.688-1.623-1.075-2.597-1.075Z" fill="#fff" fill-opacity="0.6"/><path d="M193.783,13.2036h-.138L166.587,8.04721c-.181-.03691-.34-.14313-.443-.29596-.104-.15283-.144-.34013-.111-.52186.017-.09045.051-.17669.101-.25369s.116-.14325.192-.19485.161-.08755.252-.10573c.09-.01818.183-.01824.273-.00018l27.057,5.17026c.181.0369.34.1431.444.296.103.1528.143.3401.11.5218-.034.154-.121.2915-.244.3898-.124.0983-.277.1515-.435.1508Z" fill="#fff" fill-opacity="0.6"/><path d="M221.894,65.4884c-1.29.0028-2.551-.3773-3.625-1.0921-1.073-.7148-1.91-1.7322-2.405-2.9232s-.625-2.502-.374-3.7671.872-2.4271,1.784-3.3391c.911-.9119,2.074-1.5327,3.339-1.7836s2.576-.1207,3.767.3741s2.208,1.3319,2.923,2.4054s1.095,2.335,1.092,3.6247c-.004,1.723-.69,3.3744-1.908,4.5928-1.219,1.2184-2.87,1.9045-4.593,1.9081Zm0-11.6296c-1.015-.0028-2.008.2957-2.853.8576s-1.505,1.3619-1.895,2.2988-.494,1.9685-.298,2.9643c.197.9958.684,1.9109,1.401,2.6296.716.7186,1.63,1.2085,2.625,1.4075.996.199,2.028.0982,2.966-.2895s1.739-1.0451,2.304-1.8888c.564-.8438.865-1.8359.865-2.8508c0-1.3578-.539-2.6602-1.497-3.6217-.959-.9614-2.26-1.5033-3.618-1.507Z" fill="#fff" fill-opacity="0.6"/><path d="M63.4176,140.229c2.2507,0,4.0753-1.825,4.0753-4.075c0-2.251-1.8246-4.076-4.0753-4.076s-4.0752,1.825-4.0752,4.076c0,2.25,1.8245,4.075,4.0752,4.075Z" fill="#fff" fill-opacity="0.6"/></svg>
