<svg id="emWUJXLYIDT1" xmlns="http://www.w3.org/2000/svg" xmlns:xlink="http://www.w3.org/1999/xlink" viewBox="0 0 360 355" shape-rendering="geometricPrecision" text-rendering="geometricPrecision"><path d="M248.037,48.5361c-.095.0033-.189-.015-.276-.0534-.086-.0384-.163-.096-.223-.1684c0,0-.68-.6792-1.996-1.8297-.065-.0632-.116-.1387-.151-.222s-.053-.1728-.053-.2631.018-.1798.053-.2632.086-.1587.151-.222c.131-.1279.308-.1994.492-.1994.183,0,.36.0715.492.1994c1.386,1.1921,2.051,1.8852,2.079,1.9129.065.0644.116.1411.152.2255.035.0845.053.1751.053.2666s-.018.182-.053.2665c-.036.0845-.087.1611-.152.2255-.08.0616-.172.1048-.27.1263-.099.0216-.2.0211-.298-.0015Z" fill="#fff" fill-opacity="0.6"/><path d="M154.362,283.624h-.208l-2.634-.818c-.091-.025-.176-.068-.25-.127-.075-.058-.137-.13-.183-.213-.046-.082-.076-.173-.087-.267-.012-.094-.004-.189.021-.28.026-.091.069-.176.127-.25.059-.075.131-.137.213-.183.083-.046.173-.076.267-.087.094-.012.189-.004.28.021l2.676.832c.091.014.178.047.256.095.079.048.147.112.201.186.054.075.093.16.114.249.022.09.025.183.011.274-.015.091-.047.178-.095.257-.049.078-.112.146-.187.2-.074.055-.159.093-.249.115-.089.021-.182.025-.273.01v-.014Z" fill="#fff" fill-opacity="0.6"/><path d="M255.064,90.1756c0,0,3.701-13.2653,4.034-15.1366s-.679-9.3425,1.386-10.4792c2.065-1.1366,3.354,5.6277,3.354,10.4792c0,0,8.4-18.3247,10.757-15.6356c2.356,2.6891,2.689,8.4,1.677,11.4217s-14.277,28.9009-14.277,28.9009l-6.931-9.5504Z"/><path d="M261.995,100.419c-.108.002-.215-.022-.312-.07-.096-.048-.18-.119-.243-.207l-7.055-9.5507c-.061-.0853-.102-.1828-.121-.2858-.019-.1029-.016-.2088.01-.3102c0-.1386,3.687-13.2515,4.02-15.0673.064-.923.064-1.8493,0-2.7723c0-4.1583,0-7.3187,1.636-8.2336.236-.1431.507-.2188.783-.2188s.547.0757.783.2188c1.608.9426,2.398,5.0178,2.689,8.3168c2.287-4.7128,6.834-13.4039,9.412-13.8613.244-.042.495-.0179.726.0698.232.0878.436.236.591.4292c2.619,2.9941,2.772,9.0653,1.815,12.1009-.956,3.0357-13.625,27.9445-14.152,28.9979-.052.1076-.133.1996-.233.2656s-.216.103-.335.109l-.014.069Zm-6.293-10.3821l6.182,8.3168c2.426-4.7822,12.697-25.1999,13.57-27.8059.998-3.0079.541-8.3168-1.552-10.7425-1.206-.2356-5.697,6.9307-9.592,15.4692-.064.1451-.177.2634-.318.3343-.142.0708-.304.0899-.459.0539-.156-.032-.297-.117-.398-.2408s-.156-.2787-.156-.4384c0-4.3525-1.053-9.2455-2.135-9.8832-.028-.0203-.062-.0312-.097-.0312-.034,0-.068.0109-.097.0312-1.053.5961-.97,4.7545-.928,6.9307.08.9964.08,1.9976,0,2.9941-.319,1.8851-3.383,12.9187-3.965,15.0118h-.055Z" fill="#fff"/><path d="M235.173,269.707c0,0-8.635,19.711-5.946,21.056c2.689,1.344,30.051,10.299,29.815,8.51-.235-1.788-15.164-12.211-15.164-12.211l6.861-17.355h-15.566Z"/><path d="M258.502,300.147c-5.254,0-29.345-8.65-29.58-8.76-1.22-.624-2.121-4.284,5.614-21.957.052-.125.141-.231.255-.305.113-.075.247-.113.382-.111h15.567c.112,0,.223.028.322.081s.184.13.246.224c.068.09.11.197.123.31.012.112-.007.225-.054.328l-6.653,16.855c4.768,3.341,14.762,10.535,15.011,12.365.022.154-.001.311-.064.453-.064.142-.167.264-.296.351-.27.135-.572.192-.873.166Zm-22.844-29.746c-4.269,9.827-7.041,18.823-6.071,19.752c2.856,1.386,23.842,8.137,28.388,8.649-1.733-1.871-8.317-6.847-14.471-11.172-.129-.087-.223-.217-.266-.366-.043-.15-.032-.309.03-.452l6.473-16.411h-14.083Z" fill="#fff"/><path d="M191.15,308.796c.332,1.012.332,17.466,0,21.499-.333,4.034,13.778,26.933,18.172,22.525s-3.368-23.869-3.368-23.869l1.386-22.178-16.19,2.023Z"/><path d="M207.936,354.054c-.596-.014-1.183-.156-1.719-.416-5.988-2.773-16.093-19.642-15.788-23.398.346-4.159.305-20.155,0-21.236-.046-.199-.011-.408.097-.582.054-.084.125-.155.209-.21.083-.055.177-.092.276-.109l16.204-2.01c.1-.014.202-.005.298.026.096.032.184.084.256.155.076.07.136.156.174.252s.055.199.048.302l-1.386,22.012c1.04,2.633,7.638,20.002,3.16,24.465-.237.244-.522.436-.837.564-.314.129-.652.192-.992.185Zm-16.052-44.662c.278,3.674.208,17.59-.069,20.973-.25,2.924,9.329,19.405,14.984,22.011c1.178.541,1.691.236,1.982,0c3.313-3.313-1.386-17.812-3.534-23.107-.028-.099-.028-.205,0-.304l1.386-21.347-14.749,1.774Z" fill="#fff"/><path d="M171.577,104.799c-12.655-3.604-34.944,3.59-48.514,16.149-10.784,10.021,9.703,57.552,19.932,81.781l61.711-18.421c0,0-20.487-75.891-33.129-79.509Z" fill="#2fe784"/><path d="M204.734,184.294c0,0,62.805,19.073,64.025,32.699s-17.063,62.112-17.063,62.112l-21.236-3.659c0,0,18.214-50.829,9.592-54.669-8.621-3.84-43.566-10.479-43.566-10.479s3.604,28.928,9.967,48.445c6.362,19.517,3.95,54.364,3.95,54.364l-22.178,3.646c0,0-.832-44.828-10.174-65.301-9.343-20.473-35.028-48.778-35.028-48.778l61.711-18.38Z"/><path d="M188.225,317.487c-.161,0-.317-.053-.444-.152-.078-.063-.142-.144-.185-.235s-.065-.191-.064-.292c0-.443-.929-44.924-10.119-65.023s-34.653-48.321-34.903-48.612c-.082-.085-.139-.19-.166-.305-.027-.114-.022-.234.014-.347.03-.11.088-.212.168-.294.08-.083.179-.143.289-.177l61.725-18.422c.126-.041.262-.041.388,0c2.592.777,63.207,19.406,64.524,33.268c1.289,13.667-16.356,60.449-17.118,62.376-.056.15-.164.275-.303.354-.14.078-.302.105-.46.075l-21.235-3.687c-.101-.016-.196-.055-.28-.112-.084-.058-.154-.133-.206-.22-.041-.092-.062-.191-.062-.292c0-.1.021-.199.062-.291c13.155-36.76,13.155-52.326,9.967-53.712-7.666-3.41-36.857-9.107-42.471-10.174.679,5.142,4.158,30.106,9.8,47.378c6.334,19.405,4.006,54.28,3.992,54.627-.013.156-.077.303-.183.418-.105.115-.246.193-.399.22l-22.179,3.645-.152-.014ZM144.257,203.062c4.269,4.81,26.018,29.76,34.417,48.14c8.622,18.866,10.05,58.634,10.216,64.788l20.792-3.423c.277-4.519,1.872-35.721-3.95-53.561-6.307-19.405-9.953-48.292-9.994-48.514-.014-.11,0-.222.038-.325.039-.104.102-.197.184-.271.078-.074.173-.128.277-.157s.213-.032.319-.01c1.386.264,35.124,6.612,43.718,10.452c3.992,1.774,3.604,11.463-1.178,29.594-2.952,11.214-6.737,22.178-7.762,25.172l19.849,3.451c1.996-5.336,18.02-48.694,16.828-61.281-.347-3.701-6.196-10.326-32.062-20.889-14.679-5.988-29.399-10.576-31.271-11.089l-60.421,17.923Z" fill="#fff"/><path d="M121.871,74.5399c.802-.1517,1.632-.0142,2.342.3882-1.524-3.3545,1.58-5.9465,3.59-8.0812c1.109-1.217,2.469-2.1775,3.987-2.8143s3.157-.9347,4.801-.8728c3.927.3456,7.703,1.6757,10.979,3.8673c2.772,1.5941,5.738,3.4653,8.774,2.6337.895-.3667,1.823-.6452,2.772-.8317.957-.0832,2.093.499,2.107,1.4693-.034.5193-.25,1.0099-.61,1.3861-.965,1.2021-2.206,2.1532-3.618,2.7723.693,1.1227,2.274,1.1505,3.59,1.0534l4.159-.3049c.776,0,1.76,0,2.051.7208.111.4126.067.8515-.124,1.2336-1.054,2.8114-2.946,5.2309-5.42,6.9307c2.032.454,4.16.169,6.002-.804.457,5.9604-1.689,18.1246-7.053,20.8136-5.395,2.457-14.777,3.843-20.7,3.6-4.408-.111-9.9.9-14.4-6.3-3.406-5.4502-6.245-11.6522-7.429-17.573-.611-2.2632-.4-4.6697.596-6.792.379-.6564.899-1.2205,1.522-1.652.623-.4314,1.334-.7193,2.082-.8431Z"/><path d="M136.938,108.6c-3.036,0-6.14-.333-8.594-2.245-4.88-3.843-10.088-16.3141-11.311-22.4033-.662-2.4233-.421-5.0048.679-7.2633.434-.7276,1.021-1.3523,1.719-1.831.699-.4786,1.494-.7998,2.329-.9413.46-.0665.926-.0665,1.386,0-.43-2.7722,1.788-5.0455,3.452-6.7643l.679-.6931c1.172-1.2897,2.611-2.3077,4.218-2.9829s3.341-.9912,5.083-.926c4.04.3632,7.927,1.7255,11.311,3.9644l.207.1109c2.509,1.497,5.365,3.1742,8.026,2.4534.333-.097.638-.2079.957-.3327.611-.2725,1.261-.4501,1.926-.5267.392-.0321.786.0138,1.159.1352.374.1213.72.3157,1.018.5717.2.1734.364.3855.481.6237.116.2382.184.4976.198.7625-.023.6864-.294,1.3413-.763,1.8435-.818.9844-1.809,1.8111-2.924,2.4396.741.2427,1.529.3091,2.301.1941l4.158-.305c1.386-.1109,2.384.2773,2.772,1.1644.177.5681.133,1.1821-.125,1.7188-.89,2.4155-2.378,4.5661-4.324,6.2514c1.369.0238,2.722-.2955,3.936-.9287.102-.0529.214-.08.328-.079.115.0011.227.0304.327.0853.1.0548.185.1336.247.2292.063.0957.1.2052.11.319.513,6.6257-2.633,19.2282-7.845,21.8342-5.492,2.516-11.499,3.703-17.535,3.466-.97,0-1.996,0-3.049,0-1.054,0-1.664.055-2.537.055ZM121.982,75.2468c-.636.1142-1.24.3656-1.769.7366s-.971.8528-1.295,1.4119c-.928,1.9754-1.115,4.2189-.526,6.3208c1.154,5.7603,6.181,17.9369,10.798,21.5709c2.772,2.149,6.584,2.024,10.271,1.899c1.095,0,2.148,0,3.146,0c5.808.249,11.591-.891,16.87-3.326c4.504-2.26,7.013-13.9479,7.097-19.4924-1.765.6892-3.695.8387-5.545.4297-.131-.0337-.25-.1036-.343-.2017-.093-.098-.157-.2203-.184-.3528-.019-.1331-.002-.269.049-.3934s.135-.2327.242-.3135c2.365-1.6269,4.174-3.9392,5.185-6.6257.102-.2305.145-.4832.124-.7347-.097-.2356-.61-.3465-1.386-.2911l-4.158.305c-1.497.1109-3.341,0-4.159-1.3862-.049-.0852-.08-.1795-.092-.2771s-.004-.1966.023-.2912c.033-.0938.084-.1801.151-.2539s.147-.1335.237-.1758c1.307-.5557,2.458-1.4216,3.355-2.5227.25-.2452.411-.5673.457-.9149-.003-.0855-.024-.1694-.063-.2459-.038-.0766-.092-.144-.159-.1976-.323-.2516-.728-.375-1.136-.3466-.53.0755-1.047.22-1.539.4297-.354.1433-.715.2682-1.081.3743-3.244.8871-6.363-.9565-9.107-2.5921l-.208-.1109c-3.181-2.12-6.839-3.4156-10.645-3.7703-1.545-.0572-3.082.2232-4.507.8217-1.424.5985-2.701,1.5007-3.741,2.6437l-.693.7208c-1.941,1.9821-3.937,4.0336-2.772,6.5979.059.1347.075.2845.045.4286s-.104.2754-.212.3754c-.106.1002-.242.1626-.388.1777-.145.015-.291-.0182-.416-.0945-.58-.3129-1.249-.4203-1.899-.305l-.027-.0277Z" fill="#fff"/><path d="M153.877,106.338l4.809,10.964c0,0-2.037,8.067-10.049,7.832-8.012-.236-10.535-5.78-10.549-5.794l-3.34-12.184-2.065-7.4855c-.323-.7323-.537-1.5073-.638-2.301.194-1.8158,2.218-3.1188,2.55-5.0178.66-3.7993-.158-7.7071-2.287-10.9227c3.687,2.0792,7.846,4.1584,11.963,3.1743-1.002-.7412-1.93-1.5767-2.773-2.4951l8.636,1.5802c1.114.1765,2.24.26,3.368.2495c1.275,0,.652-.6653,1.802.6654c2.883,3.3267,4.228,9.4811,4.464,13.7504.291,6.1263-5.891,7.9843-5.891,7.9843Z"/><path d="M148.914,125.855h-.36c-8.58-.25-11.172-6.238-11.186-6.293l-5.406-19.6836c-.059-.202-.129-.4009-.208-.596-.296-.6143-.452-1.2865-.457-1.9683.203-1.0571.681-2.0419,1.386-2.8555.553-.637.955-1.3902,1.178-2.2039.635-3.6232-.138-7.3523-2.163-10.4237-.098-.1191-.151-.2686-.151-.4228s.053-.3037.151-.4228c.105-.1145.246-.1905.399-.2156.154-.0251.311.002.447.077c3.036,1.7327,6.501,3.4792,9.952,3.3129-.565-.4818-1.097-1.0005-1.594-1.5525-.102-.1047-.167-.2402-.185-.3855-.017-.1454.014-.2924.088-.4184.07-.1252.177-.2257.306-.2878.129-.062.274-.0826.415-.0588l8.65,1.5802c1.046.1588,2.102.2376,3.16.2357.216.0196.434-.0088.638-.0832.707-.2495.97,0,1.691.8871c3.118,3.604,4.477,9.9109,4.713,14.2633.277,5.2532-3.951,7.6512-5.697,8.4002l4.532,10.313c.042.149.042.307,0,.457.07.083-2.121,8.345-10.299,8.345Zm-10.216-6.682c0,0,2.44,5.087,9.897,5.295h.319c6.473,0,8.608-5.835,8.982-7.083l-4.712-10.742c-.042-.089-.063-.186-.063-.284c0-.099.021-.195.063-.285.042-.088.102-.167.176-.231s.16-.113.253-.143c.236-.069,5.725-1.816,5.434-7.2909-.236-4.4495-1.663-10.2989-4.297-13.3207-.222-.2634-.347-.4297-.444-.5267-.277.0636-.561.0962-.845.097-1.165.0083-2.329-.0798-3.479-.2634l-6.404-1.1643l1.053.8455c.108.0764.19.183.237.3065s.056.258.026.3866c-.026.1289-.088.2478-.179.3433s-.206.1639-.333.1973c-3.604.8316-7.153-.4575-10.355-2.107c1.331,2.9078,1.747,6.1515,1.192,9.301-.247,1.0169-.72,1.9647-1.386,2.7723-.555.6221-.942,1.3761-1.123,2.19.044.4787.166.947.361,1.3862.097.2398.181.4851.249.7346l5.406,19.6557-.028-.07Z" fill="#fff"/><path d="M156.344,112.132c-1.259.532-2.629.75-3.991.634-1.363-.116-2.676-.562-3.827-1.3-4.047-2.522-4.352-5.295-4.352-5.295c3.088,1.315,6.564,1.385,9.703.195l2.467,5.766Z"/><path d="M153.059,113.49c-1.729.008-3.425-.472-4.893-1.386-4.283-2.675-4.672-5.683-4.685-5.822-.012-.121.009-.244.06-.355s.131-.206.23-.277c.1-.07.217-.113.339-.124.122-.01.244.011.355.063c2.894,1.208,6.139,1.273,9.079.18.167-.069.355-.071.524-.003.168.067.304.198.377.364l2.536,5.766c.072.164.077.35.015.518s-.186.305-.347.383c-1.136.478-2.359.714-3.59.693Zm-7.735-6.168c.857,1.482,2.091,2.711,3.576,3.562.958.615,2.04,1.011,3.169,1.159c1.128.149,2.276.047,3.36-.299l-1.982-4.491c-2.635.863-5.473.887-8.123.069Z" fill="#fff"/><path d="M148.055,89.5656c0,0,5.433,4.9346,4.754,6.2099s-3.493,1.2336-3.493,1.2336"/><path d="M149.344,97.7023c-.09,0-.18-.018-.263-.053-.084-.035-.159-.0863-.222-.1508-.064-.0646-.113-.1411-.147-.2251-.033-.084-.049-.1738-.047-.2642c0-.1838.073-.3601.203-.4901.13-.1299.306-.203.49-.203.97,0,2.523-.2772,2.855-.8732c0-.5822-2.134-3.105-4.616-5.3643-.123-.1262-.194-.2948-.198-.4715-.003-.1767.061-.3481.179-.4791.119-.131.283-.2117.459-.2257s.351.0399.489.1505c2.675,2.4258,5.683,5.5446,4.907,7.0416s-3.618,1.6079-4.089,1.6079Z" fill="#fff"/><path d="M144.396,91.5997c.552-.0882.898-.7909.774-1.5696s-.673-1.3383-1.225-1.2501c-.551.0882-.898.7909-.773,1.5695.124.7786.672,1.3384,1.224,1.2502Z" fill="#fff"/><path d="M155.164,89.3817c.501-.2468.625-1.0204.277-1.7278s-1.037-1.0808-1.538-.834c-.502.2468-.626,1.0204-.278,1.7278.349.7074,1.037,1.0808,1.539.834Z" fill="#fff"/><path d="M149.358,102.387c-1.568-.034-3.104-.448-4.477-1.206-.164-.083-.287-.227-.344-.401-.058-.174-.044-.364.039-.527.039-.082.095-.156.164-.216.069-.0598.149-.1055.235-.1339.087-.0285.178-.0392.269-.0315s.18.0336.26.0762c6.266,3.2302,9.329-2.0099,9.454-2.2317.095-.1494.244-.2566.416-.2996s.354-.0185.508.0684c.155.087.27.2299.322.3992.053.1693.038.3523-.04.5112-.721,1.1719-1.719,2.1487-2.905,2.8447-1.187.696-2.527,1.09-3.901,1.147Z" fill="#fff"/><path d="M135.677,104.037c-2.024-.005-3.983-.711-5.545-1.996-.697-.508-1.248-1.19-1.599-1.979-.35-.7879-.487-1.6544-.397-2.5123.173-.7686.56-1.4725,1.117-2.0295.557-.5571,1.261-.9444,2.03-1.117.731-.1437,1.484-.1404,2.215.0095.73.1499,1.424.4435,2.04.8638.155.102.264.2609.303.4425s.005.3711-.095.5278c-.104.1528-.264.2588-.446.295-.181.0363-.369.0001-.524-.101-.459-.3221-.977-.5483-1.525-.665s-1.114-.1215-1.663-.0142c-.508.0992-.975.3431-1.346.7022-.372.3591-.631.8181-.748,1.3216-.029.6174.097,1.2324.366,1.7891.268.5565.672,1.0375,1.173,1.3985.788.655,1.705,1.135,2.692,1.41.987.274,2.02.337,3.033.185.183-.025.368.022.518.13s.252.27.286.452c.024.181-.023.365-.132.512-.108.148-.27.247-.45.278-.431.067-.867.1-1.303.097Z" fill="#fff"/><path d="M153.17,124.219l-2.232,4.685l3.105.901c0,0,16.772,46.283,52.673,37.828l9.329-12.157-12.628-4.934c0,0-6.182,5.211-18.02,2.204-13.944-3.549-29.109-23.357-29.109-23.357l.652-3.923-3.77-1.247Z"/><path d="M198.233,169.351c-28.693,0-43.178-35.152-44.661-38.978l-2.773-.804c-.098-.028-.188-.077-.265-.144-.076-.067-.137-.15-.178-.244-.042-.091-.063-.19-.063-.291c0-.1.021-.199.063-.291l2.231-4.671c.068-.154.191-.277.345-.344.155-.067.329-.073.487-.017l3.84,1.248c.156.054.288.161.372.304.084.142.114.31.085.472l-.596,3.604c1.761,2.232,15.816,19.642,28.554,22.885c11.27,2.869,17.313-2.024,17.369-2.065.094-.08.208-.133.33-.155.121-.022.246-.012.363.03l12.641,4.935c.098.04.185.103.254.182.07.079.121.173.148.275.031.103.038.212.018.318-.019.107-.063.206-.129.292l-9.342,12.17c-.099.123-.235.21-.388.25-2.853.678-5.773,1.027-8.705,1.039Zm-46.325-40.835l2.329.693c.105.025.202.076.282.149.08.072.141.164.175.267.167.457,16.911,45.396,51.648,37.425l8.635-11.241-11.421-4.463c-1.47,1.067-7.652,4.809-18.27,2.106-14.013-3.576-28.859-22.801-29.483-23.564-.059-.075-.102-.162-.126-.256-.024-.093-.028-.19-.012-.284l.554-3.327-2.689-.873-1.622,3.368Z" fill="#fff"/><path d="M144.174,96.7735c-1.15.0028-2.275-.3359-3.232-.973s-1.704-1.544-2.145-2.6059c-.442-1.0618-.558-2.2307-.334-3.3586s.777-2.164,1.59-2.9771s1.849-1.3665,2.977-1.5902s2.297-.1075,3.359.3338s1.969,1.1879,2.606,2.1451.975,2.082.973,3.2319c-.004,1.5356-.616,3.0072-1.701,4.093-1.086,1.0858-2.558,1.6974-4.093,1.701Zm0-10.2157c-.875-.0028-1.732.2542-2.461.7384s-1.298,1.1738-1.634,1.9816c-.337.8077-.427,1.6972-.258,2.5558s.589,1.6479,1.207,2.2676s1.406,1.0423,2.264,1.2141s1.748.085,2.557-.2493c.808-.3343,1.5-.901,1.986-1.6284.487-.7275.747-1.583.747-2.4581c0-1.1703-.464-2.2929-1.291-3.1218-.826-.8288-1.947-1.2963-3.117-1.2999Z" fill="#fff"/><path d="M153.419,93.5161c-1.149,0-2.271-.3407-3.227-.9788-.955-.6382-1.699-1.5453-2.139-2.6065-.439-1.0613-.554-2.2291-.33-3.3557s.777-2.1615,1.589-2.9737c.813-.8123,1.847-1.3654,2.974-1.5895s2.294-.1091,3.356.3305c1.061.4396,1.968,1.184,2.606,2.1391s.979,2.078.979,3.2267c0,1.5403-.612,3.0176-1.701,4.1068s-2.567,1.7011-4.107,1.7011Zm0-10.2158c-.875,0-1.73.2597-2.458.7461-.727.4865-1.294,1.1779-1.628,1.9867-.335.8088-.421,1.6986-.25,2.5567.172.8581.595,1.646,1.214,2.2638.62.6178,1.409,1.0379,2.268,1.2069s1.748.0795,2.556-.2573s1.497-.9057,1.981-1.6347c.485-.7289.742-1.5852.739-2.4603-.004-1.1704-.471-2.2915-1.3-3.1177-.829-.8263-1.952-1.2902-3.122-1.2902Z" fill="#fff"/><path d="M133.528,95.8309c-.184.0294-.372-.0154-.522-.1246-.151-.1092-.252-.2738-.282-.4576-.029-.1838.016-.3718.125-.5225.109-.1508.274-.252.457-.2814l5.545-1.8575c.184-.0569.383-.0386.553.0511s.298.2434.355.4272.038.3827-.051.553c-.09.1702-.244.2979-.427.3549l-5.545,1.8435c-.068.0163-.138.021-.208.0139Z" fill="#fff"/><path d="M278.628,42.9224c0,0-.762-.5406-1.899-1.2475c0,0-1.275,2.5227-1.303,2.4257-.027-.097,3.202-1.1782,3.202-1.1782Z" fill="#fff"/><path d="M275.51,44.8073h-.18c-.141-.0131-.273-.0695-.38-.1614s-.183-.2147-.216-.3514c-.084-.3188-.125-.499.194-.7208.318-.2218.72-1.3862,1.164-2.1901.041-.0877.101-.1654.175-.2277s.161-.1075.255-.1327c.09-.0281.186-.0352.28-.0208.093.0144.182.0499.26.104c1.165.7069,1.941,1.2613,1.941,1.2613.108.0711.194.1717.247.29s.072.2493.053.3776c-.019.1282-.075.2484-.16.3463s-.196.1693-.32.2059c-1.206.4159-2.551.8872-2.967,1.0674-.041.051-.094.0914-.155.1179-.06.0265-.126.0384-.191.0345Zm1.469-2.1346v.0832h.111l-.111-.0832Z" fill="#fff"/><path d="M266.791,86.8072l-1.844-1.1921.776-1.9545l1.068,3.1466Z" fill="#fff"/><path d="M266.805,87.5003c-.138.0041-.274-.0347-.388-.1109l-1.844-1.1921c-.135-.0857-.235-.2159-.283-.368s-.041-.3162.02-.4637l.776-1.9544c.058-.1293.151-.2396.268-.3181.118-.0785.256-.122.397-.1255.141.0058.278.0538.391.1378.114.084.2.2002.247.3335l1.067,3.1465c.047.1377.05.2869.008.4262s-.128.2618-.243.35c-.12.0909-.266.1397-.416.1387Z" fill="#fff"/><path d="M267.248,87.5972c-.322.0014-.638-.0848-.915-.2495-.225-.1344-.419-.3151-.57-.5301-.15-.2151-.254-.4596-.303-.7174l-6.93-34.5285c-.096-.5214-.01-1.0597.242-1.5259s.655-.8326,1.144-1.0385l17.299-6.9307c.257-.1059.533-.1546.811-.1426s.55.0843.797.2119c.232.1323.433.3136.589.5314s.262.467.311.73l7.125,35.7484c.102.5379.005,1.0944-.273,1.5661-.278.4716-.718.8264-1.238.9982l-17.465,5.7109c-.196.0928-.407.1492-.624.1663Zm10.687-44.2037h-.235l-17.299,6.9306c-.185.0869-.337.2306-.435.4102-.097.1796-.134.3856-.106.5878l6.931,34.5286c.008.0665.031.1303.068.1865.036.0563.085.1035.143.1382.057.0347.121.0559.188.0621s.134-.0028.197-.0264l17.465-5.7109c.193-.0709.357-.2058.463-.3823.106-.1766.148-.3841.119-.588L278.31,43.7816c-.007-.0659-.03-.1292-.066-.1846-.036-.0555-.085-.1015-.142-.1342-.05-.0343-.107-.0579-.167-.0693Z" fill="#fff"/><path d="M265.71,85.6151l17.465-5.7109c.354-.1227.652-.367.843-.6894.19-.3224.26-.7019.197-1.071l-7.111-35.7483c-.031-.1692-.1-.3291-.202-.4674s-.234-.2513-.387-.3304-.322-.1219-.494-.1254c-.171-.0034-.342.0326-.497.1054l-17.299,6.8475c-.338.147-.616.4034-.789.7279-.174.3245-.233.698-.168,1.0602l6.931,34.5285c.026.1652.089.3225.183.4604.095.1379.219.2529.364.3366s.306.134.473.1472.334-.0111.491-.0709Z"/><path d="M265.322,86.3775c-.318.001-.63-.0854-.901-.2495-.228-.1337-.424-.3139-.577-.5289s-.259-.4599-.31-.7186l-6.931-34.5286c-.095-.5213-.01-1.0596.242-1.5259s.656-.8325,1.144-1.0384l17.299-6.8614c.25-.1164.522-.1767.797-.1767s.547.0603.797.1767c.236.13.44.3104.598.5285.159.218.267.4683.317.7329l7.111,35.7484c.101.5379.004,1.0944-.274,1.5661-.278.4716-.717.8263-1.237.9982l-17.465,5.7109c-.192.0923-.399.1487-.61.1663Zm10.687-44.2038c-.074-.0132-.149-.0132-.222,0l-17.299,6.8614c-.188.0832-.343.2262-.44.4068-.098.1806-.134.3885-.101.5912l6.931,34.5286c.011.068.037.1328.075.1902s.088.1059.147.1424c.12.0486.254.0486.374,0l17.465-5.7108c.195-.0687.36-.2032.466-.3803.107-.1771.148-.3858.117-.59l-7.097-35.6375c-.01-.0649-.034-.127-.07-.182s-.083-.1017-.138-.1368c-.063-.0427-.134-.0711-.208-.0832Z" fill="#fff"/><path d="M272.654,80.7637l3.396-1.1089c.217-.0755.401-.2256.517-.4236.117-.198.16-.4311.121-.6576l-.277-1.3861c-.016-.1034-.055-.2019-.114-.2884s-.136-.1589-.226-.212c-.091-.053-.191-.0854-.296-.0947-.104-.0094-.209.0045-.307.0406l-3.41,1.1366c-.211.0779-.387.2276-.499.4227-.111.1952-.151.4235-.111.6447l.264,1.3861c.018.1021.058.1991.117.284.06.0848.137.1556.227.2072s.19.0827.294.0913c.103.0085.207-.0058.304-.0419Z" fill="#fff" fill-opacity="0.6"/><path d="M265.682,48.0095c-.036,0-.07-.0105-.1-.0303-.03-.0197-.053-.0478-.066-.0806-.015-.0424-.013-.0886.005-.1296s.051-.0739.092-.0922l5.059-1.996c.044-.0184.094-.0185.138-.0003s.079.0532.098.0973c.018.0441.018.0937,0,.1379s-.053.0794-.097.0978l-5.074,1.9821-.055.0139Z" fill="#fff" fill-opacity="0.6"/><path d="M264.296,48.55c-.044,0-.087-.0175-.118-.0487s-.048-.0735-.048-.1176.017-.0865.048-.1177.074-.0487.118-.0487l.665-.2633c.043-.0143.089-.0122.13.0057s.074.0505.092.0913c.011.0205.018.0433.019.0667s-.003.0467-.013.0681c-.009.0215-.023.0405-.041.0555s-.039.0259-.062.0315l-.665.2633-.125.0139Z" fill="#fff" fill-opacity="0.6"/><path d="M99.8174,199.209c-.1663.831.1663,9.065,0,10.576-.194,1.816,2.5786,3.507,3.4926,4.796c1.789,2.537,2.856,6.099,3.965,8.982.152.402.291.901,0,1.192-.147.129-.332.207-.527.222-1.76.236-3.174-1.386-4.228-2.772l-2.7026-3.59c.6796.942-.8871,7.637-1.095,9.051-.1883,2.425-.6534,4.82-1.3862,7.139-1.3861,3.493-10.3266,3.035-11.3385-.181-1.2337-3.909-3.2158-11.851-.6376-19.53-.1664-3.147-2.0238-21-2.0238-21l16.4811,5.115Z"/><path d="M91.8056,237.868h-.4297c-2.398-.097-5.4198-.957-6.099-3.091-2.3287-7.43-2.5643-14.097-.6792-19.822-.2079-3.437-1.9822-20.667-2.0099-20.792-.006-.115.0146-.23.0603-.336.0457-.105.1152-.199.2031-.274.09-.067.1941-.113.3045-.135.1104-.021.2243-.018.3331.011L99.956,198.64c.163.054.3.166.387.314s.117.322.084.49c-.069.361,0,2.773,0,4.782c0,2.537.083,4.921,0,5.739s1.068,1.982,1.996,2.869c.507.415.972.88,1.386,1.386c1.42,2.256,2.547,4.683,3.355,7.222.24.666.476,1.303.707,1.913.171.301.245.647.213.992-.033.344-.17.671-.393.935-.248.241-.571.388-.915.416-2.121.305-3.729-1.484-4.879-3.064l-1.387-1.816c-.138,1.22-.429,2.925-.9144,5.351-.1247.693-.2356,1.234-.291,1.539c0,.526-.1387,1.053-.208,1.607-.1661,1.942-.5712,3.855-1.2059,5.697-.8455,2.121-3.701,2.856-6.0851,2.856ZM84.0848,195.05c.402,3.895,1.7604,17.258,1.9129,19.988.0132.083.0132.167,0,.25-1.802,5.392-1.5802,12.004.6515,19.101.3604,1.136,2.3841,2.023,4.8098,2.12c2.1763.07,4.6297-.499,5.2258-1.982.5878-1.736.9647-3.537,1.1227-5.364c0-.554.1387-1.095.2218-1.636c0-.305.1525-.887.2911-1.608.3465-1.691,1.2337-6.196.901-6.93-.0936-.151-.1258-.332-.0899-.506.036-.174.1374-.327.2832-.429.1458-.101.3249-.143.5005-.116.1758.027.3338.12.4428.261l2.661,3.659c.943,1.261,2.19,2.703,3.577,2.509h.138c0,0,0-.153-.138-.444-.25-.609-.486-1.261-.721-1.94-.762-2.435-1.828-4.764-3.174-6.931-.359-.451-.758-.868-1.192-1.247-1.22-1.137-2.5926-2.44-2.4262-4.02.0831-.721,0-3.299,0-5.545c0-2.245,0-3.687,0-4.449l-14.998-4.741Z" fill="#fff"/><path d="M132.807,113.684c-4.158,3.493-42.9698,19.877-54.3915,37.315-5.8079,8.885,3.3544,58.827,3.3544,58.827l20.6671-4.019.291-44.024c2.398-2.994,29.248-17.95,29.248-17.95l.831-30.149Z" fill="#2fe784"/><path d="M171.578,104.799c0,0,51.286,6.654,57.136,4.685c5.849-1.968,28.748-30.051,28.748-30.051l11.367,12.1287c0,0-12.268,37.3143-28.846,41.1963-16.578,3.881-63.166,0-63.166,0l-5.239-27.959Z" fill="#2fe784"/><path d="M102.728,162.448c-.115-.001-.229-.031-.331-.086-.101-.056-.187-.136-.251-.232-.05-.077-.084-.163-.1-.254-.017-.09-.014-.183.007-.272.02-.089.059-.174.113-.248s.123-.136.202-.183l34.113-21.568c.076-.05.162-.084.253-.101.09-.016.183-.013.272.008.09.02.174.059.248.113s.136.123.183.202c.099.154.133.342.094.521s-.148.336-.302.435l-34.126,21.541c-.111.077-.241.12-.375.124Z" fill="#fff"/><path d="M194.629,151.678c-.147.002-.29-.043-.41-.127-.119-.085-.209-.205-.256-.344-.457-1.386-15.136-39.034-15.247-39.408-.041-.086-.064-.18-.067-.275s.014-.19.049-.279c.035-.088.089-.169.156-.236.068-.067.149-.119.238-.154.089-.034.184-.05.279-.046s.189.028.274.07c.086.041.162.1.224.173.062.072.108.157.136.248.61,1.553,14.846,38.077,15.317,39.463.03.087.044.178.038.27-.005.092-.028.181-.068.264-.04.082-.096.156-.164.217-.069.06-.149.107-.236.137-.085.027-.174.036-.263.027Z" fill="#fff"/></svg>
