<svg width="200" height="200" viewBox="0 0 200 200" fill="none" xmlns="http://www.w3.org/2000/svg">
<path d="M166.417 151.645H25.7523C25.6659 151.645 25.5831 151.611 25.522 151.55C25.4609 151.489 25.4266 151.406 25.4266 151.319V86.4855C25.4254 86.4307 25.4387 86.3767 25.4649 86.3286C25.4912 86.2806 25.5297 86.2403 25.5764 86.2118L95.9087 41.8014C95.9607 41.7698 96.0204 41.7531 96.0813 41.7531C96.1422 41.7531 96.2019 41.7698 96.254 41.8014L166.612 86.2444C166.66 86.2726 166.699 86.3126 166.727 86.3606C166.754 86.4085 166.768 86.4628 166.769 86.518V151.352C166.76 151.437 166.719 151.516 166.653 151.571C166.587 151.626 166.502 151.652 166.417 151.645ZM26.0585 150.994H166.124V86.6679L96.0846 42.4529L26.0585 86.6679V150.994Z" fill="white"/>
<path d="M113.218 69.0327C115.557 65.1696 116.15 60.4725 115.935 55.9643C115.779 51.0321 114.478 46.2037 112.137 41.8601C111.186 39.9948 109.789 38.3927 108.071 37.1956C105.961 35.8927 104.521 36.7722 102.456 36.4204C100.71 36.1207 98.8858 34.8764 96.9509 34.5572C92.4874 33.7941 87.9007 34.7533 84.1171 37.2412C77.4982 41.7168 74.4428 50.2705 67.6024 54.4269C60.8988 58.479 52.319 57.2608 44.8011 59.5018C41.6278 60.4528 38.6711 62.0153 36.0975 64.1011C34.3196 65.4623 32.8646 67.1997 31.8369 69.1891C30.0715 72.8764 30.534 77.2673 31.8369 81.1565C33.1399 85.1565 35.3418 88.9741 38.7555 91.4562C41.6154 93.5213 45.1268 94.4725 48.5991 95.0979C53.3223 95.9513 58.2148 96.2705 62.9314 95.2477C66.4124 94.5452 69.6569 92.9667 72.3581 90.6614C73.5177 89.6256 74.1561 88.2119 75.2376 87.1826C76.7294 85.7689 79.0552 84.9025 80.8011 83.821C83.5307 82.1207 86.2669 80.3096 89.3809 79.5018C97.2897 77.4432 108.449 76.8829 113.218 69.0327Z" fill="black"/>
<path d="M56.6318 96.2119C53.9121 96.1887 51.1999 95.9227 48.5275 95.4171C45.5178 94.8764 41.6676 93.9643 38.5601 91.7298C35.4526 89.4953 33.0357 85.8666 31.5373 81.3063C30.4689 78.049 29.5829 73.2477 31.5829 69.1174C32.6193 67.0763 34.1023 65.295 35.9217 63.9057C38.5237 61.7955 41.5137 60.2153 44.723 59.2542C47.7602 58.452 50.8624 57.9201 53.9933 57.6646C58.8533 57.1304 63.4461 56.6223 67.4461 54.2054C70.938 52.0946 73.4852 48.733 75.9542 45.4822C78.293 42.4008 80.7164 39.2151 83.9477 37.0132C87.7855 34.4787 92.4417 33.4939 96.977 34.2575C98.0143 34.4768 99.0207 34.8224 99.9738 35.2868C100.785 35.666 101.635 35.9565 102.508 36.1532C103.168 36.2456 103.837 36.2609 104.501 36.1988C105.796 36.0122 107.115 36.2867 108.228 36.9741C109.994 38.1883 111.427 39.8255 112.397 41.7363C114.77 46.1187 116.085 50.9959 116.234 55.9773C116.488 61.3194 115.583 65.7493 113.472 69.2086C109.563 75.606 101.563 77.2412 94.4884 78.6874C92.7034 79.0523 91.0226 79.391 89.4526 79.8014C86.6448 80.5246 84.1041 82.1142 81.635 83.6516L80.9835 84.0751C80.3321 84.4594 79.6806 84.8177 78.9966 85.1695C77.7259 85.7512 76.5403 86.503 75.4722 87.4041C74.9888 87.8988 74.5526 88.4375 74.1692 89.0132C73.7159 89.6958 73.187 90.3252 72.5927 90.8894C69.8497 93.2572 66.5423 94.8773 62.9901 95.593C60.8993 96.0289 58.7673 96.2364 56.6318 96.2119ZM93.9803 34.6353C90.5318 34.6173 87.1565 35.629 84.2865 37.5409C81.1269 39.6712 78.7425 42.8177 76.4298 45.8601C73.9282 49.1565 71.3419 52.5702 67.7523 54.733C63.6415 57.2216 58.7686 57.7558 54.0715 58.277C50.9779 58.5247 47.9125 59.048 44.9119 59.8405C41.7755 60.7854 38.8543 62.3346 36.3125 64.4008C34.5645 65.7297 33.1356 67.4324 32.1301 69.3845C30.2409 73.3324 31.0813 77.9513 32.1301 81.1109C33.5894 85.5995 35.9412 89.1044 38.9314 91.2607C41.9217 93.4171 45.7132 94.3226 48.6578 94.8568C54.1432 95.8405 58.7816 95.8927 62.8533 95.0067C66.3034 94.3143 69.5166 92.7436 72.1823 90.4464C72.7442 89.911 73.2446 89.3144 73.6741 88.6679C74.0813 88.0602 74.546 87.4929 75.0617 86.9741C76.1696 86.0328 77.4016 85.248 78.723 84.6418C79.42 84.2835 80.0715 83.9448 80.6774 83.5734L81.3679 83.1435C83.863 81.5865 86.4428 79.9708 89.3419 79.2347C90.9314 78.8242 92.5992 78.479 94.4037 78.1142C101.368 76.7005 109.251 75.0914 113.003 68.9155C115.023 65.58 115.922 61.2412 115.674 56.0164C115.531 51.1286 114.243 46.3425 111.915 42.0425C110.993 40.2174 109.632 38.6503 107.954 37.4822C106.942 36.867 105.742 36.6358 104.573 36.8308C103.863 36.8912 103.148 36.8715 102.443 36.7721C101.526 36.5714 100.634 36.2677 99.7849 35.8666C98.8796 35.4354 97.926 35.1139 96.9445 34.9089C95.9659 34.7345 94.9743 34.643 93.9803 34.6353Z" fill="white"/>
<path d="M139.798 62.6483L136.371 75.5474L144.625 77.0197L149.329 59.7884C149.329 59.7884 141.993 54.1728 140.86 54.1337C139.726 54.0946 139.798 62.6483 139.798 62.6483Z" fill="black"/>
<path d="M144.625 77.3454H144.567L136.326 75.8927C136.281 75.8853 136.239 75.8685 136.201 75.8435C136.164 75.8186 136.132 75.7859 136.108 75.7478C136.084 75.7096 136.068 75.6668 136.062 75.6221C136.056 75.5775 136.059 75.532 136.071 75.4888L139.472 62.6484C139.472 61.2673 139.472 54.935 140.436 54.0034C140.491 53.9451 140.558 53.8991 140.632 53.8688C140.706 53.8385 140.786 53.8244 140.866 53.8275C142.032 53.8666 148.273 58.6028 149.518 59.5474C149.569 59.5872 149.607 59.6412 149.628 59.7025C149.649 59.7639 149.651 59.8299 149.635 59.8927L144.925 77.1239C144.904 77.1876 144.865 77.2432 144.811 77.283C144.757 77.3227 144.692 77.3445 144.625 77.3454ZM136.808 75.3063L144.404 76.6484L148.964 59.9122C145.44 57.2282 141.492 54.479 140.866 54.4594C140.404 54.8047 140.117 59.0197 140.143 62.6679C140.147 62.696 140.147 62.7245 140.143 62.7526L136.808 75.3063Z" fill="white"/>
<path d="M150.586 64.1076C150.519 64.114 150.451 64.114 150.384 64.1076C149.798 63.9643 146.723 61.7819 141.609 58.049C140.456 57.2021 139.453 56.479 139.329 56.4008C139.205 56.3226 138.547 56.6353 138.026 56.8177C136.664 57.2673 134.801 57.8861 133.668 57.5865C131.856 57.1044 130.658 54.479 130.606 54.3682C130.574 54.3035 130.566 54.2298 130.583 54.1598C130.6 54.0898 130.64 54.0277 130.697 53.9839L141.44 45.5148C141.476 45.4868 141.518 45.4665 141.563 45.4553C141.608 45.4441 141.655 45.4422 141.7 45.4497C141.791 45.4685 141.87 45.5223 141.922 45.5995C142.487 46.7579 142.924 47.9747 143.225 49.2282C143.42 50.1063 143.722 50.9573 144.124 51.7624C144.554 52.2379 150.3 56.2249 154.058 58.7917C154.115 58.8283 154.159 58.8824 154.182 58.9459C154.206 59.0093 154.208 59.0786 154.189 59.1435C153.518 61.5148 151.856 64.1076 150.586 64.1076ZM139.374 55.7493C139.467 55.7457 139.559 55.7659 139.642 55.808C139.778 55.8796 140.462 56.3813 141.993 57.4953C144.599 59.378 149.922 63.2868 150.534 63.4497C151.146 63.6125 152.697 61.8145 153.485 59.137C151.902 58.062 144.215 52.7982 143.628 52.1402C143.296 51.7754 143.016 50.8373 142.58 49.3519C142.302 48.2788 141.947 47.2272 141.518 46.2054L131.283 54.3031C131.602 54.9155 132.586 56.6028 133.804 56.9089C134.756 57.1565 136.586 56.5506 137.791 56.1532C138.299 55.9501 138.831 55.8143 139.374 55.7493Z" fill="white"/>
<path d="M141.133 48.1402C141.056 48.8289 141.186 49.525 141.505 50.1402C142.032 51.0848 144.371 52.3421 144.371 52.3421L146 49.0848L142.808 46.7786L141.133 48.1402Z" fill="white"/>
<path d="M144.371 52.6679C144.319 52.6682 144.267 52.6548 144.221 52.6288C143.967 52.4985 141.778 51.2933 141.225 50.2966C140.871 49.62 140.728 48.8531 140.814 48.0946C140.824 48.0157 140.864 47.9435 140.925 47.8927L142.599 46.5116C142.657 46.4661 142.728 46.4414 142.801 46.4414C142.874 46.4414 142.946 46.4661 143.003 46.5116L146.189 48.8178C146.251 48.8622 146.295 48.927 146.314 49.0008C146.333 49.0746 146.326 49.1528 146.293 49.2217L144.664 52.479C144.644 52.5179 144.617 52.5523 144.583 52.5803C144.55 52.6083 144.511 52.6292 144.469 52.6419C144.438 52.657 144.405 52.6659 144.371 52.6679ZM141.446 48.3161C141.406 48.8932 141.525 49.4702 141.791 49.9839C142.13 50.6353 143.479 51.4627 144.234 51.8992L145.583 49.1761L142.821 47.1761L141.446 48.3161Z" fill="white"/>
<path d="M151.348 57.2738C151.348 57.2738 152.202 54.5832 150.697 54.3943C150.683 54.1575 150.609 53.9282 150.481 53.7285C150.353 53.5288 150.176 53.3655 149.966 53.2542C149.757 53.1429 149.522 53.0875 149.285 53.0932C149.048 53.0989 148.816 53.1656 148.612 53.2868C148.612 53.2868 148.13 51.2868 146.554 51.6907C144.977 52.0946 143.726 55.8666 143.948 56.8177C144.169 57.7689 145.394 57.1891 146.013 56.2966C146.013 56.2966 145.212 57.7819 145.746 58.1728C146.528 58.7461 147.348 57.7298 148.013 56.9871C148.013 56.9871 147.029 58.7265 148.475 58.8829C149.589 59.0067 150.625 56.7591 150.625 56.7591L151.348 57.2738Z" fill="black"/>
<path d="M148.534 59.2151H148.41C148.125 59.2151 147.85 59.1021 147.648 58.9007C147.445 58.6993 147.33 58.4259 147.329 58.1402C146.788 58.6158 146.163 58.9154 145.518 58.4399C145.378 58.314 145.276 58.1514 145.224 57.9705C145.173 57.7897 145.173 57.5979 145.225 57.4171C144.943 57.5932 144.609 57.6647 144.28 57.619C144.105 57.5843 143.945 57.4961 143.823 57.3665C143.7 57.2369 143.621 57.0725 143.596 56.8959C143.355 55.7949 144.651 51.847 146.449 51.3845C146.672 51.3178 146.907 51.2985 147.138 51.3276C147.369 51.3568 147.592 51.4339 147.791 51.5539C148.254 51.8719 148.605 52.3278 148.795 52.8568C149.006 52.7801 149.23 52.7474 149.454 52.7608C149.678 52.7743 149.897 52.8336 150.097 52.935C150.516 53.2072 150.814 53.629 150.931 54.1141C151.215 54.1962 151.458 54.3793 151.615 54.6288C152.195 55.5343 151.694 57.1825 151.615 57.3715C151.602 57.4202 151.576 57.4648 151.541 57.5012C151.505 57.5375 151.462 57.5646 151.413 57.5799C151.365 57.5965 151.313 57.6016 151.262 57.5948C151.211 57.588 151.163 57.5696 151.12 57.5409L150.677 57.2347C150.365 57.8992 149.531 59.2151 148.534 59.2151ZM147.98 56.6614C148.051 56.6599 148.12 56.6829 148.176 56.7265C148.239 56.7745 148.283 56.8436 148.3 56.9213C148.316 56.999 148.305 57.0801 148.267 57.15C148.124 57.404 147.876 58.0295 148.032 58.3356C148.032 58.3812 148.124 58.5246 148.482 58.5637C149.133 58.6353 149.993 57.2607 150.299 56.6093C150.32 56.5669 150.349 56.5293 150.385 56.4989C150.421 56.4686 150.463 56.4463 150.508 56.4334C150.554 56.4194 150.603 56.4163 150.65 56.4242C150.698 56.4321 150.743 56.4508 150.782 56.479L151.146 56.733C151.322 56.1542 151.301 55.5335 151.088 54.9676C151.038 54.8928 150.971 54.8306 150.893 54.7854C150.815 54.7403 150.728 54.7134 150.638 54.707C150.568 54.6966 150.502 54.6637 150.452 54.6132C150.401 54.5628 150.369 54.4974 150.358 54.4268C150.302 54.0545 150.1 53.7197 149.798 53.4952C149.624 53.4259 149.438 53.3969 149.251 53.4105C149.065 53.424 148.884 53.4797 148.723 53.5734C148.68 53.5929 148.633 53.6029 148.586 53.6029C148.539 53.6029 148.492 53.5929 148.449 53.5734C148.406 53.5521 148.369 53.5218 148.338 53.4848C148.308 53.4477 148.286 53.4047 148.273 53.3584C148.15 52.8567 147.861 52.4114 147.453 52.0946C147.326 52.0223 147.187 51.9769 147.042 51.9612C146.897 51.9455 146.751 51.9599 146.612 52.0034C145.225 52.3552 144.058 55.9122 144.234 56.7396C144.28 56.9415 144.365 56.961 144.41 56.9676C144.679 56.9311 144.936 56.8342 145.161 56.6841C145.387 56.534 145.576 56.3347 145.713 56.1011C145.761 56.0333 145.832 55.9861 145.913 55.9691C145.994 55.9522 146.079 55.9668 146.15 56.0099C146.219 56.0543 146.269 56.1229 146.291 56.2023C146.313 56.2818 146.304 56.3664 146.267 56.4399C145.935 57.0913 145.752 57.7949 145.902 57.9057C146.358 58.2379 146.899 57.7037 147.602 56.922L147.739 56.7656C147.77 56.7328 147.808 56.7066 147.849 56.6887C147.89 56.6707 147.935 56.6615 147.98 56.6614Z" fill="white"/>
<path d="M144.384 49.2021C144.384 49.2021 143.492 47.6516 142.554 49.0132C141.616 50.3748 140.488 52.922 142.052 53.1956C143.616 53.4692 144.788 50.5507 144.384 49.2021Z" fill="black"/>
<path d="M142.254 53.5278C142.169 53.5343 142.084 53.5343 142 53.5278C141.795 53.5032 141.601 53.4252 141.436 53.3017C141.272 53.1782 141.143 53.0135 141.062 52.8242C140.606 51.7363 141.615 49.8014 142.286 48.8373C142.398 48.6317 142.561 48.4588 142.76 48.3355C142.959 48.2121 143.186 48.1426 143.42 48.1337C144.137 48.1662 144.612 48.961 144.664 49.0457L144.697 49.1174C144.804 49.7674 144.77 50.4331 144.596 51.0685C144.421 51.7039 144.111 52.294 143.687 52.7982C143.514 53.0145 143.296 53.1914 143.049 53.3172C142.802 53.443 142.531 53.5148 142.254 53.5278ZM143.374 48.7656C143.159 48.7656 142.951 48.9936 142.821 49.1825C142.032 50.3226 141.387 51.8926 141.661 52.5506C141.7 52.6379 141.761 52.7131 141.839 52.7682C141.917 52.8233 142.009 52.8561 142.104 52.8633C142.315 52.8764 142.526 52.8362 142.717 52.7462C142.909 52.6563 143.074 52.5195 143.198 52.3487C143.545 51.9313 143.803 51.4469 143.954 50.9256C144.105 50.4044 144.147 49.8576 144.078 49.3193C143.974 49.15 143.681 48.7786 143.387 48.7656H143.374Z" fill="white"/>
<path d="M139.791 63.5213C139.791 63.5213 138.762 58.6028 138.664 57.7233C138.502 56.2314 138.853 53.8992 140.163 53.5344C141.472 53.1696 144.469 52.8243 143.974 54.1402C143.524 55.3389 140.899 55.5669 140.899 55.5669C140.899 55.5669 142.71 57.3911 142.436 59.2086" fill="black"/>
<path d="M139.791 63.847C139.717 63.8474 139.645 63.8224 139.587 63.7762C139.529 63.73 139.488 63.6653 139.472 63.593C139.433 63.391 138.443 58.6418 138.345 57.7298C138.176 56.2053 138.501 53.6321 140.078 53.1695C140.899 52.9415 143.407 52.4724 144.143 53.2737C144.254 53.3975 144.326 53.5512 144.351 53.7157C144.375 53.8802 144.35 54.0482 144.28 54.1988C143.909 55.2021 142.41 55.5995 141.544 55.7558C142.091 56.4464 142.97 57.8079 142.756 59.2021C142.749 59.2449 142.734 59.286 142.712 59.323C142.69 59.3601 142.66 59.3924 142.626 59.4181C142.591 59.4438 142.551 59.4624 142.509 59.4729C142.467 59.4833 142.424 59.4854 142.381 59.479C142.338 59.4725 142.297 59.4578 142.26 59.4355C142.223 59.4132 142.191 59.3838 142.165 59.349C142.139 59.3142 142.121 59.2747 142.11 59.2327C142.1 59.1908 142.098 59.1471 142.104 59.1044C142.352 57.4692 140.677 55.7558 140.664 55.7428C140.621 55.6981 140.59 55.6421 140.577 55.5812C140.563 55.5203 140.566 55.4567 140.586 55.3975C140.608 55.3398 140.646 55.2895 140.696 55.2526C140.746 55.2157 140.805 55.1936 140.866 55.1891C141.518 55.1304 143.355 54.7982 143.661 53.9708C143.733 53.7949 143.661 53.7428 143.661 53.7167C143.316 53.3324 141.511 53.4496 140.247 53.7949C139.185 54.0881 138.834 56.2119 138.99 57.6321C139.088 58.4855 140.104 63.3584 140.111 63.404C140.12 63.446 140.121 63.4895 140.113 63.5318C140.105 63.5742 140.089 63.6145 140.065 63.6504C140.042 63.6863 140.011 63.717 139.975 63.7408C139.939 63.7645 139.899 63.7807 139.856 63.7884L139.791 63.847Z" fill="white"/>
<path d="M129.251 55.9317C128.9 55.935 128.55 55.8979 128.208 55.821C127.463 55.629 126.765 55.2844 126.16 54.809C125.554 54.3335 125.054 53.7375 124.69 53.0588C122.586 49.6451 123.883 47.9969 126.554 45.1304C127.114 44.5311 127.922 43.7754 128.86 42.9089C130.163 41.6972 131.628 40.3031 133.003 38.8568C134.387 37.4604 135.553 35.8638 136.462 34.1207C138.417 30.0164 137.876 23.6321 137.87 23.5669C137.864 23.4999 137.88 23.4329 137.913 23.3747C137.947 23.3165 137.998 23.27 138.058 23.2412C138.12 23.212 138.189 23.2032 138.256 23.2161C138.323 23.229 138.384 23.2629 138.43 23.3129L159.277 44.6418C159.322 44.6896 159.352 44.75 159.363 44.8151C159.373 44.8803 159.364 44.9471 159.335 45.0067C159.306 45.0674 159.26 45.118 159.202 45.1517C159.144 45.1855 159.077 45.2007 159.01 45.1956C158.899 45.1956 148.208 44.1598 143.922 46.6549C142.822 47.3113 141.768 48.0427 140.769 48.8438C139.785 49.619 138.814 50.4269 137.909 51.2021C136.764 52.2146 135.568 53.167 134.326 54.0555C132.436 55.3063 130.742 55.9317 129.251 55.9317ZM138.573 24.3878C138.651 26.3422 138.645 31.0197 137.055 34.4008C136.113 36.2023 134.907 37.8534 133.479 39.2998C132.091 40.7917 130.612 42.1663 129.303 43.3845C128.378 44.2444 127.57 44.9936 127.029 45.5734C124.423 48.3422 123.381 49.6972 125.244 52.7396C125.564 53.3428 126.004 53.8738 126.537 54.2997C127.071 54.7256 127.686 55.0372 128.345 55.2151C129.896 55.5539 131.778 54.9871 133.948 53.5343C135.172 52.6643 136.348 51.7292 137.472 50.733C138.404 49.9513 139.361 49.137 140.352 48.3617C141.385 47.5388 142.473 46.7878 143.609 46.1142C147.381 43.9187 155.511 44.2966 158.208 44.4985L138.573 24.3878Z" fill="white"/>
<path d="M141.133 48.1402C138.73 50.0229 135.824 52.518 134.13 53.7819C130.26 56.6744 127.811 56.9806 125.283 53.404C122.677 49.7298 124.15 48.1923 126.795 45.3519C128.098 43.9513 130.86 41.6386 133.238 39.0783C133.238 39.0783 133.388 41.7428 136.039 44.9936C137.341 46.579 139.133 47.6861 141.133 48.1402Z" fill="white"/>
<path d="M129.225 56.3422C129.024 56.3437 128.823 56.3284 128.625 56.2966C127.322 56.0946 126.176 55.2347 125.016 53.593C122.273 49.7168 123.876 48.0034 126.521 45.163C127.114 44.5116 127.922 43.7754 128.86 42.909C130.163 41.6972 131.629 40.3031 133.003 38.8568C133.045 38.8093 133.101 38.7758 133.163 38.7607C133.224 38.7455 133.289 38.7495 133.348 38.7721C133.408 38.7937 133.461 38.8323 133.499 38.8833C133.537 38.9342 133.559 38.9952 133.563 39.0588C133.563 39.0588 133.752 41.6647 136.293 44.7852C137.549 46.3073 139.27 47.3741 141.192 47.821C141.254 47.8331 141.31 47.8621 141.356 47.9047C141.402 47.9472 141.436 48.0017 141.453 48.062C141.465 48.1238 141.461 48.1879 141.44 48.2475C141.42 48.3071 141.383 48.36 141.335 48.4008C140.228 49.2673 139.023 50.2575 137.85 51.2151C136.508 52.3161 135.244 53.3585 134.326 54.0425C132.247 55.6125 130.619 56.3422 129.225 56.3422ZM133.016 39.7884C131.772 41.0914 130.469 42.3031 129.303 43.3845C128.378 44.2445 127.57 44.9936 127.029 45.5734C124.423 48.3813 123.12 49.7689 125.55 53.2151C126.599 54.7005 127.609 55.4757 128.723 55.6516C130.072 55.8601 131.674 55.2086 133.935 53.5213C134.84 52.8699 136.104 51.808 137.44 50.7135C138.43 49.8992 139.446 49.0653 140.41 48.2966C138.598 47.7382 136.99 46.66 135.785 45.1956C134.449 43.6365 133.5 41.7838 133.016 39.7884Z" fill="white"/>
<path d="M162.039 43.9513C159.609 46.1337 154.221 44.3161 148.977 39.8796C147.633 38.7448 146.371 37.517 145.199 36.2054C144.047 34.9181 142.985 33.5533 142.019 32.1207C138.111 26.3747 136.892 20.8112 139.342 18.6158C142.365 15.8992 149.909 19.365 156.182 26.3617C162.456 33.3585 165.075 41.2282 162.039 43.9513Z" fill="#2FE784"/>
<path d="M142.072 17.6972C145.765 17.6972 151.342 20.9936 156.163 26.3682C162.443 33.365 165.075 41.2347 162.026 43.9578C161.258 44.5998 160.277 44.93 159.277 44.8829C156.521 44.8829 152.723 43.0523 148.964 39.8861C147.62 38.7513 146.357 37.5235 145.186 36.2119C144.038 34.9221 142.98 33.5551 142.019 32.1207C138.111 26.3747 136.892 20.8112 139.342 18.6158C140.106 17.9813 141.079 17.6539 142.072 17.6972ZM142.072 17.0457C140.91 16.9959 139.772 17.3868 138.886 18.1402C136.234 20.5181 137.27 26.2835 141.459 32.4725C143.452 35.4145 145.831 38.0746 148.534 40.3813C152.443 43.6386 156.352 45.5278 159.264 45.5278C160.438 45.5772 161.587 45.1764 162.475 44.4073C164.15 42.9089 164.43 40.1076 163.212 36.5246C161.746 32.5854 159.516 28.9745 156.651 25.8992C151.791 20.5311 146.085 17.0457 142.072 17.0457Z" fill="white"/>
<path d="M153.309 34.4594L148.977 39.8796C147.633 38.7448 146.371 37.517 145.199 36.2054C144.047 34.9181 142.985 33.5533 142.019 32.1207L148.287 28.2705L153.309 34.4594Z" fill="black"/>
<path d="M153.316 34.4687C154.109 33.8178 153.618 31.9108 152.221 30.2093C150.823 28.5078 149.048 27.6561 148.255 28.3069C147.463 28.9578 147.953 30.8648 149.351 32.5663C150.749 34.2678 152.524 35.1195 153.316 34.4687Z" fill="white"/>
<path d="M152.645 34.9936C151.622 34.9936 150.241 34.1663 149.088 32.7591C148.431 31.9869 147.943 31.086 147.655 30.1142C147.413 29.176 147.55 28.4399 148.039 28.0425C148.527 27.6451 149.27 27.6516 150.143 28.0425C151.039 28.5214 151.823 29.1854 152.443 29.9904C153.98 31.8601 154.443 33.9317 153.498 34.7135C153.253 34.8998 152.953 34.9985 152.645 34.9936ZM148.925 28.4008C148.754 28.3915 148.586 28.4422 148.449 28.5441C148.176 28.7721 148.117 29.2868 148.286 29.9513C148.547 30.8334 148.991 31.6505 149.589 32.3487C150.957 34.0164 152.534 34.6679 153.094 34.2054C153.655 33.7428 153.322 32.0686 151.954 30.4008C151.378 29.6772 150.657 29.0824 149.837 28.6549C149.554 28.5073 149.243 28.4207 148.925 28.4008Z" fill="white"/>
<path d="M147.98 57.3129C147.923 57.3133 147.866 57.2975 147.817 57.2673C147.78 57.2463 147.747 57.2182 147.721 57.1844C147.695 57.1506 147.676 57.1119 147.665 57.0706C147.654 57.0293 147.652 56.9862 147.658 56.9439C147.664 56.9015 147.678 56.8609 147.7 56.8243C148.105 56.1614 148.605 55.5621 149.185 55.0458C149.217 55.0124 149.255 54.9861 149.298 54.9686C149.34 54.951 149.386 54.9427 149.432 54.944C149.477 54.9453 149.522 54.9563 149.564 54.9763C149.605 54.9962 149.642 55.0247 149.671 55.0598C149.701 55.0949 149.723 55.1358 149.735 55.1799C149.748 55.224 149.751 55.2703 149.745 55.3157C149.738 55.3612 149.722 55.4047 149.698 55.4435C149.673 55.4823 149.641 55.5155 149.602 55.5409C149.096 56.0173 148.658 56.5609 148.299 57.1565C148.267 57.2101 148.219 57.2533 148.163 57.281C148.106 57.3086 148.043 57.3197 147.98 57.3129Z" fill="white"/>
<path d="M145.98 56.6223H145.928C145.886 56.6138 145.846 56.597 145.811 56.5731C145.775 56.5491 145.745 56.5185 145.721 56.4828C145.698 56.4471 145.682 56.4071 145.673 56.3651C145.665 56.3231 145.666 56.2799 145.674 56.2379C145.909 55.3082 146.46 54.4886 147.231 53.9187C147.3 53.8669 147.387 53.8446 147.473 53.8569C147.558 53.8691 147.635 53.9148 147.687 53.9839C147.739 54.053 147.761 54.1399 147.749 54.2254C147.737 54.3109 147.691 54.3881 147.622 54.4399C146.984 54.9157 146.525 55.5928 146.319 56.3617C146.302 56.4381 146.259 56.506 146.197 56.5537C146.135 56.6014 146.058 56.6257 145.98 56.6223Z" fill="white"/>
<path d="M150.593 57.0848C150.527 57.0853 150.463 57.0648 150.41 57.0262C150.375 57.0015 150.345 56.9701 150.322 56.9338C150.299 56.8974 150.283 56.8569 150.276 56.8145C150.269 56.7721 150.27 56.7287 150.28 56.6867C150.289 56.6448 150.307 56.6052 150.332 56.5702L150.775 55.9187C150.827 55.8503 150.903 55.8042 150.988 55.7897C151.072 55.7751 151.159 55.7933 151.231 55.8406C151.301 55.8915 151.348 55.9676 151.363 56.0527C151.377 56.1378 151.358 56.2253 151.309 56.2966L150.86 56.948C150.83 56.9914 150.79 57.0267 150.744 57.0506C150.697 57.0745 150.645 57.0863 150.593 57.0848Z" fill="white"/>
<path d="M130.032 55.6842C129.962 55.6847 129.893 55.6618 129.837 55.619C126.957 53.4301 125.172 50.7721 124.821 48.1402V48.0685C124.8 47.9995 124.803 47.9256 124.829 47.8584C124.855 47.7913 124.902 47.7346 124.964 47.6972C125 47.6736 125.041 47.6575 125.083 47.65C125.125 47.6424 125.169 47.6435 125.211 47.6533C125.253 47.663 125.293 47.6812 125.327 47.7066C125.362 47.7321 125.391 47.7644 125.413 47.8014C125.452 47.8808 125.474 47.9673 125.479 48.0555C125.811 50.5181 127.498 53.0197 130.247 55.0979C130.303 55.1392 130.343 55.197 130.363 55.2629C130.384 55.3288 130.382 55.3994 130.36 55.4646C130.338 55.5298 130.295 55.5862 130.238 55.6256C130.182 55.6651 130.114 55.6856 130.045 55.6842H130.032Z" fill="black"/>
<path d="M128.423 45.2868C128.379 45.2862 128.334 45.276 128.294 45.2569C128.253 45.2377 128.218 45.2102 128.189 45.176C128.158 45.1463 128.134 45.1108 128.118 45.0717C128.101 45.0325 128.093 44.9905 128.093 44.948C128.093 44.9055 128.101 44.8635 128.118 44.8243C128.134 44.7852 128.158 44.7497 128.189 44.72L131.694 41.4627C131.723 41.4315 131.758 41.4067 131.797 41.3897C131.837 41.3727 131.879 41.364 131.922 41.364C131.964 41.364 132.007 41.3727 132.046 41.3897C132.085 41.4067 132.12 41.4315 132.15 41.4627C132.18 41.4924 132.204 41.5279 132.221 41.567C132.237 41.6062 132.245 41.6482 132.245 41.6907C132.245 41.7331 132.237 41.7752 132.221 41.8143C132.204 41.8535 132.18 41.889 132.15 41.9187L128.645 45.176C128.617 45.2086 128.584 45.2352 128.545 45.2543C128.507 45.2733 128.466 45.2844 128.423 45.2868Z" fill="black"/>
<path d="M128.905 46.0685C128.815 46.0662 128.728 46.0288 128.664 45.9643C128.604 45.9023 128.571 45.8194 128.571 45.733C128.571 45.6467 128.604 45.5637 128.664 45.5017L132.169 42.2444C132.23 42.1847 132.312 42.1513 132.397 42.1513C132.483 42.1513 132.564 42.1847 132.625 42.2444C132.656 42.2747 132.68 42.3107 132.697 42.3504C132.713 42.3901 132.722 42.4327 132.722 42.4757C132.722 42.5187 132.713 42.5613 132.697 42.601C132.68 42.6407 132.656 42.6767 132.625 42.707L129.127 45.9643C129.068 46.0249 128.99 46.062 128.905 46.0685Z" fill="black"/>
<path d="M129.459 46.9676C129.415 46.9686 129.371 46.9599 129.33 46.9418C129.29 46.9238 129.254 46.897 129.225 46.8633C129.194 46.8336 129.17 46.7981 129.154 46.759C129.137 46.7198 129.129 46.6778 129.129 46.6353C129.129 46.5929 129.137 46.5508 129.154 46.5117C129.17 46.4725 129.194 46.437 129.225 46.4073L132.729 43.15C132.759 43.1188 132.794 43.094 132.833 43.077C132.872 43.06 132.915 43.0513 132.957 43.0513C133 43.0513 133.043 43.06 133.082 43.077C133.121 43.094 133.156 43.1188 133.186 43.15C133.216 43.1797 133.24 43.2152 133.256 43.2543C133.273 43.2935 133.281 43.3355 133.281 43.378C133.281 43.4205 133.273 43.4625 133.256 43.5017C133.24 43.5408 133.216 43.5763 133.186 43.606L129.681 46.8633C129.653 46.895 129.619 46.9206 129.581 46.9386C129.543 46.9565 129.501 46.9664 129.459 46.9676Z" fill="black"/>
<path d="M71.4787 97.2151L69.8435 133.319C69.8435 133.319 92.1562 133.586 104.99 128.225C106.042 124.783 107.313 121.413 108.795 118.134C110.677 114.329 118.762 108.72 116.221 94.1532C116.221 94.1532 135.27 106.205 140.638 100.668C146.006 95.1304 148.69 69.2672 148.69 69.2672L137.537 65.6842L132.469 81.632C132.469 81.632 100.326 66.0816 92.8337 64.1141C90.052 63.3845 81.407 67.9838 71.4982 74.3487" fill="#2FE784"/>
<path d="M92.1432 74.9415C92.1432 74.9415 97.3093 90.9936 98.1953 97.7884C99.0813 104.583 99.2116 115.814 99.2116 115.814C99.2116 115.814 107.387 90.7721 106.378 75.3063L92.1432 74.9415Z" fill="white"/>
<path d="M99.2116 116.108H99.1725C99.1045 116.098 99.0422 116.065 98.9968 116.013C98.9513 115.962 98.9259 115.896 98.9249 115.827C98.9249 115.717 98.7816 104.531 97.9086 97.834C97.0357 91.1369 91.9217 75.1956 91.8696 75.0327C91.8564 74.9889 91.8536 74.9427 91.8614 74.8977C91.8692 74.8527 91.8875 74.8101 91.9147 74.7734C91.9419 74.7367 91.9774 74.7069 92.0181 74.6863C92.0589 74.6657 92.104 74.6549 92.1497 74.6548L106.378 75.0197C106.45 75.0196 106.519 75.0473 106.571 75.0971C106.623 75.1468 106.654 75.2148 106.658 75.2868C107.668 90.6288 99.5699 115.678 99.4917 115.906C99.4733 115.965 99.436 116.017 99.3855 116.054C99.3349 116.09 99.2739 116.109 99.2116 116.108ZM92.5406 75.2412C93.3288 77.7298 97.6806 91.593 98.4819 97.7493C99.1334 102.87 99.3875 110.59 99.4656 114.036C101.244 108.173 106.86 88.518 106.104 75.5995L92.5406 75.2412Z" fill="white"/>
<path d="M66.1171 152.485H127.687L105.01 128.225L69.8631 133.319C69.8631 133.319 65.6546 142.844 66.052 149.528C66.078 150.316 66.0976 151.326 66.1171 152.485Z" fill="white"/>
<path d="M127.687 152.811H66.1171C66.0747 152.812 66.0324 152.804 65.993 152.789C65.9535 152.773 65.9175 152.75 65.8872 152.72C65.8568 152.69 65.8327 152.655 65.8163 152.616C65.7998 152.577 65.7914 152.534 65.7914 152.492C65.7914 151.398 65.7523 150.349 65.7067 149.547C65.3093 142.857 69.3679 133.58 69.5438 133.183C69.567 133.134 69.6015 133.091 69.6446 133.058C69.6877 133.025 69.738 133.003 69.7914 132.994L104.971 127.899C105.023 127.893 105.076 127.899 105.126 127.917C105.176 127.935 105.221 127.965 105.257 128.003L127.935 152.264C127.978 152.311 128.007 152.369 128.017 152.432C128.028 152.494 128.02 152.559 127.994 152.617C127.968 152.675 127.926 152.724 127.873 152.759C127.82 152.793 127.757 152.812 127.694 152.811H127.687ZM66.4494 152.16H126.931L104.886 128.57L70.0845 133.613C69.5308 134.915 66.0064 143.456 66.3712 149.508C66.4038 150.244 66.4494 151.176 66.4494 152.16Z" fill="white"/>
<path d="M104.606 66.3096L106.371 75.3064C106.371 75.3064 106.417 80.5181 100.645 80.0165C98.9395 79.8564 97.2913 79.3177 95.8205 78.4397C94.3498 77.5618 93.0935 76.3667 92.1432 74.9415L89.8045 59.2282C90.0058 56.3671 89.7729 53.4919 89.1139 50.7005C95.7523 49.3259 100.039 43.3129 100.039 43.3129C100.039 43.3129 102.977 46.3096 104.176 47.2217C105.14 47.8824 106.016 48.664 106.782 49.5474C108.039 51.1044 108.41 53.2803 108.736 55.2021C109.146 57.4832 109.349 59.7966 109.342 62.1142C109.238 66.5116 104.606 66.3096 104.606 66.3096Z" fill="black"/>
<path d="M101.394 80.3487C101.146 80.3487 100.886 80.3487 100.619 80.3487C98.8659 80.1908 97.171 79.6403 95.6598 78.7381C94.1486 77.8359 92.8598 76.6051 91.8891 75.137C91.8704 75.1023 91.8572 75.065 91.8501 75.0262C91.8501 75.0262 89.5178 59.391 89.5113 59.3129C89.4852 59.0508 89.4852 58.7867 89.5113 58.5246C89.6623 55.9292 89.4296 53.3257 88.8207 50.7982C88.8108 50.7607 88.8091 50.7214 88.8158 50.6832C88.8226 50.6449 88.8376 50.6086 88.8598 50.5767C88.8812 50.5437 88.9089 50.5151 88.9413 50.4928C88.9737 50.4704 89.0102 50.4547 89.0488 50.4464C95.4917 49.1435 99.7458 43.2347 99.7849 43.1761C99.8108 43.1408 99.844 43.1115 99.8822 43.0902C99.9204 43.0688 99.9628 43.0559 100.006 43.0523C100.05 43.0481 100.094 43.0542 100.134 43.0701C100.175 43.0859 100.212 43.1111 100.241 43.1435C100.274 43.1435 103.179 46.1337 104.352 47.0132C105.317 47.6908 106.192 48.4875 106.958 49.3845C108.26 51.0262 108.658 53.2933 108.971 55.1761C109.385 57.4741 109.59 59.8051 109.583 62.1402C109.6 62.7356 109.493 63.3281 109.269 63.8799C109.044 64.4317 108.708 64.9308 108.28 65.3454C107.337 66.1484 106.15 66.6077 104.912 66.6484L106.612 75.2933C106.604 76.729 106.033 78.1043 105.023 79.1239C104.012 79.9779 102.715 80.4158 101.394 80.3487ZM92.4299 74.8373C93.3628 76.2046 94.5843 77.3507 96.0081 78.1949C97.432 79.0391 99.0236 79.5608 100.671 79.7233C102.391 79.8666 103.733 79.5083 104.664 78.6484C105.538 77.7517 106.041 76.558 106.072 75.3064L104.313 66.3682C104.305 66.3237 104.307 66.2781 104.318 66.2344C104.33 66.1906 104.35 66.1497 104.378 66.1142C104.406 66.0784 104.443 66.0502 104.485 66.0321C104.527 66.0139 104.573 66.0063 104.619 66.0099C105.822 66.0333 106.995 65.6293 107.928 64.8699C108.289 64.5059 108.572 64.072 108.759 63.5947C108.946 63.1174 109.034 62.607 109.016 62.0946C109.022 59.7944 108.819 57.4983 108.41 55.2347C108.091 53.365 107.759 51.2347 106.521 49.7233C105.779 48.8631 104.932 48.0992 104 47.4497C102.984 46.6875 100.801 44.5116 100.091 43.7689C99.1595 44.9741 95.2572 49.6321 89.4917 50.935C90.0742 53.4202 90.2936 55.9766 90.1432 58.5246C90.1257 58.7414 90.1257 58.9593 90.1432 59.1761C90.1432 59.1761 90.1172 59.3389 92.4299 74.8373Z" fill="white"/>
<path d="M105.394 70.7395C105.394 70.7395 101.772 71.593 98.9575 69.606C96.1431 67.619 96.0259 65.0978 96.0259 65.0978C96.0259 65.0978 100.482 66.9936 104.606 66.3096L105.394 70.7395Z" fill="white"/>
<path d="M103.498 71.2151C101.826 71.2511 100.184 70.7712 98.7946 69.8405C95.8956 67.7949 95.7653 65.2542 95.7653 65.1109C95.7613 65.0623 95.7708 65.0135 95.7926 64.9698C95.8144 64.9262 95.8478 64.8894 95.8891 64.8633C95.9277 64.8342 95.9734 64.8158 96.0215 64.8101C96.0695 64.8044 96.1183 64.8115 96.1627 64.8308C96.2083 64.8308 100.599 66.6874 104.586 66.0229C104.66 66.0116 104.736 66.0298 104.797 66.0737C104.858 66.1175 104.899 66.1835 104.912 66.2575L105.707 70.6874C105.72 70.7607 105.705 70.8364 105.663 70.8985C105.622 70.9605 105.558 71.004 105.485 71.0197C104.832 71.1589 104.166 71.2244 103.498 71.2151ZM96.4167 65.5474C96.8227 67.1156 97.7952 68.4779 99.1464 69.3715C101.394 70.9611 104.221 70.6744 105.088 70.5115L104.397 66.6353C101.042 67.0979 97.6285 66.0034 96.4167 65.5474Z" fill="white"/>
<path d="M99.7979 50.9676C99.7979 50.9676 103.518 54.7461 102.97 55.6256C102.423 56.5051 100.404 56.3813 100.404 56.3813" fill="black"/>
<path d="M100.716 56.6744H100.384C100.346 56.6719 100.31 56.662 100.276 56.6453C100.242 56.6285 100.212 56.6053 100.187 56.5768C100.162 56.5484 100.143 56.5153 100.131 56.4795C100.119 56.4437 100.114 56.4059 100.117 56.3682C100.122 56.2916 100.157 56.22 100.214 56.1688C100.272 56.1177 100.347 56.091 100.423 56.0946C100.938 56.0946 102.378 56.0946 102.729 55.4822C102.951 55.1174 101.492 53.1044 99.5959 51.176C99.5694 51.1491 99.5484 51.1172 99.5342 51.0821C99.52 51.0471 99.5129 51.0096 99.5132 50.9718C99.5135 50.934 99.5212 50.8966 99.536 50.8618C99.5507 50.827 99.5722 50.7954 99.5991 50.7689C99.6261 50.7423 99.658 50.7214 99.6931 50.7072C99.7281 50.693 99.7656 50.6859 99.8034 50.6862C99.8412 50.6865 99.8786 50.6942 99.9134 50.709C99.9482 50.7237 99.9798 50.7452 100.006 50.7721C101.172 51.9578 103.817 54.8177 103.218 55.7884C102.723 56.5767 101.361 56.6744 100.716 56.6744Z" fill="white"/>
<path d="M104.944 53.0224C105.217 52.9592 105.343 52.4931 105.225 51.9813C105.106 51.4694 104.789 51.1058 104.515 51.1689C104.242 51.2321 104.116 51.6982 104.235 52.21C104.353 52.7219 104.67 53.0856 104.944 53.0224Z" fill="white"/>
<path d="M96.6438 53.8658C96.9172 53.8026 97.043 53.3365 96.9248 52.8246C96.8065 52.3128 96.489 51.9491 96.2156 52.0123C95.9421 52.0755 95.8163 52.5416 95.9346 53.0534C96.0528 53.5652 96.3704 53.9289 96.6438 53.8658Z" fill="white"/>
<path d="M91.9347 54.0425C91.0292 52.5767 88.9119 52.3747 87.4331 52.9675C86.9426 53.143 86.5159 53.4615 86.2082 53.8819C85.9004 54.3023 85.7257 54.8052 85.7067 55.3259C85.6953 55.9653 85.8105 56.6007 86.0455 57.1956C86.4389 58.3107 87.0304 59.3458 87.7914 60.2509C88.146 60.7244 88.6143 61.1009 89.153 61.3454C89.4923 61.4652 89.8596 61.4808 90.2079 61.3903C90.5561 61.2997 90.8694 61.1072 91.1074 60.8373" fill="black"/>
<path d="M89.7654 61.7624C89.52 61.7621 89.2769 61.7157 89.0488 61.6256C88.4644 61.3604 87.9542 60.9554 87.5634 60.4464C86.7815 59.5129 86.1726 58.4474 85.7654 57.2998C85.5167 56.6652 85.395 55.9879 85.4071 55.3063C85.4322 54.7311 85.6277 54.1763 85.9687 53.7123C86.3097 53.2483 86.7808 52.8962 87.3224 52.7005C88.951 52.049 91.2312 52.3096 92.1888 53.8927C92.2217 53.9596 92.2285 54.0363 92.2078 54.108C92.1871 54.1796 92.1404 54.241 92.0769 54.28C92.0134 54.3191 91.9376 54.3331 91.8644 54.3193C91.7911 54.3055 91.7256 54.2649 91.6807 54.2054C90.8663 52.9024 88.9445 52.6874 87.5439 53.2477C87.1068 53.4026 86.7259 53.6844 86.4497 54.0568C86.1735 54.4293 86.0147 54.8757 85.9934 55.3389C85.9846 55.9404 86.093 56.5378 86.3126 57.0979C86.6951 58.1794 87.2688 59.1834 88.0064 60.062C88.3314 60.4946 88.7591 60.8394 89.2507 61.0653C89.5385 61.1665 89.8501 61.179 90.1451 61.1012C90.4401 61.0233 90.705 60.8588 90.9054 60.6288C90.9311 60.5948 90.9638 60.5667 91.0013 60.5463C91.0387 60.5259 91.0801 60.5138 91.1227 60.5107C91.1652 60.5075 91.2079 60.5135 91.2479 60.5283C91.2879 60.543 91.3244 60.5661 91.3547 60.596C91.3851 60.6259 91.4088 60.662 91.4241 60.7018C91.4395 60.7415 91.4461 60.7842 91.4437 60.8267C91.4412 60.8693 91.4297 60.9109 91.4099 60.9486C91.3901 60.9864 91.3625 61.0195 91.3289 61.0458C91.1285 61.2626 90.8872 61.4375 90.6188 61.5605C90.3505 61.6835 90.0604 61.7521 89.7654 61.7624Z" fill="white"/>
<path d="M103.446 57.5539L99.0878 57.9773C99.0878 57.9773 99.9933 64.7135 101.954 64.5311C103.915 64.3487 103.922 59.4822 103.446 57.5539Z" fill="black"/>
<path d="M101.869 64.8243C99.8174 64.8243 98.9509 59.1696 98.8011 58.0165C98.7939 57.9785 98.7954 57.9394 98.8056 57.9022C98.8157 57.8649 98.8343 57.8305 98.8597 57.8015C98.882 57.7696 98.9111 57.7431 98.9449 57.724C98.9787 57.7048 99.0164 57.6934 99.0552 57.6907L103.42 57.2673C103.488 57.2605 103.557 57.2785 103.613 57.3179C103.669 57.3574 103.709 57.4157 103.726 57.4823C104.098 58.9806 104.221 62.5702 103.14 64.0881C103.013 64.2885 102.843 64.458 102.643 64.5843C102.442 64.7105 102.216 64.7903 101.98 64.8178L101.869 64.8243ZM99.4135 58.238C99.7783 60.7005 100.716 64.2445 101.869 64.2445H101.928C102.08 64.2228 102.226 64.1678 102.354 64.0833C102.483 63.9988 102.591 63.887 102.671 63.7559C103.524 62.5507 103.563 59.5344 103.225 57.8927L99.4135 58.238Z" fill="white"/>
<path d="M114.352 109.788C114.299 109.788 114.248 109.774 114.203 109.748C114.158 109.721 114.12 109.683 114.095 109.637C114.07 109.591 114.057 109.539 114.059 109.487C114.061 109.434 114.076 109.383 114.104 109.339C114.15 109.254 118.938 101.202 114.358 84.4334C114.34 84.3574 114.351 84.2774 114.39 84.2095C114.429 84.1417 114.492 84.0913 114.567 84.0685C114.604 84.0577 114.644 84.0546 114.683 84.0592C114.721 84.0639 114.759 84.0763 114.793 84.0958C114.827 84.1152 114.857 84.1412 114.881 84.1724C114.904 84.2035 114.922 84.2391 114.931 84.277C119.589 101.319 114.814 109.319 114.606 109.684C114.575 109.721 114.536 109.75 114.492 109.769C114.448 109.787 114.399 109.794 114.352 109.788Z" fill="white"/>
<path d="M25.7523 86.4855L96.0846 137.228L166.417 86.4855V169.73H25.7523V86.4855Z" fill="black"/>
<path d="M166.417 170.056H25.7523C25.6659 170.056 25.5831 170.021 25.522 169.96C25.4609 169.899 25.4266 169.816 25.4266 169.73V86.4855C25.4255 86.4259 25.4415 86.3673 25.4727 86.3165C25.5039 86.2657 25.5489 86.2249 25.6025 86.1988C25.6532 86.1671 25.7119 86.1502 25.7718 86.1502C25.8317 86.1502 25.8904 86.1671 25.9412 86.1988L96.0845 136.798L166.221 86.1988C166.272 86.1671 166.331 86.1502 166.391 86.1502C166.451 86.1502 166.509 86.1671 166.56 86.1988C166.614 86.2246 166.66 86.2652 166.693 86.3159C166.725 86.3666 166.742 86.4254 166.743 86.4855V169.73C166.741 169.816 166.706 169.898 166.645 169.958C166.585 170.019 166.503 170.054 166.417 170.056ZM26.0585 169.404H166.124V87.1239L96.2735 137.489C96.2177 137.53 96.1504 137.551 96.0813 137.551C96.0122 137.551 95.9449 137.53 95.8891 137.489L26.0585 87.1239V169.404Z" fill="white"/>
<path d="M25.7523 170.056C25.6937 170.056 25.6362 170.04 25.5857 170.01C25.5353 169.98 25.4938 169.938 25.4657 169.886C25.4252 169.811 25.4155 169.722 25.4385 169.64C25.4616 169.557 25.5157 169.487 25.5895 169.443L89.9413 132.629C90.0164 132.587 90.1053 132.576 90.1883 132.599C90.2714 132.622 90.3418 132.678 90.3843 132.753C90.4063 132.789 90.4208 132.83 90.4268 132.872C90.4328 132.915 90.4303 132.958 90.4193 132.999C90.4084 133.04 90.3893 133.079 90.3631 133.113C90.337 133.147 90.3043 133.175 90.267 133.196L25.9087 170.01C25.8612 170.038 25.8074 170.054 25.7523 170.056Z" fill="white"/>
<path d="M166.417 170.056C166.36 170.054 166.304 170.038 166.254 170.01L101.902 133.196C101.827 133.153 101.772 133.083 101.749 133C101.726 132.917 101.736 132.828 101.778 132.753C101.822 132.679 101.892 132.625 101.975 132.602C102.058 132.579 102.146 132.588 102.221 132.629L166.573 169.443C166.648 169.486 166.703 169.556 166.727 169.639C166.75 169.722 166.739 169.811 166.697 169.886C166.67 169.937 166.63 169.98 166.58 170.009C166.531 170.039 166.474 170.055 166.417 170.056Z" fill="white"/>
<path d="M59.2832 131.547C59.2832 131.547 62.1301 138.961 62.8012 139.365C63.4722 139.769 71.4005 143.013 70.8337 144.531C70.267 146.049 66.6969 144.199 66.6969 144.199C66.6969 144.199 71.837 150.147 70.4819 151.196C69.1269 152.244 64.5666 154.375 62.736 153.508C60.9054 152.642 51.7784 141.332 49.8435 136.42" fill="black"/>
<path d="M63.8435 154.056C63.4187 154.068 62.9963 153.988 62.6057 153.821C60.6513 152.889 51.4656 141.443 49.5438 136.557C49.5284 136.517 49.5211 136.474 49.5222 136.431C49.5234 136.388 49.533 136.346 49.5505 136.306C49.5681 136.267 49.5932 136.231 49.6245 136.202C49.6557 136.172 49.6925 136.149 49.7327 136.134C49.7729 136.118 49.8158 136.111 49.8588 136.112C49.9019 136.113 49.9442 136.123 49.9836 136.14C50.0229 136.158 50.0584 136.183 50.088 136.214C50.1176 136.246 50.1408 136.282 50.1562 136.323C52.1106 141.332 61.2962 152.479 62.8793 153.261C64.4624 154.042 68.9119 152.062 70.293 150.987C70.3227 150.96 70.3466 150.926 70.3634 150.889C70.3802 150.853 70.3894 150.813 70.3907 150.772C70.5145 149.469 67.5894 145.775 66.4819 144.459C66.4323 144.402 66.4043 144.329 66.4027 144.253C66.4011 144.178 66.426 144.104 66.473 144.044C66.5201 143.985 66.5865 143.944 66.6606 143.928C66.7348 143.912 66.8121 143.923 66.8793 143.958C67.5308 144.297 69.3939 145.104 70.2278 144.785C70.3042 144.759 70.3737 144.717 70.4313 144.66C70.4888 144.604 70.5328 144.535 70.5601 144.459C70.7164 144.036 69.6871 142.974 63.8825 140.284C63.179 139.958 62.8076 139.782 62.6578 139.684C61.9542 139.235 59.6871 133.45 59.0096 131.691C58.9939 131.65 58.9863 131.608 58.9874 131.564C58.9884 131.521 58.998 131.479 59.0155 131.439C59.0331 131.4 59.0583 131.365 59.0897 131.335C59.1211 131.305 59.1581 131.282 59.1985 131.267C59.2789 131.238 59.3677 131.241 59.4458 131.276C59.5238 131.311 59.5848 131.376 59.6154 131.456C60.9705 134.981 62.6122 138.818 63.0161 139.143C63.1268 139.215 63.6024 139.437 64.1562 139.691C68.8337 141.854 71.635 143.45 71.1724 144.687C71.1125 144.85 71.0179 144.998 70.8953 145.12C70.7728 145.243 70.625 145.338 70.4624 145.398C69.5839 145.577 68.6713 145.472 67.8565 145.098C69.1138 146.668 71.192 149.489 71.0617 150.831C71.0511 150.957 71.0151 151.08 70.9557 151.192C70.8964 151.304 70.815 151.403 70.7164 151.482C69.6415 152.297 66.1757 154.056 63.8435 154.056Z" fill="white"/>
<path d="M71.4982 74.3748C54.7425 85.137 34.3646 100.974 32.6448 104.674C29.8956 110.538 50.4558 140.023 50.4558 140.023L61.5894 132.961L51.4135 110.857L71.4786 97.2086" fill="#2FE784"/>
<path d="M58.6318 106.297C58.5835 106.298 58.5357 106.287 58.4925 106.266C58.4493 106.244 58.4121 106.212 58.3842 106.173C58.3402 106.107 58.3231 106.028 58.3365 105.95C58.3498 105.872 58.3926 105.803 58.4559 105.756L80.9836 89.9839C81.0154 89.9604 81.0516 89.9436 81.09 89.9345C81.1285 89.9254 81.1684 89.9241 81.2073 89.9308C81.2462 89.9375 81.2834 89.952 81.3166 89.9734C81.3498 89.9949 81.3784 90.0228 81.4005 90.0555C81.4228 90.088 81.4384 90.1246 81.4466 90.1631C81.4547 90.2017 81.4551 90.2415 81.4479 90.2802C81.4406 90.3189 81.4258 90.3558 81.4042 90.3888C81.3827 90.4218 81.3549 90.4502 81.3223 90.4725L58.8011 106.244C58.752 106.28 58.6925 106.298 58.6318 106.297Z" fill="white"/>
<path d="M156.515 150.994L183.817 134.284L160.684 143.919L156.515 150.994Z" fill="white"/>
<path d="M156.515 151.319C156.472 151.319 156.43 151.31 156.391 151.294C156.351 151.277 156.316 151.252 156.287 151.222C156.235 151.171 156.202 151.104 156.192 151.032C156.183 150.96 156.198 150.887 156.234 150.824L160.404 143.756C160.437 143.695 160.49 143.646 160.554 143.619L183.713 133.984C183.789 133.952 183.874 133.951 183.951 133.979C184.029 134.008 184.092 134.064 184.129 134.138C184.166 134.211 184.174 134.296 184.151 134.375C184.129 134.454 184.077 134.521 184.006 134.564L156.684 151.248C156.634 151.285 156.576 151.31 156.515 151.319ZM160.905 144.153L157.459 150.016L180.059 136.186L160.905 144.153Z" fill="white"/>
<path d="M169.609 148.779C169.561 148.78 169.514 148.769 169.472 148.746L160.547 144.186C160.496 144.161 160.453 144.122 160.424 144.074C160.395 144.025 160.381 143.969 160.384 143.912C160.387 143.855 160.406 143.8 160.438 143.753C160.47 143.706 160.515 143.669 160.567 143.645L183.713 134.01C183.777 133.985 183.847 133.982 183.912 134.002C183.977 134.022 184.033 134.064 184.071 134.121C184.11 134.177 184.128 134.245 184.121 134.314C184.114 134.382 184.082 134.445 184.032 134.492L169.824 148.694C169.796 148.723 169.763 148.745 169.726 148.76C169.689 148.775 169.649 148.781 169.609 148.779ZM161.387 143.951L169.55 148.121L182.541 135.137L161.387 143.951Z" fill="white"/>
<path d="M154.397 141.6C154.347 141.6 154.297 141.586 154.254 141.56L147.563 137.743C147.51 137.71 147.468 137.662 147.444 137.604C147.419 137.547 147.413 137.483 147.427 137.422C147.441 137.361 147.473 137.305 147.52 137.264C147.566 137.222 147.625 137.196 147.687 137.189L183.765 133.99C183.84 133.984 183.914 134.007 183.973 134.052C184.032 134.098 184.072 134.164 184.085 134.238C184.097 134.312 184.081 134.388 184.04 134.45C183.999 134.513 183.936 134.558 183.863 134.577L154.469 141.593L154.397 141.6ZM148.684 137.691L154.443 140.981L179.804 134.961L148.684 137.691Z" fill="white"/>
<path d="M156.514 151.293H156.469C156.41 151.284 156.354 151.258 156.31 151.217C156.266 151.177 156.235 151.124 156.221 151.065L154.137 141.372C154.128 141.334 154.127 141.295 154.133 141.257C154.14 141.219 154.154 141.182 154.174 141.15C154.195 141.117 154.222 141.089 154.253 141.066C154.285 141.044 154.32 141.028 154.358 141.02L183.752 134.003C183.827 133.979 183.907 133.986 183.977 134.021C184.047 134.056 184.099 134.118 184.124 134.192C184.148 134.267 184.141 134.348 184.106 134.417C184.071 134.487 184.009 134.539 183.935 134.564L160.912 144.16L156.795 151.143C156.767 151.193 156.726 151.233 156.677 151.26C156.627 151.286 156.571 151.298 156.514 151.293ZM154.775 141.521L156.645 150.179L160.423 143.762C160.458 143.708 160.508 143.665 160.567 143.639L180.28 135.43L154.775 141.521Z" fill="white"/>
<path d="M150.488 152.342C150.419 152.341 150.351 152.317 150.296 152.274C150.241 152.231 150.201 152.172 150.182 152.105C150.163 152.038 150.166 151.967 150.191 151.901C150.216 151.836 150.26 151.781 150.319 151.743L151.407 151.046C151.48 150.998 151.568 150.981 151.653 150.999C151.738 151.017 151.812 151.068 151.86 151.14C151.907 151.213 151.924 151.301 151.906 151.386C151.889 151.471 151.838 151.545 151.765 151.593L150.664 152.297C150.611 152.327 150.55 152.343 150.488 152.342Z" fill="white" fill-opacity="0.6"/>
<path d="M51.8696 182.192C51.7837 182.191 51.7018 182.156 51.6411 182.095C51.5804 182.034 51.5455 181.952 51.5439 181.867C51.5438 181.781 51.5773 181.699 51.637 181.639C51.6966 181.578 51.7778 181.543 51.8631 181.541L53.4136 181.508L54.4624 181.476C54.5479 181.475 54.6304 181.508 54.6932 181.566C54.756 181.624 54.7946 181.703 54.8012 181.788C54.8029 181.832 54.796 181.875 54.7808 181.916C54.7657 181.956 54.7425 181.993 54.7128 182.025C54.6831 182.056 54.6473 182.082 54.6077 182.099C54.5681 182.117 54.5253 182.126 54.482 182.127L53.4331 182.16L51.8761 182.192H51.8696ZM49.2637 182.192C48.3777 182.192 47.5048 182.153 46.6579 182.121C46.5721 182.116 46.4915 182.078 46.4332 182.014C46.3749 181.951 46.3433 181.868 46.3452 181.782C46.3468 181.739 46.3569 181.697 46.3749 181.658C46.3928 181.619 46.4183 181.584 46.4497 181.555C46.4812 181.526 46.5181 181.504 46.5583 181.489C46.5984 181.474 46.6412 181.467 46.6839 181.469C47.5308 181.502 48.3973 181.528 49.2898 181.541C49.3762 181.541 49.459 181.575 49.5201 181.636C49.5812 181.697 49.6155 181.78 49.6155 181.867C49.6147 181.911 49.6051 181.954 49.5872 181.995C49.5693 182.035 49.5435 182.072 49.5113 182.102C49.4792 182.132 49.4413 182.156 49.3999 182.171C49.3585 182.187 49.3144 182.194 49.2702 182.192H49.2637ZM57.0813 182.016C56.9989 182.017 56.9196 181.985 56.8601 181.928C56.8006 181.871 56.7655 181.793 56.7621 181.71C56.7595 181.667 56.7653 181.625 56.7793 181.584C56.7932 181.544 56.8151 181.506 56.8435 181.474C56.872 181.442 56.9065 181.416 56.945 181.397C56.9836 181.378 57.0255 181.367 57.0683 181.365C57.9347 181.326 58.8012 181.274 59.6742 181.215C59.7171 181.212 59.7604 181.217 59.8013 181.23C59.8422 181.244 59.88 181.266 59.9122 181.294C59.9445 181.323 59.9706 181.358 59.9891 181.397C60.0075 181.436 60.0178 181.478 60.0194 181.521C60.023 181.564 60.018 181.607 60.0048 181.647C59.9915 181.688 59.9703 181.725 59.9424 181.757C59.9145 181.789 59.8804 181.816 59.8421 181.834C59.8039 181.853 59.7623 181.864 59.7198 181.867C58.8533 181.925 57.9869 181.977 57.1139 182.016H57.0813ZM44.0846 181.971C43.1986 181.906 42.3321 181.828 41.4787 181.736C41.3933 181.726 41.3153 181.683 41.2616 181.616C41.2079 181.549 41.1829 181.463 41.1921 181.378C41.1952 181.335 41.2071 181.293 41.2272 181.255C41.2473 181.217 41.275 181.183 41.3086 181.156C41.3423 181.13 41.3811 181.11 41.4227 181.099C41.4643 181.087 41.5078 181.085 41.5504 181.091C42.3908 181.176 43.2507 181.254 44.1562 181.319C44.2426 181.319 44.3255 181.354 44.3866 181.415C44.4477 181.476 44.482 181.559 44.482 181.645C44.482 181.732 44.4477 181.814 44.3866 181.875C44.3255 181.937 44.2426 181.971 44.1562 181.971H44.0846ZM62.28 181.678C62.1936 181.678 62.1108 181.643 62.0497 181.582C61.9886 181.521 61.9543 181.438 61.9543 181.352C61.9543 181.266 61.9886 181.183 62.0497 181.122C62.1108 181.061 62.1936 181.026 62.28 181.026C63.1465 180.955 64.0064 180.876 64.8859 180.792C64.9717 180.786 65.0564 180.813 65.1229 180.868C65.1895 180.922 65.2328 181 65.2442 181.085C65.2487 181.128 65.2447 181.171 65.2323 181.212C65.22 181.253 65.1996 181.292 65.1723 181.325C65.1451 181.358 65.1115 181.386 65.0735 181.406C65.0355 181.427 64.9939 181.439 64.951 181.443C64.0824 181.526 63.2138 181.604 62.3452 181.678H62.28ZM38.9054 181.411H38.8598C37.9869 181.28 37.1204 181.137 36.254 180.981C36.2112 180.972 36.1704 180.956 36.134 180.932C36.0976 180.908 36.0663 180.877 36.0418 180.841C36.0173 180.805 36.0001 180.765 35.9912 180.722C35.9824 180.68 35.982 180.636 35.9901 180.593C35.9983 180.55 36.0147 180.509 36.0386 180.473C36.0625 180.437 36.0933 180.405 36.1293 180.381C36.1653 180.356 36.2057 180.339 36.2484 180.33C36.291 180.321 36.335 180.321 36.3777 180.329C37.2051 180.486 38.065 180.629 38.9315 180.753C38.9739 180.759 39.0146 180.774 39.0513 180.796C39.088 180.818 39.1199 180.847 39.1453 180.882C39.1708 180.916 39.1891 180.955 39.1994 180.997C39.2096 181.038 39.2116 181.082 39.2051 181.124C39.1946 181.201 39.1576 181.271 39.1005 181.324C39.0434 181.376 38.9698 181.407 38.8924 181.411H38.9054ZM67.4657 181.176C67.4229 181.179 67.3801 181.173 67.3396 181.159C67.299 181.145 67.2617 181.123 67.2296 181.094C67.1976 181.066 67.1714 181.032 67.1527 180.993C67.1339 180.954 67.123 180.913 67.1204 180.87C67.1178 180.827 67.1237 180.784 67.1377 180.744C67.1517 180.703 67.1736 180.666 67.202 180.634C67.2304 180.602 67.2649 180.576 67.3034 180.557C67.342 180.538 67.3838 180.527 67.4266 180.525C68.2952 180.429 69.1638 180.325 70.0325 180.212C70.1189 180.201 70.2062 180.224 70.2752 180.277C70.3442 180.33 70.3893 180.409 70.4005 180.495C70.4118 180.582 70.3882 180.669 70.3351 180.738C70.2819 180.807 70.2035 180.852 70.1172 180.863L67.5113 181.17L67.4657 181.176ZM72.6318 180.525C72.5531 180.524 72.4772 180.496 72.4176 180.444C72.3579 180.393 72.3184 180.322 72.3061 180.244C72.2997 180.202 72.3018 180.158 72.3125 180.116C72.3232 180.074 72.3421 180.035 72.3682 180C72.3943 179.965 72.427 179.936 72.4644 179.915C72.5019 179.893 72.5433 179.879 72.5862 179.873L75.153 179.489C75.195 179.481 75.238 179.482 75.2796 179.492C75.3212 179.501 75.3604 179.519 75.395 179.544C75.4296 179.569 75.4589 179.6 75.4811 179.637C75.5033 179.673 75.518 179.714 75.5243 179.756C75.5318 179.798 75.5308 179.842 75.5214 179.884C75.512 179.926 75.4944 179.965 75.4695 180C75.4447 180.036 75.4131 180.065 75.3767 180.088C75.3403 180.111 75.2997 180.127 75.2572 180.134L72.6514 180.518L72.6318 180.525ZM33.7979 180.459H33.7198C32.8533 180.257 31.9999 180.036 31.1856 179.808C31.1036 179.782 31.0347 179.726 30.9934 179.651C30.9522 179.575 30.9416 179.487 30.9641 179.404C30.976 179.363 30.996 179.325 31.0228 179.291C31.0496 179.258 31.0826 179.23 31.1201 179.21C31.1576 179.189 31.1988 179.176 31.2414 179.171C31.2839 179.167 31.3269 179.171 31.368 179.183C32.1758 179.411 33.0162 179.632 33.8696 179.834C33.9115 179.843 33.9511 179.861 33.986 179.885C34.021 179.91 34.0506 179.942 34.0731 179.978C34.0956 180.015 34.1105 180.055 34.1169 180.098C34.1234 180.14 34.1213 180.183 34.1106 180.225C34.0891 180.294 34.0455 180.353 33.9866 180.394C33.9277 180.436 33.8568 180.456 33.7849 180.453L33.7979 180.459ZM77.7719 179.71C77.6955 179.711 77.6213 179.685 77.5628 179.636C77.5042 179.587 77.4651 179.519 77.4527 179.443C77.4393 179.358 77.4598 179.271 77.5096 179.2C77.5595 179.13 77.6349 179.081 77.7198 179.065L80.28 178.609C80.322 178.601 80.3653 178.601 80.4072 178.61C80.4492 178.618 80.489 178.635 80.5242 178.659C80.5595 178.684 80.5895 178.715 80.6124 178.751C80.6354 178.787 80.6508 178.828 80.6579 178.87C80.6731 178.954 80.6543 179.042 80.6054 179.112C80.5566 179.183 80.4818 179.232 80.3973 179.248L77.8305 179.71H77.7719ZM28.7882 179C28.7537 179.006 28.7184 179.006 28.6839 179C27.8501 178.707 27.0227 178.388 26.2344 178.056C26.195 178.039 26.1593 178.014 26.1294 177.983C26.0995 177.952 26.076 177.916 26.0603 177.876C26.0445 177.836 26.0369 177.793 26.0377 177.75C26.0385 177.707 26.0478 177.665 26.065 177.626C26.0994 177.548 26.163 177.486 26.2422 177.454C26.3214 177.423 26.4098 177.423 26.4885 177.456C27.2637 177.782 28.0781 178.108 28.8989 178.388C28.9853 178.402 29.0623 178.451 29.113 178.522C29.1637 178.594 29.184 178.682 29.1693 178.769C29.1546 178.855 29.1062 178.932 29.0347 178.983C28.9632 179.034 28.8746 179.054 28.7882 179.039V179ZM82.8598 178.753C82.7851 178.751 82.7129 178.725 82.6549 178.678C82.597 178.63 82.5567 178.565 82.5406 178.492C82.532 178.45 82.5318 178.407 82.54 178.365C82.5481 178.323 82.5644 178.283 82.588 178.247C82.6116 178.212 82.642 178.181 82.6775 178.157C82.7129 178.133 82.7528 178.116 82.7947 178.108L85.3419 177.573C85.3838 177.565 85.427 177.565 85.469 177.573C85.511 177.581 85.551 177.597 85.5867 177.621C85.6224 177.644 85.6531 177.675 85.6771 177.71C85.701 177.746 85.7177 177.786 85.7263 177.828C85.7358 177.869 85.737 177.912 85.7296 177.954C85.7223 177.996 85.7066 178.036 85.6835 178.072C85.6605 178.108 85.6305 178.139 85.5953 178.163C85.5601 178.187 85.5205 178.203 85.4787 178.212L82.925 178.746L82.8598 178.753ZM87.9543 177.658C87.9115 177.663 87.8682 177.659 87.8269 177.647C87.7856 177.635 87.747 177.615 87.7135 177.588C87.6799 177.561 87.652 177.528 87.6312 177.49C87.6105 177.452 87.5974 177.411 87.5927 177.368C87.588 177.325 87.5918 177.282 87.6038 177.241C87.6158 177.2 87.6359 177.161 87.6628 177.127C87.6897 177.094 87.723 177.066 87.7607 177.045C87.7984 177.024 87.8399 177.011 87.8826 177.007C88.7295 176.811 89.5699 176.616 90.4103 176.407C90.4941 176.388 90.5822 176.402 90.6555 176.447C90.7287 176.492 90.7811 176.565 90.8012 176.648C90.8119 176.69 90.8141 176.734 90.8077 176.777C90.8013 176.82 90.7865 176.861 90.764 176.898C90.7416 176.935 90.712 176.967 90.677 176.992C90.642 177.018 90.6023 177.036 90.5602 177.046C89.7198 177.248 88.8794 177.45 88.0259 177.639L87.9543 177.658ZM23.9869 176.961C23.9346 176.96 23.8834 176.946 23.837 176.922C23.0488 176.518 22.28 176.082 21.5504 175.619C21.514 175.596 21.4824 175.567 21.4574 175.532C21.4325 175.497 21.4146 175.458 21.4049 175.416C21.3953 175.374 21.3939 175.331 21.401 175.289C21.4081 175.246 21.4234 175.206 21.4461 175.17C21.4681 175.132 21.4974 175.1 21.5322 175.075C21.567 175.049 21.6066 175.031 21.6486 175.021C21.6906 175.012 21.7342 175.01 21.7766 175.018C21.8191 175.026 21.8596 175.042 21.8957 175.065C22.6058 175.502 23.3615 175.925 24.1367 176.323C24.2231 176.342 24.2981 176.396 24.3451 176.471C24.3921 176.546 24.4074 176.637 24.3875 176.723C24.3676 176.81 24.3143 176.885 24.2391 176.932C24.164 176.979 24.0733 176.994 23.9869 176.974V176.961ZM93.0422 176.427C92.9558 176.437 92.8689 176.413 92.8005 176.359C92.732 176.305 92.6878 176.227 92.6774 176.14C92.667 176.054 92.6914 175.967 92.7452 175.898C92.7989 175.83 92.8777 175.786 92.9641 175.775L95.4787 175.124C95.5215 175.113 95.566 175.11 95.6098 175.116C95.6536 175.122 95.6957 175.137 95.7338 175.159C95.772 175.182 95.8053 175.212 95.8319 175.247C95.8586 175.282 95.878 175.322 95.8891 175.365C95.9003 175.408 95.9029 175.452 95.8968 175.496C95.8907 175.54 95.876 175.582 95.8536 175.62C95.8312 175.658 95.8016 175.692 95.7663 175.718C95.731 175.745 95.6909 175.764 95.6481 175.775C94.8142 176.001 93.9738 176.218 93.1269 176.427C93.095 176.436 93.0611 176.436 93.0292 176.427H93.0422ZM98.0715 175.065C98.0008 175.066 97.9317 175.044 97.8751 175.002C97.8185 174.959 97.7776 174.899 97.7589 174.831C97.7367 174.747 97.7481 174.658 97.7907 174.582C97.8333 174.507 97.9037 174.451 97.9869 174.427L100.482 173.704C100.564 173.679 100.652 173.688 100.728 173.728C100.804 173.769 100.86 173.837 100.886 173.919C100.899 173.96 100.903 174.003 100.899 174.046C100.895 174.089 100.882 174.13 100.861 174.168C100.841 174.206 100.812 174.239 100.779 174.265C100.745 174.292 100.706 174.311 100.664 174.323C99.837 174.57 99.0031 174.818 98.1628 175.052C98.1296 175.065 98.0938 175.069 98.0585 175.065H98.0715ZM19.5895 174.225C19.5189 174.225 19.4502 174.202 19.394 174.16C18.6839 173.632 17.9999 173.072 17.3615 172.492C17.3309 172.462 17.3067 172.426 17.2902 172.386C17.2736 172.346 17.2651 172.304 17.2651 172.261C17.2651 172.218 17.2736 172.175 17.2902 172.135C17.3067 172.096 17.3309 172.06 17.3615 172.029C17.3912 171.999 17.4267 171.975 17.4658 171.959C17.505 171.942 17.547 171.934 17.5895 171.934C17.6319 171.934 17.674 171.942 17.7131 171.959C17.7523 171.975 17.7878 171.999 17.8175 172.029C18.4522 172.605 19.1154 173.149 19.8045 173.658C19.8736 173.71 19.9193 173.787 19.9315 173.873C19.9437 173.958 19.9214 174.045 19.8696 174.114C19.8349 174.153 19.7915 174.184 19.7428 174.203C19.6941 174.222 19.6416 174.23 19.5895 174.225ZM103.049 173.573C102.98 173.575 102.912 173.553 102.857 173.512C102.801 173.47 102.761 173.412 102.743 173.345C102.729 173.304 102.725 173.261 102.728 173.218C102.732 173.175 102.744 173.134 102.764 173.095C102.784 173.057 102.812 173.023 102.845 172.996C102.878 172.968 102.916 172.948 102.958 172.935C103.791 172.681 104.612 172.414 105.433 172.153C105.474 172.139 105.517 172.133 105.56 172.136C105.603 172.139 105.644 172.151 105.683 172.17C105.721 172.19 105.755 172.217 105.783 172.25C105.81 172.282 105.831 172.321 105.844 172.362C105.87 172.444 105.863 172.533 105.824 172.61C105.785 172.687 105.717 172.745 105.635 172.772C104.814 173.039 103.987 173.3 103.146 173.56C103.116 173.573 103.082 173.58 103.049 173.58V173.573ZM108.006 171.964C107.92 171.978 107.832 171.957 107.761 171.906C107.69 171.854 107.642 171.777 107.629 171.691C107.615 171.604 107.636 171.516 107.687 171.445C107.738 171.374 107.816 171.327 107.902 171.313C108.73 171.033 109.55 170.753 110.358 170.466C110.44 170.439 110.53 170.445 110.608 170.482C110.686 170.52 110.746 170.587 110.775 170.668C110.79 170.708 110.796 170.75 110.794 170.792C110.792 170.834 110.781 170.876 110.763 170.914C110.745 170.952 110.719 170.986 110.688 171.015C110.656 171.043 110.62 171.064 110.58 171.078C109.765 171.365 108.945 171.652 108.111 171.932L108.006 171.964ZM15.7523 170.727C15.7057 170.726 15.6596 170.716 15.617 170.697C15.5744 170.678 15.5362 170.65 15.5048 170.616C14.9194 169.961 14.3713 169.274 13.8631 168.557C13.8337 168.523 13.8118 168.483 13.7987 168.44C13.7857 168.396 13.7817 168.351 13.7871 168.306C13.7926 168.261 13.8073 168.218 13.8303 168.179C13.8533 168.14 13.8842 168.107 13.9209 168.08C13.9576 168.054 13.9994 168.036 14.0435 168.027C14.0877 168.017 14.1334 168.017 14.1776 168.027C14.2217 168.036 14.2635 168.054 14.3002 168.081C14.3369 168.107 14.3678 168.14 14.3908 168.179C14.886 168.876 15.4211 169.544 15.9934 170.179C16.0535 170.241 16.0871 170.324 16.0871 170.411C16.0871 170.497 16.0535 170.58 15.9934 170.642C15.9615 170.673 15.9237 170.697 15.8823 170.712C15.8408 170.728 15.7966 170.735 15.7523 170.733V170.727ZM112.918 170.244C112.852 170.243 112.787 170.221 112.733 170.183C112.679 170.145 112.637 170.091 112.612 170.029C112.583 169.948 112.587 169.859 112.624 169.781C112.66 169.702 112.727 169.642 112.808 169.613C113.635 169.313 114.443 169.007 115.251 168.707C115.328 168.687 115.41 168.697 115.481 168.734C115.552 168.771 115.607 168.833 115.635 168.908C115.664 168.983 115.663 169.066 115.634 169.14C115.605 169.215 115.55 169.276 115.479 169.313C114.671 169.619 113.857 169.919 113.029 170.218C112.996 170.239 112.958 170.25 112.918 170.251V170.244ZM117.791 168.401C117.749 168.409 117.705 168.408 117.662 168.398C117.62 168.389 117.58 168.372 117.544 168.347C117.508 168.322 117.478 168.29 117.454 168.254C117.431 168.217 117.415 168.176 117.407 168.134C117.399 168.091 117.4 168.047 117.409 168.005C117.419 167.962 117.436 167.922 117.461 167.886C117.486 167.851 117.517 167.82 117.554 167.797C117.591 167.773 117.631 167.757 117.674 167.749L120.091 166.792C120.171 166.759 120.26 166.76 120.339 166.793C120.418 166.825 120.481 166.888 120.515 166.968C120.547 167.048 120.547 167.138 120.514 167.218C120.481 167.299 120.418 167.363 120.339 167.398L117.915 168.388C117.875 168.401 117.833 168.407 117.791 168.407V168.401ZM12.7426 166.499C12.6838 166.499 12.626 166.484 12.5754 166.454C12.5248 166.424 12.4835 166.381 12.4559 166.329C12.0303 165.559 11.6496 164.765 11.3159 163.951C11.283 163.871 11.2835 163.781 11.3171 163.701C11.3507 163.621 11.4147 163.557 11.495 163.525C11.5753 163.492 11.6654 163.492 11.7455 163.526C11.8255 163.559 11.8889 163.623 11.9217 163.704C12.2419 164.497 12.6118 165.27 13.0292 166.016C13.0692 166.093 13.0779 166.182 13.0536 166.264C13.0293 166.347 12.9738 166.417 12.8989 166.459C12.8506 166.485 12.797 166.498 12.7426 166.499ZM122.625 166.453C122.561 166.454 122.497 166.436 122.443 166.4C122.39 166.363 122.349 166.312 122.326 166.251C122.293 166.172 122.292 166.084 122.324 166.005C122.356 165.925 122.417 165.862 122.495 165.828C123.309 165.489 124.111 165.176 124.892 164.811C124.972 164.777 125.062 164.775 125.142 164.807C125.223 164.839 125.288 164.901 125.322 164.981C125.357 165.06 125.358 165.15 125.327 165.231C125.295 165.311 125.232 165.376 125.153 165.411L122.749 166.427C122.71 166.445 122.668 166.454 122.625 166.453ZM127.407 164.388C127.345 164.387 127.283 164.369 127.231 164.336C127.178 164.302 127.135 164.255 127.107 164.199C127.089 164.16 127.079 164.117 127.078 164.074C127.077 164.031 127.084 163.988 127.1 163.948C127.116 163.907 127.14 163.871 127.17 163.84C127.2 163.809 127.237 163.785 127.277 163.769C128.085 163.404 128.873 163.052 129.642 162.694C129.72 162.658 129.81 162.654 129.891 162.684C129.972 162.714 130.039 162.775 130.075 162.854C130.111 162.932 130.115 163.022 130.085 163.103C130.055 163.184 129.994 163.251 129.915 163.287C129.14 163.645 128.352 164.003 127.537 164.362C127.496 164.38 127.452 164.389 127.407 164.388ZM132.143 162.212C132.082 162.214 132.021 162.197 131.969 162.165C131.917 162.132 131.876 162.085 131.85 162.029C131.831 161.991 131.82 161.949 131.817 161.906C131.815 161.864 131.82 161.821 131.834 161.78C131.848 161.74 131.87 161.702 131.898 161.67C131.927 161.638 131.961 161.612 132 161.593C132.808 161.215 133.589 160.837 134.345 160.466C134.423 160.428 134.513 160.422 134.594 160.45C134.676 160.479 134.744 160.538 134.782 160.616C134.82 160.694 134.825 160.783 134.797 160.865C134.769 160.947 134.71 161.014 134.632 161.052L132.28 162.186C132.237 162.204 132.19 162.213 132.143 162.212ZM10.7751 161.671C10.7038 161.671 10.6346 161.647 10.5781 161.603C10.5216 161.56 10.481 161.499 10.4624 161.43C10.2239 160.584 10.0325 159.725 9.88915 158.857C9.87532 158.77 9.89638 158.682 9.9477 158.611C9.99901 158.54 10.0764 158.493 10.1628 158.479C10.2491 158.465 10.3375 158.486 10.4084 158.538C10.4792 158.589 10.5268 158.666 10.5406 158.753C10.6708 159.605 10.8491 160.448 11.0748 161.28C11.0868 161.321 11.0906 161.364 11.0859 161.407C11.0813 161.449 11.0683 161.491 11.0477 161.528C11.0271 161.566 10.9994 161.599 10.966 161.625C10.9327 161.652 10.8944 161.672 10.8533 161.684L10.7751 161.671ZM136.808 159.932C136.746 159.933 136.686 159.916 136.634 159.884C136.582 159.851 136.541 159.805 136.515 159.749C136.476 159.672 136.469 159.583 136.496 159.502C136.523 159.42 136.581 159.352 136.658 159.313C137.459 158.909 138.234 158.518 138.977 158.127C139.054 158.087 139.144 158.08 139.226 158.106C139.308 158.132 139.377 158.19 139.417 158.267C139.457 158.344 139.464 158.434 139.438 158.516C139.412 158.599 139.354 158.667 139.277 158.707C138.534 159.091 137.759 159.489 136.951 159.893C136.907 159.918 136.858 159.931 136.808 159.932ZM141.433 157.528C141.374 157.529 141.317 157.513 141.266 157.483C141.215 157.454 141.174 157.41 141.146 157.358C141.107 157.282 141.098 157.193 141.122 157.111C141.146 157.028 141.202 156.958 141.277 156.915C142.085 156.486 142.847 156.069 143.563 155.678C143.601 155.651 143.643 155.633 143.688 155.624C143.733 155.615 143.78 155.616 143.825 155.626C143.869 155.636 143.911 155.656 143.948 155.683C143.985 155.711 144.015 155.746 144.037 155.786C144.059 155.826 144.073 155.871 144.076 155.916C144.08 155.962 144.074 156.008 144.059 156.051C144.044 156.095 144.02 156.134 143.988 156.167C143.957 156.201 143.919 156.227 143.876 156.244C143.16 156.642 142.397 157.059 141.583 157.495C141.543 157.516 141.498 157.527 141.453 157.528H141.433ZM9.90217 156.57C9.81906 156.57 9.73904 156.539 9.67849 156.482C9.61794 156.425 9.58143 156.347 9.57644 156.264C9.57644 155.756 9.53735 155.235 9.53735 154.72C9.53735 154.355 9.53735 153.99 9.53735 153.632C9.53815 153.589 9.54766 153.547 9.5653 153.507C9.58294 153.468 9.60835 153.433 9.64 153.403C9.67165 153.374 9.70888 153.352 9.74946 153.337C9.79004 153.323 9.83313 153.317 9.87612 153.319C9.91891 153.321 9.96094 153.331 9.99982 153.349C10.0387 153.367 10.0737 153.392 10.1027 153.424C10.1318 153.455 10.1543 153.492 10.1691 153.532C10.1839 153.573 10.1906 153.615 10.1888 153.658C10.1888 154.01 10.1888 154.368 10.1888 154.72C10.1888 155.222 10.1888 155.73 10.2279 156.225C10.2306 156.268 10.2247 156.311 10.2108 156.351C10.1968 156.392 10.1749 156.429 10.1465 156.461C10.1181 156.493 10.0836 156.519 10.045 156.538C10.0064 156.557 9.96452 156.568 9.92172 156.57H9.90217ZM145.993 155.007C145.922 155.006 145.853 154.982 145.797 154.938C145.741 154.895 145.701 154.834 145.682 154.766C145.664 154.697 145.668 154.624 145.695 154.558C145.722 154.492 145.769 154.437 145.831 154.401C146.671 153.919 147.427 153.482 148.078 153.098C148.115 153.075 148.156 153.06 148.198 153.054C148.241 153.047 148.284 153.049 148.326 153.059C148.368 153.07 148.407 153.088 148.442 153.114C148.476 153.139 148.505 153.172 148.528 153.209C148.571 153.283 148.584 153.372 148.563 153.456C148.543 153.54 148.49 153.612 148.417 153.658C147.765 154.049 147.003 154.492 146.156 154.961C146.112 154.986 146.063 155.002 146.013 155.007H145.993ZM10.1302 151.378H10.0846C9.99858 151.365 9.92107 151.319 9.8687 151.25C9.81632 151.18 9.79326 151.093 9.80446 151.007C9.92172 150.153 10.0716 149.28 10.267 148.401C10.2872 148.317 10.3393 148.244 10.4123 148.198C10.4852 148.152 10.5733 148.136 10.6579 148.153C10.6999 148.162 10.7397 148.18 10.7749 148.205C10.8101 148.229 10.8401 148.261 10.8631 148.297C10.8861 148.333 10.9017 148.374 10.909 148.416C10.9162 148.459 10.915 148.502 10.9054 148.544C10.7165 149.385 10.5602 150.238 10.4494 151.078C10.4429 151.159 10.4067 151.234 10.3477 151.29C10.2886 151.345 10.2111 151.377 10.1302 151.378ZM11.2637 146.303C11.2315 146.309 11.1983 146.309 11.166 146.303C11.1248 146.29 11.0865 146.27 11.0534 146.242C11.0202 146.215 10.9928 146.181 10.9728 146.143C10.9528 146.105 10.9406 146.063 10.9369 146.02C10.9331 145.977 10.9379 145.934 10.951 145.893C11.2051 145.072 11.5048 144.238 11.837 143.417C11.875 143.346 11.9382 143.291 12.0144 143.263C12.0906 143.236 12.1743 143.238 12.2491 143.269C12.324 143.3 12.3846 143.357 12.4192 143.431C12.4539 143.504 12.46 143.587 12.4364 143.665C12.1172 144.466 11.824 145.28 11.5699 146.088C11.5489 146.152 11.5077 146.208 11.4525 146.246C11.3974 146.285 11.3311 146.305 11.2637 146.303ZM13.2181 141.482C13.1561 141.501 13.0898 141.498 13.0292 141.476C12.9907 141.457 12.9562 141.431 12.9278 141.399C12.8994 141.367 12.8776 141.329 12.8637 141.289C12.8497 141.248 12.844 141.205 12.8467 141.162C12.8494 141.12 12.8605 141.078 12.8794 141.039C13.2637 140.264 13.6872 139.489 14.1367 138.733C14.1576 138.696 14.1858 138.663 14.2196 138.637C14.2534 138.611 14.2921 138.592 14.3334 138.581C14.3747 138.57 14.4178 138.567 14.4601 138.573C14.5024 138.579 14.5431 138.594 14.5797 138.616C14.6541 138.661 14.708 138.733 14.7299 138.817C14.7519 138.901 14.74 138.99 14.697 139.065C14.254 139.801 13.8435 140.564 13.4657 141.332C13.4357 141.376 13.3959 141.411 13.3494 141.436C13.303 141.461 13.2513 141.475 13.1986 141.476L13.2181 141.482ZM15.8696 137C15.7835 137.003 15.6996 136.972 15.6351 136.915C15.6001 136.891 15.5702 136.861 15.5473 136.825C15.5243 136.789 15.5088 136.749 15.5015 136.707C15.4942 136.665 15.4953 136.622 15.5049 136.581C15.5144 136.54 15.5321 136.5 15.5569 136.466C16.052 135.749 16.5862 135.039 17.1334 134.362C17.1881 134.296 17.2667 134.254 17.3521 134.245C17.4375 134.237 17.5228 134.262 17.5895 134.316C17.6566 134.37 17.6997 134.448 17.7095 134.533C17.7193 134.619 17.6948 134.705 17.6416 134.772C17.1009 135.424 16.5797 136.134 16.0911 136.837C16.0659 136.881 16.0311 136.918 15.9894 136.947C15.9476 136.975 15.9 136.993 15.8501 137H15.8696ZM19.1269 132.961C19.0626 132.963 18.999 132.946 18.9446 132.912C18.8902 132.877 18.8476 132.827 18.8222 132.768C18.7968 132.709 18.79 132.643 18.8025 132.58C18.815 132.517 18.8464 132.459 18.8924 132.414C19.4918 131.762 20.1237 131.163 20.7751 130.577C20.8049 130.546 20.8403 130.522 20.8795 130.506C20.9186 130.489 20.9607 130.481 21.0031 130.481C21.0456 130.481 21.0877 130.489 21.1268 130.506C21.166 130.522 21.2014 130.546 21.2312 130.577C21.2617 130.607 21.2859 130.643 21.3025 130.683C21.319 130.722 21.3275 130.765 21.3275 130.808C21.3275 130.851 21.319 130.894 21.3025 130.933C21.2859 130.973 21.2617 131.009 21.2312 131.039C20.5797 131.613 19.9738 132.218 19.3875 132.844C19.3555 132.882 19.3156 132.912 19.2705 132.932C19.2254 132.952 19.1764 132.962 19.1269 132.961Z" fill="white" fill-opacity="0.6"/>
<path d="M23.0226 129.45C22.9736 129.45 22.9252 129.439 22.8811 129.417C22.837 129.396 22.7985 129.365 22.7685 129.326C22.7156 129.256 22.6921 129.169 22.7031 129.083C22.714 128.996 22.7586 128.917 22.8272 128.863C23.1789 128.603 23.5307 128.342 23.889 128.088C23.924 128.061 23.9641 128.041 24.0068 128.03C24.0496 128.019 24.0942 128.017 24.1379 128.024C24.1816 128.03 24.2235 128.046 24.261 128.069C24.2985 128.093 24.3308 128.123 24.3561 128.16C24.3813 128.196 24.3989 128.237 24.4077 128.28C24.4166 128.324 24.4165 128.368 24.4076 128.411C24.3986 128.455 24.381 128.496 24.3557 128.532C24.3304 128.568 24.2979 128.599 24.2604 128.622C23.9086 128.87 23.5633 129.124 23.2245 129.384C23.1664 129.428 23.0953 129.451 23.0226 129.45Z" fill="white" fill-opacity="0.6"/>
<path d="M169.12 90.5246C169.079 90.5258 169.038 90.5184 169 90.5027C168.962 90.4869 168.927 90.4633 168.899 90.4334C168.868 90.4037 168.844 90.3682 168.828 90.329C168.811 90.2899 168.803 90.2479 168.803 90.2054C168.803 90.1629 168.811 90.1209 168.828 90.0817C168.844 90.0426 168.868 90.0071 168.899 89.9774C168.899 89.9774 169.218 89.6386 169.772 89.0262C169.798 88.9879 169.832 88.9557 169.871 88.9315C169.911 88.9074 169.955 88.892 170.001 88.8864C170.047 88.8808 170.094 88.885 170.138 88.8988C170.182 88.9127 170.223 88.9358 170.258 88.9666C170.292 88.9975 170.32 89.0353 170.339 89.0777C170.357 89.1201 170.367 89.1659 170.367 89.2123C170.366 89.2586 170.356 89.3043 170.337 89.3464C170.317 89.3885 170.289 89.4259 170.254 89.4562C169.694 90.1077 169.368 90.4269 169.368 90.4269C169.336 90.46 169.297 90.4859 169.255 90.5028C169.212 90.5196 169.166 90.5271 169.12 90.5246Z" fill="white" fill-opacity="0.6"/>
<path d="M171.726 87.5865C171.648 87.5861 171.572 87.5585 171.511 87.5083C171.481 87.4786 171.457 87.4431 171.44 87.4039C171.424 87.3648 171.415 87.3228 171.415 87.2803C171.415 87.2378 171.424 87.1958 171.44 87.1566C171.457 87.1175 171.481 87.082 171.511 87.0523C172.013 86.4529 172.573 85.7493 173.172 85.0262C173.226 84.9591 173.304 84.916 173.39 84.9062C173.475 84.8964 173.561 84.9208 173.629 84.9741C173.662 85.0002 173.691 85.0328 173.712 85.0701C173.733 85.1074 173.746 85.1485 173.751 85.1911C173.756 85.2336 173.752 85.2767 173.74 85.3178C173.728 85.3588 173.708 85.3971 173.681 85.4301C173.081 86.1858 172.515 86.8699 172.006 87.4692C171.973 87.5105 171.93 87.5428 171.881 87.5633C171.832 87.5838 171.779 87.5917 171.726 87.5865ZM174.984 83.4822C174.914 83.4794 174.846 83.4568 174.788 83.4171C174.72 83.3631 174.675 83.2844 174.664 83.1978C174.653 83.1113 174.677 83.0239 174.729 82.9546C175.231 82.3031 175.752 81.5865 176.28 80.8503C176.33 80.7795 176.406 80.7314 176.492 80.7168C176.577 80.7021 176.665 80.722 176.736 80.7721C176.807 80.8222 176.855 80.8984 176.87 80.984C176.884 81.0695 176.864 81.1573 176.814 81.2282C176.28 81.9708 175.759 82.6809 175.244 83.3519C175.218 83.3918 175.184 83.4253 175.143 83.4501C175.103 83.4749 175.057 83.4904 175.01 83.4953L174.984 83.4822ZM178.045 79.2021C177.986 79.204 177.926 79.189 177.875 79.1588C177.823 79.1287 177.781 79.0846 177.753 79.0316C177.725 78.9786 177.713 78.9188 177.717 78.8591C177.722 78.7994 177.743 78.7422 177.778 78.694C178.254 77.9839 178.736 77.2542 179.205 76.4985C179.252 76.4263 179.325 76.3751 179.409 76.3556C179.493 76.3362 179.581 76.3501 179.655 76.3943C179.727 76.441 179.778 76.5146 179.796 76.5988C179.815 76.6831 179.799 76.7712 179.752 76.8438C179.303 77.5669 178.821 78.3096 178.319 79.0588C178.291 79.0999 178.255 79.1342 178.212 79.1591C178.169 79.1839 178.121 79.1986 178.072 79.2021H178.045ZM180.834 74.7461C180.776 74.7472 180.719 74.7313 180.671 74.7005C180.634 74.6796 180.601 74.6514 180.575 74.6176C180.549 74.5838 180.529 74.5451 180.519 74.5038C180.508 74.4625 180.505 74.4194 180.511 74.3771C180.517 74.3348 180.532 74.2941 180.554 74.2575C180.997 73.4888 181.42 72.7135 181.804 71.9643C181.844 71.8874 181.913 71.8295 181.995 71.8032C182.078 71.777 182.167 71.7845 182.244 71.8243C182.321 71.864 182.379 71.9327 182.405 72.0151C182.432 72.0976 182.424 72.1871 182.384 72.264C181.993 73.0262 181.563 73.8015 181.114 74.5832C181.088 74.6288 181.051 74.6675 181.007 74.6958C180.963 74.7242 180.912 74.7414 180.86 74.7461H180.834ZM183.251 70.0751C183.206 70.0844 183.159 70.0844 183.114 70.0751C183.075 70.0576 183.04 70.0324 183.011 70.0012C182.982 69.9699 182.959 69.9332 182.945 69.8931C182.93 69.853 182.924 69.8104 182.926 69.7678C182.928 69.7252 182.939 69.6835 182.958 69.6451C183.329 68.8308 183.674 68.023 183.974 67.2412C183.989 67.2008 184.012 67.1638 184.042 67.1324C184.071 67.101 184.107 67.0758 184.146 67.0582C184.185 67.0406 184.228 67.0311 184.271 67.03C184.314 67.029 184.357 67.0366 184.397 67.0523C184.478 67.0843 184.543 67.1465 184.578 67.2256C184.613 67.3047 184.616 67.3944 184.586 67.4757C184.273 68.2705 183.935 69.0914 183.55 69.9122C183.522 69.9597 183.482 69.9994 183.434 70.0278C183.386 70.0562 183.332 70.0724 183.277 70.0751H183.251ZM185.146 65.176H185.049C184.966 65.1491 184.898 65.0911 184.858 65.0145C184.818 64.9378 184.809 64.8486 184.834 64.7656C185.094 63.9122 185.316 63.0653 185.485 62.251C185.504 62.1675 185.555 62.0947 185.627 62.0484C185.699 62.0021 185.786 61.9859 185.87 62.0034C185.953 62.0222 186.027 62.0727 186.074 62.1444C186.121 62.2161 186.139 62.3033 186.124 62.3878C185.941 63.2216 185.72 64.0881 185.472 64.9936C185.444 65.049 185.401 65.0954 185.348 65.1276C185.295 65.1599 185.234 65.1766 185.172 65.176H185.146ZM186.241 60.0425H186.208C186.123 60.0342 186.044 59.9927 185.989 59.9268C185.935 59.861 185.908 59.7761 185.915 59.6907C185.915 59.4171 185.967 59.15 185.98 58.8764C185.98 58.2705 186.039 57.6712 186.058 57.0914C186.058 57.0483 186.067 57.0057 186.084 56.9661C186.101 56.9265 186.126 56.8907 186.157 56.8609C186.188 56.8311 186.224 56.8078 186.265 56.7926C186.305 56.7773 186.348 56.7704 186.391 56.7721C186.477 56.7755 186.558 56.812 186.617 56.8739C186.677 56.9359 186.71 57.0185 186.71 57.1044C186.71 57.6972 186.664 58.2966 186.632 58.9155C186.632 59.1956 186.593 59.4692 186.567 59.7493C186.557 59.8294 186.519 59.9033 186.459 59.9572C186.399 60.0112 186.322 60.0415 186.241 60.0425ZM186.391 54.7917C186.305 54.7917 186.224 54.7583 186.163 54.6986C186.102 54.6389 186.067 54.5577 186.065 54.4725C186.065 53.5865 186 52.7135 185.935 51.8666C185.931 51.8241 185.936 51.7814 185.949 51.7409C185.963 51.7004 185.984 51.6629 186.012 51.6308C186.04 51.5986 186.074 51.5723 186.112 51.5535C186.15 51.5347 186.192 51.5238 186.234 51.5213C186.277 51.5178 186.32 51.5227 186.361 51.5359C186.402 51.549 186.44 51.5701 186.473 51.598C186.505 51.6258 186.532 51.6599 186.552 51.6981C186.571 51.7364 186.583 51.7782 186.586 51.821C186.651 52.6744 186.697 53.5604 186.716 54.4594C186.717 54.5453 186.683 54.6279 186.624 54.6899C186.564 54.7518 186.483 54.7883 186.397 54.7917H186.391ZM185.967 49.58C185.889 49.5794 185.813 49.5509 185.753 49.4996C185.693 49.4483 185.654 49.3775 185.642 49.2998C185.518 48.4269 185.355 47.5669 185.166 46.7461C185.147 46.6597 185.163 46.5693 185.211 46.4948C185.258 46.4202 185.334 46.3677 185.42 46.3487C185.506 46.3297 185.597 46.3458 185.671 46.3934C185.746 46.4411 185.798 46.5164 185.817 46.6028C186.006 47.4366 186.169 48.3161 186.3 49.2086C186.311 49.2939 186.289 49.3803 186.238 49.4495C186.187 49.5188 186.111 49.5655 186.026 49.58H185.967ZM184.788 44.4725C184.719 44.4733 184.652 44.4524 184.596 44.4126C184.54 44.3728 184.497 44.3162 184.475 44.251C184.209 43.431 183.898 42.6263 183.544 41.8405C183.526 41.8016 183.516 41.7595 183.514 41.7167C183.512 41.6739 183.519 41.6311 183.534 41.5909C183.549 41.5506 183.571 41.5137 183.6 41.4822C183.63 41.4507 183.664 41.4253 183.703 41.4073C183.742 41.3894 183.784 41.3792 183.827 41.3775C183.87 41.3758 183.913 41.3826 183.953 41.3974C183.993 41.4122 184.03 41.4348 184.062 41.4639C184.093 41.493 184.119 41.528 184.137 41.5669C184.502 42.3759 184.821 43.2045 185.094 44.049C185.121 44.1302 185.115 44.2188 185.077 44.2956C185.04 44.3724 184.973 44.4313 184.892 44.4594C184.857 44.4632 184.822 44.461 184.788 44.4529V44.4725ZM182.612 39.7102C182.557 39.7107 182.502 39.6972 182.453 39.671C182.404 39.6448 182.363 39.6068 182.332 39.5604C181.883 38.8266 181.382 38.1256 180.834 37.4627C180.78 37.396 180.754 37.3107 180.763 37.2253C180.771 37.1399 180.813 37.0613 180.879 37.0067C180.912 36.9787 180.949 36.9575 180.99 36.9444C181.03 36.9312 181.073 36.9263 181.116 36.9299C181.158 36.9335 181.199 36.9457 181.237 36.9656C181.275 36.9855 181.308 37.0127 181.335 37.0458C181.901 37.7258 182.419 38.4442 182.886 39.1956C182.909 39.2317 182.926 39.2722 182.933 39.3146C182.941 39.3571 182.94 39.4006 182.93 39.4426C182.92 39.4846 182.902 39.5242 182.876 39.559C182.851 39.5938 182.819 39.6231 182.782 39.6451C182.731 39.6762 182.672 39.692 182.612 39.6907V39.7102ZM179.264 35.6907C179.185 35.6893 179.11 35.6618 179.049 35.6125C178.407 35.0403 177.724 34.5177 177.003 34.049C176.965 34.0271 176.931 33.9976 176.905 33.9623C176.878 33.927 176.859 33.8866 176.848 33.8437C176.838 33.8007 176.836 33.7561 176.843 33.7124C176.85 33.6688 176.867 33.6271 176.891 33.5899C176.914 33.5527 176.946 33.5208 176.982 33.4961C177.019 33.4713 177.06 33.4543 177.104 33.4461C177.147 33.4378 177.192 33.4385 177.235 33.4481C177.278 33.4577 177.319 33.4759 177.355 33.5018C178.105 33.9883 178.817 34.5306 179.485 35.1239C179.545 35.1859 179.579 35.2689 179.579 35.3552C179.579 35.4415 179.545 35.5245 179.485 35.5865C179.424 35.641 179.345 35.6711 179.264 35.6712V35.6907ZM174.879 32.8438C174.834 32.8528 174.788 32.8528 174.743 32.8438C173.958 32.4866 173.151 32.1819 172.326 31.9317C172.239 31.9067 172.166 31.8484 172.123 31.7695C172.08 31.6907 172.069 31.5979 172.094 31.5116C172.119 31.4252 172.178 31.3523 172.257 31.3089C172.335 31.2655 172.428 31.2552 172.515 31.2803C173.369 31.5362 174.204 31.8496 175.016 32.2184C175.055 32.2359 175.09 32.261 175.119 32.2923C175.148 32.3235 175.17 32.3603 175.185 32.4004C175.2 32.4405 175.206 32.483 175.204 32.5256C175.202 32.5682 175.191 32.61 175.172 32.6484C175.145 32.7025 175.103 32.7477 175.051 32.7789C175 32.81 174.94 32.8257 174.879 32.8243V32.8438ZM169.863 31.3129H169.804C168.953 31.1648 168.094 31.0669 167.231 31.0197C167.188 31.0172 167.146 31.0063 167.108 30.9876C167.069 30.9689 167.035 30.9427 167.006 30.9106C166.978 30.8786 166.956 30.8412 166.942 30.8006C166.928 30.7601 166.922 30.7172 166.925 30.6744C166.925 30.6307 166.934 30.5874 166.951 30.5475C166.969 30.5075 166.995 30.4718 167.028 30.4428C167.061 30.4138 167.099 30.3921 167.141 30.3793C167.183 30.3664 167.227 30.3626 167.27 30.3682C168.157 30.418 169.04 30.518 169.915 30.6679C170 30.6838 170.075 30.7322 170.125 30.8027C170.175 30.8732 170.196 30.9604 170.182 31.0458C170.166 31.1175 170.125 31.1813 170.067 31.2264C170.009 31.2716 169.937 31.2952 169.863 31.2933V31.3129Z" fill="white" fill-opacity="0.6"/>
<path d="M163.303 31.1239C163.26 31.1273 163.217 31.1223 163.176 31.1091C163.135 31.0959 163.097 31.0747 163.065 31.0469C163.032 31.0191 163.005 30.9851 162.986 30.9469C162.966 30.9087 162.954 30.867 162.951 30.8242C162.948 30.7814 162.953 30.7384 162.966 30.6976C162.979 30.6568 163 30.6189 163.028 30.5863C163.084 30.5203 163.164 30.4793 163.251 30.4724C163.682 30.405 164.117 30.3615 164.554 30.3421C164.64 30.337 164.725 30.3663 164.79 30.4237C164.854 30.4811 164.894 30.5619 164.899 30.6483C164.904 30.7347 164.875 30.8196 164.817 30.8844C164.76 30.9491 164.679 30.9884 164.593 30.9936C163.804 31.0392 163.335 31.1109 163.335 31.1109L163.303 31.1239Z" fill="white" fill-opacity="0.6"/>
<path d="M10.8533 70.7461H10.6513C10.1395 70.6882 9.67129 70.4307 9.34837 70.0295L1.07476 59.9317C0.907626 59.732 0.782115 59.5008 0.705603 59.2518C0.629092 59.0028 0.603122 58.7411 0.62922 58.4819C0.655318 58.2227 0.732959 57.9714 0.857577 57.7427C0.982196 57.5139 1.15128 57.3124 1.35489 57.15L20.9966 41.0914C21.1964 40.9242 21.4275 40.7987 21.6765 40.7222C21.9255 40.6457 22.1873 40.6197 22.4464 40.6458C22.7056 40.6719 22.9569 40.7496 23.1857 40.8742C23.4144 40.9988 23.6159 41.1679 23.7783 41.3715L32.0259 51.4627C32.193 51.6625 32.3185 51.8937 32.3951 52.1426C32.4716 52.3916 32.4975 52.6534 32.4714 52.9125C32.4453 53.1717 32.3677 53.423 32.2431 53.6518C32.1185 53.8805 31.9494 54.082 31.7458 54.2444L12.1041 70.2966C11.7525 70.5879 11.3099 70.747 10.8533 70.7461ZM22.2474 41.2998C21.9423 41.3006 21.6464 41.4039 21.407 41.593L1.76531 57.6516C1.63295 57.7623 1.5239 57.8983 1.4445 58.0515C1.3651 58.2047 1.31692 58.3721 1.30277 58.5441C1.27015 58.8955 1.37525 59.2459 1.59593 59.5213L9.84349 69.606C9.95246 69.742 10.0876 69.8547 10.2409 69.9375C10.3942 70.0203 10.5626 70.0715 10.736 70.0881C11.0854 70.1211 11.4339 70.0158 11.7067 69.7949L31.3353 53.7363C31.4725 53.6281 31.5865 53.4934 31.6706 53.3402C31.7547 53.1871 31.8071 53.0186 31.8247 52.8448C31.8423 52.6709 31.8248 52.4953 31.7732 52.3284C31.7216 52.1615 31.6369 52.0067 31.5243 51.8731L23.2767 41.8015C23.1547 41.645 22.9985 41.5184 22.8201 41.4315C22.6417 41.3446 22.4458 41.2995 22.2474 41.2998Z" fill="white" fill-opacity="0.6"/>
<path d="M0.977032 58.7396C0.890642 58.7396 0.80779 58.7053 0.746704 58.6442C0.685617 58.5831 0.651299 58.5002 0.651299 58.4138C0.646818 58.3714 0.650901 58.3285 0.663307 58.2876C0.675713 58.2467 0.69619 58.2088 0.723525 58.176C0.750859 58.1432 0.784497 58.1162 0.822446 58.0966C0.860395 58.0771 0.901885 58.0653 0.944459 58.0621L17.3158 56.6419L21.9673 40.8829C21.9785 40.8414 21.9979 40.8025 22.0245 40.7687C22.0511 40.7348 22.0843 40.7067 22.122 40.6861C22.1597 40.6654 22.2012 40.6525 22.2441 40.6483C22.2869 40.644 22.3301 40.6485 22.3712 40.6614C22.4529 40.687 22.5213 40.7437 22.5615 40.8193C22.6018 40.8948 22.6106 40.9832 22.5861 41.0653L17.8826 57.0393C17.8655 57.1023 17.8295 57.1586 17.7794 57.2006C17.7293 57.2425 17.6675 57.2681 17.6024 57.2738L1.0096 58.7396H0.977032Z" fill="white" fill-opacity="0.6"/>
<path d="M18.2409 54.935C18.1545 54.935 18.0717 54.9007 18.0106 54.8396C17.9495 54.7785 17.9152 54.6957 17.9152 54.6093C17.9152 54.5229 17.9495 54.44 18.0106 54.379C18.0717 54.3179 18.1545 54.2836 18.2409 54.2836L32.0911 52.7005C32.1762 52.693 32.2609 52.7186 32.3276 52.772C32.3944 52.8254 32.438 52.9024 32.4494 52.9871C32.4548 53.03 32.4517 53.0734 32.4402 53.1151C32.4287 53.1567 32.409 53.1956 32.3824 53.2295C32.3557 53.2635 32.3225 53.2918 32.2848 53.3128C32.2471 53.3338 32.2056 53.3471 32.1627 53.352L18.2995 54.935H18.2409Z" fill="white" fill-opacity="0.6"/>
<path d="M10.8337 70.7461C10.8014 70.7522 10.7683 70.7522 10.736 70.7461C10.6949 70.7335 10.6567 70.7128 10.6238 70.6852C10.5909 70.6576 10.5638 70.6236 10.5444 70.5852C10.5249 70.5469 10.5134 70.505 10.5105 70.4622C10.5076 70.4193 10.5134 70.3762 10.5275 70.3356L14.8337 57.0783C14.847 57.0355 14.8686 56.9958 14.8972 56.9613C14.9258 56.9269 14.9609 56.8984 15.0005 56.8776C15.0402 56.8567 15.0835 56.8438 15.1281 56.8397C15.1727 56.8356 15.2177 56.8403 15.2604 56.8535C15.3032 56.8668 15.343 56.8884 15.3774 56.917C15.4119 56.9456 15.4403 56.9807 15.4612 57.0204C15.4821 57.06 15.4949 57.1033 15.499 57.1479C15.5032 57.1925 15.4985 57.2375 15.4852 57.2803L11.179 70.5376C11.1523 70.6054 11.104 70.6625 11.0416 70.7002C10.9792 70.7379 10.9062 70.754 10.8337 70.7461Z" fill="white" fill-opacity="0.6"/>
<path d="M193.674 124.251C193.45 124.249 193.228 124.203 193.023 124.114L174.313 115.997C174.112 115.912 173.93 115.789 173.778 115.633C173.626 115.478 173.507 115.294 173.427 115.091C173.26 114.684 173.26 114.228 173.427 113.821L177.589 104.212C177.765 103.811 178.093 103.495 178.5 103.334C178.908 103.173 179.363 103.179 179.765 103.352L198.482 111.463C198.681 111.549 198.861 111.675 199.012 111.831C199.163 111.988 199.282 112.172 199.361 112.375C199.445 112.575 199.488 112.79 199.488 113.007C199.488 113.224 199.445 113.438 199.361 113.639L195.192 123.235C195.107 123.434 194.983 123.614 194.827 123.765C194.672 123.916 194.488 124.035 194.286 124.114C194.093 124.198 193.885 124.244 193.674 124.251ZM179.153 103.867C178.957 103.867 178.766 103.925 178.603 104.032C178.44 104.14 178.312 104.293 178.234 104.472L174.039 114.114C173.936 114.356 173.934 114.629 174.031 114.873C174.129 115.117 174.319 115.312 174.56 115.417L193.277 123.534C193.523 123.635 193.799 123.635 194.045 123.534C194.168 123.487 194.279 123.415 194.373 123.323C194.467 123.231 194.542 123.121 194.593 123L198.762 113.385C198.863 113.14 198.863 112.866 198.762 112.622C198.715 112.498 198.644 112.385 198.552 112.29C198.46 112.195 198.35 112.12 198.228 112.069L179.524 103.951C179.408 103.898 179.281 103.869 179.153 103.867Z" fill="white" fill-opacity="0.6"/>
<path d="M185.883 115.248C185.828 115.249 185.774 115.236 185.726 115.209C185.678 115.183 185.637 115.145 185.609 115.098L178.443 103.775C178.42 103.739 178.405 103.699 178.398 103.656C178.391 103.614 178.392 103.571 178.402 103.529C178.412 103.487 178.429 103.448 178.454 103.413C178.479 103.378 178.511 103.349 178.547 103.326C178.583 103.303 178.624 103.288 178.666 103.281C178.708 103.274 178.752 103.275 178.793 103.285C178.835 103.295 178.875 103.312 178.909 103.337C178.944 103.362 178.974 103.394 178.997 103.43L186.019 114.564L198.951 112.082C198.993 112.072 199.036 112.071 199.079 112.079C199.121 112.087 199.161 112.103 199.197 112.127C199.233 112.15 199.264 112.181 199.288 112.217C199.311 112.253 199.328 112.293 199.335 112.336C199.351 112.421 199.332 112.509 199.283 112.581C199.235 112.653 199.16 112.703 199.075 112.72L185.928 115.248H185.883Z" fill="white" fill-opacity="0.6"/>
<path d="M194.052 124.192C193.998 124.192 193.945 124.179 193.897 124.154C193.85 124.129 193.809 124.093 193.778 124.049L187.537 114.766C187.49 114.694 187.473 114.606 187.49 114.522C187.507 114.438 187.557 114.364 187.629 114.316C187.664 114.292 187.704 114.275 187.746 114.267C187.787 114.258 187.831 114.258 187.873 114.267C187.915 114.275 187.954 114.292 187.99 114.316C188.025 114.34 188.055 114.371 188.078 114.407L194.319 123.717C194.367 123.79 194.384 123.878 194.367 123.963C194.35 124.049 194.3 124.124 194.228 124.173C194.172 124.194 194.111 124.201 194.052 124.192Z" fill="white" fill-opacity="0.6"/>
<path d="M173.778 115.417C173.7 115.418 173.624 115.391 173.565 115.341C173.505 115.291 173.465 115.221 173.453 115.143C173.446 115.101 173.448 115.058 173.458 115.016C173.469 114.975 173.487 114.936 173.512 114.901C173.538 114.867 173.57 114.837 173.606 114.815C173.643 114.793 173.684 114.778 173.726 114.772L184.801 112.961C184.844 112.954 184.888 112.956 184.93 112.966C184.972 112.976 185.012 112.994 185.047 113.02C185.082 113.045 185.112 113.077 185.134 113.114C185.157 113.151 185.172 113.192 185.179 113.235C185.186 113.277 185.184 113.321 185.174 113.363C185.164 113.405 185.146 113.445 185.12 113.48C185.095 113.515 185.063 113.545 185.026 113.568C184.989 113.59 184.948 113.606 184.905 113.613L173.83 115.424L173.778 115.417Z" fill="white" fill-opacity="0.6"/>
<path d="M65.1464 41.6581C65.0092 41.6578 64.8729 41.6358 64.7425 41.593L50.5861 36.9024C50.2602 36.7926 49.9909 36.5585 49.837 36.251C49.6833 35.9433 49.6576 35.5873 49.7653 35.2607L52.1757 27.9904C52.2844 27.6649 52.5171 27.3955 52.8233 27.2406C53.1294 27.0857 53.4843 27.0578 53.8109 27.163L67.9672 31.8536C68.293 31.9635 68.5621 32.1978 68.7158 32.5053C68.8696 32.8128 68.8955 33.1687 68.7881 33.4953L66.3842 40.7656C66.2979 41.0256 66.1318 41.2518 65.9096 41.412C65.6874 41.5723 65.4204 41.6584 65.1464 41.6581ZM64.9444 40.9741C65.1031 41.0392 65.2809 41.0392 65.4396 40.9741C65.516 40.9356 65.5841 40.8824 65.64 40.8176C65.6959 40.7527 65.7385 40.6775 65.7653 40.5962L68.1822 33.3324C68.2474 33.1738 68.2474 32.9959 68.1822 32.8373C68.106 32.6842 67.9726 32.5672 67.8109 32.5115L53.6545 27.821C53.4908 27.7681 53.3128 27.7822 53.1594 27.8601C53.0088 27.9376 52.8943 28.0708 52.8402 28.2314L50.4298 35.5018C50.368 35.661 50.368 35.8376 50.4298 35.9969C50.5089 36.1488 50.6446 36.2635 50.8076 36.3161L64.9444 40.9741Z" fill="white" fill-opacity="0.6"/>
<path d="M58.99 35.6125C58.9396 35.612 58.8898 35.6 58.8447 35.5775C58.7995 35.5549 58.7601 35.5223 58.7294 35.4822L52.7685 27.7037C52.722 27.6351 52.7034 27.5513 52.7165 27.4694C52.7296 27.3876 52.7734 27.3138 52.8391 27.2631C52.9047 27.2124 52.9872 27.1887 53.0697 27.1967C53.1522 27.2048 53.2286 27.244 53.2832 27.3063L59.0878 34.9089L68.2865 32.3031C68.3279 32.2912 68.3714 32.2877 68.4142 32.2928C68.4571 32.2979 68.4985 32.3114 68.5361 32.3326C68.5737 32.3538 68.6067 32.3823 68.6331 32.4164C68.6596 32.4504 68.6791 32.4894 68.6904 32.5311C68.7123 32.614 68.7007 32.7022 68.658 32.7766C68.6153 32.8511 68.545 32.9056 68.4623 32.9285L59.0552 35.6256L58.99 35.6125Z" fill="white" fill-opacity="0.6"/>
<path d="M65.5177 41.593C65.4686 41.5937 65.4201 41.5829 65.3759 41.5614C65.3318 41.5399 65.2933 41.5083 65.2637 41.4692L60.1171 35.0978C60.0627 35.0305 60.0372 34.9442 60.0464 34.8581C60.0556 34.772 60.0986 34.693 60.1659 34.6386C60.2333 34.5841 60.3196 34.5587 60.4057 34.5679C60.4918 34.577 60.5708 34.62 60.6252 34.6874L65.7718 41.0653C65.8251 41.1328 65.8495 41.2186 65.8397 41.304C65.8299 41.3895 65.7868 41.4676 65.7197 41.5213C65.6621 41.5668 65.5911 41.592 65.5177 41.593Z" fill="white" fill-opacity="0.6"/>
<path d="M50.1627 36.5116C50.1199 36.5167 50.0765 36.5134 50.0351 36.5017C49.9936 36.4901 49.9548 36.4704 49.9209 36.4438C49.887 36.4172 49.8587 36.3842 49.8376 36.3466C49.8165 36.309 49.803 36.2677 49.7979 36.2249C49.7927 36.1821 49.7961 36.1388 49.8077 36.0973C49.8193 36.0558 49.839 36.017 49.8656 35.9831C49.8923 35.9493 49.9253 35.921 49.9628 35.8999C50.0004 35.8787 50.0417 35.8652 50.0845 35.8601L58.0194 33.8275C58.0609 33.8168 58.1041 33.8143 58.1465 33.8202C58.189 33.8262 58.2298 33.8405 58.2668 33.8623C58.3037 33.8841 58.3359 33.9129 58.3617 33.9472C58.3874 33.9815 58.4061 34.0205 58.4168 34.0621C58.4275 34.1031 58.4299 34.1459 58.4238 34.1879C58.4178 34.23 58.4034 34.2703 58.3816 34.3067C58.3597 34.3431 58.3309 34.3748 58.2966 34.3999C58.2624 34.425 58.2235 34.443 58.1822 34.4529L50.2474 36.492L50.1627 36.5116Z" fill="white" fill-opacity="0.6"/>
</svg>
