<svg width="28" height="28" viewBox="0 0 28 28" fill="none" xmlns="http://www.w3.org/2000/svg">
<path d="M23.3636 14.2239C23.1905 14.5009 22.9611 14.7384 22.6904 14.9212L15.6322 19.6855C14.6461 20.3511 13.3546 20.3511 12.3686 19.6855L5.31036 14.9212C4.42254 14.3219 4.07826 13.2187 4.40137 12.25L12.3825 17.5695C13.301 18.1818 14.4802 18.2201 15.4312 17.6843L15.6182 17.5695L23.5986 12.2494C23.8106 12.8866 23.7473 13.61 23.3636 14.2239ZM23.5986 16.0411C23.8106 16.6782 23.7473 17.4016 23.3636 18.0156C23.1905 18.2926 22.9611 18.5301 22.6904 18.7129L15.6322 23.4772C14.6461 24.1427 13.3546 24.1427 12.3686 23.4772L5.31036 18.7129C4.42254 18.1136 4.07826 17.0104 4.40137 16.0416L12.3825 21.3611C13.301 21.9735 14.4802 22.0117 15.4312 21.476L15.6182 21.3611L23.5986 16.0411ZM15.6182 3.99522L23.0443 8.94592C23.5804 9.30333 23.7253 10.0277 23.3679 10.5638C23.2824 10.692 23.1724 10.8019 23.0443 10.8874L15.6182 15.8381C14.6385 16.4912 13.3622 16.4912 12.3825 15.8381L4.95645 10.8874C4.42034 10.53 4.27547 9.80561 4.63288 9.26949C4.71832 9.14133 4.82829 9.03136 4.95645 8.94592L12.3825 3.99522C13.3622 3.34209 14.6385 3.34209 15.6182 3.99522ZM13.4879 5.3739L13.3532 5.45131L6.6562 9.91664L13.3532 14.382C13.7016 14.6142 14.1436 14.64 14.5128 14.4594L14.6475 14.382L21.3434 9.91664L14.6475 5.45131C14.2992 5.21909 13.8571 5.19328 13.4879 5.3739Z" fill="#2FE784"/>
</svg>
