<svg width="17" height="18" viewBox="0 0 17 18" fill="none" xmlns="http://www.w3.org/2000/svg">
<path d="M12.3334 8.99984C14.6346 8.99984 16.5001 7.13436 16.5001 4.83317C16.5001 2.53198 14.6346 0.666504 12.3334 0.666504C10.0322 0.666504 8.16675 2.53198 8.16675 4.83317C8.16675 5.58851 8.36774 6.29691 8.71915 6.90779L6.45768 8.41452C5.84832 7.74988 4.97286 7.33317 4.00008 7.33317C2.15913 7.33317 0.666748 8.82555 0.666748 10.6665C0.666748 12.5075 2.15913 13.9998 4.00008 13.9998C5.08006 13.9998 6.04009 13.4862 6.64922 12.6899L9.88839 14.3093C9.85237 14.4782 9.83341 14.6535 9.83341 14.8332C9.83341 16.2139 10.9527 17.3332 12.3334 17.3332C13.7141 17.3332 14.8334 16.2139 14.8334 14.8332C14.8334 13.4525 13.7141 12.3332 12.3334 12.3332C11.581 12.3332 10.9062 12.6656 10.4479 13.1915L7.20889 11.5722C7.29001 11.2842 7.33341 10.9804 7.33341 10.6665C7.33341 10.2479 7.25627 9.8474 7.11542 9.47832L9.50088 7.88899C10.2443 8.57837 11.2396 8.99984 12.3334 8.99984ZM12.3334 7.74984C10.7226 7.74984 9.41675 6.444 9.41675 4.83317C9.41675 3.22234 10.7226 1.9165 12.3334 1.9165C13.9442 1.9165 15.2501 3.22234 15.2501 4.83317C15.2501 6.444 13.9442 7.74984 12.3334 7.74984ZM4.00008 12.7498C2.84949 12.7498 1.91675 11.8171 1.91675 10.6665C1.91675 9.51591 2.84949 8.58317 4.00008 8.58317C5.15067 8.58317 6.08341 9.51591 6.08341 10.6665C6.08341 11.8171 5.15067 12.7498 4.00008 12.7498ZM13.5834 14.8332C13.5834 15.5235 13.0238 16.0832 12.3334 16.0832C11.6431 16.0832 11.0834 15.5235 11.0834 14.8332C11.0834 14.1428 11.6431 13.5832 12.3334 13.5832C13.0238 13.5832 13.5834 14.1428 13.5834 14.8332Z" fill="white"/>
</svg>
