<svg width="261" height="119" viewBox="0 0 261 119" fill="none" xmlns="http://www.w3.org/2000/svg">
<path d="M42.9824 93.2508H0.573242V76.2925L40.7226 12.8821H59.8874V77.8628H74.4377V93.2508H59.8874V113.768H42.9824V93.2508ZM42.9824 37.107H42.6977L17.7629 77.8628H42.9824V37.107Z" fill="#2FE784"/>
<path d="M229.007 93.2508H186.606V76.2925L226.756 12.8821H245.921V77.8627H260.428V93.2508H245.921V113.768H229.007V93.2508ZM231.957 37.107H231.672L206.737 77.8627H231.957V37.107Z" fill="#2FE784"/>
<path d="M127.464 17.9155C118.603 17.9138 109.941 20.5691 102.573 25.5457C95.2041 30.5224 89.4597 37.5969 86.0658 45.875C82.6719 54.1531 81.7808 63.2631 83.5052 72.0533C85.2296 80.8436 89.4921 88.9193 95.7538 95.2598C102.015 101.6 109.995 105.921 118.684 107.675C127.373 109.429 136.382 108.538 144.57 105.115C152.759 101.692 159.76 95.8905 164.689 88.4436C169.618 80.9966 172.254 72.2388 172.262 63.2772C172.269 57.3227 171.115 51.4252 168.867 45.922C166.619 40.4188 163.32 35.4177 159.159 31.2048C154.999 26.9919 150.058 23.6497 144.619 21.3695C139.181 19.0892 133.351 17.9155 127.464 17.9155Z" fill="white" stroke="#323232" stroke-width="1.03" stroke-linecap="round" stroke-linejoin="round"/>
<path d="M150.95 51.6053C152.093 51.6053 153.02 50.211 153.02 48.491C153.02 46.7711 152.093 45.3768 150.95 45.3768C149.807 45.3768 148.88 46.7711 148.88 48.491C148.88 50.211 149.807 51.6053 150.95 51.6053Z" fill="#323232"/>
<path d="M74.834 49.8083L180.059 26.2551L159.359 20.1487C159.359 20.1487 148.146 1.34976 145.154 0.957206C142.161 0.564653 87.7715 12.2976 87.7715 12.2976L84.3215 38.7819L74.834 49.8083Z" fill="#323232"/>
<path d="M110.033 72.6723C110.033 72.6723 136.771 61.864 148.466 81.9976L110.033 72.6723Z" fill="white"/>
<path d="M148.466 82.4512C148.388 82.4506 148.312 82.4292 148.246 82.3894C148.179 82.3496 148.124 82.2927 148.086 82.2244C136.71 62.6578 110.455 72.9864 110.197 73.091C110.082 73.1362 109.955 73.1335 109.842 73.0836C109.73 73.0337 109.642 72.9406 109.597 72.825C109.552 72.7093 109.555 72.5804 109.604 72.4667C109.654 72.353 109.746 72.2638 109.86 72.2187C110.136 72.114 137.089 61.4976 148.854 81.7359C148.912 81.8395 148.928 81.9617 148.899 82.0771C148.87 82.1925 148.798 82.2921 148.699 82.3553C148.631 82.4083 148.55 82.4415 148.466 82.4512Z" fill="#323232"/>
<path d="M96.7415 113.576L84.8477 94.5593L136.839 85.5655L140.41 103.789L145.688 87.0048L172.288 92.3174L166.88 113.576H96.7415Z" fill="#323232"/>
<path d="M163.363 72.3391L168.156 71.6682L170.632 89.7625C170.715 90.3675 170.557 90.9811 170.192 91.4681C169.828 91.9551 169.287 92.2758 168.689 92.3595L168.407 92.399C167.809 92.4827 167.202 92.3227 166.721 91.9541C166.239 91.5855 165.922 91.0385 165.839 90.4335L163.363 72.3391Z" fill="white"/>
<path d="M168.097 92.867C167.443 92.8651 166.813 92.6251 166.32 92.1909C165.827 91.7567 165.506 91.1574 165.415 90.503L162.939 72.4019C162.924 72.2874 162.955 72.1717 163.025 72.0801C163.094 71.9886 163.197 71.9286 163.31 71.9134L168.097 71.2417C168.153 71.2343 168.21 71.2382 168.265 71.2532C168.32 71.2681 168.371 71.2939 168.416 71.3289C168.462 71.3627 168.5 71.4058 168.528 71.4553C168.556 71.5049 168.574 71.5599 168.58 71.6168L171.038 89.7092C171.089 90.0658 171.07 90.429 170.981 90.7779C170.892 91.1269 170.735 91.4544 170.52 91.7417C170.305 92.029 170.036 92.2702 169.728 92.4514C169.42 92.6326 169.08 92.7501 168.727 92.7972L168.451 92.8409C168.333 92.8575 168.215 92.8662 168.097 92.867ZM163.853 72.716L166.268 90.3809C166.337 90.8703 166.594 91.3126 166.983 91.6115C167.372 91.9105 167.862 92.0419 168.347 91.9772H168.632C169.115 91.908 169.552 91.6479 169.846 91.2539C170.14 90.8599 170.268 90.3641 170.201 89.8749L167.786 72.21L163.853 72.716Z" fill="#323232"/>
<path d="M167.415 55.2859L159.683 56.3682L162.104 74.0651L169.836 72.9827L167.415 55.2859Z" fill="white"/>
<path d="M162.103 74.513C162.01 74.5106 161.92 74.4803 161.844 74.4257C161.797 74.3928 161.759 74.3499 161.73 74.3002C161.702 74.2504 161.685 74.195 161.68 74.1378L159.256 56.4293C159.247 56.373 159.25 56.3154 159.263 56.26C159.276 56.2046 159.3 56.1524 159.334 56.1066C159.405 56.0176 159.507 55.9585 159.619 55.9408L167.381 54.8591C167.437 54.8505 167.495 54.8535 167.55 54.8679C167.605 54.8823 167.656 54.9077 167.702 54.9428C167.747 54.9778 167.784 55.0216 167.812 55.0717C167.84 55.1218 167.858 55.1771 167.864 55.2342L170.288 72.934C170.302 73.0485 170.272 73.1642 170.202 73.2558C170.133 73.3474 170.03 73.4073 169.917 73.4225L162.154 74.5042L162.103 74.513ZM160.171 56.7434L162.474 73.5795L169.374 72.62L167.071 55.7838L160.171 56.7434Z" fill="#323232"/>
<path d="M168.782 85.6269L166.518 85.9439C165.008 86.1552 163.954 87.5646 164.163 89.0917L167.618 114.341C167.827 115.868 169.22 116.935 170.73 116.723L172.994 116.406C174.504 116.195 175.559 114.786 175.35 113.258L171.894 88.0093C171.686 86.4822 170.292 85.4156 168.782 85.6269Z" fill="white"/>
<path d="M170.34 117.197C169.57 117.196 168.827 116.913 168.247 116.402C167.667 115.891 167.289 115.185 167.183 114.414L163.733 89.1596C163.674 88.74 163.698 88.3128 163.803 87.9025C163.908 87.4923 164.092 87.1072 164.345 86.7694C164.857 86.0895 165.613 85.6413 166.45 85.5219L168.727 85.2079C169.563 85.0911 170.41 85.315 171.083 85.8303C171.756 86.3456 172.199 87.1102 172.315 87.9558L175.765 113.254C175.878 114.099 175.655 114.955 175.146 115.635C174.637 116.315 173.883 116.763 173.048 116.883L170.771 117.205L170.34 117.197ZM169.167 86.0453C169.06 86.0367 168.954 86.0367 168.847 86.0453L166.57 86.3594C166.267 86.4012 165.975 86.5038 165.712 86.661C165.448 86.8183 165.218 87.0271 165.035 87.2753C164.848 87.5204 164.711 87.8014 164.634 88.1013C164.557 88.4011 164.541 88.7136 164.587 89.02L168.037 114.318C168.125 114.927 168.444 115.478 168.927 115.853C169.411 116.227 170.019 116.397 170.624 116.324L172.901 116.002C173.505 115.915 174.05 115.592 174.421 115.103C174.792 114.613 174.959 113.997 174.885 113.384L171.435 88.0866C171.358 87.5254 171.084 87.0109 170.663 86.6376C170.241 86.2643 169.701 86.0571 169.141 86.0541L169.167 86.0453Z" fill="#323232"/>
<path d="M162.93 72.2798C174.377 72.2798 183.656 62.8946 183.656 51.3174C183.656 39.7402 174.377 30.3551 162.93 30.3551C151.483 30.3551 142.204 39.7402 142.204 51.3174C142.204 62.8946 151.483 72.2798 162.93 72.2798Z" fill="white"/>
<path d="M162.913 72.7159C158.851 72.7141 154.875 71.53 151.46 69.3051C148.046 67.0802 145.336 63.9085 143.655 60.1684C141.973 56.4284 141.392 52.2781 141.979 48.2128C142.567 44.1476 144.298 40.3392 146.968 37.2423C149.637 34.1453 153.131 31.8905 157.032 30.7472C160.934 29.6038 165.078 29.6201 168.971 30.7941C172.864 31.9681 176.34 34.2503 178.985 37.3681C181.631 40.486 183.333 44.3079 183.889 48.3776C184.652 53.9943 183.183 59.6876 179.804 64.2115C176.426 68.7354 171.413 71.7212 165.863 72.5153C164.885 72.6485 163.9 72.7155 162.913 72.7159ZM162.913 30.7825C161.975 30.7816 161.039 30.8457 160.11 30.9744C156.132 31.5304 152.406 33.2671 149.404 35.9648C146.402 38.6625 144.258 42.2 143.244 46.13C142.23 50.06 142.391 54.2059 143.706 58.0434C145.022 61.8809 147.433 65.2376 150.635 67.689C153.837 70.1404 157.686 71.5764 161.695 71.8153C165.704 72.0543 169.693 71.0855 173.157 69.0314C176.621 66.9774 179.406 63.9304 181.158 60.2757C182.91 56.6211 183.551 52.523 183.001 48.4998C182.323 43.6016 179.922 39.1145 176.239 35.8606C172.556 32.6068 167.838 30.804 162.948 30.7825H162.913Z" fill="#323232"/>
<path d="M162.93 68.3455C172.228 68.3455 179.766 60.7218 179.766 51.3174C179.766 41.9131 172.228 34.2894 162.93 34.2894C153.631 34.2894 146.094 41.9131 146.094 51.3174C146.094 60.7218 153.631 68.3455 162.93 68.3455Z" fill="white"/>
<path d="M162.921 68.7817C158.449 68.7817 154.152 67.0252 150.936 63.8826C147.719 60.74 145.835 56.4569 145.681 51.9366C145.527 47.4163 147.114 43.012 150.109 39.6526C153.103 36.2932 157.271 34.2413 161.732 33.9296C166.193 33.6178 170.6 35.0706 174.023 37.9815C177.446 40.8925 179.617 45.0341 180.079 49.5329C180.541 54.0318 179.257 58.5362 176.499 62.0963C173.74 65.6564 169.723 67.9939 165.293 68.6159C164.507 68.7272 163.715 68.7826 162.921 68.7817ZM162.921 34.7604C162.157 34.7609 161.393 34.8133 160.636 34.9174C156.429 35.5074 152.613 37.7261 149.992 41.1059C147.371 44.4858 146.149 48.7629 146.585 53.0356C147.021 57.3084 149.08 61.2432 152.328 64.0107C155.576 66.7782 159.759 68.1623 163.997 67.8712C168.234 67.5801 172.194 65.6366 175.042 62.4503C177.89 59.264 179.404 55.0837 179.265 50.7906C179.125 46.4974 177.343 42.4267 174.295 39.4363C171.246 36.446 167.168 34.7696 162.921 34.7604Z" fill="#323232"/>
<path d="M182.725 98.5721C181.585 97.11 180.143 95.9188 178.498 95.0827C173.556 92.4657 167.89 92.5529 162.689 94.2104C160.843 94.8035 157.264 95.6497 157.074 98.1272C157.081 98.6213 157.245 99.1002 157.541 99.4929C157.838 99.8856 158.252 100.171 158.721 100.308C159.665 100.556 160.651 100.594 161.611 100.421C160.243 100.384 158.891 100.728 157.703 101.416C156.591 102.21 155.978 103.946 156.893 105.001C157.297 105.44 157.823 105.744 158.402 105.874C159.661 106.224 160.991 106.205 162.24 105.821C160.889 106.083 159.572 106.502 158.316 107.069C157.557 107.409 156.712 108.011 156.798 108.813C156.884 109.616 157.66 109.982 158.368 110.227C159.856 110.743 161.41 111.037 162.982 111.099C161.625 111.348 160.342 111.906 159.23 112.73C157.505 114.196 157.505 116.978 159.842 117.772C160.592 117.994 161.374 118.086 162.154 118.043C169.054 118.043 177.317 117.17 181.991 111.361C183.125 110.021 183.918 108.423 184.303 106.704C184.687 104.985 184.652 103.197 184.199 101.494C183.88 100.441 183.381 99.4518 182.725 98.5721Z" fill="white"/>
<path d="M162.103 118.453C161.293 118.493 160.483 118.395 159.705 118.165C159.189 118.006 158.726 117.709 158.365 117.305C158.003 116.901 157.757 116.405 157.652 115.871C157.554 115.226 157.621 114.566 157.847 113.955C158.074 113.344 158.452 112.802 158.946 112.381C159.502 111.915 160.132 111.546 160.809 111.291C159.929 111.14 159.064 110.915 158.221 110.619C157.074 110.218 156.496 109.625 156.367 108.874C156.238 108.124 156.902 107.217 158.092 106.65L158.704 106.388C158.547 106.359 158.392 106.321 158.239 106.275C157.575 106.133 156.972 105.786 156.514 105.28C156.303 105.02 156.149 104.717 156.062 104.393C155.974 104.068 155.955 103.729 156.005 103.396C156.071 102.933 156.229 102.488 156.469 102.088C156.709 101.688 157.026 101.341 157.402 101.067C157.67 100.877 157.96 100.718 158.264 100.596C157.774 100.393 157.354 100.046 157.06 99.6001C156.767 99.1537 156.612 98.6285 156.617 98.0923C156.815 95.5451 159.929 94.6029 161.982 93.9661L162.534 93.8004C168.295 91.9598 174.031 92.2825 178.671 94.6727C180.377 95.5464 181.871 96.7917 183.044 98.3191C183.733 99.2329 184.261 100.26 184.605 101.355C185.083 103.126 185.124 104.989 184.726 106.78C184.327 108.572 183.501 110.237 182.319 111.631C177.429 117.676 168.959 118.461 162.128 118.47L162.103 118.453ZM161.283 106.423C160.325 106.669 159.39 106.999 158.489 107.409C158.083 107.592 157.16 108.089 157.229 108.735C157.298 109.38 157.954 109.607 158.506 109.79C159.953 110.303 161.467 110.597 163 110.663C163.103 110.664 163.202 110.704 163.279 110.775C163.355 110.846 163.403 110.942 163.414 111.047C163.425 111.151 163.399 111.256 163.341 111.342C163.282 111.429 163.195 111.491 163.094 111.518C161.801 111.76 160.576 112.287 159.506 113.062C159.124 113.38 158.829 113.793 158.652 114.261C158.475 114.729 158.422 115.236 158.497 115.731C158.573 116.115 158.751 116.47 159.013 116.757C159.274 117.045 159.609 117.254 159.981 117.362C160.683 117.572 161.415 117.655 162.146 117.607C168.796 117.607 177.015 116.856 181.673 111.09C182.765 109.808 183.531 108.276 183.904 106.626C184.276 104.977 184.245 103.26 183.812 101.625C183.495 100.627 183.01 99.6919 182.38 98.86C181.288 97.4326 179.894 96.2702 178.3 95.4578C173.858 93.1461 168.364 92.8408 162.818 94.5855L162.258 94.76C160.429 95.3183 157.652 96.1644 157.497 98.1185C157.513 98.5175 157.653 98.9011 157.898 99.2145C158.143 99.5279 158.479 99.7549 158.86 99.8632C159.358 100.024 159.881 100.089 160.403 100.055C160.809 100.011 161.206 99.9853 161.585 99.9591C161.697 99.9562 161.806 99.9957 161.891 100.07C161.975 100.144 162.029 100.248 162.042 100.36C162.05 100.474 162.013 100.587 161.941 100.674C161.869 100.762 161.766 100.818 161.654 100.831C161.266 100.831 160.861 100.919 160.447 100.927C159.561 100.986 158.704 101.267 157.954 101.747C157.673 101.953 157.436 102.213 157.257 102.513C157.078 102.812 156.96 103.145 156.91 103.492C156.876 103.705 156.887 103.923 156.94 104.131C156.993 104.34 157.089 104.535 157.221 104.705C157.571 105.069 158.022 105.318 158.515 105.42C159.357 105.65 160.237 105.709 161.102 105.594C161.447 105.507 161.801 105.429 162.146 105.359C162.254 105.338 162.366 105.359 162.459 105.419C162.552 105.479 162.619 105.573 162.646 105.682C162.671 105.79 162.654 105.904 162.6 106.001C162.546 106.098 162.457 106.171 162.353 106.205C162.003 106.307 161.645 106.38 161.283 106.423Z" fill="#323232"/>
<path d="M134.631 51.6489C134.631 51.6489 145.137 67.6128 138.78 67.8396C132.423 68.0664 131.88 66.3828 131.88 66.3828" fill="white"/>
<path d="M137.642 68.3455C132.311 68.3455 131.544 66.8712 131.44 66.6008C131.404 66.4862 131.414 66.3621 131.467 66.2546C131.52 66.1471 131.613 66.0648 131.725 66.0251C131.837 65.9891 131.959 65.9992 132.063 66.053C132.168 66.1069 132.248 66.2002 132.285 66.3129C132.285 66.3129 133.062 67.6651 138.763 67.4557C139.041 67.4816 139.32 67.4263 139.568 67.2964C139.815 67.1666 140.021 66.9675 140.16 66.7229C141.523 64.0448 136.365 55.1644 134.261 51.9716C134.204 51.8722 134.187 51.7549 134.213 51.6432C134.238 51.5315 134.305 51.4338 134.399 51.3697C134.493 51.3055 134.607 51.2798 134.719 51.2976C134.831 51.3154 134.932 51.3755 135.002 51.4657C135.804 52.687 142.765 63.504 140.954 67.1678C140.746 67.5585 140.434 67.8816 140.052 68.0994C139.67 68.3172 139.235 68.4207 138.797 68.3978L137.642 68.3455Z" fill="#323232"/>
<path d="M163.887 57.354C165.993 57.354 167.7 54.4131 167.7 50.7853C167.7 47.1575 165.993 44.2166 163.887 44.2166C161.782 44.2166 160.075 47.1575 160.075 50.7853C160.075 54.4131 161.782 57.354 163.887 57.354Z" fill="#D1D3D4"/>
<path d="M117.235 56.0978C118.84 56.0978 120.141 53.7193 120.141 50.7853C120.141 47.8512 118.84 45.4727 117.235 45.4727C115.629 45.4727 114.328 47.8512 114.328 50.7853C114.328 53.7193 115.629 56.0978 117.235 56.0978Z" fill="#323232"/>
</svg>
