<?xml version="1.0"?>
<svg width="360" height="355" xmlns="http://www.w3.org/2000/svg" xmlns:svg="http://www.w3.org/2000/svg">
 <g class="layer">
  <title>Layer 1</title>
  <path d="m70.35,264.52c-0.14,0 -0.27,-0.05 -0.38,-0.13c-0.11,-0.08 -0.19,-0.2 -0.23,-0.32l-12.66,-35.24l-13.86,27.06c-0.05,0.1 -0.13,0.19 -0.23,0.25c-0.1,0.07 -0.21,0.11 -0.32,0.12c-0.12,0.01 -0.24,-0.01 -0.34,-0.06c-0.11,-0.05 -0.2,-0.12 -0.27,-0.21l-13.78,-18.02l-8.62,13.86c-0.05,0.07 -0.11,0.14 -0.18,0.2c-0.07,0.05 -0.16,0.09 -0.24,0.11c-0.09,0.02 -0.18,0.03 -0.27,0.02c-0.09,-0.02 -0.18,-0.05 -0.26,-0.1l-7.61,-4.53c-0.15,-0.1 -0.26,-0.25 -0.31,-0.43c-0.04,-0.18 -0.01,-0.37 0.08,-0.53c0.05,-0.08 0.11,-0.14 0.18,-0.2c0.08,-0.05 0.16,-0.09 0.25,-0.12c0.09,-0.02 0.18,-0.02 0.27,-0.01c0.09,0.02 0.18,0.05 0.26,0.1l6.93,4.16l8.78,-14.1c0.07,-0.09 0.15,-0.17 0.24,-0.23c0.1,-0.05 0.21,-0.08 0.32,-0.09c0.11,-0.01 0.22,0.01 0.33,0.05c0.1,0.05 0.19,0.12 0.25,0.21l13.72,17.95l14.14,-27.5c0.06,-0.12 0.16,-0.22 0.28,-0.29c0.12,-0.07 0.25,-0.09 0.39,-0.08c0.13,0.01 0.26,0.05 0.37,0.14c0.1,0.08 0.18,0.19 0.22,0.32l12.63,35.15l6,-12.7c0.09,-0.15 0.23,-0.27 0.4,-0.32c0.17,-0.05 0.35,-0.04 0.5,0.04c0.16,0.07 0.29,0.21 0.35,0.37c0.06,0.16 0.06,0.34 0,0.51l-6.71,14.2c-0.05,0.12 -0.14,0.22 -0.25,0.29c-0.11,0.07 -0.24,0.1 -0.37,0.1z" fill="white" fill-opacity="0.6" id="svg_19"/>
  <path d="m18.98,253.16c0.98,0 1.77,-0.8 1.77,-1.78c0,-0.98 -0.79,-1.77 -1.77,-1.77c-0.98,0 -1.78,0.79 -1.78,1.77c0,0.98 0.8,1.78 1.78,1.78z" fill="black" id="svg_20"/>
  <path d="m18.99,253.85c-0.49,0 -0.96,-0.14 -1.37,-0.41c-0.41,-0.27 -0.73,-0.65 -0.92,-1.1c-0.19,-0.45 -0.24,-0.95 -0.14,-1.43c0.09,-0.48 0.32,-0.92 0.67,-1.27c0.34,-0.34 0.78,-0.58 1.26,-0.68c0.48,-0.09 0.98,-0.04 1.43,0.14c0.45,0.19 0.84,0.5 1.11,0.91c0.27,0.41 0.42,0.88 0.42,1.37c0,0.65 -0.26,1.28 -0.72,1.74c-0.46,0.47 -1.09,0.73 -1.74,0.73zm0,-3.54c-0.14,0 -0.28,0.03 -0.41,0.08c-0.13,0.05 -0.25,0.13 -0.35,0.23c-0.1,0.1 -0.18,0.22 -0.24,0.35c-0.05,0.13 -0.08,0.27 -0.08,0.41c-0.02,0.15 0,0.31 0.04,0.45c0.05,0.15 0.13,0.28 0.23,0.39c0.1,0.12 0.22,0.21 0.36,0.27c0.14,0.06 0.29,0.1 0.45,0.1c0.15,0 0.3,-0.04 0.44,-0.1c0.14,-0.06 0.26,-0.15 0.36,-0.27c0.1,-0.11 0.18,-0.24 0.23,-0.39c0.04,-0.14 0.06,-0.3 0.04,-0.45c0,-0.28 -0.11,-0.55 -0.31,-0.75c-0.2,-0.2 -0.47,-0.32 -0.76,-0.32z" fill="white" fill-opacity="0.6" id="svg_21"/>
  <path d="m28.14,238.53c0.98,0 1.77,-0.79 1.77,-1.77c0,-0.98 -0.79,-1.77 -1.77,-1.77c-0.98,0 -1.77,0.79 -1.77,1.77c0,0.98 0.79,1.77 1.77,1.77z" fill="black" id="svg_22"/>
  <path d="m28.14,239.21c-0.49,0.01 -0.97,-0.14 -1.38,-0.41c-0.4,-0.27 -0.72,-0.65 -0.91,-1.1c-0.19,-0.46 -0.24,-0.95 -0.14,-1.43c0.09,-0.48 0.33,-0.92 0.67,-1.27c0.35,-0.34 0.79,-0.58 1.27,-0.68c0.48,-0.09 0.98,-0.04 1.43,0.15c0.45,0.19 0.83,0.5 1.1,0.91c0.27,0.41 0.42,0.89 0.41,1.38c0,0.65 -0.26,1.27 -0.72,1.73c-0.46,0.46 -1.08,0.72 -1.73,0.72zm0,-3.53c-0.29,0 -0.56,0.11 -0.76,0.31c-0.21,0.21 -0.32,0.48 -0.32,0.77c0,0.21 0.06,0.42 0.18,0.6c0.12,0.18 0.29,0.32 0.49,0.4c0.19,0.08 0.41,0.1 0.62,0.06c0.21,-0.04 0.4,-0.14 0.56,-0.3c0.15,-0.15 0.25,-0.34 0.29,-0.55c0.04,-0.21 0.02,-0.43 -0.06,-0.63c-0.08,-0.19 -0.22,-0.36 -0.4,-0.48c-0.18,-0.12 -0.39,-0.18 -0.6,-0.18z" fill="white" fill-opacity="0.6" id="svg_23"/>
  <path d="m57.15,228.87c0.98,0 1.78,-0.79 1.78,-1.77c0,-0.98 -0.8,-1.78 -1.78,-1.78c-0.98,0 -1.77,0.8 -1.77,1.78c0,0.98 0.79,1.77 1.77,1.77z" fill="black" id="svg_24"/>
  <path d="m57.15,229.55c-0.49,0 -0.96,-0.14 -1.37,-0.42c-0.41,-0.27 -0.72,-0.65 -0.91,-1.1c-0.18,-0.46 -0.23,-0.95 -0.14,-1.43c0.1,-0.48 0.34,-0.92 0.68,-1.27c0.35,-0.34 0.79,-0.57 1.27,-0.67c0.48,-0.09 0.98,-0.04 1.43,0.15c0.45,0.19 0.83,0.51 1.1,0.91c0.27,0.41 0.41,0.89 0.41,1.38c0,0.32 -0.06,0.64 -0.19,0.94c-0.12,0.3 -0.3,0.57 -0.53,0.8c-0.23,0.22 -0.51,0.41 -0.8,0.53c-0.3,0.12 -0.62,0.18 -0.95,0.18zm0,-3.53c-0.21,0 -0.42,0.06 -0.6,0.18c-0.18,0.12 -0.31,0.29 -0.4,0.48c-0.08,0.2 -0.1,0.42 -0.06,0.63c0.04,0.21 0.15,0.4 0.3,0.55c0.15,0.15 0.34,0.26 0.55,0.3c0.21,0.04 0.43,0.02 0.63,-0.06c0.19,-0.09 0.36,-0.22 0.48,-0.4c0.12,-0.18 0.18,-0.39 0.18,-0.6c0,-0.29 -0.11,-0.56 -0.31,-0.77c-0.21,-0.2 -0.48,-0.31 -0.77,-0.31z" fill="white" fill-opacity="0.6" id="svg_25"/>
  <path d="m70.35,265.6c0.98,0 1.77,-0.79 1.77,-1.77c0,-0.98 -0.79,-1.77 -1.77,-1.77c-0.98,0 -1.78,0.79 -1.78,1.77c0,0.98 0.8,1.77 1.78,1.77z" fill="black" id="svg_26"/>
  <path d="m70.35,266.28c-0.49,0.01 -0.97,-0.14 -1.38,-0.41c-0.41,-0.27 -0.72,-0.65 -0.91,-1.1c-0.19,-0.45 -0.24,-0.95 -0.15,-1.43c0.1,-0.48 0.33,-0.92 0.68,-1.27c0.35,-0.34 0.79,-0.58 1.27,-0.67c0.48,-0.1 0.97,-0.05 1.42,0.14c0.46,0.19 0.84,0.51 1.11,0.91c0.27,0.41 0.41,0.89 0.41,1.38c0,0.65 -0.26,1.27 -0.72,1.73c-0.46,0.46 -1.08,0.72 -1.73,0.72zm0,-3.53c-0.15,-0.02 -0.31,0 -0.45,0.04c-0.15,0.05 -0.28,0.13 -0.39,0.23c-0.12,0.1 -0.21,0.22 -0.27,0.36c-0.06,0.14 -0.1,0.29 -0.1,0.44c0,0.16 0.04,0.31 0.1,0.44c0.06,0.14 0.15,0.27 0.27,0.37c0.11,0.1 0.24,0.18 0.39,0.22c0.14,0.05 0.3,0.07 0.45,0.05c0.26,-0.03 0.51,-0.16 0.68,-0.36c0.18,-0.19 0.28,-0.45 0.28,-0.72c0,-0.26 -0.1,-0.52 -0.28,-0.72c-0.17,-0.2 -0.42,-0.32 -0.68,-0.35z" fill="white" fill-opacity="0.6" id="svg_27"/>
  <path d="m42.53,257.34c0.98,0 1.77,-0.79 1.77,-1.77c0,-0.98 -0.79,-1.78 -1.77,-1.78c-0.98,0 -1.78,0.8 -1.78,1.78c0,0.98 0.8,1.77 1.78,1.77z" fill="black" id="svg_28"/>
  <path d="m42.53,258.02c-0.49,0 -0.97,-0.14 -1.38,-0.41c-0.41,-0.27 -0.72,-0.65 -0.91,-1.1c-0.19,-0.46 -0.24,-0.95 -0.15,-1.43c0.1,-0.48 0.33,-0.92 0.68,-1.27c0.35,-0.35 0.79,-0.58 1.27,-0.68c0.48,-0.09 0.97,-0.04 1.43,0.15c0.45,0.19 0.83,0.5 1.1,0.91c0.27,0.41 0.41,0.89 0.41,1.38c0,0.65 -0.26,1.27 -0.72,1.73c-0.46,0.46 -1.08,0.72 -1.73,0.72zm0,-3.53c-0.29,0 -0.56,0.11 -0.77,0.31c-0.2,0.21 -0.31,0.48 -0.31,0.77c0,0.21 0.06,0.42 0.18,0.6c0.12,0.18 0.29,0.32 0.48,0.4c0.2,0.08 0.42,0.1 0.63,0.06c0.21,-0.04 0.4,-0.14 0.55,-0.3c0.15,-0.15 0.26,-0.34 0.3,-0.55c0.04,-0.21 0.02,-0.43 -0.06,-0.62c-0.08,-0.2 -0.22,-0.37 -0.4,-0.49c-0.18,-0.12 -0.39,-0.18 -0.6,-0.18z" fill="white" fill-opacity="0.6" id="svg_29"/>
  <path d="m0.71,115.39c0,0 -1.73,-18.96 32.57,-18.96l-1.02,72.41l-27.46,-12.16l-4.09,-41.29z" fill="black" id="svg_30"/>
  <path d="m32.31,169.53c-0.09,0.02 -0.19,0.02 -0.29,0l-27.44,-12.15c-0.12,-0.06 -0.21,-0.13 -0.29,-0.23c-0.07,-0.1 -0.12,-0.22 -0.13,-0.34l-4.16,-41.3c-0.03,-1.98 0.33,-3.94 1.06,-5.78c0.72,-1.84 1.81,-3.52 3.18,-4.95c5.44,-5.95 15.25,-8.98 29.11,-8.98c0.1,0 0.19,0.02 0.27,0.06c0.09,0.03 0.17,0.08 0.23,0.15c0.13,0.13 0.2,0.31 0.2,0.49l-1.04,72.35c-0.01,0.12 -0.04,0.23 -0.09,0.33c-0.06,0.09 -0.14,0.18 -0.23,0.24c-0.11,0.08 -0.24,0.11 -0.38,0.11zm-26.75,-13.29l26.13,11.57l1,-70.69c-13.06,0.1 -22.18,2.95 -27.32,8.5c-2.52,2.6 -3.93,6.08 -3.91,9.7l4.1,40.92z" fill="white" id="svg_31"/>
  <path d="m4.17,129.9c-0.18,-0.02 -0.34,-0.12 -0.45,-0.27c-0.11,-0.14 -0.16,-0.32 -0.14,-0.5c0,-0.18 2.42,-17.83 25.88,-19.12c0.09,-0.01 0.18,0.01 0.27,0.04c0.08,0.03 0.16,0.07 0.23,0.13c0.07,0.07 0.12,0.14 0.16,0.22c0.04,0.08 0.07,0.17 0.07,0.26c0.01,0.09 0,0.19 -0.03,0.27c-0.03,0.09 -0.08,0.17 -0.14,0.24c-0.06,0.07 -0.13,0.12 -0.21,0.16c-0.09,0.04 -0.18,0.06 -0.27,0.07c-22.3,1.18 -24.53,17.12 -24.62,17.85c-0.01,0.19 -0.1,0.36 -0.24,0.48c-0.14,0.12 -0.32,0.18 -0.51,0.17z" fill="white" id="svg_32"/>
  <path d="m5.38,143.4c-0.09,0 -0.18,-0.02 -0.26,-0.06c-0.09,-0.03 -0.16,-0.08 -0.23,-0.15c-0.06,-0.06 -0.11,-0.14 -0.14,-0.23c-0.03,-0.08 -0.05,-0.17 -0.05,-0.26c0,-0.17 0.36,-18.02 23.57,-21.95c0.18,-0.03 0.37,0.02 0.52,0.13c0.15,0.11 0.25,0.27 0.28,0.46c0.03,0.18 -0.02,0.37 -0.13,0.52c-0.1,0.15 -0.27,0.25 -0.45,0.28c-21.99,3.76 -22.38,19.9 -22.38,20.58c0,0.1 -0.02,0.19 -0.06,0.27c-0.04,0.09 -0.09,0.16 -0.16,0.23c-0.07,0.06 -0.15,0.11 -0.24,0.14c-0.08,0.03 -0.18,0.05 -0.27,0.04z" fill="white" id="svg_33"/>
  <path d="m5.56,151.82c-0.18,-0.01 -0.36,-0.08 -0.49,-0.21c-0.12,-0.13 -0.2,-0.3 -0.2,-0.49c0,-0.18 0.37,-18.02 23.56,-21.95c0.18,-0.03 0.37,0.01 0.52,0.12c0.15,0.11 0.25,0.27 0.29,0.45c0.01,0.09 0.01,0.18 -0.01,0.27c-0.02,0.09 -0.06,0.17 -0.11,0.25c-0.05,0.07 -0.12,0.14 -0.2,0.18c-0.08,0.05 -0.16,0.09 -0.25,0.1c-22.03,3.77 -22.39,20.42 -22.39,20.58c0,0.1 -0.02,0.19 -0.05,0.28c-0.04,0.08 -0.09,0.16 -0.16,0.22c-0.07,0.07 -0.15,0.12 -0.24,0.15c-0.08,0.04 -0.18,0.05 -0.27,0.05z" fill="white" id="svg_34"/>
  <path d="m154.36,283.62l-0.21,0l-2.63,-0.81c-0.09,-0.03 -0.18,-0.07 -0.25,-0.13c-0.08,-0.06 -0.14,-0.13 -0.18,-0.21c-0.05,-0.09 -0.08,-0.18 -0.09,-0.27c-0.01,-0.09 0,-0.19 0.02,-0.28c0.03,-0.09 0.07,-0.18 0.13,-0.25c0.06,-0.08 0.13,-0.14 0.21,-0.18c0.08,-0.05 0.17,-0.08 0.27,-0.09c0.09,-0.01 0.19,-0.01 0.28,0.02l2.67,0.83c0.1,0.02 0.18,0.05 0.26,0.1c0.08,0.04 0.15,0.11 0.2,0.18c0.05,0.08 0.09,0.16 0.12,0.25c0.02,0.09 0.02,0.18 0.01,0.28c-0.02,0.09 -0.05,0.17 -0.1,0.25c-0.05,0.08 -0.11,0.15 -0.19,0.2c-0.07,0.06 -0.16,0.1 -0.25,0.12c-0.08,0.02 -0.18,0.02 -0.27,0.01l0,-0.02z" fill="white" fill-opacity="0.6" id="svg_37"/>
  <path d="m75.6,64.99c5.03,-2.51 8.86,-6.93 10.64,-12.26c1.78,-5.34 1.37,-11.17 -1.14,-16.2c-2.52,-5.03 -6.93,-8.86 -12.27,-10.64c-5.33,-1.78 -11.16,-1.37 -16.19,1.15l9.48,18.97l-18.98,9.48c1.25,2.5 2.97,4.72 5.08,6.55c2.1,1.82 4.54,3.22 7.19,4.1c2.64,0.88 5.43,1.23 8.21,1.03c2.78,-0.19 5.49,-0.93 7.98,-2.18z" fill="black" id="svg_38"/>
  <path d="m66.13,67.93c-4.07,-0.01 -8.05,-1.14 -11.52,-3.28c-3.46,-2.14 -6.26,-5.2 -8.09,-8.84c-0.08,-0.16 -0.1,-0.35 -0.04,-0.52c0.06,-0.18 0.18,-0.32 0.35,-0.41l18.33,-9.17l-9.14,-18.38c-0.07,-0.17 -0.07,-0.36 0,-0.53c0.02,-0.09 0.07,-0.17 0.13,-0.24c0.06,-0.06 0.13,-0.12 0.21,-0.16c2.96,-1.45 6.2,-2.22 9.5,-2.24c3.29,-0.03 6.55,0.69 9.52,2.09c2.98,1.41 5.6,3.47 7.68,6.03c2.07,2.56 3.54,5.55 4.29,8.76c0.76,3.2 0.78,6.54 0.07,9.75c-0.7,3.22 -2.13,6.23 -4.16,8.82c-2.04,2.59 -4.63,4.69 -7.59,6.14c-2.96,1.45 -6.2,2.21 -9.49,2.23l-0.05,-0.05zm-18.02,-12.13c2.55,4.68 6.81,8.18 11.89,9.78c5.07,1.6 10.58,1.16 15.34,-1.21c4.91,-2.36 8.68,-6.57 10.49,-11.71c1.81,-5.14 1.5,-10.79 -0.86,-15.7c-2.35,-4.91 -6.57,-8.68 -11.7,-10.49c-5.14,-1.81 -10.79,-1.5 -15.7,0.86l9.16,18.35c0.04,0.08 0.07,0.17 0.08,0.26c0,0.09 -0.01,0.18 -0.03,0.27c-0.03,0.09 -0.08,0.17 -0.14,0.24c-0.06,0.06 -0.13,0.12 -0.21,0.16l-18.32,9.19z" fill="white" id="svg_39"/>
  <path d="m40.37,53.17l18.97,-9.49l-9.42,-18.97c-2.5,1.24 -4.73,2.96 -6.56,5.06c-1.83,2.1 -3.23,4.54 -4.12,7.19c-0.89,2.64 -1.24,5.43 -1.05,8.21c0.19,2.78 0.93,5.5 2.18,8z" fill="black" id="svg_40"/>
  <path d="m40.37,53.86c-0.13,0 -0.26,-0.04 -0.37,-0.1c-0.11,-0.07 -0.2,-0.16 -0.26,-0.28c-2.59,-5.2 -3.01,-11.21 -1.17,-16.73c1.84,-5.51 5.79,-10.07 10.99,-12.67c0.16,-0.07 0.35,-0.08 0.52,-0.02c0.18,0.06 0.32,0.18 0.4,0.34l9.49,18.98c0.07,0.17 0.07,0.36 0,0.53c-0.07,0.17 -0.2,0.32 -0.36,0.4l-18.98,9.48c-0.08,0.04 -0.17,0.07 -0.26,0.07zm9.19,-28.21c-4.58,2.49 -8.05,6.62 -9.7,11.56c-1.64,4.95 -1.35,10.33 0.83,15.07l17.72,-8.86l-8.85,-17.77z" fill="white" id="svg_41"/>
  <path d="m196.43,7.2l-31.06,-6.39c-0.69,-0.14 -1.4,-0.14 -2.09,-0.01c-0.68,0.13 -1.34,0.4 -1.92,0.78c-0.59,0.39 -1.09,0.89 -1.48,1.47c-0.39,0.58 -0.67,1.23 -0.81,1.92l-3.13,15.25c-0.14,0.68 -0.14,1.39 -0.01,2.08c0.13,0.68 0.4,1.34 0.79,1.92c0.38,0.59 0.88,1.09 1.46,1.48c0.58,0.39 1.23,0.66 1.92,0.8l-1.22,8.12l7.4,-6.85l24.95,5.13c0.69,0.14 1.4,0.15 2.08,0.01c0.69,-0.13 1.35,-0.4 1.93,-0.78c0.59,-0.39 1.09,-0.89 1.48,-1.47c0.39,-0.58 0.67,-1.23 0.81,-1.92l3.13,-15.25c0.14,-0.69 0.15,-1.4 0.01,-2.09c-0.14,-0.69 -0.41,-1.35 -0.8,-1.94c-0.4,-0.59 -0.9,-1.09 -1.49,-1.48c-0.59,-0.38 -1.25,-0.65 -1.95,-0.78z" fill="black" id="svg_84"/>
  <path d="m158.82,35.31c-0.11,0 -0.23,-0.03 -0.33,-0.08c-0.12,-0.07 -0.22,-0.17 -0.29,-0.3c-0.06,-0.12 -0.09,-0.27 -0.07,-0.41l1.14,-7.51c-1.4,-0.47 -2.58,-1.43 -3.32,-2.71c-0.73,-1.27 -0.98,-2.78 -0.69,-4.22l3.14,-15.25c0.15,-0.78 0.46,-1.52 0.91,-2.18c0.44,-0.66 1.01,-1.22 1.68,-1.66c0.66,-0.44 1.39,-0.74 2.17,-0.89c0.78,-0.14 1.57,-0.13 2.35,0.03l31.06,6.41c0.77,0.15 1.51,0.46 2.16,0.9c0.66,0.45 1.22,1.01 1.65,1.67c0.44,0.66 0.74,1.4 0.88,2.18c0.15,0.77 0.14,1.57 -0.02,2.34l-3.15,15.25c-0.32,1.56 -1.24,2.93 -2.58,3.81c-1.32,0.88 -2.95,1.19 -4.51,0.88l-24.56,-5.06l-7.14,6.61c-0.13,0.12 -0.3,0.19 -0.48,0.19zm5.47,-33.92c-0.91,0 -1.79,0.26 -2.54,0.77c-0.52,0.33 -0.96,0.77 -1.31,1.29c-0.34,0.51 -0.57,1.09 -0.69,1.7l-3.1,15.25c-0.25,1.19 -0.01,2.44 0.66,3.46c0.66,1.02 1.71,1.74 2.9,2c0.17,0.04 0.32,0.14 0.42,0.28c0.11,0.14 0.15,0.32 0.12,0.5l-0.93,6.18l5.96,-5.55c0.09,-0.07 0.18,-0.13 0.29,-0.16c0.1,-0.03 0.21,-0.04 0.32,-0.02l24.95,5.13c0.6,0.14 1.23,0.15 1.83,0.04c0.61,-0.11 1.19,-0.34 1.7,-0.68c0.52,-0.33 0.96,-0.77 1.31,-1.28c0.35,-0.51 0.59,-1.08 0.71,-1.68l3.13,-15.25c0.12,-0.6 0.13,-1.21 0.01,-1.81c-0.11,-0.59 -0.34,-1.16 -0.68,-1.67c-0.33,-0.51 -0.76,-0.94 -1.27,-1.28c-0.5,-0.34 -1.07,-0.58 -1.66,-0.7l-31.05,-6.41c-0.36,-0.07 -0.72,-0.11 -1.08,-0.11z" fill="white" id="svg_85"/>
  <path d="m191.79,19.33l-0.14,0l-27.06,-5.17c-0.18,-0.03 -0.34,-0.14 -0.44,-0.29c-0.11,-0.15 -0.15,-0.33 -0.11,-0.51c0.03,-0.18 0.14,-0.34 0.29,-0.45c0.16,-0.1 0.34,-0.14 0.52,-0.11l27.06,5.17c0.18,0.04 0.34,0.14 0.45,0.3c0.1,0.15 0.14,0.34 0.11,0.52c-0.04,0.15 -0.13,0.29 -0.25,0.39c-0.12,0.1 -0.28,0.15 -0.43,0.15z" fill="white" fill-opacity="0.6" id="svg_86"/>
  <path d="m182.26,24.56l-0.12,0l-18.74,-3.58c-0.09,-0.02 -0.18,-0.05 -0.25,-0.1c-0.08,-0.05 -0.15,-0.12 -0.2,-0.19c-0.05,-0.08 -0.09,-0.16 -0.11,-0.25c-0.01,-0.1 -0.01,-0.19 0,-0.28c0.02,-0.09 0.06,-0.17 0.1,-0.25c0.06,-0.07 0.12,-0.14 0.19,-0.19c0.08,-0.05 0.16,-0.08 0.25,-0.1c0.09,-0.02 0.18,-0.02 0.27,0l18.75,3.55c0.19,0.02 0.36,0.11 0.47,0.25c0.12,0.14 0.17,0.33 0.16,0.51c-0.02,0.19 -0.11,0.36 -0.25,0.47c-0.15,0.12 -0.33,0.17 -0.52,0.16z" fill="white" fill-opacity="0.6" id="svg_87"/>
  <path d="m45.22,140.2c0,0 -35.29,2.18 -44.51,-24.81l5.54,70.42c0,0 7.35,14.45 40.4,17.61l-1.43,-63.22z" fill="black" id="svg_88"/>
  <path d="m46.66,204.12l-0.07,0c-33.05,-3.16 -40.64,-17.39 -40.95,-18.02c-0.02,-0.09 -0.02,-0.18 0,-0.27l-5.54,-70.41c-0.01,-0.17 0.03,-0.34 0.14,-0.48c0.1,-0.13 0.25,-0.22 0.41,-0.26c0.17,-0.04 0.34,-0.01 0.49,0.07c0.15,0.09 0.26,0.23 0.3,0.39c8.94,26.18 43.47,24.37 43.82,24.34c0.09,-0.01 0.19,0.01 0.28,0.04c0.09,0.04 0.17,0.09 0.23,0.15c0.14,0.13 0.21,0.3 0.22,0.49l1.39,63.22c0,0.2 -0.08,0.39 -0.22,0.53c-0.14,0.13 -0.31,0.2 -0.5,0.21zm-39.71,-18.51c0.76,1.3 8.95,13.97 38.99,17.05l-1.39,-61.74c-4.82,0.1 -32.46,-0.23 -42.79,-21.22l5.19,65.91z" fill="white" id="svg_89"/>
  <path d="m273.93,214.89l40.57,-46.07l44.79,31.34l-51.9,55.31l-33.46,-40.58z" fill="black" id="svg_90"/>
  <path d="m307.39,256.17c-0.1,-0.01 -0.19,-0.04 -0.28,-0.08c-0.09,-0.04 -0.17,-0.1 -0.23,-0.18l-33.46,-40.59c-0.11,-0.13 -0.16,-0.29 -0.16,-0.45c0,-0.16 0.05,-0.32 0.16,-0.44l40.57,-46.06c0.12,-0.13 0.27,-0.21 0.44,-0.23c0.17,-0.02 0.34,0.02 0.49,0.12l44.78,31.34c0.09,0.05 0.15,0.13 0.2,0.21c0.05,0.09 0.09,0.19 0.09,0.29c0.02,0.09 0.01,0.19 -0.02,0.29c-0.03,0.09 -0.09,0.18 -0.16,0.25l-51.91,55.3c-0.06,0.07 -0.14,0.13 -0.23,0.17c-0.09,0.04 -0.18,0.06 -0.28,0.06zm-32.55,-41.27l32.58,39.52l50.81,-54.14l-43.62,-30.5l-39.77,45.12z" fill="white" id="svg_91"/>
  <path d="m303.05,197.49l2.44,-0.69c0.42,-0.13 0.85,-0.23 1.28,-0.31c0.26,-0.08 0.54,-0.06 0.79,0.05c0.26,0.1 0.46,0.29 0.59,0.53c0.31,0.59 0.56,1.18 0.85,1.78c0.13,0.32 0.3,0.63 0.48,0.93c0.15,0.21 0.36,0.37 0.6,0.46c1.02,0.19 2.03,0.35 3.04,0.49c0.18,0.02 0.36,-0.01 0.52,-0.07c0.17,-0.07 0.32,-0.19 0.43,-0.33c0.56,-0.58 1.08,-1.18 1.64,-1.76c0.2,-0.23 0.44,-0.43 0.71,-0.6c0.09,-0.05 0.2,-0.09 0.31,-0.11c0.11,-0.02 0.23,-0.01 0.34,0.02c1.32,0.53 2.55,1.26 3.66,2.16c0.17,0.13 0.29,0.31 0.35,0.52c0.05,0.2 0.04,0.42 -0.05,0.62c-0.26,0.79 -0.51,1.59 -0.8,2.38c-0.13,0.27 -0.18,0.58 -0.13,0.88c0.04,0.29 0.16,0.57 0.36,0.8c0.54,0.66 1.05,1.39 1.57,2.04c0.1,0.12 0.22,0.22 0.37,0.29c0.14,0.06 0.3,0.09 0.46,0.08l1.64,0l1.38,0c0.23,-0.01 0.45,0.05 0.64,0.19c0.18,0.13 0.32,0.32 0.37,0.54c0.35,1.21 0.68,2.43 0.99,3.65c0.05,0.23 0.03,0.48 -0.08,0.69c-0.1,0.22 -0.28,0.39 -0.49,0.49c-0.58,0.32 -1.21,0.57 -1.8,0.86c-0.28,0.14 -0.56,0.27 -0.82,0.43c-0.18,0.09 -0.33,0.22 -0.45,0.39c-0.11,0.16 -0.19,0.35 -0.22,0.55c-0.12,0.86 -0.25,1.71 -0.4,2.55c-0.06,0.25 -0.04,0.52 0.04,0.76c0.08,0.25 0.23,0.46 0.43,0.63c0.64,0.58 1.29,1.15 1.93,1.74c0.24,0.18 0.4,0.44 0.44,0.73c0.05,0.29 -0.01,0.58 -0.18,0.83c-0.55,0.97 -1.12,1.94 -1.7,2.89c-0.07,0.15 -0.16,0.29 -0.28,0.4c-0.12,0.11 -0.25,0.2 -0.41,0.26c-0.15,0.05 -0.31,0.08 -0.48,0.07c-0.16,-0.01 -0.32,-0.05 -0.47,-0.12c-0.54,-0.16 -1.05,-0.37 -1.58,-0.55c-0.52,-0.18 -0.76,-0.24 -1.15,-0.33c-0.16,-0.05 -0.33,-0.06 -0.49,-0.04c-0.16,0.03 -0.32,0.1 -0.45,0.2c-0.72,0.53 -1.39,1.06 -2.14,1.6c-0.19,0.14 -0.35,0.33 -0.45,0.55c-0.1,0.22 -0.14,0.47 -0.11,0.71c0,0.55 0.09,1.12 0.12,1.69c0.02,0.34 0.02,0.69 0,1.04c0.01,0.24 -0.07,0.48 -0.22,0.67c-0.15,0.2 -0.36,0.33 -0.6,0.38l-3.31,0.86c-0.17,0.02 -0.35,0.02 -0.53,0c-0.19,0.02 -0.39,-0.02 -0.56,-0.12c-0.17,-0.1 -0.3,-0.25 -0.38,-0.43c-0.34,-0.7 -0.68,-1.39 -1.01,-2.11c-0.01,-0.05 -0.01,-0.1 0,-0.15c-0.11,-0.32 -0.32,-0.59 -0.59,-0.79c-0.28,-0.19 -0.6,-0.3 -0.93,-0.31c-0.67,0 -1.39,-0.19 -2,-0.3c-0.3,-0.06 -0.61,-0.03 -0.89,0.08c-0.28,0.11 -0.53,0.29 -0.72,0.53c-0.51,0.58 -1.01,1.16 -1.55,1.72c-0.09,0.13 -0.2,0.24 -0.33,0.33c-0.13,0.08 -0.28,0.14 -0.43,0.16c-0.15,0.03 -0.31,0.02 -0.46,-0.02c-0.16,-0.04 -0.3,-0.11 -0.42,-0.21c-1.01,-0.57 -1.99,-1.16 -2.98,-1.79c-0.24,-0.12 -0.44,-0.33 -0.53,-0.59c-0.09,-0.26 -0.08,-0.55 0.03,-0.8c0.18,-0.63 0.42,-1.26 0.64,-1.88c0.27,-0.42 0.38,-0.93 0.3,-1.43c-0.08,-0.49 -0.34,-0.94 -0.73,-1.26c-0.33,-0.44 -0.69,-0.87 -1.02,-1.32c-0.16,-0.21 -0.37,-0.38 -0.61,-0.49c-0.25,-0.12 -0.51,-0.16 -0.78,-0.14c-0.65,0 -1.3,0.11 -1.95,0.12c-0.35,0.01 -0.69,-0.01 -1.03,-0.07c-0.16,-0.01 -0.32,-0.07 -0.44,-0.18c-0.13,-0.1 -0.22,-0.24 -0.25,-0.4c-0.29,-1.17 -0.6,-2.32 -0.89,-3.48c-0.02,-0.16 -0.02,-0.33 0,-0.5c-0.02,-0.19 0.02,-0.39 0.12,-0.56c0.09,-0.17 0.24,-0.31 0.42,-0.39l2.08,-1c0.21,-0.11 0.41,-0.22 0.61,-0.35c0.17,-0.09 0.31,-0.22 0.42,-0.37c0.11,-0.16 0.18,-0.34 0.2,-0.53c0.11,-0.82 0.24,-1.64 0.35,-2.47c0.04,-0.23 0.02,-0.47 -0.07,-0.7c-0.08,-0.22 -0.23,-0.41 -0.42,-0.56l-1.71,-1.55l-0.07,0c-0.71,-0.71 -0.78,-1.04 -0.3,-1.9c0.49,-0.86 1.16,-1.9 1.75,-2.77c0.06,-0.13 0.14,-0.24 0.25,-0.33c0.1,-0.09 0.22,-0.16 0.35,-0.2c0.13,-0.04 0.26,-0.06 0.4,-0.05c0.13,0.01 0.27,0.04 0.39,0.11c0.72,0.23 1.38,0.48 2.12,0.76c0.32,0.15 0.67,0.21 1.03,0.16c0.35,-0.05 0.67,-0.2 0.94,-0.44c0.62,-0.5 1.26,-0.97 1.9,-1.47c0.13,-0.09 0.24,-0.22 0.32,-0.37c0.07,-0.15 0.1,-0.32 0.09,-0.49c0,-0.79 -0.07,-1.56 -0.09,-2.35c-0.09,-0.52 0.01,-1.05 0.29,-1.5l0.16,-0.32zm10.91,23.38c0.82,-0.57 1.52,-1.3 2.06,-2.14c0.54,-0.84 0.91,-1.79 1.08,-2.77c0.17,-0.99 0.14,-2 -0.08,-2.98c-0.22,-0.97 -0.64,-1.89 -1.21,-2.71c-1.19,-1.59 -2.94,-2.67 -4.9,-3c-1.96,-0.33 -3.97,0.11 -5.61,1.23c-1.63,1.15 -2.74,2.89 -3.1,4.86c-0.35,1.96 0.09,3.98 1.21,5.63c0.56,0.82 1.28,1.53 2.12,2.07c0.84,0.55 1.78,0.92 2.76,1.09c0.98,0.18 1.99,0.16 2.96,-0.06c0.98,-0.22 1.9,-0.63 2.71,-1.22z" fill="#2FE784" id="svg_92"/>
  <path d="m334.27,195.59l1.22,-0.35c0.2,0 0.43,-0.11 0.64,-0.16c0.13,-0.04 0.26,-0.02 0.39,0.03c0.12,0.06 0.22,0.15 0.28,0.27c0.16,0.28 0.3,0.59 0.43,0.88c0.07,0.16 0.15,0.32 0.24,0.47c0.07,0.1 0.18,0.18 0.3,0.22c0.5,0.11 1.02,0.19 1.52,0.26c0.09,0.01 0.18,0 0.26,-0.04c0.09,-0.04 0.16,-0.09 0.22,-0.17l0.82,-0.87c0.1,-0.12 0.21,-0.22 0.35,-0.3c0.05,-0.03 0.1,-0.04 0.16,-0.04c0.06,0 0.12,0.01 0.17,0.04c0.66,0.26 1.28,0.63 1.83,1.08c0.08,0.06 0.15,0.15 0.17,0.25c0.03,0.11 0.02,0.22 -0.02,0.32c-0.14,0.38 -0.26,0.79 -0.4,1.17c-0.07,0.14 -0.09,0.29 -0.07,0.44c0.02,0.15 0.08,0.29 0.18,0.41c0.28,0.33 0.53,0.68 0.79,1.03c0.05,0.06 0.11,0.1 0.19,0.13c0.07,0.03 0.15,0.05 0.23,0.05l0.81,0l0.7,0c0.11,-0.01 0.23,0.02 0.32,0.09c0.09,0.07 0.16,0.17 0.19,0.28c0.17,0.6 0.33,1.21 0.48,1.82c0.03,0.11 0.02,0.23 -0.03,0.34c-0.06,0.11 -0.15,0.19 -0.26,0.24c-0.27,0.16 -0.59,0.29 -0.88,0.43l-0.42,0.22c-0.09,0.05 -0.16,0.12 -0.22,0.2c-0.06,0.08 -0.1,0.17 -0.11,0.27c-0.07,0.43 -0.13,0.85 -0.2,1.28c-0.03,0.12 -0.02,0.25 0.02,0.37c0.04,0.12 0.12,0.23 0.22,0.31l0.96,0.87c0.05,0.04 0.11,0.1 0.14,0.16c0.04,0.06 0.07,0.13 0.08,0.2c0.01,0.07 0.01,0.15 -0.01,0.22c-0.02,0.07 -0.05,0.14 -0.09,0.2c-0.26,0.48 -0.56,0.97 -0.85,1.38c-0.03,0.07 -0.08,0.14 -0.14,0.2c-0.06,0.05 -0.12,0.1 -0.2,0.13c-0.08,0.02 -0.16,0.04 -0.24,0.03c-0.08,0 -0.16,-0.02 -0.23,-0.05l-0.79,-0.28c-0.19,-0.07 -0.38,-0.13 -0.57,-0.17c-0.08,-0.03 -0.17,-0.03 -0.25,-0.02c-0.08,0.02 -0.16,0.05 -0.22,0.1l-1.07,0.8c-0.1,0.07 -0.18,0.16 -0.23,0.28c-0.05,0.11 -0.07,0.23 -0.06,0.35c0,0.28 0,0.56 0.07,0.83c0.07,0.28 0,0.37 0,0.53c0,0.12 -0.04,0.24 -0.12,0.34c-0.07,0.09 -0.18,0.16 -0.3,0.19l-1.65,0.43c-0.08,0 -0.17,0 -0.26,0c-0.1,0 -0.2,-0.02 -0.28,-0.07c-0.08,-0.05 -0.15,-0.12 -0.19,-0.21c-0.17,-0.35 -0.34,-0.71 -0.52,-1.05c0,0 0,0 0,-0.09c-0.05,-0.15 -0.15,-0.29 -0.29,-0.39c-0.14,-0.09 -0.3,-0.15 -0.47,-0.15l-1,-0.15c-0.14,-0.03 -0.3,-0.02 -0.44,0.04c-0.14,0.05 -0.27,0.14 -0.36,0.27c-0.25,0.29 -0.51,0.56 -0.78,0.86c-0.04,0.06 -0.09,0.12 -0.16,0.16c-0.07,0.04 -0.14,0.07 -0.22,0.08c-0.07,0.01 -0.15,0.01 -0.23,-0.01c-0.07,-0.02 -0.14,-0.06 -0.2,-0.11c-0.5,-0.28 -1,-0.58 -1.49,-0.89c-0.12,-0.05 -0.22,-0.16 -0.26,-0.28c-0.05,-0.13 -0.05,-0.27 0,-0.4c0.1,-0.32 0.22,-0.63 0.33,-0.94c0.24,-0.68 0.22,-0.79 -0.22,-1.39l-0.51,-0.66c-0.08,-0.11 -0.19,-0.19 -0.31,-0.25c-0.12,-0.06 -0.25,-0.08 -0.39,-0.07l-0.97,0c-0.17,0.01 -0.34,0.01 -0.51,0c-0.08,-0.01 -0.16,-0.05 -0.22,-0.1c-0.06,-0.05 -0.1,-0.13 -0.13,-0.2c-0.13,-0.59 -0.29,-1.15 -0.44,-1.74c0,-0.08 0,-0.16 0,-0.25c-0.01,-0.09 0.01,-0.19 0.06,-0.28c0.04,-0.08 0.12,-0.15 0.2,-0.19l1.04,-0.51c0.11,-0.05 0.21,-0.1 0.31,-0.17c0.08,-0.04 0.16,-0.11 0.21,-0.19c0.06,-0.08 0.09,-0.17 0.11,-0.26l0.17,-1.22c0.02,-0.12 0.01,-0.25 -0.04,-0.36c-0.04,-0.11 -0.12,-0.21 -0.21,-0.28l-0.85,-0.78c-0.35,-0.34 -0.39,-0.51 -0.14,-0.95c0.25,-0.45 0.57,-0.95 0.87,-1.39c0.03,-0.06 0.08,-0.12 0.13,-0.16c0.05,-0.05 0.11,-0.08 0.17,-0.1c0.07,-0.02 0.13,-0.03 0.2,-0.03c0.07,0.01 0.14,0.02 0.2,0.05c0.34,0.13 0.7,0.24 1.05,0.39c0.16,0.07 0.34,0.1 0.51,0.07c0.18,-0.02 0.34,-0.09 0.47,-0.21l0.95,-0.73c0.07,-0.05 0.12,-0.11 0.16,-0.19c0.03,-0.07 0.05,-0.16 0.05,-0.24l0,-1.19c-0.05,-0.26 0,-0.52 0.13,-0.74l0.02,-0.04zm5.44,11.69c0.42,-0.29 0.77,-0.65 1.04,-1.08c0.26,-0.42 0.45,-0.89 0.53,-1.39c0.09,-0.49 0.08,-0.99 -0.03,-1.48c-0.11,-0.49 -0.32,-0.95 -0.61,-1.36c-0.59,-0.8 -1.47,-1.33 -2.45,-1.49c-0.98,-0.17 -1.98,0.05 -2.8,0.61c-0.82,0.58 -1.37,1.45 -1.55,2.43c-0.17,0.98 0.04,1.99 0.61,2.81c0.28,0.42 0.64,0.77 1.06,1.04c0.42,0.27 0.88,0.45 1.37,0.54c0.49,0.09 1,0.08 1.48,-0.03c0.49,-0.11 0.95,-0.32 1.35,-0.6z" fill="#2FE784" id="svg_93"/>
  <path d="m327.91,188.38c-0.17,0 -0.33,-0.06 -0.45,-0.16l-13.4,-11.19c-0.14,-0.12 -0.23,-0.28 -0.25,-0.47c-0.02,-0.18 0.04,-0.36 0.15,-0.5c0.12,-0.14 0.29,-0.23 0.47,-0.24c0.19,-0.02 0.37,0.03 0.51,0.14l13.41,11.2c0.07,0.06 0.13,0.13 0.17,0.21c0.04,0.08 0.07,0.17 0.08,0.26c0,0.09 -0.01,0.18 -0.04,0.27c-0.02,0.09 -0.07,0.16 -0.13,0.23c-0.06,0.08 -0.14,0.15 -0.23,0.19c-0.09,0.04 -0.19,0.06 -0.29,0.06z" fill="white" fill-opacity="0.6" id="svg_94"/>
  <path d="m319.95,190.37c-0.16,-0.01 -0.32,-0.07 -0.44,-0.17l-9.46,-7.89c-0.14,-0.12 -0.23,-0.28 -0.24,-0.47c-0.02,-0.18 0.03,-0.36 0.15,-0.5c0.12,-0.15 0.29,-0.24 0.47,-0.25c0.19,-0.02 0.37,0.04 0.51,0.15l9.45,7.91c0.07,0.05 0.13,0.12 0.18,0.2c0.04,0.08 0.07,0.17 0.08,0.26c0.01,0.09 0,0.18 -0.03,0.27c-0.03,0.09 -0.07,0.17 -0.13,0.24c-0.07,0.07 -0.15,0.14 -0.24,0.18c-0.1,0.04 -0.2,0.07 -0.3,0.07z" fill="white" fill-opacity="0.6" id="svg_95"/>
  <path d="m153.29,253.67l-58.24,12.48l8.28,38.63l58.24,-12.48l-8.28,-38.63z" fill="black" id="svg_96"/>
  <path d="m103.98,303.71c-0.16,0 -0.32,-0.06 -0.44,-0.16c-0.13,-0.1 -0.21,-0.24 -0.24,-0.4l-8.43,-38.5c-0.02,-0.09 -0.02,-0.18 -0.01,-0.27c0.02,-0.09 0.06,-0.17 0.11,-0.25c0.04,-0.07 0.1,-0.14 0.18,-0.19c0.07,-0.06 0.16,-0.09 0.25,-0.11l58.05,-12.7c0.09,-0.02 0.18,-0.02 0.27,0c0.09,0.01 0.18,0.04 0.25,0.09c0.08,0.05 0.15,0.12 0.2,0.19c0.05,0.08 0.09,0.16 0.11,0.25l8.41,38.51c0.02,0.08 0.03,0.17 0.01,0.26c-0.01,0.09 -0.04,0.17 -0.09,0.25c-0.05,0.08 -0.11,0.14 -0.19,0.2c-0.08,0.05 -0.16,0.09 -0.25,0.1l-58.04,12.71l-0.15,0.02zm-7.6,-38.67l8.12,37.14l56.69,-12.4l-8.12,-37.15l-56.69,12.41z" fill="white" id="svg_97"/>
  <path d="m140.5,288.18c-0.16,0 -0.31,-0.05 -0.43,-0.15c-0.13,-0.1 -0.21,-0.23 -0.25,-0.39l-4.66,-21.34c-0.02,-0.09 -0.02,-0.18 -0.01,-0.27c0.02,-0.09 0.05,-0.18 0.1,-0.26c0.1,-0.15 0.26,-0.26 0.44,-0.3l6.09,-1.39c0.08,-0.02 0.18,-0.02 0.26,-0.01c0.09,0.02 0.18,0.05 0.26,0.1c0.07,0.05 0.14,0.11 0.19,0.19c0.05,0.07 0.08,0.16 0.1,0.25l4.67,21.34c0.04,0.18 0.01,0.37 -0.09,0.53c-0.1,0.15 -0.25,0.26 -0.43,0.3l-6.09,1.39l-0.15,0.01zm-3.84,-21.51l4.37,19.99l4.74,-1.03l-4.37,-19.98l-4.74,1.02z" fill="white" fill-opacity="0.6" id="svg_98"/>
  <path d="m130.52,290.38c-0.16,0 -0.31,-0.06 -0.44,-0.16c-0.12,-0.1 -0.21,-0.24 -0.24,-0.4l-3.48,-15.93c-0.02,-0.08 -0.02,-0.18 0,-0.27c0.01,-0.08 0.04,-0.17 0.09,-0.25c0.05,-0.07 0.12,-0.14 0.19,-0.19c0.08,-0.05 0.16,-0.09 0.25,-0.1l6.08,-1.39c0.18,-0.04 0.37,-0.01 0.53,0.08c0.08,0.05 0.14,0.12 0.19,0.19c0.05,0.08 0.09,0.17 0.1,0.26l3.45,15.98c0.04,0.18 0.01,0.37 -0.09,0.53c-0.05,0.07 -0.11,0.14 -0.19,0.19c-0.07,0.05 -0.15,0.08 -0.24,0.1l-6.09,1.38l-0.11,-0.02zm-2.66,-16.1l3.19,14.57l4.72,-1.04l-3.18,-14.57l-4.73,1.04z" fill="white" fill-opacity="0.6" id="svg_99"/>
  <path d="m120.61,292.55c-0.16,0 -0.31,-0.05 -0.43,-0.15c-0.13,-0.1 -0.21,-0.24 -0.25,-0.39l-1.9,-8.68c-0.02,-0.09 -0.02,-0.18 -0.01,-0.27c0.02,-0.09 0.05,-0.18 0.1,-0.25c0.05,-0.08 0.11,-0.15 0.19,-0.2c0.07,-0.05 0.16,-0.09 0.25,-0.11l6.08,-1.38c0.19,-0.04 0.37,-0.01 0.53,0.09c0.15,0.1 0.26,0.25 0.3,0.43l1.9,8.68c0.04,0.18 0,0.37 -0.1,0.52c-0.1,0.16 -0.26,0.27 -0.44,0.31l-6.08,1.39l-0.14,0.01zm-1.08,-8.84l1.61,7.33l4.72,-1.04l-1.59,-7.32l-4.74,1.03z" fill="white" fill-opacity="0.6" id="svg_100"/>
  <path d="m114.36,293.91c-0.16,0 -0.32,-0.06 -0.44,-0.16c-0.12,-0.1 -0.21,-0.24 -0.24,-0.39l-5.79,-26.48c-0.03,-0.09 -0.03,-0.18 -0.01,-0.27c0.01,-0.09 0.05,-0.17 0.1,-0.25c0.05,-0.08 0.11,-0.14 0.18,-0.19c0.08,-0.05 0.16,-0.09 0.25,-0.11c0.09,-0.02 0.18,-0.02 0.27,-0.01c0.09,0.02 0.18,0.05 0.26,0.1c0.07,0.05 0.14,0.11 0.19,0.19c0.06,0.08 0.09,0.16 0.11,0.25l5.65,25.79l37.98,-8.31c0.08,-0.02 0.17,-0.02 0.26,-0.01c0.09,0.02 0.18,0.05 0.25,0.1c0.08,0.05 0.15,0.11 0.2,0.19c0.05,0.07 0.08,0.16 0.1,0.24c0.02,0.09 0.03,0.19 0.01,0.28c-0.01,0.09 -0.05,0.17 -0.1,0.25c-0.05,0.08 -0.11,0.14 -0.18,0.2c-0.08,0.05 -0.16,0.09 -0.25,0.11l-38.65,8.45l-0.15,0.03z" fill="white" fill-opacity="0.6" id="svg_101"/>
  <path d="m253.48,192.75c6.66,0 12.05,-5.39 12.05,-12.05c0,-6.65 -5.39,-12.04 -12.05,-12.04c-6.65,0 -12.04,5.39 -12.04,12.04c0,6.66 5.39,12.05 12.04,12.05z" fill="black" id="svg_102"/>
  <path d="m253.48,193.44c-2.51,0 -4.98,-0.75 -7.07,-2.14c-2.1,-1.4 -3.73,-3.39 -4.69,-5.72c-0.97,-2.33 -1.22,-4.89 -0.73,-7.36c0.49,-2.47 1.7,-4.74 3.49,-6.52c1.78,-1.79 4.05,-3 6.52,-3.49c2.47,-0.49 5.03,-0.24 7.36,0.73c2.33,0.96 4.32,2.59 5.72,4.69c1.4,2.09 2.14,4.55 2.14,7.07c0,3.38 -1.34,6.62 -3.73,9.01c-2.39,2.39 -5.63,3.73 -9.01,3.73zm0,-24.07c-2.24,0 -4.44,0.66 -6.3,1.91c-1.87,1.25 -3.33,3.02 -4.19,5.1c-0.85,2.07 -1.08,4.36 -0.64,6.56c0.44,2.2 1.52,4.22 3.11,5.81c1.59,1.59 3.61,2.67 5.82,3.1c2.2,0.44 4.48,0.21 6.56,-0.65c2.07,-0.86 3.84,-2.32 5.09,-4.19c1.25,-1.86 1.91,-4.06 1.91,-6.31c-0.01,-3.01 -1.21,-5.89 -3.33,-8.01c-2.13,-2.13 -5.02,-3.32 -8.03,-3.32z" fill="white" id="svg_103"/>
  <path d="m253.48,189.51c-1.74,0 -3.44,-0.52 -4.89,-1.49c-1.44,-0.96 -2.57,-2.34 -3.24,-3.95c-0.66,-1.61 -0.84,-3.38 -0.5,-5.08c0.34,-1.71 1.18,-3.28 2.41,-4.51c1.23,-1.23 2.8,-2.07 4.51,-2.41c1.7,-0.34 3.47,-0.16 5.08,0.5c1.61,0.67 2.98,1.8 3.95,3.24c0.97,1.45 1.49,3.15 1.49,4.89c0,2.34 -0.93,4.58 -2.58,6.23c-1.65,1.65 -3.89,2.58 -6.23,2.58zm0,-16.32c-1.48,0 -2.93,0.44 -4.17,1.27c-1.24,0.82 -2.2,2 -2.77,3.37c-0.57,1.37 -0.71,2.88 -0.42,4.34c0.29,1.46 1,2.8 2.05,3.85c1.05,1.05 2.39,1.76 3.85,2.05c1.46,0.29 2.97,0.14 4.34,-0.42c1.37,-0.57 2.54,-1.54 3.37,-2.77c0.83,-1.24 1.27,-2.69 1.27,-4.18c0,-1.99 -0.8,-3.9 -2.2,-5.31c-1.41,-1.41 -3.32,-2.2 -5.32,-2.2z" fill="white" fill-opacity="0.6" id="svg_104"/>
  <path d="m253.48,185.65c-0.98,0 -1.93,-0.29 -2.74,-0.83c-0.82,-0.54 -1.45,-1.32 -1.83,-2.22c-0.37,-0.91 -0.47,-1.9 -0.28,-2.86c0.19,-0.96 0.66,-1.84 1.36,-2.53c0.69,-0.7 1.57,-1.17 2.53,-1.36c0.96,-0.19 1.95,-0.09 2.86,0.28c0.9,0.38 1.68,1.01 2.22,1.83c0.54,0.81 0.83,1.76 0.83,2.74c0,1.32 -0.52,2.58 -1.45,3.5c-0.92,0.93 -2.18,1.45 -3.5,1.45zm0,-8.62c-0.72,0 -1.43,0.22 -2.04,0.62c-0.6,0.4 -1.07,0.98 -1.35,1.65c-0.28,0.67 -0.35,1.41 -0.21,2.12c0.14,0.71 0.49,1.37 1.01,1.88c0.51,0.51 1.17,0.86 1.88,1.01c0.71,0.14 1.45,0.07 2.12,-0.21c0.67,-0.28 1.24,-0.75 1.65,-1.35c0.4,-0.61 0.62,-1.32 0.62,-2.05c0,-0.97 -0.39,-1.91 -1.08,-2.59c-0.69,-0.69 -1.62,-1.08 -2.6,-1.08z" fill="white" fill-opacity="0.6" id="svg_105"/>
  <path d="m193.78,13.2l-0.13,0l-27.06,-5.15c-0.18,-0.04 -0.34,-0.15 -0.45,-0.3c-0.1,-0.15 -0.14,-0.34 -0.11,-0.52c0.02,-0.09 0.05,-0.18 0.1,-0.25c0.05,-0.08 0.12,-0.15 0.2,-0.2c0.07,-0.05 0.16,-0.09 0.25,-0.1c0.09,-0.02 0.18,-0.02 0.27,-0.01l27.06,5.18c0.18,0.03 0.34,0.14 0.44,0.29c0.11,0.15 0.15,0.34 0.11,0.52c-0.03,0.16 -0.12,0.29 -0.24,0.39c-0.13,0.1 -0.28,0.15 -0.44,0.15z" fill="white" fill-opacity="0.6" id="svg_106"/>
  <path d="m63.42,140.23c2.25,0 4.07,-1.83 4.07,-4.08c0,-2.25 -1.82,-4.07 -4.07,-4.07c-2.25,0 -4.08,1.82 -4.08,4.07c0,2.25 1.83,4.08 4.08,4.08z" fill="white" fill-opacity="0.6" id="svg_108"/>
 </g>
</svg>