<svg id="eF5q3liCVy41" xmlns="http://www.w3.org/2000/svg" xmlns:xlink="http://www.w3.org/1999/xlink" viewBox="0 0 200 200" shape-rendering="geometricPrecision" text-rendering="geometricPrecision"><path d="M10.8533,70.7461h-.202c-.5118-.0579-.98001-.3154-1.30293-.7166L1.07476,59.9317c-.167134-.1997-.292645-.4309-.369157-.6799s-.102481-.5107-.076383-.7699.103739-.5105.228357-.7392.293703-.4303.497313-.5927L20.9966,41.0914c.1998-.1672.4309-.2927.6799-.3692s.5108-.1025.7699-.0764.5105.1038.7393.2284.4302.2937.5926.4973l8.2476,10.0912c.1671.1998.2926.431.3692.6799s.1024.5108.0763.7699-.1037.5105-.2283.7393c-.1246.2287-.2937.4302-.4973.5926L12.1041,70.2966c-.3516.2913-.7942.4504-1.2508.4495ZM22.2474,41.2998c-.3051.0008-.601.1041-.8404.2932L1.76531,57.6516c-.13236.1107-.24141.2467-.32081.3999s-.12758.3206-.14173.4926c-.03262.3514.07248.7018.29316.9772L9.84349,69.606c.10897.136.24411.2487.39741.3315s.3217.134.4951.1506c.3494.033.6979-.0723.9707-.2932L31.3353,53.7363c.1372-.1082.2512-.2429.3353-.3961s.1365-.3216.1541-.4954.0001-.3495-.0515-.5164-.1363-.3217-.2489-.4553L23.2767,41.8015c-.122-.1565-.2782-.2831-.4566-.37s-.3743-.132-.5727-.1317Z" fill="#fff" fill-opacity="0.6"/><path d="M0.977032,58.7396c-.08639,0-.169242-.0343-.230328-.0954s-.095405-.144-.095405-.2304c-.004481-.0424-.000398-.0853.012008-.1262s.032883-.0788.060218-.1116.060972-.0598.098921-.0794.079439-.0313.122013-.0345L17.3158,56.6419l4.6515-15.759c.0112-.0415.0306-.0804.0572-.1142.0266-.0339.0598-.062.0975-.0826.0377-.0207.0792-.0336.1221-.0378s.086.0002.1271.0131c.0817.0256.1501.0823.1903.1579.0403.0755.0491.1639.0246.246l-4.7035,15.974c-.0171.063-.0531.1193-.1032.1613-.0501.0419-.1119.0675-.177.0732L1.0096,58.7396h-.032568Z" fill="#fff" fill-opacity="0.6"/><path d="M18.2409,54.935c-.0864,0-.1692-.0343-.2303-.0954s-.0954-.1439-.0954-.2303.0343-.1693.0954-.2303.1439-.0954.2303-.0954l13.8502-1.5831c.0851-.0075.1698.0181.2365.0715.0668.0534.1104.1304.1218.2151.0054.0429.0023.0863-.0092.128s-.0312.0805-.0578.1144-.0599.0623-.0976.0833-.0792.0343-.1221.0392L18.2995,54.935h-.0586Z" fill="#fff" fill-opacity="0.6"/><path d="M10.8337,70.7461c-.0323.0061-.0654.0061-.0977,0-.0411-.0126-.0793-.0333-.1122-.0609s-.06-.0616-.0794-.1-.031-.0802-.0339-.123.0029-.086.017-.1266l4.3062-13.2573c.0133-.0428.0349-.0825.0635-.117.0286-.0344.0637-.0629.1033-.0837.0397-.0209.083-.0338.1276-.0379s.0896.0006.1323.0138c.0428.0133.0826.0349.117.0635s.0629.0637.0838.1034c.0209.0396.0337.0829.0378.1275s-.0005.0896-.0138.1324L11.179,70.5376c-.0267.0678-.075.1249-.1374.1626s-.1354.0538-.2079.0459Z" fill="#fff" fill-opacity="0.6"/><path d="M193.674,124.251c-.224-.002-.446-.048-.651-.137l-18.71-8.117c-.201-.085-.383-.208-.535-.364-.152-.155-.271-.339-.351-.542-.167-.407-.167-.863,0-1.27l4.162-9.609c.176-.401.504-.717.911-.878.408-.161.863-.155,1.265.018l18.717,8.111c.199.086.379.212.53.368.151.157.27.341.349.544.084.2.127.415.127.632s-.043.431-.127.632l-4.169,9.596c-.085.199-.209.379-.365.53-.155.151-.339.27-.541.349-.193.084-.401.13-.612.137Zm-14.521-20.384c-.196,0-.387.058-.55.165-.163.108-.291.261-.369.44l-4.195,9.642c-.103.242-.105.515-.008.759.098.244.288.439.529.544l18.717,8.117c.246.101.522.101.768,0c.123-.047.234-.119.328-.211s.169-.202.22-.323l4.169-9.615c.101-.245.101-.519,0-.763-.047-.124-.118-.237-.21-.332s-.202-.17-.324-.221l-18.704-8.118c-.116-.053-.243-.082-.371-.084Z" fill="#fff" fill-opacity="0.6"/><path d="M185.883,115.248c-.055.001-.109-.012-.157-.039-.048-.026-.089-.064-.117-.111l-7.166-11.323c-.023-.036-.038-.076-.045-.119-.007-.042-.006-.085.004-.127s.027-.081.052-.116.057-.064.093-.087.077-.038.119-.045.086-.006.127.004c.042.01.082.027.116.052.035.025.065.057.088.093l7.022,11.134l12.932-2.482c.042-.01.085-.011.128-.003.042.008.082.024.118.048.036.023.067.054.091.09.023.036.04.076.047.119.016.085-.003.173-.052.245-.048.072-.123.122-.208.139l-13.147,2.528h-.045Z" fill="#fff" fill-opacity="0.6"/><path d="M194.052,124.192c-.054,0-.107-.013-.155-.038-.047-.025-.088-.061-.119-.105l-6.241-9.283c-.047-.072-.064-.16-.047-.244s.067-.158.139-.206c.035-.024.075-.041.117-.049.041-.009.085-.009.127,0c.042.008.081.025.117.049.035.024.065.055.088.091l6.241,9.31c.048.073.065.161.048.246-.017.086-.067.161-.139.21-.056.021-.117.028-.176.019Z" fill="#fff" fill-opacity="0.6"/><path d="M173.778,115.417c-.078.001-.154-.026-.213-.076-.06-.05-.1-.12-.112-.198-.007-.042-.005-.085.005-.127.011-.041.029-.08.054-.115.026-.034.058-.064.094-.086.037-.022.078-.037.12-.043l11.075-1.811c.043-.007.087-.005.129.005s.082.028.117.054c.035.025.065.057.087.094.023.037.038.078.045.121.007.042.005.086-.005.128s-.028.082-.054.117c-.025.035-.057.065-.094.088-.037.022-.078.038-.121.045l-11.075,1.811-.052-.007Z" fill="#fff" fill-opacity="0.6"/><path d="M65.1464,41.6581c-.1372-.0003-.2735-.0223-.4039-.0651L50.5861,36.9024c-.3259-.1098-.5952-.3439-.7491-.6514-.1537-.3077-.1794-.6637-.0717-.9903l2.4104-7.2703c.1087-.3255.3414-.5949.6476-.7498.3061-.1549.661-.1828.9876-.0776l14.1563,4.6906c.3258.1099.5949.3442.7486.6517.1538.3075.1797.6634.0723.99l-2.4039,7.2703c-.0863.26-.2524.4862-.4746.6464-.2222.1603-.4892.2464-.7632.2461Zm-.202-.684c.1587.0651.3365.0651.4952,0c.0764-.0385.1445-.0917.2004-.1565.0559-.0649.0985-.1401.1253-.2214l2.4169-7.2638c.0652-.1586.0652-.3365,0-.4951-.0762-.1531-.2096-.2701-.3713-.3258L53.6545,27.821c-.1637-.0529-.3417-.0388-.4951.0391-.1506.0775-.2651.2107-.3192.3713l-2.4104,7.2704c-.0618.1592-.0618.3358,0,.4951.0791.1519.2148.2666.3778.3192l14.1368,4.658Z" fill="#fff" fill-opacity="0.6"/><path d="M58.99,35.6125c-.0504-.0005-.1002-.0125-.1453-.035-.0452-.0226-.0846-.0552-.1153-.0953l-5.9609-7.7785c-.0465-.0686-.0651-.1524-.052-.2343s.0569-.1556.1226-.2063c.0656-.0507.1481-.0744.2306-.0664s.1589.0473.2135.1096l5.8046,7.6026l9.1987-2.6058c.0414-.0119.0849-.0154.1277-.0103.0429.0051.0843.0186.1219.0398s.0706.0497.097.0838c.0265.034.046.073.0573.1147.0219.0829.0103.1711-.0324.2455s-.113.129-.1957.1519l-9.4071,2.6971-.0652-.0131Z" fill="#fff" fill-opacity="0.6"/><path d="M65.5177,41.593c-.0491.0007-.0976-.0101-.1418-.0316-.0441-.0215-.0826-.0531-.1122-.0922l-5.1466-6.3714c-.0544-.0673-.0799-.1536-.0707-.2397s.0522-.1651.1195-.2195.1537-.0799.2398-.0707c.0861.0091.1651.0521.2195.1195l5.1466,6.3779c.0533.0675.0777.1533.0679.2387s-.0529.1636-.12.2173c-.0576.0455-.1286.0707-.202.0717Z" fill="#fff" fill-opacity="0.6"/><path d="M50.1627,36.5116c-.0428.0051-.0862.0018-.1276-.0099s-.0803-.0313-.1142-.0579-.0622-.0596-.0833-.0972-.0346-.0789-.0397-.1217-.0018-.0861.0098-.1276.0313-.0803.0579-.1142c.0267-.0338.0597-.0621.0972-.0832.0376-.0212.0789-.0347.1217-.0398l7.9349-2.0326c.0415-.0107.0847-.0132.1271-.0073.0425.006.0833.0203.1203.0421.0369.0218.0691.0506.0949.0849s.0444.0733.0551.1149c.0107.041.0131.0838.007.1258-.006.0421-.0204.0824-.0422.1188-.0219.0364-.0507.0681-.085.0932-.0342.0251-.0731.0431-.1144.053L50.2474,36.492l-.0847.0196Z" fill="#fff" fill-opacity="0.6"/></svg>
