<svg width="22" height="22" viewBox="0 0 22 22" fill="none" xmlns="http://www.w3.org/2000/svg">
<path d="M17.7083 0.5C19.8024 0.5 21.5 2.19759 21.5 4.29167V17.7083C21.5 19.8024 19.8024 21.5 17.7083 21.5H4.29167C2.19759 21.5 0.5 19.8024 0.5 17.7083V4.29167C0.5 2.19759 2.19759 0.5 4.29167 0.5H17.7083ZM18.3856 19.635L11.6121 13.0006C11.3029 12.6978 10.8251 12.6702 10.4853 12.918L10.3877 13.0006L3.61319 19.6346C3.82547 19.7093 4.05382 19.75 4.29167 19.75H17.7083C17.9457 19.75 18.1737 19.7095 18.3856 19.635L11.6121 13.0006L18.3856 19.635ZM17.7083 2.25H4.29167C3.16409 2.25 2.25 3.16409 2.25 4.29167V17.7083C2.25 17.9515 2.2925 18.1847 2.37047 18.4009L9.16341 11.7502C10.1353 10.7985 11.662 10.7533 12.6867 11.6143L12.8365 11.7503L19.6291 18.4021C19.7073 18.1855 19.75 17.9519 19.75 17.7083V4.29167C19.75 3.16409 18.8359 2.25 17.7083 2.25ZM14.7941 4.58333C16.2452 4.58333 17.4216 5.75969 17.4216 7.2108C17.4216 8.66191 16.2452 9.83827 14.7941 9.83827C13.343 9.83827 12.1667 8.66191 12.1667 7.2108C12.1667 5.75969 13.343 4.58333 14.7941 4.58333ZM14.7941 6.33333C14.3095 6.33333 13.9167 6.72619 13.9167 7.2108C13.9167 7.69541 14.3095 8.08827 14.7941 8.08827C15.2787 8.08827 15.6716 7.69541 15.6716 7.2108C15.6716 6.72619 15.2787 6.33333 14.7941 6.33333Z" fill="#2FE784"/>
</svg>
