<svg width="18" height="20" viewBox="0 0 18 20" fill="none" xmlns="http://www.w3.org/2000/svg">
<path d="M0.833008 1.54169C0.833008 1.05844 1.22476 0.666687 1.70801 0.666687H16.2913C16.7746 0.666687 17.1663 1.05844 17.1663 1.54169V3.87502C17.1663 4.35827 16.7746 4.75002 16.2913 4.75002C15.8081 4.75002 15.4163 4.35827 15.4163 3.87502V2.41669H9.87467L9.87467 17.5834H11.6247C12.1079 17.5834 12.4997 17.9751 12.4997 18.4584C12.4997 18.9416 12.1079 19.3334 11.6247 19.3334H6.37467C5.89143 19.3334 5.49967 18.9416 5.49967 18.4584C5.49967 17.9751 5.89143 17.5834 6.37467 17.5834H8.12467L8.12467 2.41669H2.58301V3.87502C2.58301 4.35827 2.19126 4.75002 1.70801 4.75002C1.22476 4.75002 0.833008 4.35827 0.833008 3.87502V1.54169Z" fill="#2FE784"/>
</svg>
