<svg width="28" height="28" viewBox="0 0 28 28" fill="none" xmlns="http://www.w3.org/2000/svg">
<path d="M6.70801 2.33331C6.22476 2.33331 5.83301 2.72506 5.83301 3.20831V16.6256C5.83301 18.0753 7.00826 19.2506 8.45801 19.2506H11.0827V22.75C11.0827 24.3608 12.3886 25.6666 13.9994 25.6666C15.6102 25.6666 16.9161 24.3608 16.9161 22.75V19.2506H19.5413C20.9911 19.2506 22.1663 18.0753 22.1663 16.6256V3.20831C22.1663 2.72506 21.7746 2.33331 21.2913 2.33331H6.70801ZM7.58301 12.8337V4.08331H14.5827V6.12678C14.5827 6.61003 14.9745 7.00178 15.4577 7.00178C15.941 7.00178 16.3327 6.61003 16.3327 6.12678V4.08331H17.4994V7.29296C17.4994 7.77621 17.8911 8.16796 18.3744 8.16796C18.8576 8.16796 19.2494 7.77621 19.2494 7.29296V4.08331H20.4163V12.8337H7.58301ZM7.58301 16.6256V14.5837H20.4163V16.6256C20.4163 17.1089 20.0246 17.5006 19.5413 17.5006H16.0411C15.5578 17.5006 15.1661 17.8924 15.1661 18.3756V22.75C15.1661 23.3943 14.6437 23.9166 13.9994 23.9166C13.3551 23.9166 12.8327 23.3943 12.8327 22.75V18.3756C12.8327 17.8924 12.441 17.5006 11.9577 17.5006H8.45801C7.97476 17.5006 7.58301 17.1089 7.58301 16.6256Z" fill="#2FE784"/>
</svg>
